<svg id="information-svgrepo-com_2_" data-name="information-svgrepo-com (2)" xmlns="http://www.w3.org/2000/svg" width="13.232" height="13.232" viewBox="0 0 13.232 13.232">
  <path id="Path_4828" data-name="Path 4828" d="M6.616,0a6.616,6.616,0,1,0,6.616,6.616A6.624,6.624,0,0,0,6.616,0Zm0,12.386a5.77,5.77,0,1,1,5.77-5.77A5.777,5.777,0,0,1,6.616,12.386Z" fill="#acacac"/>
  <path id="Path_4829" data-name="Path 4829" d="M107.331,114.158l-.791.463v-3.375a.423.423,0,0,0-.618-.376l-1.127.585a.423.423,0,1,0,.39.751l.509-.264v3.417a.423.423,0,0,0,.637.365l1.428-.836a.423.423,0,0,0-.427-.73Z" transform="translate(-99.651 -105.614)" fill="#acacac"/>
  <circle id="Ellipse_2215" data-name="Ellipse 2215" cx="0.585" cy="0.585" r="0.585" transform="translate(5.881 3.487)" fill="#acacac"/>
</svg>
