<svg xmlns="http://www.w3.org/2000/svg" width="9.647" height="15.997" viewBox="0 0 9.647 15.997">
  <g id="location-svgrepo-com" transform="translate(0)">
    <path id="Path_4813" data-name="Path 4813" d="M59.467,0a4.753,4.753,0,0,0-4.824,4.669,4.5,4.5,0,0,0,.467,2.006l.02.04,3.644,6.83a.791.791,0,0,0,1.385,0L63.8,6.716l.018-.036a4.5,4.5,0,0,0,.47-2.012A4.753,4.753,0,0,0,59.467,0Zm0,7.112a2.488,2.488,0,0,1-2.525-2.444,2.526,2.526,0,0,1,5.05,0A2.488,2.488,0,0,1,59.467,7.112Z" transform="translate(-54.643)" fill="#85dae9"/>
    <path id="Path_4814" data-name="Path 4814" d="M98.892,249.018H95.176a.468.468,0,1,0,0,.935h3.716a.468.468,0,1,0,0-.935Z" transform="translate(-92.211 -233.956)" fill="#85dae9"/>
  </g>
</svg>
