<svg id="Group_11571" data-name="Group 11571" xmlns="http://www.w3.org/2000/svg" width="33.581" height="18.083" viewBox="0 0 33.581 18.083">
  <path id="Path_23157" data-name="Path 23157" d="M168,169.631h6.975v-6.006A10.628,10.628,0,0,0,168,169.631Z" transform="translate(-164.642 -163.173)" fill="#fff"/>
  <path id="Path_23158" data-name="Path 23158" d="M188.917,335.083a2.583,2.583,0,1,1-2.583-2.583,2.583,2.583,0,0,1,2.583,2.583" transform="translate(-179.23 -319.583)" fill="#fff"/>
  <path id="Path_23159" data-name="Path 23159" d="M301.893,267.667h-2.067l-.065-.581a4.729,4.729,0,0,0-.517-1.615,2.533,2.533,0,0,1-1.163.258,2.591,2.591,0,0,1-2.583-2.583,1.261,1.261,0,0,1,.065-.452,7.04,7.04,0,0,0-1.679-.194H280v6.458h10.527a3.882,3.882,0,0,1,4.973-2.325,3.775,3.775,0,0,1,2.325,2.325h4.133v-1.292Zm-18.665-3.229h-1.292a.646.646,0,0,1,0-1.292h1.292a.646.646,0,0,1,0,1.292Z" transform="translate(-268.376 -254.75)" fill="#fff"/>
  <path id="Path_23160" data-name="Path 23160" d="M510.083,255.042a1.292,1.292,0,1,1-1.292-1.292,1.292,1.292,0,0,1,1.292,1.292" transform="translate(-479.084 -246.646)" fill="#fff"/>
  <path id="Path_23161" data-name="Path 23161" d="M282.136,157.5a11.891,11.891,0,0,0-2.131.194v6.264H292.47c-1.55-3.875-5.683-6.458-10.333-6.458Z" transform="translate(-268.381 -157.5)" fill="#fff"/>
  <path id="Path_23162" data-name="Path 23162" d="M442.667,335.083a2.583,2.583,0,1,1-2.583-2.583,2.584,2.584,0,0,1,2.583,2.583" transform="translate(-414.251 -319.583)" fill="#fff"/>
  <path id="Path_23163" data-name="Path 23163" d="M125.411,262.828l-.065.258-.194.129a3.128,3.128,0,0,0-1.356,2.519v1.937h-1.292v1.292h3.423a3.915,3.915,0,0,1,4.973-2.39,4.037,4.037,0,0,1,1.937,1.485v-5.554h-7.362A2.8,2.8,0,0,1,125.411,262.828Z" transform="translate(-122.505 -254.755)" fill="#fff"/>
</svg>
