<svg xmlns="http://www.w3.org/2000/svg" width="14.307" height="14.444" viewBox="0 0 14.307 14.444">
  <g id="Bell" transform="translate(0 0)">
    <path id="Path_4833" data-name="Path 4833" d="M45.9,8.659a.235.235,0,0,0,0,.47,1.5,1.5,0,0,1,1.5,1.5.235.235,0,0,0,.47,0A1.972,1.972,0,0,0,45.9,8.659Z" transform="translate(-35.301 -6.924)" fill="#979797"/>
    <path id="Path_4834" data-name="Path 4834" d="M8.952,10.629a.235.235,0,0,0,.47,0,1.5,1.5,0,0,1,1.5-1.5.235.235,0,0,0,0-.47A1.972,1.972,0,0,0,8.952,10.629Z" transform="translate(-7.216 -6.924)" fill="#979797"/>
    <path id="Path_4835" data-name="Path 4835" d="M47.378,1.278a.235.235,0,1,0,0,.47,2.891,2.891,0,0,1,2.888,2.888.235.235,0,0,0,.47,0A3.362,3.362,0,0,0,47.378,1.278Z" transform="translate(-36.429 -1.278)" fill="#979797"/>
    <path id="Path_4836" data-name="Path 4836" d="M5.164,1.513a.235.235,0,0,0-.235-.235A3.362,3.362,0,0,0,1.571,4.636a.235.235,0,0,0,.47,0A2.891,2.891,0,0,1,4.929,1.748.235.235,0,0,0,5.164,1.513Z" transform="translate(-1.57 -1.278)" fill="#979797"/>
    <path id="Path_4837" data-name="Path 4837" d="M18.91,16a.5.5,0,0,0-.156-.222c.006-.143.009-.287.009-.433,0-3.2-1.326-5.913-3.158-6.843a1.438,1.438,0,1,0-2.789,0c-1.832.93-3.158,3.642-3.158,6.843,0,.145,0,.29.009.433A.5.5,0,0,0,9.512,16L8.831,18.04a.509.509,0,0,0,.483.671h3.32a1.645,1.645,0,0,0,3.153,0h3.32a.509.509,0,0,0,.483-.671ZM13.034,8.932l.34-.172-.091-.37a.958.958,0,1,1,1.858,0l-.091.37.34.172c1.705.865,2.9,3.5,2.9,6.416q0,.148,0,.3H10.142q0-.151,0-.3C10.138,12.436,11.329,9.8,13.034,8.932Zm1.177,10.485a1.177,1.177,0,0,1-1.077-.705h2.155A1.177,1.177,0,0,1,14.211,19.416Zm4.929-1.192a.036.036,0,0,1-.032.016H9.314a.039.039,0,0,1-.037-.052l.681-2.037A.039.039,0,0,1,10,16.125h8.432a.039.039,0,0,1,.037.027l.681,2.037A.036.036,0,0,1,19.14,18.225Z" transform="translate(-7.103 -5.442)" fill="#979797"/>
  </g>
</svg>
