<svg xmlns="http://www.w3.org/2000/svg" width="10.54" height="10.579" viewBox="0 0 10.54 10.579">
  <path id="Path_23302" data-name="Path 23302" d="M104.536,35.388a.734.734,0,0,1-.4-.129A8.249,8.249,0,0,1,101.23,32.4a.944.944,0,0,1-.2-.671c.082-.447.647-.624.812-1.047a1.169,1.169,0,0,0-.282-1.094,5.039,5.039,0,0,0-1.447-1.33,2.017,2.017,0,0,0-.883-.329c-1.424-.071-1.506,2.306-1.318,3.236a7.4,7.4,0,0,0,1.247,2.671,11.213,11.213,0,0,0,5.366,4.342,4.357,4.357,0,0,0,2.412.247A2.045,2.045,0,0,0,108,37.847a1.32,1.32,0,0,0,.365-1.118,2.078,2.078,0,0,0-.635-1.036,8.4,8.4,0,0,0-1.365-1.13.728.728,0,0,0-.294-.129.577.577,0,0,0-.329.106,4.011,4.011,0,0,0-.8.588.727.727,0,0,1-.365.235c-.012.012-.024.024-.035.024Z" transform="translate(-97.837 -27.926)" fill="#4cc171"/>
</svg>
