<svg xmlns="http://www.w3.org/2000/svg" width="21.687" height="21.687" viewBox="0 0 21.687 21.687">
  <path id="Path_23155" data-name="Path 23155" d="M152.5,67.322a.434.434,0,0,0,.434-.434v-5.2a.434.434,0,0,0-.434-.434h-20.82a.434.434,0,0,0-.434.434V82.5a.434.434,0,0,0,.434.434H152.5a.433.433,0,0,0,.434-.434v-3.47a.433.433,0,0,0-.434-.434h-3.754l2.342-7.807h.978v3.9a.434.434,0,0,0,.867,0V70.359a.434.434,0,0,0-.434-.434H140.359a.434.434,0,0,0-.425.519l.59,2.951h2.438a.434.434,0,1,1,0,.867H140.7L141.044,76h1.917a.434.434,0,1,1,0,.867h-1.744l.347,1.735h-4.242V67.322Zm-4.337-3.47h.867a.434.434,0,0,1,0,.867h-.867a.434.434,0,1,1,0-.867Zm-4.337,0h.867a.434.434,0,1,1,0,.867h-.867a.434.434,0,0,1,0-.867Z" transform="translate(-131.25 -61.25)" fill="#fff"/>
</svg>
