<svg id="Group_11569" data-name="Group 11569" xmlns="http://www.w3.org/2000/svg" width="26.297" height="23.271" viewBox="0 0 26.297 23.271">
  <path id="Path_23086" data-name="Path 23086" d="M97.625,48.125c-12.232.5-12.228,17.936,0,18.441a9.221,9.221,0,0,0,0-18.441Zm5.054,14.244a.1.1,0,0,1-.031.031,7.167,7.167,0,0,1-10.046,0,.1.1,0,0,1-.031-.031,7.167,7.167,0,0,1,0-10.046.1.1,0,0,1,.031-.031,7.167,7.167,0,0,1,10.046,0,.1.1,0,0,1,.031.031A7.167,7.167,0,0,1,102.679,62.369Z" transform="translate(-88.452 -48.125)" fill="#fff"/>
  <path id="Path_23087" data-name="Path 23087" d="M157.782,113.946a.44.44,0,0,1,.439-.439h1.326a6.2,6.2,0,0,0-1.515-3.653l-.935.935a.441.441,0,0,1-.624-.624l.935-.935a6.2,6.2,0,0,0-3.653-1.515v1.326a.439.439,0,1,1-.878,0v-1.326a6.2,6.2,0,0,0-3.653,1.515l.935.935a.441.441,0,0,1-.624.624l-.935-.935a6.2,6.2,0,0,0-1.515,3.653h1.326a.439.439,0,1,1,0,.878h-1.326a6.2,6.2,0,0,0,1.515,3.653l.935-.935a.441.441,0,0,1,.624.624l-.935.935a6.2,6.2,0,0,0,3.653,1.515V118.85a.439.439,0,0,1,.878,0v1.326a6.2,6.2,0,0,0,3.653-1.515l-.935-.935a.441.441,0,0,1,.624-.624l.935.935a6.2,6.2,0,0,0,1.515-3.653h-1.326A.44.44,0,0,1,157.782,113.946Zm-2.639-4.088-1.357,4.07.992,2.309a.44.44,0,0,1-.808.347l-1.058-2.468a.423.423,0,0,1-.013-.312l1.409-4.224a.44.44,0,0,1,.834.277Z" transform="translate(-144.144 -104.725)" fill="#fff"/>
  <path id="Path_23088" data-name="Path 23088" d="M229.758,249.38h-6.231a.439.439,0,0,0,0,.878h5.792v11.416H210.878v-2.968a.439.439,0,0,0-.878,0v3.407a.439.439,0,0,0,.439.439h19.319a.439.439,0,0,0,.439-.439V249.819A.439.439,0,0,0,229.758,249.38Z" transform="translate(-203.901 -239.281)" fill="#fff"/>
  <path id="Path_23089" data-name="Path 23089" d="M476.612,320.258a.439.439,0,0,0,0-.878H473.1a.439.439,0,0,0,0,.878Z" transform="translate(-453.389 -305.768)" fill="#fff"/>
  <path id="Path_23090" data-name="Path 23090" d="M437.5,363.569a.439.439,0,0,0,.439.439h5.269a.439.439,0,1,0,0-.878h-5.269A.439.439,0,0,0,437.5,363.569Z" transform="translate(-419.985 -347.323)" fill="#fff"/>
</svg>
