<svg xmlns="http://www.w3.org/2000/svg" xmlns:xlink="http://www.w3.org/1999/xlink" width="319.729" height="317.687" viewBox="0 0 319.729 317.687">
  <defs>
    <linearGradient id="linear-gradient" x1="0.122" y1="0.253" x2="0.054" y2="1.508" gradientUnits="objectBoundingBox">
      <stop offset="0" stop-color="#aa80f9"/>
      <stop offset="0.996" stop-color="#6165d7"/>
    </linearGradient>
    <linearGradient id="linear-gradient-2" y1="0.5" x2="1" y2="0.5" gradientUnits="objectBoundingBox">
      <stop offset="0.004" stop-color="#ebeff2"/>
      <stop offset="1" stop-color="#fff"/>
    </linearGradient>
    <linearGradient id="linear-gradient-3" x1="0.762" y1="1.098" x2="0.885" y2="-0.188" xlink:href="#linear-gradient-2"/>
    <linearGradient id="linear-gradient-4" x1="-3.519" y1="-4.027" x2="12.855" y2="14.058" gradientUnits="objectBoundingBox">
      <stop offset="0" stop-color="#893976"/>
      <stop offset="1" stop-color="#311944"/>
    </linearGradient>
    <linearGradient id="linear-gradient-5" x1="-3.762" y1="-2.584" x2="12.772" y2="9.904" xlink:href="#linear-gradient-4"/>
    <linearGradient id="linear-gradient-6" x1="-2.365" y1="-0.514" x2="-1.271" y2="0.793" gradientUnits="objectBoundingBox">
      <stop offset="0" stop-color="#444b8c"/>
      <stop offset="0.996" stop-color="#26264f"/>
    </linearGradient>
    <linearGradient id="linear-gradient-7" x1="-50.352" y1="1.222" x2="-50.352" y2="-0.193" gradientUnits="objectBoundingBox">
      <stop offset="0" stop-color="#ffc444"/>
      <stop offset="0.996" stop-color="#f36f56"/>
    </linearGradient>
    <linearGradient id="linear-gradient-8" x1="-3.433" y1="-1.298" x2="-2.073" y2="0.479" xlink:href="#linear-gradient-6"/>
    <linearGradient id="linear-gradient-9" x1="0.475" y1="0.516" x2="0.584" y2="1.885" xlink:href="#linear-gradient-4"/>
    <linearGradient id="linear-gradient-10" x1="323.221" y1="118.308" x2="324.344" y2="130.466" xlink:href="#linear-gradient-4"/>
    <linearGradient id="linear-gradient-11" x1="361.086" y1="-122.385" x2="361.086" y2="-132.694" xlink:href="#linear-gradient-7"/>
    <linearGradient id="linear-gradient-12" x1="372.726" y1="-54.489" x2="370.824" y2="-57.346" xlink:href="#linear-gradient-6"/>
    <linearGradient id="linear-gradient-13" x1="0.187" y1="0.997" x2="1.735" y2="-1.518" xlink:href="#linear-gradient-7"/>
    <linearGradient id="linear-gradient-14" x1="123.557" y1="-15.204" x2="122.77" y2="-21.878" xlink:href="#linear-gradient-6"/>
    <linearGradient id="linear-gradient-15" x1="427.55" y1="-14.175" x2="427.55" y2="-23.941" xlink:href="#linear-gradient-7"/>
    <linearGradient id="linear-gradient-16" x1="299.54" y1="-14.419" x2="299.54" y2="-23.83" xlink:href="#linear-gradient-7"/>
    <linearGradient id="linear-gradient-17" x1="165.855" y1="-9.326" x2="164.817" y2="-13.06" xlink:href="#linear-gradient-6"/>
    <linearGradient id="linear-gradient-18" x1="2.045" y1="-5.113" x2="2.5" y2="-3.109" gradientUnits="objectBoundingBox">
      <stop offset="0" stop-color="#ff9085"/>
      <stop offset="1" stop-color="#fb6fbb"/>
    </linearGradient>
    <linearGradient id="linear-gradient-19" x1="92.021" y1="-4.021" x2="91.361" y2="-3.153" xlink:href="#linear-gradient-7"/>
    <linearGradient id="linear-gradient-20" x1="39.2" y1="-2.284" x2="38.665" y2="-1.339" xlink:href="#linear-gradient-6"/>
    <linearGradient id="linear-gradient-21" x1="48.469" y1="-2.529" x2="47.898" y2="-1.359" xlink:href="#linear-gradient-7"/>
    <linearGradient id="linear-gradient-22" x1="133.757" y1="-16.196" x2="134.194" y2="-18.172" xlink:href="#linear-gradient"/>
    <linearGradient id="linear-gradient-23" x1="90.865" y1="-17.093" x2="91.883" y2="-17.093" xlink:href="#linear-gradient-6"/>
    <linearGradient id="linear-gradient-24" x1="91.296" y1="-16.513" x2="92.315" y2="-16.513" xlink:href="#linear-gradient-6"/>
    <linearGradient id="linear-gradient-25" x1="160.919" y1="-24.737" x2="161.94" y2="-24.737" xlink:href="#linear-gradient-6"/>
    <linearGradient id="linear-gradient-26" x1="288.265" y1="-10.105" x2="287.317" y2="-9.174" xlink:href="#linear-gradient-7"/>
  </defs>
  <g id="Illustration" transform="translate(0)">
    <g id="Group_2711" data-name="Group 2711" transform="translate(0 0)">
      <path id="Path_8791" data-name="Path 8791" d="M-4981.714,695.521a122.287,122.287,0,0,1-21.47,17.428c-55.6,37.127-119.165,26.426-138.816,22.769-31.706-5.9-58.469-10.064-81.463-30.839-52.252-47.207-49.71-145.683-9.784-206.685,4.734-7.234,44.6-66.327,108.3-74.653,1.558-.2,2.721-.32,3.738-.427,9.854-1.043,70.918-6.549,120.708,35.166a148.563,148.563,0,0,1,29.234,33.169C-4932.377,551.512-4932.254,644.539-4981.714,695.521Z" transform="translate(5262.975 -422.302)" fill="#f4f7fa"/>
      <g id="Group_2699" data-name="Group 2699" transform="translate(29.434 29.146)">
        <path id="Path_8792" data-name="Path 8792" d="M-4921.1,893.867c13.081-2.095,13.254-68.036,7.377-114.044-4.828-37.785-15.02-72.184-22.623-71.733-5.82.345-7.983,20.985-12.988,20.692-6.707-.393-4.519-37.542-16.932-41.244-7.648-2.281-19.937,8.405-25.632,20.472-10.274,21.77,2.748,44.142,28.163,99.311C-4931.17,878.019-4927.834,894.945-4921.1,893.867Z" transform="translate(4995.426 -687.229)" fill="url(#linear-gradient)"/>
        <path id="Path_8793" data-name="Path 8793" d="M-4921.1,893.867c13.081-2.095,13.254-68.036,7.377-114.044-4.828-37.785-15.02-72.184-22.623-71.733-5.82.345-7.983,20.985-12.988,20.692-6.707-.393-4.519-37.542-16.932-41.244-7.648-2.281-19.937,8.405-25.632,20.472-10.274,21.77,2.748,44.142,28.163,99.311C-4931.17,878.019-4927.834,894.945-4921.1,893.867Z" transform="translate(4995.426 -687.229)" fill="#45ab1f"/>
        <path id="Path_8794" data-name="Path 8794" d="M-4922.432,889.616c1.35-18.08,6.362-27.95.516-42.335-5.107-12.565-11.874-12.275-17.99-26.885-6.927-16.548.066-20.948-6.067-34.072-8.516-18.222-25.254-16.7-32.191-32.8-2.193-5.085-3.565-12.306-1.22-22.549a46.618,46.618,0,0,0-12.525,15.968c-10.274,21.77,2.748,44.142,28.163,99.311,32.567,70.7,35.9,87.624,42.636,86.546a5.064,5.064,0,0,0,2.835-1.623A124.1,124.1,0,0,1-4922.432,889.616Z" transform="translate(4995.435 -726.167)" fill="#4cc171" opacity="0.73"/>
      </g>
      <g id="Group_2705" data-name="Group 2705" transform="translate(1.626 87.17)">
        <path id="Path_8795" data-name="Path 8795" d="M-4765.086,2617.177l-59.374-19.958,85.4-5.7Z" transform="translate(4871.078 -2440.04)" fill="#d8dee8"/>
        <path id="Path_8796" data-name="Path 8796" d="M-4794.065,1244.82l-23.118,148.3c-.439,2.86,1.6,5.443,4.2,5.32l115.7-5.46Z" transform="translate(4864.655 -1241.499)" fill="#fd9f00"/>
        <g id="Group_2700" data-name="Group 2700" transform="translate(0 52.072)">
          <path id="Path_8797" data-name="Path 8797" d="M-5129.064,1802.874a313.271,313.271,0,0,0-44.163-76.586c-29.153-37.029-44.478-38.609-51.268-38.321-9.051.384-20.944,4.851-23.276,12.847-4.365,14.96,26.671,35.661,22.742,41.245-2.033,2.89-10.65-2.218-14.529,1.53-5.305,5.126,3.129,22.1,5.429,26.2C-5216.349,1801.488-5150.374,1802.977-5129.064,1802.874Z" transform="translate(5248.193 -1687.942)" fill="#4cc171"/>
          <path id="Path_8798" data-name="Path 8798" d="M-5159.136,1863.186c-14.223-9.3-18.717-8.533-26.115-16.969-13.645-15.556-7.369-28.416-20.312-38.5-9.228-7.193-15.183-2.812-28.3-10.513a53.637,53.637,0,0,1-13.066-10.859,10.685,10.685,0,0,0-.843,2.046c-4.364,14.96,26.671,35.661,22.743,41.245-2.033,2.89-10.651-2.218-14.53,1.53-5.3,5.126,3.129,22.1,5.43,26.2,17.781,31.695,83.756,33.183,105.064,33.081-.258-.637-.519-1.264-.78-1.9A147.7,147.7,0,0,0-5159.136,1863.186Z" transform="translate(5248.194 -1775.515)" fill="#fff" opacity="0.5"/>
        </g>
        <g id="Group_2704" data-name="Group 2704" transform="translate(70.513)">
          <path id="Path_8799" data-name="Path 8799" d="M-4395.56,1221.046l-207.186-6.408a4.149,4.149,0,0,0-4.416,5.169l33.608,168.789a6.293,6.293,0,0,0,6.431,4.95l202.989-14.668c2.3-.166,3.736-2.4,3.221-4.982l-29.476-148.035A5.96,5.96,0,0,0-4395.56,1221.046Z" transform="translate(4607.265 -1214.635)" fill="url(#linear-gradient-2)"/>
          <path id="Path_8800" data-name="Path 8800" d="M-4385.4,1221.046l-207.186-6.408a4.15,4.15,0,0,0-4.417,5.169L-4563.4,1388.6a6.293,6.293,0,0,0,6.431,4.95l202.988-14.668c2.3-.166,3.736-2.4,3.222-4.982l-29.476-148.035A5.958,5.958,0,0,0-4385.4,1221.046Z" transform="translate(4598.223 -1214.635)" fill="#fb9e03"/>
          <g id="Group_2701" data-name="Group 2701" transform="translate(1.119)" opacity="0.3">
            <path id="Path_8801" data-name="Path 8801" d="M-4439.46,1310.483c-40.779-22.157-79.424-4.933-107.249-33.354-17.133-17.5-20.278-42.28-19.764-61.684l-26.1-.807a4.149,4.149,0,0,0-4.416,5.169l33.607,168.789a6.3,6.3,0,0,0,6.431,4.95l176.125-12.728C-4400.081,1339.032-4421.783,1320.088-4439.46,1310.483Z" transform="translate(4597.095 -1214.635)" fill="#fb9e03"/>
          </g>
          <path id="Path_8802" data-name="Path 8802" d="M-4304.964,1457.151l-192.288,13.124a6.833,6.833,0,0,1-6.943-5.378l-29.94-150.368a4.51,4.51,0,0,1,4.751-5.625l195.881,4.924c2.558.064,5.081,2.4,5.641,5.211l26.422,132.706C-4300.877,1454.559-4302.453,1456.979-4304.964,1457.151Z" transform="translate(4542.28 -1298.531)" fill="#d8dee8"/>
          <path id="Path_8803" data-name="Path 8803" d="M-4295.034,1457.314l-192.057,13.109a6.827,6.827,0,0,1-6.935-5.374l-29.92-150.272a4.506,4.506,0,0,1,4.745-5.622l195.645,4.918c2.556.064,5.075,2.4,5.635,5.208l26.409,132.631C-4290.952,1454.724-4292.525,1457.142-4295.034,1457.314Z" transform="translate(4533.212 -1298.754)" fill="url(#linear-gradient-3)"/>
          <g id="Group_2702" data-name="Group 2702" transform="translate(26.559 36.864)">
            <path id="Path_8804" data-name="Path 8804" d="M-3802.948,1643.455l-20.965.13a1.465,1.465,0,0,1-1.371-1.158l-3.468-17.417a.914.914,0,0,1,.91-1.16l21.013.118a1.461,1.461,0,0,1,1.341,1.156l3.419,17.176A.906.906,0,0,1-3802.948,1643.455Zm-20.291-2.206,18.721-.09-2.966-14.9-18.755-.079Z" transform="translate(3887.864 -1615.693)" fill="#d8dee8"/>
            <path id="Path_8805" data-name="Path 8805" d="M-3555.926,1644.519l-20.294.125a1.431,1.431,0,0,1-1.33-1.14l-3.412-17.134a.892.892,0,0,1,.877-1.141l20.341.113a1.426,1.426,0,0,1,1.3,1.138l3.365,16.9A.886.886,0,0,1-3555.926,1644.519Zm-19.649-2.172,18.123-.087-2.919-14.658-18.155-.076Z" transform="translate(3667.335 -1616.922)" fill="#d8dee8"/>
            <path id="Path_8806" data-name="Path 8806" d="M-3316.788,1645.562l-19.655.122a1.4,1.4,0,0,1-1.292-1.122l-3.357-16.86a.871.871,0,0,1,.845-1.122l19.7.11a1.393,1.393,0,0,1,1.264,1.119l3.312,16.634A.867.867,0,0,1-3316.788,1645.562Zm-19.037-2.14,17.552-.085-2.873-14.425-17.583-.074Z" transform="translate(3453.854 -1618.123)" fill="#d8dee8"/>
            <path id="Path_8807" data-name="Path 8807" d="M-3085.167,1646.556l-19.045.118a1.367,1.367,0,0,1-1.255-1.1l-3.3-16.595a.852.852,0,0,1,.815-1.1l19.09.107a1.365,1.365,0,0,1,1.229,1.1l3.261,16.376A.849.849,0,0,1-3085.167,1646.556Zm-18.455-2.108,17.008-.081-2.828-14.2-17.038-.072Z" transform="translate(3247.093 -1619.271)" fill="#d8dee8"/>
            <path id="Path_8808" data-name="Path 8808" d="M-2860.722,1647.519l-18.464.115a1.338,1.338,0,0,1-1.22-1.087l-3.253-16.339a.834.834,0,0,1,.787-1.088l18.507.1a1.335,1.335,0,0,1,1.195,1.085l3.21,16.125A.829.829,0,0,1-2860.722,1647.519Zm-17.9-2.076,16.488-.079-2.784-13.984-16.518-.069Z" transform="translate(3046.748 -1620.383)" fill="#d8dee8"/>
            <path id="Path_8809" data-name="Path 8809" d="M-4278.754,1857.995l-22.348.45a1.512,1.512,0,0,1-1.455-1.182l-3.586-18.012a.974.974,0,0,1,.977-1.216l22.4-.186a1.506,1.506,0,0,1,1.421,1.178l3.535,17.753A.967.967,0,0,1-4278.754,1857.995Zm-21.614-1.983,19.957-.374-3.066-15.4-19.993.194Z" transform="translate(4312.734 -1806.149)" fill="#d8dee8"/>
            <path id="Path_8810" data-name="Path 8810" d="M-4015.487,1855.549l-21.609.436a1.476,1.476,0,0,1-1.41-1.162l-3.526-17.709a.95.95,0,0,1,.94-1.195l21.661-.179a1.469,1.469,0,0,1,1.378,1.16l3.476,17.46A.942.942,0,0,1-4015.487,1855.549Zm-20.907-1.956,19.3-.362-3.016-15.143-19.333.187Z" transform="translate(4077.68 -1804.272)" fill="#d8dee8"/>
            <path id="Path_8811" data-name="Path 8811" d="M-3760.881,1853.157l-20.906.421a1.44,1.44,0,0,1-1.367-1.143l-3.468-17.417a.926.926,0,0,1,.906-1.175l20.956-.174a1.433,1.433,0,0,1,1.338,1.141l3.419,17.176A.922.922,0,0,1-3760.881,1853.157Zm-20.236-1.931,18.67-.35-2.966-14.9-18.7.181Z" transform="translate(3850.37 -1802.429)" fill="#d8dee8"/>
            <path id="Path_8812" data-name="Path 8812" d="M-3514.555,1850.845l-20.238.408a1.408,1.408,0,0,1-1.328-1.124l-3.411-17.134a.906.906,0,0,1,.873-1.156l20.285-.168a1.4,1.4,0,0,1,1.3,1.122l3.365,16.9A.9.9,0,0,1-3514.555,1850.845Zm-19.6-1.906,18.073-.339-2.919-14.658-18.106.176Z" transform="translate(3630.463 -1800.649)" fill="#d8dee8"/>
            <path id="Path_8813" data-name="Path 8813" d="M-3276.085,1848.612l-19.6.4a1.375,1.375,0,0,1-1.289-1.107l-3.356-16.86a.885.885,0,0,1,.842-1.138l19.647-.163a1.37,1.37,0,0,1,1.262,1.1l3.312,16.633A.88.88,0,0,1-3276.085,1848.612Zm-18.986-1.881,17.5-.328-2.873-14.425-17.534.169Z" transform="translate(3417.579 -1798.932)" fill="#d8dee8"/>
            <path id="Path_8814" data-name="Path 8814" d="M-3045.093,1846.439l-18.992.383a1.343,1.343,0,0,1-1.252-1.09l-3.3-16.595a.865.865,0,0,1,.812-1.119l19.037-.158a1.338,1.338,0,0,1,1.226,1.088l3.261,16.376A.862.862,0,0,1-3045.093,1846.439Zm-18.4-1.857,16.96-.318-2.827-14.2-16.991.165Z" transform="translate(3211.378 -1797.259)" fill="#d8dee8"/>
            <path id="Path_8815" data-name="Path 8815" d="M-2821.258,1844.327l-18.412.371a1.313,1.313,0,0,1-1.217-1.074l-3.253-16.339a.848.848,0,0,1,.784-1.1l18.457-.153a1.312,1.312,0,0,1,1.193,1.072l3.21,16.125A.845.845,0,0,1-2821.258,1844.327Zm-17.849-1.834,16.443-.308-2.784-13.984-16.473.16Z" transform="translate(3011.576 -1795.63)" fill="#d8dee8"/>
            <path id="Path_8816" data-name="Path 8816" d="M-4235.26,2073.781l-22.286.761a1.485,1.485,0,0,1-1.451-1.164l-3.586-18.012a.989.989,0,0,1,.974-1.232l22.339-.5a1.479,1.479,0,0,1,1.418,1.162l3.535,17.754A.982.982,0,0,1-4235.26,2073.781Zm-21.555-1.687,19.9-.652-3.066-15.4-19.937.472Z" transform="translate(4273.967 -1998.197)" fill="#d8dee8"/>
            <path id="Path_8817" data-name="Path 8817" d="M-3972.709,2067.738l-21.549.736a1.449,1.449,0,0,1-1.407-1.145l-3.526-17.709a.965.965,0,0,1,.938-1.211l21.6-.481a1.441,1.441,0,0,1,1.375,1.143l3.477,17.459A.959.959,0,0,1-3972.709,2067.738Zm-20.851-1.671,19.244-.63-3.016-15.143-19.278.457Z" transform="translate(4039.552 -1993.115)" fill="#d8dee8"/>
            <path id="Path_8818" data-name="Path 8818" d="M-3718.823,2061.9l-20.848.713a1.414,1.414,0,0,1-1.364-1.128l-3.468-17.417a.943.943,0,0,1,.9-1.192l20.9-.465a1.408,1.408,0,0,1,1.334,1.126l3.419,17.176A.937.937,0,0,1-3718.823,2061.9Zm-20.181-1.655,18.618-.61-2.966-14.9-18.651.441Z" transform="translate(3812.884 -1988.203)" fill="#d8dee8"/>
            <path id="Path_8819" data-name="Path 8819" d="M-3473.175,2056.243l-20.181.69a1.382,1.382,0,0,1-1.325-1.109l-3.412-17.134a.921.921,0,0,1,.87-1.172l20.229-.45a1.376,1.376,0,0,1,1.3,1.108l3.365,16.9A.914.914,0,0,1-3473.175,2056.243Zm-19.543-1.638,18.023-.591-2.919-14.657-18.055.427Z" transform="translate(3593.582 -1983.45)" fill="#d8dee8"/>
            <path id="Path_8820" data-name="Path 8820" d="M-3235.364,2050.771l-19.546.667a1.35,1.35,0,0,1-1.286-1.092l-3.356-16.86a.9.9,0,0,1,.839-1.152l19.592-.436a1.343,1.343,0,0,1,1.259,1.09l3.312,16.635A.894.894,0,0,1-3235.364,2050.771Zm-18.934-1.623,17.455-.572-2.873-14.425-17.486.414Z" transform="translate(3381.285 -1978.849)" fill="#d8dee8"/>
            <path id="Path_8821" data-name="Path 8821" d="M-3005.018,2045.449l-18.939.647a1.319,1.319,0,0,1-1.25-1.076l-3.3-16.595a.88.88,0,0,1,.81-1.134l18.985-.423a1.316,1.316,0,0,1,1.223,1.074l3.261,16.376A.877.877,0,0,1-3005.018,2045.449Zm-18.354-1.606,16.914-.554-2.827-14.2-16.944.4Z" transform="translate(3175.663 -1974.372)" fill="#d8dee8"/>
            <path id="Path_8822" data-name="Path 8822" d="M-2781.811,2040.314l-18.362.627a1.291,1.291,0,0,1-1.214-1.059l-3.253-16.339a.861.861,0,0,1,.781-1.116l18.4-.409a1.288,1.288,0,0,1,1.189,1.057l3.21,16.125A.856.856,0,0,1-2781.811,2040.314Zm-17.8-1.591,16.4-.537L-2786,2024.2l-16.427.388Z" transform="translate(2976.422 -1970.056)" fill="#d8dee8"/>
            <path id="Path_8823" data-name="Path 8823" d="M-4191.775,2289.549l-22.225,1.073a1.459,1.459,0,0,1-1.448-1.147l-3.586-18.012a1.006,1.006,0,0,1,.971-1.25l22.276-.809a1.452,1.452,0,0,1,1.415,1.145l3.535,17.753A1,1,0,0,1-4191.775,2289.549Zm-21.5-1.394,19.847-.93-3.066-15.4-19.882.749Z" transform="translate(4235.209 -2190.225)" fill="#d8dee8"/>
            <path id="Path_8824" data-name="Path 8824" d="M-3929.954,2279.945l-21.49,1.037a1.424,1.424,0,0,1-1.4-1.129l-3.526-17.709a.981.981,0,0,1,.934-1.228l21.54-.782a1.416,1.416,0,0,1,1.372,1.128l3.477,17.459A.974.974,0,0,1-3929.954,2279.945Zm-20.794-1.387,19.19-.9-3.015-15.143-19.226.725Z" transform="translate(4001.446 -2181.975)" fill="#d8dee8"/>
            <path id="Path_8825" data-name="Path 8825" d="M-3676.772,2270.643l-20.791,1a1.39,1.39,0,0,1-1.362-1.111l-3.468-17.417a.957.957,0,0,1,.9-1.207l20.839-.757a1.381,1.381,0,0,1,1.331,1.11l3.419,17.176A.95.95,0,0,1-3676.772,2270.643Zm-20.127-1.38,18.566-.87-2.966-14.9-18.6.7Z" transform="translate(3775.407 -2173.983)" fill="#d8dee8"/>
            <path id="Path_8826" data-name="Path 8826" d="M-3431.805,2261.631l-20.125.971a1.356,1.356,0,0,1-1.321-1.094l-3.412-17.134a.935.935,0,0,1,.867-1.187l20.173-.733a1.35,1.35,0,0,1,1.293,1.093l3.365,16.9A.93.93,0,0,1-3431.805,2261.631Zm-19.489-1.372,17.972-.842-2.919-14.657-18.005.678Z" transform="translate(3556.712 -2166.24)" fill="#d8dee8"/>
            <path id="Path_8827" data-name="Path 8827" d="M-3194.641,2252.918l-19.492.941a1.325,1.325,0,0,1-1.283-1.077l-3.357-16.86a.914.914,0,0,1,.836-1.167l19.538-.71a1.32,1.32,0,0,1,1.255,1.076l3.312,16.634A.91.91,0,0,1-3194.641,2252.918Zm-18.883-1.364,17.407-.815-2.873-14.425-17.437.658Z" transform="translate(3344.992 -2158.756)" fill="#d8dee8"/>
            <path id="Path_8828" data-name="Path 8828" d="M-2964.935,2244.476l-18.886.912a1.3,1.3,0,0,1-1.247-1.062l-3.3-16.6a.894.894,0,0,1,.806-1.148l18.932-.688a1.292,1.292,0,0,1,1.22,1.06l3.261,16.376A.891.891,0,0,1-2964.935,2244.476Zm-18.3-1.356,16.867-.79-2.827-14.2-16.9.637Z" transform="translate(3139.94 -2151.503)" fill="#d8dee8"/>
            <path id="Path_8829" data-name="Path 8829" d="M-2742.346,2236.282l-18.31.884a1.267,1.267,0,0,1-1.211-1.045l-3.253-16.339a.875.875,0,0,1,.779-1.13l18.354-.667a1.264,1.264,0,0,1,1.187,1.044l3.21,16.125A.874.874,0,0,1-2742.346,2236.282Zm-17.752-1.349,16.352-.766-2.784-13.984-16.382.617Z" transform="translate(2941.25 -2144.463)" fill="#d8dee8"/>
            <path id="Path_8830" data-name="Path 8830" d="M-4148.282,2505.332l-22.162,1.384a1.431,1.431,0,0,1-1.444-1.13l-3.587-18.012a1.022,1.022,0,0,1,.967-1.267l22.215-1.12a1.426,1.426,0,0,1,1.412,1.129l3.534,17.753A1.015,1.015,0,0,1-4148.282,2505.332Zm-21.438-1.1,19.791-1.208-3.066-15.4-19.827,1.028Z" transform="translate(4196.442 -2382.268)" fill="#d8dee8"/>
            <path id="Path_8831" data-name="Path 8831" d="M-3887.188,2492.147l-21.429,1.339a1.4,1.4,0,0,1-1.4-1.112l-3.526-17.71a1,1,0,0,1,.931-1.244l21.479-1.083a1.39,1.39,0,0,1,1.369,1.111l3.477,17.459A.989.989,0,0,1-3887.188,2492.147Zm-20.738-1.1,19.137-1.168-3.016-15.143-19.172.993Z" transform="translate(3963.328 -2370.832)" fill="#d8dee8"/>
            <path id="Path_8832" data-name="Path 8832" d="M-3634.715,2479.386l-20.733,1.295a1.364,1.364,0,0,1-1.358-1.1l-3.468-17.417a.972.972,0,0,1,.9-1.222l20.782-1.047a1.356,1.356,0,0,1,1.328,1.095l3.42,17.176A.965.965,0,0,1-3634.715,2479.386Zm-20.072-1.1,18.515-1.13-2.966-14.9-18.547.962Z" transform="translate(3737.922 -2359.761)" fill="#d8dee8"/>
            <path id="Path_8833" data-name="Path 8833" d="M-3390.425,2467.026l-20.069,1.253a1.331,1.331,0,0,1-1.318-1.079l-3.412-17.134a.95.95,0,0,1,.865-1.2l20.117-1.014a1.327,1.327,0,0,1,1.29,1.077l3.365,16.9A.946.946,0,0,1-3390.425,2467.026Zm-19.437-1.105,17.922-1.094-2.919-14.657-17.955.931Z" transform="translate(3519.831 -2349.038)" fill="#d8dee8"/>
            <path id="Path_8834" data-name="Path 8834" d="M-4342.116,1554.754l-22.773-.166-.971-4.878,22.784.23Z" transform="translate(4365.86 -1549.71)" fill="#fd9f00"/>
            <path id="Path_8835" data-name="Path 8835" d="M-4074.6,1557.375l-22.009-.161-.955-4.794,22.022.221Z" transform="translate(4127.078 -1552.122)" fill="#fd9f00"/>
            <path id="Path_8836" data-name="Path 8836" d="M-3816.005,1559.9l-21.286-.155-.938-4.715,21.3.214Z" transform="translate(3896.278 -1554.445)" fill="#fd9f00"/>
            <path id="Path_8837" data-name="Path 8837" d="M-3565.9,1562.348l-20.6-.15-.923-4.638,20.607.208Z" transform="translate(3673.061 -1556.696)" fill="#fd9f00"/>
            <path id="Path_8838" data-name="Path 8838" d="M-3323.862,1564.719l-19.94-.145-.908-4.563,19.95.2Z" transform="translate(3457.054 -1558.877)" fill="#fd9f00"/>
            <path id="Path_8839" data-name="Path 8839" d="M-3089.522,1567.012l-19.313-.141-.895-4.491,19.326.195Z" transform="translate(3247.926 -1560.986)" fill="#fd9f00"/>
            <path id="Path_8840" data-name="Path 8840" d="M-2862.5,1569.236l-18.717-.136-.88-4.419,18.728.189Z" transform="translate(3045.339 -1563.033)" fill="#fd9f00"/>
          </g>
          <path id="Path_8841" data-name="Path 8841" d="M-4210.6,1417.391l-182.1-2.531-1.835-9.22,182.3,3.5Z" transform="translate(4417.943 -1384.626)" fill="#d8dee8"/>
          <g id="Group_2703" data-name="Group 2703" transform="translate(9.134 10.396)" opacity="0.3">
            <path id="Path_8842" data-name="Path 8842" d="M-4374.619,1394.585c-40.779-22.157-79.424-4.933-107.249-33.354-14.27-14.575-18.844-34.248-19.67-51.645l-17.937-.451a4.419,4.419,0,0,0-4.654,5.514l29.964,150.492a6.7,6.7,0,0,0,6.8,5.272l168.513-11.5C-4337.358,1421.3-4357.81,1403.717-4374.619,1394.585Z" transform="translate(4524.238 -1309.133)" fill="#d8dee8"/>
          </g>
        </g>
        <path id="Path_8843" data-name="Path 8843" d="M-3526.529,1512.943a2.027,2.027,0,0,0-3.064-.859c-2.832,2.628-3.4,6.99-4.852,10.489-1.109,2.67-2.344,5.284-3.539,7.916-2.555-3.637-4.741-7.547-7.378-11.128-.915-1.243-3.1-.105-2.405,1.352,2.73,5.758,4.544,11.743,8.177,17.07,1.273,1.867,4.02,1.291,4.933-.56,2.106-4.273,4.255-8.531,6.084-12.933C-3527.147,1520.855-3524.926,1516.6-3526.529,1512.943Z" transform="translate(3734.96 -1478.983)" fill="#4cc171"/>
      </g>
      <g id="Group_2708" data-name="Group 2708" transform="translate(156.439 148.121)">
        <g id="Group_2707" data-name="Group 2707">
          <path id="Path_8844" data-name="Path 8844" d="M-3514.663,1774.285l-1.875-1.657a1.616,1.616,0,0,1-.544-1.271,4.091,4.091,0,0,0-.412-2.28c-.639-.874-3.041-.162-3.149,0a1.464,1.464,0,0,0,.782,2.386,2.9,2.9,0,0,1,1.789,1.2l2.252,3.181Z" transform="translate(3556.192 -1768.651)" fill="url(#linear-gradient-4)"/>
          <path id="Path_8845" data-name="Path 8845" d="M-3710.362,2013.109l2.112-.891s1.584-.63,1.584-1.835c0-1.726-1.378-4.22-2.509-3.977s-1.19,2.246-.217,3.344-1.309,2.141-1.309,2.141Z" transform="translate(3725.038 -1980.234)" fill="url(#linear-gradient-5)"/>
          <path id="Path_8846" data-name="Path 8846" d="M-3546.583,3151.941c.182-.549,2.073-.8,2.866.08.394.438.6,1.24.287,1.547-.112.111.243.385-.128.338C-3544.783,3153.746-3546.763,3152.486-3546.583,3151.941Z" transform="translate(3578.987 -2999.312)" fill="url(#linear-gradient-6)"/>
          <path id="Path_8847" data-name="Path 8847" d="M-3531.317,3124.156h1.908c-.719-1.166-.089-4.466-.089-4.466l-2.052.163s.1.944.292,2.343A8.778,8.778,0,0,1-3531.317,3124.156Z" transform="translate(3565.597 -2971.053)" fill="url(#linear-gradient-7)"/>
          <path id="Path_8848" data-name="Path 8848" d="M-3603.359,2492.016a88.419,88.419,0,0,0-2.958,13.537c-2.317,16.856,2.607,17.394,1.688,36.073-.294,5.962,5.166,19.711,5.646,20.014a6.1,6.1,0,0,0,.755.03,7.519,7.519,0,0,0,1.923-.32c.865-.148,3.983-8.593,3.26-13.615-.87-6.049.2-10.25-.067-14.994-.636-11.358-.04-23.357.752-23.4.5-.029,1.33,4.716,2.2,9.7,1,5.723,1.162,8.339,3.283,10.834a11.421,11.421,0,0,0,4.334,3.092c14.452,6.041,12.44,6.084,15.592,8.688.521.431,1.936,1.646,2.931,1.2.667-.295.863-1.209.946-1.62.659-3.279-1.37-10.113-6.733-12.676-1.921-.918-2.458-.432-4.313-1.578a11.335,11.335,0,0,1-4.658-5.9c-1.246-3.789.711-6.154,1.784-11.184a90.971,90.971,0,0,0-1.035-15.287C-3579.243,2487.173-3603.359,2492.016-3603.359,2492.016Z" transform="translate(3632.697 -2411.055)" fill="#585d5e"/>
          <path id="Path_8849" data-name="Path 8849" d="M-3531.253,3157.646s2.325-.2,2.505.281.2,1.7-1.222,1.463S-3531.433,3158.005-3531.253,3157.646Z" transform="translate(3565.4 -3004.796)" fill="url(#linear-gradient-8)"/>
          <path id="Path_8850" data-name="Path 8850" d="M-3825.894,1827.361q.3.955.605,1.91c-1.459,1.118-5.472,4.453-4.991,8.03.7,5.171,10.333,7.515,16.437,7.5,1.673,0,12.54-.025,17.644-7.822,4.483-6.85,1.707-15.4-.584-22.453a47.412,47.412,0,0,0-5.984-12.133l3.034-2.577a39.648,39.648,0,0,1,14.932,15.905,41.841,41.841,0,0,1,4.265,18.968c-.054,3.705-.6,4.723-.7,10.084a99.51,99.51,0,0,0,.925,13.782c2.143,20.221,1.618,23.843.049,27.441-1.323,3.033-2.461,5.645-5.231,7.215-5.539,3.14-10.178-2.1-22.252-1.135-4.2.336-5.688,1.133-7.412-.075-1.014-.711-2.878-2.654-2.272-15.256.518-10.767,2.084-13.626-.163-16.717-1.969-2.711-3.994-1.641-10.062-4.707-3.969-2-12.548-6.338-13.309-13.47-.552-5.165,3.271-9.235,3.9-9.9A15.2,15.2,0,0,1-3825.894,1827.361Z" transform="translate(3841.013 -1796.391)" fill="#fb9e03"/>
          <g id="Group_2706" data-name="Group 2706" transform="translate(32.126 33.485)">
            <path id="Path_8851" data-name="Path 8851" d="M-3544.318,2113.911a3.841,3.841,0,0,1,1.006-2.6c.81-.928.989-1.04,1.3-1.161l.433-.149s.024,0,.048-.007a4.521,4.521,0,0,1,1.26.2c.511.236.593,2.553-.264,5.613,0,.123-.009.247-.015.372-.009.184-.014.326-.019.445a.864.864,0,0,0,.994.884c2.744-.418,2.364.243,2.271.454-.219.5-2.76,1.9-5.819,2.653-3.8.885-6.183.779-5.862.2a15.765,15.765,0,0,1,4.231-1.937,1.662,1.662,0,0,0,1.063-1.055c.22-.679.646-1.621.747-1.906C-3543.135,2115.758-3544.266,2114.9-3544.318,2113.911Z" transform="translate(3549.012 -2105.925)" fill="url(#linear-gradient-9)"/>
            <path id="Path_8852" data-name="Path 8852" d="M-3493.294,2075.965a3.686,3.686,0,0,0,.2,2.3,1.615,1.615,0,0,1,.262.458.575.575,0,0,1,.03.125c.075.651-1.046,1.147-.921,1.46.09.227.8.11.843.3s-.58.385-.539.594c.031.158.394.1.555.37.081.133.03.215.066.575a3.089,3.089,0,0,0,.1.563c.2.638,1.1,1.054,1.329.869.065-.052.033-.114.132-.313a1.705,1.705,0,0,1,.278-.38,4.459,4.459,0,0,1,1.337-.639,3.183,3.183,0,0,0,1.489-1.085c.04-.059.067-.1.086-.136a3.653,3.653,0,0,0,.446-2.4c-.293-1.189-1.607-.951-2.353-2.231-.86-1.478.19-3-.384-3.32C-3490.967,2072.714-3492.9,2074.19-3493.294,2075.965Z" transform="translate(3499.811 -2073.016)" fill="#26264f"/>
            <path id="Path_8853" data-name="Path 8853" d="M-3494.6,2137.253c.308-.271.652.126.561.544a.782.782,0,0,1-.968.592C-3495.38,2138.218-3495.013,2137.617-3494.6,2137.253Z" transform="translate(3501.086 -2130.107)" fill="url(#linear-gradient-10)"/>
          </g>
          <path id="Path_8854" data-name="Path 8854" d="M-3223.331,2952.667l1.21.965.816-.885-1.114-1.081a.6.6,0,0,0-.8-.037l-.118.095A.606.606,0,0,0-3223.331,2952.667Z" transform="translate(3291.49 -2821.363)" fill="url(#linear-gradient-11)"/>
          <path id="Path_8855" data-name="Path 8855" d="M-3216.039,2960.712c.029-.892.471-1.162.262-1.6a.961.961,0,0,0-1-.479c-.526.107-.748.762-.8.91-.341,1.006.41,1.567-.007,2.394a2.259,2.259,0,0,0-.3.781c-.024.163-.086.564.088.672.2.124.612-.209,1-.527.469-.381.7-.571.82-.894C-3215.808,2961.528-3216.061,2961.4-3216.039,2960.712Z" transform="translate(3286.461 -2827.705)" fill="url(#linear-gradient-12)"/>
          <path id="Path_8856" data-name="Path 8856" d="M-3795.613,2176.177c-4.8-2.149-10.072,2.884-11.664,1.19-1.81-1.925,5.476-7.937,4.76-16.187-.417-4.813-3.58-10.643-8.332-12.378-4.953-1.808-8.838,1.854-12.854-.952-2.153-1.5-1.352-2.777-3.809-5.237-4.2-4.211-8.72-2.653-11.188-5.475-.886-1.014-1.563-2.658-1.313-5.49a10.786,10.786,0,0,0-.956,5.529c.761,7.134,9.339,11.466,13.309,13.471,6.069,3.065,8.093,2,10.062,4.707,2.247,3.091.68,5.95.163,16.717-.606,12.6,1.259,14.545,2.272,15.256,1.724,1.208,3.212.41,7.412.075,12.074-.965,16.712,4.274,22.252,1.135a8.522,8.522,0,0,0,2.38-2,9.2,9.2,0,0,1-6.305-2.029C-3792.372,2181.906-3791.966,2177.811-3795.613,2176.177Z" transform="translate(3841.023 -2091.714)" opacity="0.3" fill="url(#linear-gradient-13)"/>
        </g>
      </g>
      <g id="Group_2710" data-name="Group 2710" transform="translate(235.035 166.332)">
        <path id="Path_8857" data-name="Path 8857" d="M-2771.923,2991.83c.639,1.019.539,1.5.429,1.713-.322.636-1.306.17-3.691.708a4.107,4.107,0,0,1-1.5.1c-.592-.076-1.306-.312-1.293-.47,0-.057.105-.091.143-.1.656-.214,4.716-1.94,4.716-1.94Z" transform="translate(2816.338 -2875.471)" fill="url(#linear-gradient-14)"/>
        <path id="Path_8858" data-name="Path 8858" d="M-2737.422,2970.07l-.123,2.44s-.955.837-1.319-.02a12.493,12.493,0,0,1-.436-2.332Z" transform="translate(2781.912 -2856.105)" fill="url(#linear-gradient-15)"/>
        <path id="Path_8859" data-name="Path 8859" d="M-2831.79,2990.393l1.3,2.659,1.447-.388-.608-2.524Z" transform="translate(2864.226 -2873.967)" fill="url(#linear-gradient-16)"/>
        <path id="Path_8860" data-name="Path 8860" d="M-2843.83,3007.932c.624-.92,1.267-.91,1.336-1.5a1.2,1.2,0,0,0-.729-1.166c-.624-.237-1.292.3-1.443.427-1.026.832-.609,1.92-1.6,2.514a2.786,2.786,0,0,0-.834.622c-.134.154-.465.537-.354.765.129.264.782.186,1.4.112a2.729,2.729,0,0,0,1.454-.4C-2844.129,3008.945-2844.311,3008.642-2843.83,3007.932Z" transform="translate(2878.185 -2887.372)" fill="url(#linear-gradient-17)"/>
        <path id="Path_8861" data-name="Path 8861" d="M-2820.75,2440.54a79.744,79.744,0,0,1-.493,14.446c-.541,4.283-1,5.054-1.036,7.987-.079,6.384,2.038,7.121,3.006,14.25a43.742,43.742,0,0,1-1.14,16.794,45.583,45.583,0,0,1-1.636,5.132c-.672.692-1.8.541-2.989.4-1.025-7.135-2.121-13.838-3.146-20.973q-3.423-16.007-6.846-32.015Z" transform="translate(2867.11 -2384.832)" fill="#585d5e"/>
        <path id="Path_8862" data-name="Path 8862" d="M-2825.038,2499.56c-1.025-7.135-2.121-13.838-3.146-20.972q-3.423-16.007-6.846-32.015l14.281-6.022c.021.372.032.731.047,1.1-6.371,6.531-7.323,11.365-6.99,14.581.4,3.9,2.7,5.66,2.755,11.359.037,4.075-1.121,4.89-.818,8.545.391,4.707,2.631,7.185,3.84,9.823,1.168,2.55,1.815,6.245.418,11.693-.2.566-.383,1.075-.552,1.512C-2822.722,2499.852-2823.85,2499.7-2825.038,2499.56Z" transform="translate(2867.11 -2384.841)" fill="#060000" opacity="0.3"/>
        <path id="Path_8863" data-name="Path 8863" d="M-2914.538,2446.681a84.148,84.148,0,0,0-5.536,14.362,20.275,20.275,0,0,0-.893,6.253,19.293,19.293,0,0,0,1.535,7,37.192,37.192,0,0,1,2.456,6.924,39.37,39.37,0,0,1-.565,20.308l-2.529,1.183a144.286,144.286,0,0,1-8.018-22.46,78.091,78.091,0,0,1-2.889-14.5,61.8,61.8,0,0,1,3.255-25.177Z" transform="translate(2952.681 -2384.859)" fill="#585d5e"/>
        <path id="Path_8864" data-name="Path 8864" d="M-2928.949,2055.3c-5.451,1.408-9.58,2.746-11.219,5.8-1.732,3.223,1.616,5.265,3.03,11.906,2.166,10.168-3.424,14.5-.867,24.7a26.824,26.824,0,0,0,3.219,7.571,28.253,28.253,0,0,0,8.878,4.091c5.77,1.5,8.442.128,16.023-.067,12.4-.318,14.543,3.108,19.937.446,5.45-2.691,9.03-9.04,7.623-11.51-.844-1.479-3.021-.331-6.416-1.952-4.375-2.088-3.949-5.468-7.572-8.036-5.2-3.69-9.538.832-13.993-2.383-4.506-3.252-5.734-11.965-4.377-17.325.885-3.5.6-7.2,1.178-10.771a2.259,2.259,0,0,0-.157-1.274c-.856-1.951-4.562-2.031-7.36-2.066A31.912,31.912,0,0,0-2928.949,2055.3Z" transform="translate(2961.113 -2041.199)" fill="#fb9e03"/>
        <path id="Path_8865" data-name="Path 8865" d="M-2875.023,2349.5c-1.8-1-1.145-4.3-3.818-5.805-2.481-1.4-4.14.836-7.689.062-4.552-.993-4.675-5.287-9.042-6.3-3.141-.727-3.9,1.3-8.307,1.752a17.605,17.605,0,0,1-14.368-5.257,15.777,15.777,0,0,1-3.4-5.819c-.863,3.9-1.837,7.688-.464,13.167a26.816,26.816,0,0,0,3.219,7.572,28.251,28.251,0,0,0,8.878,4.091c5.771,1.5,8.442.128,16.023-.067,12.4-.318,14.543,3.108,19.937.446a16.065,16.065,0,0,0,7.337-7.673C-2871.3,2349.618-2873.714,2350.219-2875.023,2349.5Z" transform="translate(2945.218 -2284.789)" opacity="0.3" fill="url(#linear-gradient-18)"/>
        <path id="Path_8866" data-name="Path 8866" d="M-2881.3,1977.76a15.036,15.036,0,0,0-1.217,5c.07,2.016,2.323,1.682,2.323,1.682l.02,1.273a2.755,2.755,0,0,1-1.593,2.54l-.867.4s5.939.766,8.938-1.749l-.925-.013a2.756,2.756,0,0,1-2.667-2.249l-.1-.537S-2876.89,1977.77-2881.3,1977.76Z" transform="translate(2909.473 -1972.966)" fill="url(#linear-gradient-19)"/>
        <g id="Group_2709" data-name="Group 2709" transform="translate(0 21.839)">
          <path id="Path_8867" data-name="Path 8867" d="M-3104.392,2148.254l-8.878-15.315a.5.5,0,0,0-.542-.234l-12.422,2.9a.5.5,0,0,0-.308.747l10.3,16.475a.5.5,0,0,0,.59.2l10.918-3.943Z" transform="translate(3126.618 -2132.692)" fill="url(#linear-gradient-20)"/>
          <path id="Path_8868" data-name="Path 8868" d="M-3090.041,2156.408l-7.188-12.4a.4.4,0,0,0-.44-.19l-10.058,2.351a.4.4,0,0,0-.25.6l8.343,13.34a.4.4,0,0,0,.478.165l8.84-3.193Z" transform="translate(3110.083 -2142.584)" fill="url(#linear-gradient-21)"/>
          <path id="Path_8869" data-name="Path 8869" d="M-3081.046,2137.406l-.571-.995a.363.363,0,0,0-.4-.174l-5.174,1.164a.364.364,0,0,0-.233.539l.635,1.081a.364.364,0,0,0,.4.17l5.11-1.251A.364.364,0,0,0-3081.046,2137.406Z" transform="translate(3091.777 -2135.839)" fill="url(#linear-gradient-22)"/>
          <path id="Path_8870" data-name="Path 8870" d="M-3092.567,2164.92l.024,0,9.108-2.15a.209.209,0,0,0,.156-.252.212.212,0,0,0-.252-.156l-9.108,2.15a.21.21,0,0,0-.156.252A.209.209,0,0,0-3092.567,2164.92Z" transform="translate(3096.521 -2159.089)" fill="url(#linear-gradient-23)"/>
          <path id="Path_8871" data-name="Path 8871" d="M-3087.375,2172.267l.025,0,9.052-2.234a.211.211,0,0,0,.154-.254.209.209,0,0,0-.254-.153l-9.052,2.234a.209.209,0,0,0-.153.254A.211.211,0,0,0-3087.375,2172.267Z" transform="translate(3091.9 -2165.552)" fill="url(#linear-gradient-24)"/>
          <path id="Path_8872" data-name="Path 8872" d="M-3043.967,2188.277a.149.149,0,0,0,.032-.007l4.922-1.357a.21.21,0,0,0,.146-.259.211.211,0,0,0-.257-.146l-4.922,1.357a.21.21,0,0,0-.146.259A.209.209,0,0,0-3043.967,2188.277Z" transform="translate(3053.267 -2180.581)" fill="url(#linear-gradient-25)"/>
        </g>
        <path id="Path_8873" data-name="Path 8873" d="M-3079.605,2239.005s-2.2-1.181-2.54-2.14a14.284,14.284,0,0,1-.475-2.815l1.469,2.482a1.409,1.409,0,0,0,.719-1.111c.16-.886.663-.142.56.525A19.236,19.236,0,0,0-3079.605,2239.005Z" transform="translate(3087.461 -2201.06)" fill="url(#linear-gradient-26)"/>
        <path id="Path_8874" data-name="Path 8874" d="M-3051.3,2105.3a15.373,15.373,0,0,0-3.776,4.122c-3.552,5.747-1.359,11.246-4.547,13.6-.912.675-2.569,1.318-5.763.551l-1.114.751s-.676,7.484,8.259,6.828,12.214-12.191,12.214-12.191Z" transform="translate(3073.128 -2086.474)" fill="#fb9e03"/>
        <path id="Path_8875" data-name="Path 8875" d="M-2880.512,1941.746c.3-.05.517-.453.733-.356s.249.66.093,1.067a1.413,1.413,0,0,1-.5.631,3.714,3.714,0,0,1,.776,1.425,5.131,5.131,0,0,1-.544,3.366c-1.19,3.2,1.461,7.875,4.132,10.127,2.171,1.831,3.04.95,4.372,2.482,2.593,2.981-.333,6.736,1.226,10.909,2.371,6.345,12.79,7.426,13.221,7.467.169.015.284.025.461.039,4.662.35,11.729.879,16.327-3.3,3.44-3.13,4.719-8.188,4.081-12.5a14.04,14.04,0,0,0-4.689-8.668c-.606-.514-4.193-3.549-8.673-3.219-2.373.175-2.781,1.051-4.637.684-2.542-.5-4.258-2.632-5.322-3.953-1.958-2.43-1.295-3.04-2.655-4.2-2.666-2.277-5.39-.089-8.2-2.062-2.769-1.944-1.449-5-4.1-6.663-2.738-1.713-7.615-.631-8.477,1.75C-2883.628,1938.816-2881.431,1941.9-2880.512,1941.746Z" transform="translate(2909.836 -1934.183)" fill="#060000"/>
      </g>
      <path id="Path_8876" data-name="Path 8876" d="M-3769.979,800.272l5.157,3.641s.121-11.318,12.733-14.82,21.233-8.187,19.009-17.972l-13.186-4.85s-2.153,12.9-11.016,15.165C-3772.213,785.251-3769.979,800.272-3769.979,800.272Z" transform="translate(3934.339 -728.428)" fill="#fd9f00"/>
      <path id="Path_8877" data-name="Path 8877" d="M-3598.854,901.943c-.3-5.71.216-12.853,4.724-15.967,4.42-3.052,9.327.083,16.464-1.473,4.671-1.018,10.855-4.167,17.092-13.753q5.367,10.827,10.734,21.654c-11.045,8.137-18.17,8.542-22.792,7.059-5.51-1.769-8.257-6.478-12.756-5.7-4.18.718-6.866,5.65-8.513,9.874Q-3596.374,902.787-3598.854,901.943Z" transform="translate(3781.998 -821.413)" fill="#fd9f00"/>
      <path id="Path_8878" data-name="Path 8878" d="M-3176.94,1120.247l1.024,3.685s4.395-5.264,11.654-2.075,13.1,4.3,15.807-1.149l-4.328-7.328s-5.953,5.227-10.979,2.895C-3172.232,1112.344-3176.94,1120.247-3176.94,1120.247Z" transform="translate(3406.439 -1037.35)" fill="#4cc171"/>
      <path id="Path_8879" data-name="Path 8879" d="M-3350.288,661.39c-1.429-3.155-2.707-7.3-.847-10.051,1.824-2.7,5.283-2.006,8.969-4.455,2.413-1.6,5.21-4.741,6.621-11.524l10.823,9.86c-4.444,7.023-8.377,8.82-11.312,9-3.5.214-6.086-1.839-8.455-.413-2.2,1.326-2.632,4.7-2.633,7.447Q-3348.7,661.32-3350.288,661.39Z" transform="translate(3562.296 -611.92)" fill="#fd9f00"/>
      <path id="Path_8880" data-name="Path 8880" d="M-3143.359,559.681c-2.863-3.881,1.817-13.147,7.463-18.829,10.411-10.476,20.995-5.636,30.5-14.683,3.646-3.469,7.718-9.536,8.846-20.869l20.075,23.193c-2.556,15.747-8,21.19-12.549,23.223-9.845,4.4-19.547-5.364-33.446-1.326-7.551,2.195-12.706,7.406-15.823,11.346C-3140.126,561.649-3142.233,561.208-3143.359,559.681Z" transform="translate(3377.324 -496.169)" fill="#4cc171"/>
      <path id="Path_8881" data-name="Path 8881" d="M-3405.742,640.64c2.782-1.952,7.275-2.384,8.564-.437,1.172,1.771-.6,5.072-2.5,6.832-2.884,2.665-7.963,3.546-9.415,1.626C-3410.452,646.87-3408.628,642.663-3405.742,640.64Z" transform="translate(3613.461 -615.107)" fill="#4cc171"/>
      <path id="Path_8882" data-name="Path 8882" d="M-2909.874,993.81c3.069,1.459,5.661,5.155,4.6,7.236-.964,1.892-4.708,1.978-7.179,1.188-3.74-1.2-7.01-5.182-6.055-7.39C-2917.617,992.784-2913.058,992.3-2909.874,993.81Z" transform="translate(3176.587 -930.149)" fill="#fd9f00"/>
      <path id="Path_8883" data-name="Path 8883" d="M-3737.42,1131.062c2.252-1.581,5.891-1.931,6.934-.353.949,1.435-.485,4.106-2.027,5.532-2.336,2.157-6.448,2.87-7.623,1.317C-3741.233,1136.107-3739.756,1132.7-3737.42,1131.062Z" transform="translate(3908.003 -1051.862)" fill="#4cc171"/>
      <path id="Path_8884" data-name="Path 8884" d="M-3929.812,997.311c-.024-4.074,2.52-8.84,5.213-8.821,2.452.016,4.418,3.983,4.838,7.056.633,4.653-1.869,10.3-4.644,10.464C-3927,1006.163-3929.788,1001.536-3929.812,997.311Z" transform="translate(4076.482 -926.199)" fill="#4cc171"/>
      <path id="Path_8885" data-name="Path 8885" d="M-3764.831,755.35c2.782-1.952,7.276-2.384,8.564-.437,1.171,1.771-.6,5.072-2.5,6.832-2.884,2.665-7.963,3.546-9.415,1.626C-3769.541,761.581-3767.715,757.374-3764.831,755.35Z" transform="translate(3933.044 -717.197)" fill="#fd9f00"/>
    </g>
  </g>
</svg>
