<svg xmlns="http://www.w3.org/2000/svg" width="290.391" height="296.915" viewBox="0 0 290.391 296.915">
  <g id="Group_11731" data-name="Group 11731" transform="translate(-69.301 -145.474)">
    <g id="OBJECTS" transform="translate(-864.949 -204.3)">
      <g id="Group_3410" data-name="Group 3410" transform="translate(934.25 349.3)">
        <g id="Group_3382" data-name="Group 3382" transform="translate(0 11.03)">
          <path id="Path_9142" data-name="Path 9142" d="M1041.554,561.868c-2.858-.014-5.717-.126-8.583-.358-31.374-2.571-67.72-17.552-83.347-44.831-13.661-23.845-19.019-54.719-12.8-81.317a71.806,71.806,0,0,1,49.347-52.943c28.543-8.646,60.085,1.861,88.165-9.952,40.876-17.186,92.253-3.54,120.9,29.168,25.4,29,31.549,75.755,23.571,111.981-4.031,18.31-14.63,35.946-31.5,45.161-13.422,7.332-29.653,8.779-45.006,6.869-12.34-1.538-23.7-5.563-35.581-8.878-9.517-2.655-17.327-1.271-27.068.653C1067.126,559.908,1054.379,561.917,1041.554,561.868Z" transform="translate(-934.25 -365.005)" fill="#f4f7fa"/>
          <path id="Path_9143" data-name="Path 9143" d="M1060.217,552.879c-2.311-.007-4.628-.105-6.939-.3-25.39-2.079-54.8-14.2-67.439-36.276-11.048-19.293-15.388-44.276-10.36-65.8a58.107,58.107,0,0,1,39.928-42.836c23.093-7,48.616,1.5,71.344-8.049,33.073-13.906,74.645-2.866,97.829,23.6,20.551,23.465,25.523,61.3,19.076,90.616-3.259,14.812-11.834,29.084-25.488,36.543-10.865,5.935-23.992,7.108-36.416,5.556-9.987-1.243-19.181-4.5-28.789-7.185-7.7-2.149-14.019-1.032-21.906.527C1080.907,551.292,1070.59,552.921,1060.217,552.879Z" transform="translate(-945.903 -373.511)" fill="none" stroke="#fff" stroke-miterlimit="10" stroke-width="1.946" stroke-dasharray="3.851 3.851"/>
        </g>
        <g id="Group_3385" data-name="Group 3385" transform="translate(250.266 217.129)">
          <ellipse id="Ellipse_2281" data-name="Ellipse 2281" cx="12.354" cy="0.941" rx="12.354" ry="0.941" transform="translate(0.007 69.237)" fill="#515159" opacity="0.87"/>
          <g id="Group_3384" data-name="Group 3384">
            <path id="Path_9144" data-name="Path 9144" d="M1307.841,693.1s-10.577-7.185-3.786-17.636,5.1-14.075,2.718-17.018a14.624,14.624,0,0,1,1.068,18.809C1304.393,682.007,1303.852,688.468,1307.841,693.1Z" transform="translate(-1293.914 -658.45)" fill="#afafaf"/>
            <g id="Group_3383" data-name="Group 3383" transform="translate(0 39.521)">
              <path id="Path_9145" data-name="Path 9145" d="M1314.053,720.48h-20.4l1.995,25.825h16.414Z" transform="translate(-1291.494 -716.435)" fill="#fefefe"/>
              <rect id="Rectangle_2335" data-name="Rectangle 2335" width="24.708" height="3.027" transform="translate(0 2.725)" fill="#8b8b8c"/>
              <path id="Path_9146" data-name="Path 9146" d="M1311.356,714.72h-15.009a2.7,2.7,0,0,0-2.7,2.7v.028h20.4v-.028A2.687,2.687,0,0,0,1311.356,714.72Z" transform="translate(-1291.494 -714.72)" fill="#5a5a63"/>
              <path id="Path_9147" data-name="Path 9147" d="M1313.192,738.778l.485-6.258h-19.1l.485,6.258Z" transform="translate(-1291.771 -720.018)" fill="#4cc171"/>
            </g>
            <path id="Path_9148" data-name="Path 9148" d="M1318.408,717.445v-.028a2.7,2.7,0,0,0-2.7-2.7h-7.431a2.7,2.7,0,0,1,2.7,2.7v.028h2.156v3.027h-2.29l-1.861,24.118h7.431l1.861-24.118h2.29v-3.027Z" transform="translate(-1295.849 -675.199)" fill="#afafaf"/>
          </g>
        </g>
        <g id="Group_3391" data-name="Group 3391" transform="translate(65.582 73.367)">
          <path id="Path_9149" data-name="Path 9149" d="M1152.444,479.178s4.277-13.408-1.974-17.3c-3.968-2.044-6.138.5-6.138.5s-1.868-9.482-14.728-6.349c-8.33,2.03-10.964-2.269-10.964-2.269s-.077,11.884,5.661,15.416c4.158,3.561,2.564,13.2,2.564,13.2Z" transform="translate(-1054.717 -453.76)" fill="#2f2f35"/>
          <path id="Path_9150" data-name="Path 9150" d="M1171.324,739.41s23.163.7,29.625,6.665c6.8,6.272,13.927,16.077-15.332,15.887s-55.2-8.245-79.751-5.689-44.683,6.96-50.555,5.984,35.953-21.014,35.953-21.014l77.644,2.852Z" transform="translate(-1035.699 -538.786)" fill="#515159" opacity="0.87"/>
          <path id="Path_9151" data-name="Path 9151" d="M1162.017,663.986l-29.2-2.936-29.2,2.936s-1.735,13.794-7.375,21.155l36.571,13.134,36.571-13.134C1163.752,677.787,1162.017,663.986,1162.017,663.986Z" transform="translate(-1048.052 -515.461)" fill="#a87d1d"/>
          <path id="Path_9152" data-name="Path 9152" d="M1143.952,697.86l1.152.414,1.152-.414c6.728-15.48,5.12-32.842,4.72-36.22l-5.872-.59-7.515.752C1137.442,665.517,1137.189,682.485,1143.952,697.86Z" transform="translate(-1060.343 -515.461)" fill="#a87d1d"/>
          <path id="Path_9153" data-name="Path 9153" d="M1106.51,665.12s30.72,13.548,60.394,7.662a68.93,68.93,0,0,1-1.833-8.786l-29.2-2.936-23.451,2.353-5.914,1.707Z" transform="translate(-1051.106 -515.464)" fill="#895436"/>
          <path id="Path_9154" data-name="Path 9154" d="M1124.3,469.186c4.158,3.561,2.563,13.2,2.563,13.2l5.436-.681c5.584-4.966,11.884-11.259,10.971-13.625-1.6-4.151-6.237-8.295-14.777-8.772s-9.854-5.534-9.854-5.534S1118.563,465.654,1124.3,469.186Z" transform="translate(-1054.717 -453.763)" fill="#515159"/>
          <path id="Path_9155" data-name="Path 9155" d="M1134.876,523.62l-24.14,8.8-4,90.658s8.533,4,29.2,4V525.025Z" transform="translate(-1051.175 -474.554)" fill="#fd9f00"/>
          <path id="Path_9156" data-name="Path 9156" d="M1149.37,523.62l24.14,8.8,4,90.658s-8.533,4-29.2,4V525.025Z" transform="translate(-1063.548 -474.554)" fill="#fd9f00"/>
          <path id="Path_9157" data-name="Path 9157" d="M1094.854,536.15l-.112.042a26.155,26.155,0,0,0-15.473,14.883l-25.909,62.712,22.032,2.627,18.654-45.708Z" transform="translate(-1035.286 -478.284)" fill="#ff7e6e"/>
          <path id="Path_9158" data-name="Path 9158" d="M1184.19,536.15l.112.042a26.155,26.155,0,0,1,15.473,14.883l25.909,62.712-22.032,2.627L1185,570.705Z" transform="translate(-1074.229 -478.284)" fill="#ff7e6e"/>
          <path id="Path_9159" data-name="Path 9159" d="M1209.842,575.425l-10.057-24.35a26.136,26.136,0,0,0-15.473-14.883l-.112-.042.815,34.548,5.282,12.951A34.037,34.037,0,0,1,1209.842,575.425Z" transform="translate(-1074.231 -478.284)" fill="#fd9f00"/>
          <path id="Path_9160" data-name="Path 9160" d="M1075.92,575.425l10.057-24.35a26.136,26.136,0,0,1,15.473-14.883l.112-.042-.815,34.548-5.282,12.951A34.037,34.037,0,0,0,1075.92,575.425Z" transform="translate(-1042.001 -478.284)" fill="#fd9f00"/>
          <path id="Path_9161" data-name="Path 9161" d="M1171.822,585.924a26.235,26.235,0,0,1-1.573-2.634l.815,1.44s-9.187,50.976-33.734,59.91h0c2.36.126,4.923.2,7.719.2,20.663,0,29.2-4,29.2-4Z" transform="translate(-1060.28 -492.316)" fill="#b78044"/>
          <path id="Path_9162" data-name="Path 9162" d="M1083.932,562.165c6.23-17.467,6.574-17.334,20.171-20.529s10.928-15.725,10.928-15.725l-12.677,4.621-1.96.716-5.085,1.854-.112.042a26.155,26.155,0,0,0-15.473,14.883L1054.89,608.14C1065.369,600.421,1078.629,577.041,1083.932,562.165Z" transform="translate(-1035.741 -475.236)" fill="#fff6e7" opacity="0.52"/>
          <path id="Path_9163" data-name="Path 9163" d="M1187.11,562.165c-6.23-17.467-6.574-17.334-20.171-20.529s-10.928-15.725-10.928-15.725l12.677,4.621,1.96.716,5.085,1.854.112.042a26.156,26.156,0,0,1,15.473,14.883l24.835,60.113C1205.673,600.421,1192.412,577.041,1187.11,562.165Z" transform="translate(-1065.777 -475.236)" fill="#4c2a29" opacity="0.28"/>
          <path id="Path_9164" data-name="Path 9164" d="M1145.615,530.275h-.133a6.462,6.462,0,0,1-6.462-6.462V508.39h13.049v15.423A6.452,6.452,0,0,1,1145.615,530.275Z" transform="translate(-1060.783 -470.021)" fill="#ff7e6e"/>
          <path id="Path_9165" data-name="Path 9165" d="M1151.974,520.288c.035,0,.07-.007.105-.007V508.39h-6.089l-6.96,2.514C1139.023,510.9,1141.615,520.288,1151.974,520.288Z" transform="translate(-1060.786 -470.021)" fill="#4c2a29"/>
          <path id="Path_9166" data-name="Path 9166" d="M1166.376,493.413a4.193,4.193,0,1,1-4.193-4.193A4.19,4.19,0,0,1,1166.376,493.413Z" transform="translate(-1066.43 -464.315)" fill="#c64f4f"/>
          <path id="Path_9167" data-name="Path 9167" d="M1162.995,497.522a53.819,53.819,0,0,0,1.152-7.789,4.186,4.186,0,1,0-1.974,7.873A4.4,4.4,0,0,0,1162.995,497.522Z" transform="translate(-1066.427 -464.315)" fill="#803d3d"/>
          <path id="Path_9168" data-name="Path 9168" d="M1126.7,493.413a4.193,4.193,0,1,0,4.193-4.193A4.19,4.19,0,0,0,1126.7,493.413Z" transform="translate(-1057.116 -464.315)" fill="#c64f4f"/>
          <path id="Path_9169" data-name="Path 9169" d="M1131.012,497.522a53.819,53.819,0,0,1-1.152-7.789,4.186,4.186,0,1,1,1.974,7.873A4.53,4.53,0,0,1,1131.012,497.522Z" transform="translate(-1058.057 -464.315)" fill="#803d3d"/>
          <path id="Path_9170" data-name="Path 9170" d="M1151.021,474.32h-14.749l-3.652,7.979.611,7.894c.33,4.214,3.048,11.483,6.876,13.274a7.494,7.494,0,0,0,7.066,0c3.828-1.784,6.553-9.06,6.876-13.274l.611-7.894Z" transform="translate(-1058.878 -459.88)" fill="#ff7e6e"/>
          <path id="Path_9171" data-name="Path 9171" d="M1153.7,488.58a11.4,11.4,0,0,0,5.275,0" transform="translate(-1065.153 -464.124)" fill="none" stroke="#2f2f35" stroke-linecap="round" stroke-miterlimit="10" stroke-width="1.336"/>
          <path id="Path_9172" data-name="Path 9172" d="M1152.56,482.059s3.617-.6,5.787.653" transform="translate(-1064.814 -462.14)" fill="none" stroke="#2f2f35" stroke-linecap="round" stroke-miterlimit="10" stroke-width="2.672"/>
          <path id="Path_9173" data-name="Path 9173" d="M1140.695,488.58a11.4,11.4,0,0,1-5.275,0" transform="translate(-1059.712 -464.124)" fill="none" stroke="#2f2f35" stroke-linecap="round" stroke-miterlimit="10" stroke-width="1.336"/>
          <path id="Path_9174" data-name="Path 9174" d="M1141.607,482.059s-3.617-.6-5.787.653" transform="translate(-1059.831 -462.14)" fill="none" stroke="#2f2f35" stroke-linecap="round" stroke-miterlimit="10" stroke-width="2.672"/>
          <path id="Path_9175" data-name="Path 9175" d="M1136,491.211c-.484-7.979-1.5-16.891-1.5-16.891l-3.652,7.979.2,2.507c-.056,0-.105-.014-.161-.014a4.193,4.193,0,1,0,0,8.386,4.333,4.333,0,0,0,1.053-.147c.99,4.074,3.336,9.018,6.4,10.444a8.443,8.443,0,0,0,3.533.885A21.634,21.634,0,0,1,1136,491.211Z" transform="translate(-1057.113 -459.88)" fill="#fff6e7" opacity="0.52"/>
          <g id="Group_3386" data-name="Group 3386" transform="translate(0.114 157.794)">
            <path id="Path_9176" data-name="Path 9176" d="M1137.636,704.631l-83.417-25.305a20.392,20.392,0,0,0-25.65,14.356l-.112.421a20.4,20.4,0,0,0,16.21,25.249c30.84,5.394,86.746,14.559,116.167,15.683l12.4,8.267a4.84,4.84,0,0,0,6-.5l.063-.063a4.848,4.848,0,0,0,.225-6.848l-1.931-2.065a17.961,17.961,0,0,0-10.24-12c-8.512-3.6-9.313-12.4-11.315-17.2S1141.239,697.432,1137.636,704.631Z" transform="translate(-1027.788 -678.433)" fill="#8c4242"/>
            <path id="Path_9177" data-name="Path 9177" d="M1028.571,693.67a20.39,20.39,0,0,1,25.65-14.356l28.29,8.583c-4.263,5.317-9.882,16.1-10.051,36.135-10.331-1.679-19.883-3.308-27.785-4.692a20.39,20.39,0,0,1-16.21-25.249Z" transform="translate(-1027.79 -678.429)" fill="#fd9f00"/>
            <path id="Path_9178" data-name="Path 9178" d="M1054.888,716.311a20.871,20.871,0,0,1-2.255,9.454c-2.8-.478-5.464-.941-7.958-1.377a20.39,20.39,0,0,1-16.21-25.249l.112-.421a19.884,19.884,0,0,1,1-2.9,20.961,20.961,0,0,1,25.312,20.494Z" transform="translate(-1027.79 -683.468)" fill="#c58948" opacity="0.67"/>
            <path id="Path_9179" data-name="Path 9179" d="M1184.467,732.24s-1.2,6.988-12.8,4.5" transform="translate(-1070.615 -694.446)" fill="none" stroke="#7b3c38" stroke-miterlimit="10" stroke-width="1.139"/>
            <path id="Path_9180" data-name="Path 9180" d="M1159.244,713.173s-17.769-.8-55.373-7.508c-30.461-5.436-39.394-21.021-41.691-26.745a20.082,20.082,0,0,1,2.269.548l83.417,25.305c3.6-7.2,16.4-4.8,18.4,0s2.8,13.6,11.315,17.2a18,18,0,0,1,10.24,12s-8.758-5.6-14.293-6.8S1159.244,713.173,1159.244,713.173Z" transform="translate(-1038.025 -678.575)" fill="#4c2a29" opacity="0.28"/>
          </g>
          <path id="Path_9181" data-name="Path 9181" d="M1197.064,743.028s15.318,14.658,28.375,8.625a3.806,3.806,0,0,0,1.433-5.7c-11-14.939-24.87-31.212-30.158-37.33a5.18,5.18,0,0,0-5.359-1.587L1176.31,711.4Z" transform="translate(-1071.883 -529.088)" fill="#2f2f35"/>
          <path id="Path_9182" data-name="Path 9182" d="M1170.212,711.486,1155.8,707.11l10.914,33.586,24.245,2.416Z" transform="translate(-1065.778 -529.172)" fill="#a5a5a5"/>
          <path id="Path_9183" data-name="Path 9183" d="M1094.134,704.631l83.417-25.305a20.392,20.392,0,0,1,25.65,14.356l.112.421a20.4,20.4,0,0,1-16.21,25.249c-30.84,5.394-86.746,14.559-116.167,15.683l-12.4,8.267a4.84,4.84,0,0,1-6-.5l-.063-.063a4.848,4.848,0,0,1-.225-6.848l1.931-2.065a17.985,17.985,0,0,1,10.24-12c8.512-3.6,9.313-12.4,11.315-17.2S1090.531,697.432,1094.134,704.631Z" transform="translate(-1034.565 -520.638)" fill="#ff7e6e"/>
          <path id="Path_9184" data-name="Path 9184" d="M1244.87,693.67a20.39,20.39,0,0,0-25.65-14.356l-28.29,8.583c4.263,5.317,9.882,16.1,10.051,36.135,10.331-1.679,19.883-3.308,27.785-4.692a20.386,20.386,0,0,0,16.21-25.249Z" transform="translate(-1076.235 -520.634)" fill="#fd9f00"/>
          <path id="Path_9185" data-name="Path 9185" d="M1230.26,716.311a20.871,20.871,0,0,0,2.254,9.454c2.8-.478,5.464-.941,7.958-1.377a20.386,20.386,0,0,0,16.21-25.249l-.112-.421a19.869,19.869,0,0,0-1-2.9,20.961,20.961,0,0,0-25.312,20.494Z" transform="translate(-1087.942 -525.674)" fill="#d19655" opacity="0.67"/>
          <path id="Path_9186" data-name="Path 9186" d="M1084.128,713.173s17.769-.8,55.373-7.508c30.46-5.436,39.394-21.021,41.691-26.745a20.082,20.082,0,0,0-2.269.548l-83.417,25.305c-3.6-7.2-16.4-4.8-18.4,0s-2.8,13.6-11.315,17.2a18,18,0,0,0-10.24,12s8.758-5.6,14.293-6.8S1084.128,713.173,1084.128,713.173Z" transform="translate(-1035.938 -520.781)" fill="#4c2a29" opacity="0.28"/>
          <path id="Path_9187" data-name="Path 9187" d="M1057.478,721.692l-12.5-2.318a20.594,20.594,0,0,1-17.053-23.8l.077-.443a20.6,20.6,0,0,1,26.521-16.161l23.613,7.487" transform="translate(-1027.626 -520.507)" fill="none" stroke="#fff" stroke-miterlimit="10" stroke-width="1.114" opacity="0.57"/>
          <path id="Path_9188" data-name="Path 9188" d="M1141.977,498.19a.546.546,0,0,0-.435.878,5.619,5.619,0,0,0,9.468,0,.549.549,0,0,0-.435-.878Z" transform="translate(-1061.5 -466.985)" fill="#fff"/>
          <path id="Path_9189" data-name="Path 9189" d="M1149.068,488.33v4.341a2.89,2.89,0,0,0-2.388,0" transform="translate(-1063.063 -464.05)" fill="none" stroke="#2f2f35" stroke-linecap="round" stroke-miterlimit="10" stroke-width="0.821"/>
          <rect id="Rectangle_2336" data-name="Rectangle 2336" width="1.068" height="6.792" transform="translate(88.547 8.625)" fill="#ff7e6e"/>
          <g id="Group_3387" data-name="Group 3387" transform="translate(98.248 130.966)">
            <path id="Path_9190" data-name="Path 9190" d="M1220.727,646.69l.042.119a14.716,14.716,0,0,1-7.016,18.043l-44.543,23.353-.218-.569a21.911,21.911,0,0,1,9.643-26.977l20.059-11.35Z" transform="translate(-1167.512 -642.153)" fill="#ff7e6e"/>
            <path id="Path_9191" data-name="Path 9191" d="M1229.88,662.913a9.665,9.665,0,0,0,1.131,4.551l1.306-.688a14.715,14.715,0,0,0,7.866-13.6c-.183-.007-.358-.028-.541-.028A9.769,9.769,0,0,0,1229.88,662.913Z" transform="translate(-1186.076 -644.076)" fill="#4c2a29" opacity="0.28"/>
            <line id="Line_234" data-name="Line 234" y1="7.164" x2="12.621" transform="translate(31.183)" fill="none" stroke="#4c2a29" stroke-linecap="round" stroke-miterlimit="10" stroke-width="1.336"/>
          </g>
          <g id="Group_3388" data-name="Group 3388" transform="translate(17.28 130.966)">
            <path id="Path_9192" data-name="Path 9192" d="M1053.15,646.69l-.042.119a14.716,14.716,0,0,0,7.016,18.043l44.542,23.353.218-.569a21.911,21.911,0,0,0-9.643-26.977l-20.059-11.35Z" transform="translate(-1052.229 -642.153)" fill="#ff7e6e"/>
            <path id="Path_9193" data-name="Path 9193" d="M1062.559,662.913a9.663,9.663,0,0,1-1.131,4.551l-1.306-.688a14.715,14.715,0,0,1-7.866-13.6c.183-.007.358-.028.541-.028A9.764,9.764,0,0,1,1062.559,662.913Z" transform="translate(-1052.234 -644.076)" fill="#4c2a29" opacity="0.28"/>
            <line id="Line_235" data-name="Line 235" x1="12.628" y1="7.164" transform="translate(10.325)" fill="none" stroke="#4c2a29" stroke-linecap="round" stroke-miterlimit="10" stroke-width="1.336"/>
          </g>
          <path id="Path_9194" data-name="Path 9194" d="M1117.7,695.2s2.247-12.333-5.071-16.294" transform="translate(-1052.928 -520.778)" fill="none" stroke="#4c2a29" stroke-linecap="round" stroke-miterlimit="10" stroke-width="1.336"/>
          <path id="Path_9195" data-name="Path 9195" d="M1176.642,695.2s-2.247-12.333,5.071-16.294" transform="translate(-1071.885 -520.778)" fill="none" stroke="#4c2a29" stroke-linecap="round" stroke-miterlimit="10" stroke-width="1.336"/>
          <path id="Path_9196" data-name="Path 9196" d="M1077.812,743.028s-15.318,14.658-28.375,8.625a3.806,3.806,0,0,1-1.433-5.7c11-14.939,24.87-31.212,30.158-37.33a5.18,5.18,0,0,1,5.359-1.587l15.044,4.369Z" transform="translate(-1033.47 -529.088)" fill="#2f2f35"/>
          <path id="Path_9197" data-name="Path 9197" d="M1111.514,711.486l14.405-4.376L1115,740.7l-24.245,2.416Z" transform="translate(-1046.418 -529.172)" fill="#ececec"/>
          <path id="Path_9198" data-name="Path 9198" d="M1111.78,720.616c4.277-.457,9.826-1.124,16.695-2.093l3.708-11.413-14.405,4.369Z" transform="translate(-1052.675 -529.172)" fill="#4c2a29" opacity="0.28"/>
          <path id="Path_9199" data-name="Path 9199" d="M1091.818,742.292l-8.358,12.74a2.459,2.459,0,0,1-2.388,1.089l-.056-.007a2.462,2.462,0,0,1-1.707-3.821l8.548-12.621a2.351,2.351,0,0,1,2.486-.969l.049.014A2.347,2.347,0,0,1,1091.818,742.292Z" transform="translate(-1042.883 -538.557)" fill="#fff6e7"/>
          <g id="Group_3390" data-name="Group 3390" transform="translate(32.465 127.131)">
            <g id="Group_3389" data-name="Group 3389">
              <path id="Path_9200" data-name="Path 9200" d="M1125,639.01H1073.85l12.607,44.922h77.082l12.614-44.922Z" transform="translate(-1073.85 -636.032)" fill="#afafaf"/>
              <rect id="Rectangle_2337" data-name="Rectangle 2337" width="77.082" height="6.546" transform="translate(12.607 47.9)" fill="#8b8b8c"/>
              <ellipse id="Ellipse_2282" data-name="Ellipse 2282" cx="12.509" cy="6.405" rx="12.509" ry="6.405" transform="translate(38.727 22.58)" fill="#5a5a63"/>
              <rect id="Rectangle_2338" data-name="Rectangle 2338" width="102.303" height="2.978" transform="translate(0)" fill="#5a5a63"/>
              <rect id="Rectangle_2339" data-name="Rectangle 2339" width="7.719" height="2.634" transform="translate(16.877 49.782)" fill="#5a5a63"/>
              <rect id="Rectangle_2340" data-name="Rectangle 2340" width="7.719" height="2.634" transform="translate(28.024 49.782)" fill="#5a5a63"/>
              <line id="Line_236" data-name="Line 236" x1="46.909" transform="translate(42.78 51.173)" fill="none" stroke="#0f1201" stroke-miterlimit="10" stroke-width="1"/>
              <path id="Path_9201" data-name="Path 9201" d="M1073.85,637.748l12.614,44.922h27.454c16.3-18.9,26.2-44.922,26.2-44.922l-.035-2.978H1073.85Z" transform="translate(-1073.85 -634.77)" fill="#fff" opacity="0.54"/>
            </g>
            <line id="Line_237" data-name="Line 237" x2="102.303" transform="translate(0 2.978)" fill="none" stroke="#0f1201" stroke-miterlimit="10" stroke-width="1" opacity="0.57"/>
          </g>
        </g>
        <g id="Group_3397" data-name="Group 3397" transform="translate(26.352 180.995)">
          <ellipse id="Ellipse_2283" data-name="Ellipse 2283" cx="18.549" cy="0.941" rx="18.549" ry="0.941" transform="translate(0 105.371)" fill="#515159" opacity="0.87"/>
          <g id="Group_3396" data-name="Group 3396" transform="translate(5.766)">
            <g id="Group_3395" data-name="Group 3395">
              <path id="Path_9202" data-name="Path 9202" d="M999.293,709.769l1.215-1.327-.611.66.611-.66c-.147-.141-14.791-14.988,2.894-81.865l-1.742-.457C983.617,694.4,998.647,709.172,999.293,709.769Z" transform="translate(-983.799 -612.692)" fill="#5a5a63"/>
              <g id="Group_3392" data-name="Group 3392" transform="translate(7.266 14.601)">
                <path id="Path_9203" data-name="Path 9203" d="M993.1,628.233c6.7,6.089,5.52,13.281,5.52,13.281s-6.707-2.859-8.267-11.778A1.653,1.653,0,0,1,993.1,628.233Z" transform="translate(-990.325 -627.791)" fill="#5a5a63"/>
                <path id="Path_9204" data-name="Path 9204" d="M1013.37,634.509c-8.8,2.114-11.23,8.983-11.23,8.983s7.255.716,12.909-6.349A1.647,1.647,0,0,0,1013.37,634.509Z" transform="translate(-993.841 -629.776)" fill="#5a5a63"/>
              </g>
              <g id="Group_3393" data-name="Group 3393" transform="translate(2.813 32.197)">
                <path id="Path_9205" data-name="Path 9205" d="M986.622,653.178c7.276,5.38,6.834,12.663,6.834,12.663s-6.96-2.17-9.4-10.886A1.647,1.647,0,0,1,986.622,653.178Z" transform="translate(-983.985 -652.843)" fill="#5a5a63"/>
                <path id="Path_9206" data-name="Path 9206" d="M1007.735,656.967c-8.54,2.985-10.275,10.072-10.275,10.072s7.29-.014,12.207-7.613A1.647,1.647,0,0,0,1007.735,656.967Z" transform="translate(-987.996 -654.041)" fill="#5a5a63"/>
              </g>
              <g id="Group_3394" data-name="Group 3394" transform="translate(0 47.603)">
                <path id="Path_9207" data-name="Path 9207" d="M982.522,675.047c7.656,4.832,7.747,12.122,7.747,12.122s-7.1-1.651-10.184-10.163A1.649,1.649,0,0,1,982.522,675.047Z" transform="translate(-979.979 -674.78)" fill="#5a5a63"/>
                <path id="Path_9208" data-name="Path 9208" d="M1004.133,676.977c-8.3,3.61-9.5,10.8-9.5,10.8s7.269-.555,11.61-8.491A1.647,1.647,0,0,0,1004.133,676.977Z" transform="translate(-984.34 -675.39)" fill="#5a5a63"/>
              </g>
              <path id="Path_9209" data-name="Path 9209" d="M1011.955,608.637c.155,9.046-5.9,13.12-5.9,13.12s-2.507-6.848,2.922-14.089A1.654,1.654,0,0,1,1011.955,608.637Z" transform="translate(-987.569 -607.002)" fill="#5a5a63"/>
            </g>
            <rect id="Rectangle_2341" data-name="Rectangle 2341" width="19.448" height="38.474" transform="translate(2.354 67.424)" fill="#359e56"/>
            <rect id="Rectangle_2342" data-name="Rectangle 2342" width="7.768" height="38.474" transform="translate(14.034 67.424)" fill="#4cc171" opacity="0.67"/>
          </g>
        </g>
        <g id="Group_3409" data-name="Group 3409" transform="translate(15.611)">
          <g id="Group_3399" data-name="Group 3399" transform="translate(109.917 0.474)">
            <path id="Path_9214" data-name="Path 9214" d="M1153.83,354.792a22.781,22.781,0,0,0-8.562-4.881l-.141-.042a16.709,16.709,0,0,0-8.646,0l-.141.042a22.78,22.78,0,0,0-8.562,4.881c-7.15,6.8-5.991,19.139.976,25.65a12.621,12.621,0,0,1,3.406,6.785c.183.78,1.215,8.948.857,8.948h15.571c-.358,0,.674-8.168.857-8.948a12.622,12.622,0,0,1,3.406-6.785C1159.821,373.931,1160.98,361.591,1153.83,354.792Z" transform="translate(-1122.945 -349.3)" fill="#4cc171"/>
            <path id="Path_9215" data-name="Path 9215" d="M1138.01,387.229a12.621,12.621,0,0,0-3.406-6.785c-6.96-6.511-8.126-18.851-.976-25.65a22.779,22.779,0,0,1,8.562-4.881l.14-.042c.464-.126.934-.218,1.4-.3a16.7,16.7,0,0,0-7.241.3l-.14.042a22.78,22.78,0,0,0-8.562,4.881c-7.15,6.8-5.991,19.139.976,25.65a12.621,12.621,0,0,1,3.406,6.785c.183.78,1.215,8.948.857,8.948h5.843C1139.225,396.177,1138.192,388.009,1138.01,387.229Z" transform="translate(-1122.948 -349.303)" fill="#fff6e7" opacity="0.52"/>
            <path id="Path_9216" data-name="Path 9216" d="M1146.707,401.086v-19.23l3.35-1.742c1.11-.639-2.905-.434-4.142-.764l3.139-2.035-5.445-1.437c-1.04-.274,3.534-1.4,4.517-1.834l-1.42-1.783V365.8" transform="translate(-1128.843 -354.211)" fill="#f5f5f5" stroke="#fd9f00" stroke-linecap="round" stroke-miterlimit="10" stroke-width="2.239"/>
            <path id="Path_9217" data-name="Path 9217" d="M1153.526,419.326a1.049,1.049,0,0,1-1.047,1.046h-17.123a1.049,1.049,0,0,1-1.046-1.046h0a1.049,1.049,0,0,1,1.046-1.046h17.123a1.049,1.049,0,0,1,1.047,1.046Z" transform="translate(-1126.328 -369.832)" fill="#2f2f35"/>
            <path id="Path_9218" data-name="Path 9218" d="M1153.526,423.806a1.049,1.049,0,0,1-1.047,1.046h-17.123a1.049,1.049,0,0,1-1.046-1.046h0a1.049,1.049,0,0,1,1.046-1.046h17.123a1.04,1.04,0,0,1,1.047,1.046Z" transform="translate(-1126.328 -371.166)" fill="#2f2f35"/>
            <path id="Path_9219" data-name="Path 9219" d="M1153.526,428.276a1.049,1.049,0,0,1-1.047,1.047h-17.123a1.049,1.049,0,0,1-1.046-1.047h0a1.049,1.049,0,0,1,1.046-1.047h17.123a1.049,1.049,0,0,1,1.047,1.047Z" transform="translate(-1126.328 -372.496)" fill="#2f2f35"/>
            <path id="Path_9220" data-name="Path 9220" d="M1145.4,438.067a6.118,6.118,0,0,0,6.117-6.117H1139.29A6.1,6.1,0,0,0,1145.4,438.067Z" transform="translate(-1127.81 -373.901)" fill="#2f2f35"/>
          </g>
          <g id="Group_3401" data-name="Group 3401" transform="translate(172.904 9.742)">
            <path id="Path_9221" data-name="Path 9221" d="M1236.7,438.065v-4.923h-2.177a14.866,14.866,0,0,0-2.732-6.307l1.728-1.728-3.484-3.484-1.791,1.791a14.83,14.83,0,0,0-6.258-2.423V418.42h-4.924v2.669a14.8,14.8,0,0,0-5.97,2.585l-1.742-1.742-3.484,3.484,1.763,1.763a14.705,14.705,0,0,0-2.521,6.286h-2.444v4.923h2.5a14.78,14.78,0,0,0,2.606,6.11l-1.924,1.924,3.484,3.484,1.946-1.945a14.754,14.754,0,0,0,6.1,2.493v2.655h4.923v-2.655a14.817,14.817,0,0,0,6.082-2.479l1.629,1.629,3.484-3.484-1.6-1.6a14.781,14.781,0,0,0,2.669-6.447h2.135Zm-16.856,6.047a8.372,8.372,0,1,1,8.372-8.372A8.375,8.375,0,0,1,1219.839,444.112Z" transform="translate(-1202.66 -379.616)" fill="#666"/>
            <path id="Path_9222" data-name="Path 9222" d="M1270.753,468.169v-2.837H1269.5a8.563,8.563,0,0,0-1.573-3.638l1-1-2.009-2.009-1.032,1.032a8.519,8.519,0,0,0-3.61-1.4V456.84h-2.837v1.538a8.515,8.515,0,0,0-3.442,1.489l-1-1-2.009,2.009L1254,461.89a8.527,8.527,0,0,0-1.454,3.624h-1.412v2.837h1.44a8.563,8.563,0,0,0,1.5,3.526l-1.11,1.11,2.009,2.009,1.124-1.124a8.612,8.612,0,0,0,3.519,1.44v1.531h2.837v-1.531a8.571,8.571,0,0,0,3.512-1.433l.941.941,2.009-2.009-.92-.92a8.5,8.5,0,0,0,1.538-3.722Zm-9.728,3.491a4.832,4.832,0,1,1,4.832-4.832A4.832,4.832,0,0,1,1261.026,471.659Z" transform="translate(-1217.088 -391.052)" fill="#9e9e9e"/>
            <g id="Group_3400" data-name="Group 3400" transform="translate(28.529)">
              <path id="Path_9223" data-name="Path 9223" d="M1313.156,403.513V393.406h-4.467a30.4,30.4,0,0,0-5.612-12.958l3.547-3.547-7.15-7.15-3.673,3.673a30.478,30.478,0,0,0-12.853-4.973V363.17h-10.107v5.478a30.45,30.45,0,0,0-12.256,5.3l-3.575-3.575-7.15,7.15,3.624,3.624a30.431,30.431,0,0,0-5.183,12.9h-5.022v10.107h5.127a30.471,30.471,0,0,0,5.352,12.551l-3.947,3.947,7.15,7.15,4-4a30.411,30.411,0,0,0,12.53,5.12v5.457h10.107V428.93a30.423,30.423,0,0,0,12.488-5.092l3.343,3.343,7.15-7.15-3.287-3.287a30.423,30.423,0,0,0,5.478-13.239h4.39Zm-34.611,12.424a17.193,17.193,0,1,1,17.193-17.193A17.193,17.193,0,0,1,1278.545,415.937Z" transform="translate(-1243.28 -363.17)" fill="#4cc171"/>
              <circle id="Ellipse_2284" data-name="Ellipse 2284" cx="10.093" cy="10.093" r="10.093" transform="translate(24.842 25.516)" fill="#fd9f00"/>
            </g>
          </g>
          <g id="Group_3408" data-name="Group 3408" transform="translate(199.144 111.848)">
            <path id="Path_9245" data-name="Path 9245" d="M1263.87,514.52l1.482,3,3.308.485-2.4,2.332.569,3.3-2.964-1.559-2.964,1.559.569-3.3-2.4-2.332,3.308-.485Z" transform="translate(-1245.693 -510.327)" fill="#9e9e9e"/>
            <path id="Path_9246" data-name="Path 9246" d="M1323.763,508.55l2.065,4.193,4.621.667-3.343,3.266.787,4.6-4.13-2.17-4.137,2.17.787-4.6-3.343-3.266,4.621-.667Z" transform="translate(-1262.955 -508.55)" fill="#666"/>
            <path id="Path_9247" data-name="Path 9247" d="M1306.6,597.95l1.152,2.332,2.578.379-1.868,1.819.443,2.571-2.3-1.215-2.311,1.215.443-2.571-1.868-1.819,2.578-.379Z" transform="translate(-1258.725 -535.161)" fill="#9e9e9e"/>
            <path id="Path_9248" data-name="Path 9248" d="M1246.713,575.39l2.065,4.193,4.628.667-3.35,3.259.794,4.607-4.137-2.17-4.137,2.17.794-4.607-3.35-3.259,4.628-.667Z" transform="translate(-1240.02 -528.445)" fill="#666"/>
            <g id="Group_3407" data-name="Group 3407" transform="translate(0.696 5.463)">
              <g id="Group_3405" data-name="Group 3405" transform="translate(7.107)">
                <path id="Path_23003" data-name="Path 23003" d="M23.058,0A23.058,23.058,0,1,1,0,23.058,23.058,23.058,0,0,1,23.058,0Z" transform="translate(0 17.164) rotate(-21.85)" fill="#4cc171"/>
              </g>
              <g id="Group_3406" data-name="Group 3406" transform="translate(13.986 7.706)" opacity="0.67">
                <path id="Path_9249" data-name="Path 9249" d="M1277.792,571.779a23.017,23.017,0,0,0,22.173-5.591,23.051,23.051,0,0,1-21.927-38.889,23.053,23.053,0,0,0-.246,44.479Z" transform="translate(-1260.924 -527.3)" fill="#379e57"/>
              </g>
              <path id="Path_9250" data-name="Path 9250" d="M1300.725,527.1a23.213,23.213,0,0,0-3.448-.688,25.17,25.17,0,0,0,18.717,31.324,23.084,23.084,0,0,0-15.269-30.636Z" transform="translate(-1257.483 -519.33)" fill="#fff6e7" opacity="0.52"/>
              <path id="Path_9251" data-name="Path 9251" d="M1255.078,552.289c-8.948-3.484-14.51-6.637-14.04-8.316.78-2.788,17.945-.428,38.355,5.261s36.311,12.565,35.538,15.353c-.464,1.672-6.82,1.5-16.224-.141" transform="translate(-1241.011 -524.209)" fill="none" stroke="#fd9f00" stroke-miterlimit="10" stroke-width="2"/>
            </g>
          </g>
        </g>
      </g>
    </g>
    <g id="Group_11506" data-name="Group 11506" transform="translate(-164 124)">
      <path id="Path_23005" data-name="Path 23005" d="M18.748,0A18.748,18.748,0,1,1,0,18.748,18.748,18.748,0,0,1,18.748,0Z" transform="translate(266.632 77.024) rotate(-45)" fill="#45af66"/>
      <circle id="Ellipse_497" data-name="Ellipse 497" cx="12.841" cy="12.841" r="12.841" transform="translate(274.985 77.024) rotate(-45)" fill="#9c3587"/>
      <path id="Path_8056" data-name="Path 8056" d="M535.9,92.435a12.841,12.841,0,1,0,12.841,12.841A12.841,12.841,0,0,0,535.9,92.435Zm1.076,23.781v-1.754a.59.59,0,0,0-.59-.59h-.973a.59.59,0,0,0-.59.59v1.754a11,11,0,0,1-9.864-9.864h1.753a.59.59,0,0,0,.59-.59v-.972a.59.59,0,0,0-.59-.59h-1.753a11,11,0,0,1,9.864-9.864v1.753a.59.59,0,0,0,.59.59h.973a.59.59,0,0,0,.59-.59V94.336a11,11,0,0,1,9.864,9.864h-1.753a.59.59,0,0,0-.59.59v.972a.59.59,0,0,0,.59.59h1.753A11,11,0,0,1,536.974,116.216Z" transform="translate(-242.753 -28.252)" fill="#9c3587"/>
      <text id="_24_7" data-name="24/7" transform="translate(293.145 79.213)" fill="#9c3587" font-size="7" font-family="SegoeUI, Segoe UI"><tspan x="-7.024" y="0">24/7</tspan></text>
    </g>
    <g id="Group_11507" data-name="Group 11507" transform="translate(-161.304 126.696)">
      <circle id="Ellipse_496" data-name="Ellipse 496" cx="16.841" cy="16.841" r="16.841" transform="translate(266.632 74.328) rotate(-45)" fill="#4cc171"/>
      <circle id="Ellipse_497-2" data-name="Ellipse 497" cx="11.535" cy="11.535" r="11.535" transform="translate(274.136 74.328) rotate(-45)" fill="#fff"/>
      <path id="Path_8056-2" data-name="Path 8056" d="M534.592,92.435a11.535,11.535,0,1,0,11.535,11.535A11.535,11.535,0,0,0,534.592,92.435Zm.967,21.363v-1.575a.53.53,0,0,0-.53-.53h-.874a.53.53,0,0,0-.53.53V113.8a9.878,9.878,0,0,1-8.861-8.861h1.575a.53.53,0,0,0,.53-.53v-.873a.53.53,0,0,0-.53-.53h-1.575a9.878,9.878,0,0,1,8.861-8.861v1.575a.53.53,0,0,0,.53.53h.874a.53.53,0,0,0,.53-.53V94.142A9.878,9.878,0,0,1,544.42,103h-1.575a.53.53,0,0,0-.53.53v.873a.53.53,0,0,0,.53.53h1.575A9.878,9.878,0,0,1,535.559,113.8Z" transform="translate(-244.143 -29.643)" fill="#46b168"/>
      <text id="_24_7-2" data-name="24/7" transform="translate(290.161 75.108)" fill="#fd9f00" font-size="6" font-family="SegoeUI, Segoe UI"><tspan x="-6.021" y="0">24/7</tspan></text>
    </g>
    <g id="Group_11508" data-name="Group 11508" transform="translate(82.222 248.652)">
      <path id="Path_23006" data-name="Path 23006" d="M18.748,0A18.748,18.748,0,1,1,0,18.748,18.748,18.748,0,0,1,18.748,0Z" transform="matrix(0.928, -0.373, 0.373, 0.928, 0, 13.99)" fill="#4cc171"/>
      <g id="Group_6917" data-name="Group 6917" transform="translate(13.603 14.754)">
        <path id="Rectangle_2234" data-name="Rectangle 2234" d="M3.3,0H18.269a3.3,3.3,0,0,1,3.3,3.3V15.143a3.3,3.3,0,0,1-3.3,3.3H3.3a3.3,3.3,0,0,1-3.3-3.3V3.3A3.3,3.3,0,0,1,3.3,0Z" transform="translate(21.573 19.269) rotate(180)" fill="#fff"/>
        <path id="Path_8051" data-name="Path 8051" d="M408.025,83.8H429.6V81.425a1.482,1.482,0,0,0-1.482-1.482H409.507a1.482,1.482,0,0,0-1.482,1.482Z" transform="translate(-408.025 -79.12)" fill="#fd9f00"/>
        <g id="Group_6904" data-name="Group 6904" transform="translate(3.465)">
          <g id="Group_6903" data-name="Group 6903">
            <g id="Group_6900" data-name="Group 6900" transform="translate(12.517)">
              <g id="Group_6899" data-name="Group 6899">
                <path id="Path_8052" data-name="Path 8052" d="M444.082,79.754h0a.437.437,0,0,0,.437-.437v-.771a.437.437,0,0,0-.437-.437h0a.437.437,0,0,0-.437.437v.771A.437.437,0,0,0,444.082,79.754Z" transform="translate(-443.644 -78.108)" fill="#fff"/>
                <path id="Path_8053" data-name="Path 8053" d="M446.868,79.754h0a.437.437,0,0,0,.438-.437v-.771a.437.437,0,0,0-.438-.437h0a.437.437,0,0,0-.437.437v.771A.437.437,0,0,0,446.868,79.754Z" transform="translate(-445.181 -78.108)" fill="#fff"/>
              </g>
            </g>
            <g id="Group_6902" data-name="Group 6902">
              <g id="Group_6901" data-name="Group 6901">
                <path id="Path_8054" data-name="Path 8054" d="M416.185,79.754h0a.437.437,0,0,0,.437-.437v-.771a.437.437,0,0,0-.437-.437h0a.437.437,0,0,0-.437.437v.771A.437.437,0,0,0,416.185,79.754Z" transform="translate(-415.747 -78.108)" fill="#fff"/>
                <path id="Path_8055" data-name="Path 8055" d="M418.971,79.754h0a.437.437,0,0,0,.437-.437v-.771a.437.437,0,0,0-.437-.437h0a.437.437,0,0,0-.437.437v.771A.437.437,0,0,0,418.971,79.754Z" transform="translate(-417.284 -78.108)" fill="#fff"/>
              </g>
            </g>
          </g>
        </g>
        <g id="Group_6916" data-name="Group 6916" transform="translate(2.898 6.979)">
          <g id="Group_6915" data-name="Group 6915">
            <g id="Group_6905" data-name="Group 6905" transform="translate(8.894)">
              <rect id="Rectangle_2235" data-name="Rectangle 2235" width="1.869" height="1.869" rx="0.793" fill="#dbe9ff"/>
            </g>
            <g id="Group_6906" data-name="Group 6906" transform="translate(4.447)">
              <rect id="Rectangle_2236" data-name="Rectangle 2236" width="1.869" height="1.869" rx="0.793" fill="#dbe9ff"/>
            </g>
            <g id="Group_6907" data-name="Group 6907">
              <rect id="Rectangle_2237" data-name="Rectangle 2237" width="1.869" height="1.869" rx="0.793" fill="#dbe9ff"/>
            </g>
            <g id="Group_6908" data-name="Group 6908" transform="translate(13.341 3.829)">
              <rect id="Rectangle_2238" data-name="Rectangle 2238" width="1.869" height="1.869" rx="0.793" fill="#dbe9ff"/>
            </g>
            <g id="Group_6909" data-name="Group 6909" transform="translate(8.894 3.829)">
              <rect id="Rectangle_2239" data-name="Rectangle 2239" width="1.869" height="1.869" rx="0.793" fill="#dbe9ff"/>
            </g>
            <g id="Group_6910" data-name="Group 6910" transform="translate(4.447 3.829)">
              <rect id="Rectangle_2240" data-name="Rectangle 2240" width="1.869" height="1.869" rx="0.793" fill="#dbe9ff"/>
            </g>
            <g id="Group_6911" data-name="Group 6911" transform="translate(0 3.829)">
              <rect id="Rectangle_2241" data-name="Rectangle 2241" width="1.869" height="1.869" rx="0.793" fill="#dbe9ff"/>
            </g>
            <g id="Group_6912" data-name="Group 6912" transform="translate(13.341 7.658)">
              <rect id="Rectangle_2242" data-name="Rectangle 2242" width="1.869" height="1.869" rx="0.793" fill="#dbe9ff"/>
            </g>
            <g id="Group_6913" data-name="Group 6913" transform="translate(8.894 7.658)">
              <rect id="Rectangle_2243" data-name="Rectangle 2243" width="1.869" height="1.869" rx="0.793" fill="#dbe9ff"/>
            </g>
            <g id="Group_6914" data-name="Group 6914" transform="translate(4.447 7.658)">
              <rect id="Rectangle_2244" data-name="Rectangle 2244" width="1.869" height="1.869" rx="0.793" fill="#dbe9ff"/>
            </g>
          </g>
        </g>
      </g>
    </g>
  </g>
</svg>
