<svg xmlns="http://www.w3.org/2000/svg" width="13.641" height="10.866" viewBox="0 0 13.641 10.866">
  <g id="Group_11727" data-name="Group 11727" transform="translate(-30.121 -446.453)">
    <rect id="Rectangle_2074" data-name="Rectangle 2074" width="12" height="6" transform="translate(31 446.453)" fill="#14729c"/>
    <g id="_4486285281582823592_1_" data-name="4486285281582823592 (1)" transform="translate(29.275 441.285)">
      <path id="Path_4182" data-name="Path 4182" d="M13.685,29.183a.284.284,0,0,0-.33.463,1.643,1.643,0,0,1,.3.314l-5.99,4.084L1.7,29.976a2.235,2.235,0,0,1,.318-.339.284.284,0,0,0-.355-.444,2.209,2.209,0,0,0-.817,1.5v7.389A1.423,1.423,0,0,0,2.266,39.5h10.8a1.423,1.423,0,0,0,1.421-1.421V30.693A2,2,0,0,0,13.685,29.183Z" transform="translate(0 -23.469)" fill="#85dae9"/>
    </g>
  </g>
</svg>
