<svg xmlns="http://www.w3.org/2000/svg" width="12" height="12" viewBox="0 0 12 12">
  <path id="question-mark-circle-outline-icon" d="M6,0A6,6,0,1,1,1.757,1.757,5.982,5.982,0,0,1,6,0ZM5.5,7.067V7.019a2.6,2.6,0,0,1,.1-.751,1.123,1.123,0,0,1,.257-.451,2.008,2.008,0,0,1,.4-.315,1.656,1.656,0,0,0,.274-.215.913.913,0,0,0,.193-.274.807.807,0,0,0,.071-.343.7.7,0,0,0-.107-.39A.727.727,0,0,0,6.4,4.024a.858.858,0,0,0-.393-.089.878.878,0,0,0-.372.081.7.7,0,0,0-.294.252.875.875,0,0,0-.135.439H4.436a1.458,1.458,0,0,1,.231-.771,1.363,1.363,0,0,1,.564-.479A1.833,1.833,0,0,1,6.008,3.3a1.8,1.8,0,0,1,.817.174,1.317,1.317,0,0,1,.545.484,1.344,1.344,0,0,1,.194.724,1.384,1.384,0,0,1-.089.511,1.276,1.276,0,0,1-.252.4,1.73,1.73,0,0,1-.392.314,1.681,1.681,0,0,0-.349.28.873.873,0,0,0-.194.342,1.8,1.8,0,0,0-.067.49v.048ZM5.88,8.609a.5.5,0,0,1-.358-.149.5.5,0,0,1,0-.715.5.5,0,0,1,.714,0,.5.5,0,0,1,.081.611.523.523,0,0,1-.183.184A.5.5,0,0,1,5.88,8.609Zm3.91-6.4A5.361,5.361,0,1,0,11.36,6,5.344,5.344,0,0,0,9.79,2.21Z" fill="#acacac"/>
</svg>
