<svg xmlns="http://www.w3.org/2000/svg" width="11.406" height="11.406" viewBox="0 0 11.406 11.406">
  <g id="information-svgrepo-com_1_" data-name="information-svgrepo-com (1)" opacity="0.6">
    <path id="Path_3884" data-name="Path 3884" d="M5.7,0a5.7,5.7,0,1,0,5.7,5.7A5.71,5.71,0,0,0,5.7,0Zm0,10.369A4.666,4.666,0,1,1,10.369,5.7,4.671,4.671,0,0,1,5.7,10.369Z" fill="#acacac"/>
    <path id="Path_3885" data-name="Path 3885" d="M145.693,70a.691.691,0,1,0,.691.692A.692.692,0,0,0,145.693,70Z" transform="translate(-139.99 -67.581)" fill="#acacac"/>
    <path id="Path_3886" data-name="Path 3886" d="M150.518,140a.518.518,0,0,0-.518.518v3.111a.518.518,0,0,0,1.037,0v-3.111A.518.518,0,0,0,150.518,140Z" transform="translate(-144.815 -135.161)" fill="#acacac"/>
  </g>
</svg>
