<svg xmlns="http://www.w3.org/2000/svg" width="15.632" height="14.674" viewBox="0 0 15.632 14.674">
  <g id="language-svgrepo-com" transform="translate(0 0)">
    <path id="Path_4830" data-name="Path 4830" d="M16.119,3H8.051V5.521H9.06V4.009h7.06a.476.476,0,0,1,.5.5V10.06a.476.476,0,0,1-.5.5H9.564v3.53H6.891L5.026,15.556V14.094H3.513a.476.476,0,0,1-.5-.5V8.043a.476.476,0,0,1,.5-.5h6.555V6.53H3.513A1.486,1.486,0,0,0,2,8.043v5.547A1.486,1.486,0,0,0,3.513,15.1h.5v2.572L7.194,15.1h3.379v-3.53h5.547a1.486,1.486,0,0,0,1.513-1.513V4.513A1.486,1.486,0,0,0,16.119,3Z" transform="translate(-2 -3)" fill="#979797"/>
    <path id="Path_4831" data-name="Path 4831" d="M6.2,18.488H7.41l.3-.807H9.276l.3.807h1.21L9.074,14H7.864Zm2.269-3.227.5,1.563H7.965Z" transform="translate(-4.082 -8.453)" fill="#979797"/>
    <path id="Path_4832" data-name="Path 4832" d="M20,11.547a4.738,4.738,0,0,0,2.017-.5,4.915,4.915,0,0,0,2.017.5V10.538a3.455,3.455,0,0,1-1.059-.2,3.833,3.833,0,0,0,1.059-2.824v-.5H22.521V6H21.513V7.009H20V8.017h2.975a2.534,2.534,0,0,1-.958,1.815,2.947,2.947,0,0,1-.807-1.059H20.151a3.666,3.666,0,0,0,.908,1.563,2.9,2.9,0,0,1-1.059.2Z" transform="translate(-10.924 -4.487)" fill="#979797"/>
  </g>
</svg>
