<svg id="_16983312581574338606" data-name="16983312581574338606" xmlns="http://www.w3.org/2000/svg" width="24.932" height="18.876" viewBox="0 0 24.932 18.876">
  <rect id="Rectangle_661" data-name="Rectangle 661" width="18.876" height="18.876" transform="translate(3.255 0)" fill="#eceff1"/>
  <path id="Path_726" data-name="Path 726" d="M256,155.865l9.349,7.383V148.672Z" transform="translate(-243.534 -144.549)" fill="#cfd8dc"/>
  <path id="Path_727" data-name="Path 727" d="M22.595,64h-.779l-9.35,7.383L3.117,64H2.337A2.338,2.338,0,0,0,0,66.337V80.362A2.338,2.338,0,0,0,2.337,82.7h.779V68.123l9.35,7.191,9.35-7.193V82.7h.779a2.338,2.338,0,0,0,2.337-2.337V66.337A2.338,2.338,0,0,0,22.595,64Z" transform="translate(0 -64)" fill="#f44336"/>
</svg>
