<svg xmlns="http://www.w3.org/2000/svg" width="15.295" height="16.889" viewBox="0 0 15.295 16.889">
  <g id="resource-territory-svgrepo-com" transform="translate(0)">
    <path id="Path_4815" data-name="Path 4815" d="M12.8,12.52c.728-1.055,1.491-1.564,2-2.365a5.326,5.326,0,0,0,.509-4.729A3.635,3.635,0,0,0,11.747,3.1a3.639,3.639,0,0,0-3.419,2.51,4.565,4.565,0,0,0,.982,4.838,2.027,2.027,0,0,1,.764,2.074c-.255.728-1.128,1.055-1.746,1.346-1.419.618-3.128,1.491-3.419,3.165a2.263,2.263,0,0,0,2.146,2.8H13.6c.291,0,.546-.327.364-.546a6.432,6.432,0,0,1-1.855-3.82A5.594,5.594,0,0,1,12.8,12.52Z" transform="translate(-4.856 -3.097)" fill="#85dae9"/>
    <path id="Path_4816" data-name="Path 4816" d="M31.847,31.129a1.413,1.413,0,0,1-1.419-1.382,1.39,1.39,0,0,1,1.419-1.382,1.383,1.383,0,1,1,0,2.765Zm0-4.729A3.338,3.338,0,0,0,28.5,29.747c0,2.292,2.4,4.438,3.128,4.984a.331.331,0,0,0,.437,0c.728-.582,3.128-2.692,3.128-4.984A3.338,3.338,0,0,0,31.847,26.4Z" transform="translate(-19.899 -17.923)" fill="#14729c"/>
  </g>
</svg>
