<svg xmlns="http://www.w3.org/2000/svg" width="11.001" height="12.436" viewBox="0 0 11.001 12.436">
  <g id="Group_11607" data-name="Group 11607" transform="translate(0 0)">
    <g id="notification-svgrepo-com" transform="translate(0 0)">
      <g id="Group_1637" data-name="Group 1637" transform="translate(0)">
        <g id="Group_1636" data-name="Group 1636">
          <path id="Path_3352" data-name="Path 3352" d="M39.72,9.145l-.553-4.2a4.162,4.162,0,0,0-3.139-3.5V.992a.992.992,0,1,0-1.984,0v.45a4.162,4.162,0,0,0-3.139,3.5l-.553,4.2a.994.994,0,0,0-.816.976v.794a.2.2,0,0,0,.2.2h7.219a2.457,2.457,0,0,1-1.917.926,2.426,2.426,0,0,1-1.468-.489.2.2,0,0,0-.238.317,2.82,2.82,0,0,0,1.707.569,2.855,2.855,0,0,0,2.4-1.323h2.9a.2.2,0,0,0,.2-.2v-.794A.994.994,0,0,0,39.72,9.145Zm.419,1.572H29.932v-.6a.6.6,0,0,1,.6-.6h6.635a.2.2,0,0,0,0-.4H30.753L31.3,4.994a3.765,3.765,0,0,1,2.984-3.2A.2.2,0,0,0,34.44,1.6V.992a.6.6,0,1,1,1.191,0V1.6a.2.2,0,0,0,.159.194,3.766,3.766,0,0,1,2.984,3.2l.544,4.135H37.956a.2.2,0,0,0,0,.4h1.587a.6.6,0,0,1,.6.6v.6Z" transform="translate(-29.535)"/>
        </g>
      </g>
      <g id="Group_1639" data-name="Group 1639" transform="translate(5.302 0.794)">
        <g id="Group_1638" data-name="Group 1638">
          <path id="Path_3353" data-name="Path 3353" d="M248.026,32.681a.2.2,0,0,0-.2.2v.529a.2.2,0,1,0,.4,0v-.529A.2.2,0,0,0,248.026,32.681Z" transform="translate(-247.828 -32.681)"/>
        </g>
      </g>
    </g>
    <ellipse id="Ellipse_2127" data-name="Ellipse 2127" cx="2.147" cy="2.147" rx="2.147" ry="2.147" transform="translate(6.706 0.594)" fill="#fd9f00"/>
  </g>
</svg>
