<svg xmlns="http://www.w3.org/2000/svg" width="25.654" height="23.316" viewBox="0 0 25.654 23.316">
  <g id="Group_11570" data-name="Group 11570" transform="translate(0)">
    <path id="Path_23107" data-name="Path 23107" d="M83.7,45.89c0,.021,0,.043,0,.064a10.468,10.468,0,1,1,1.4-19.342,1.688,1.688,0,0,0-.114.188,3.846,3.846,0,0,0-.333,1.085c0,.012,0,.024-.006.036a9.1,9.1,0,1,0-.9,16.562A9.058,9.058,0,0,0,83.7,45.89Zm5.79-11.016A9.163,9.163,0,0,1,89.56,36,9.054,9.054,0,0,1,87.8,41.382q.264.857.434,1.636a10.425,10.425,0,0,0,2.684-6.384,4.567,4.567,0,0,1-1.421-1.76Zm-4.721,5.06a5.834,5.834,0,1,1-.351-8.225c0-.016,0-.032,0-.047q0-.587.014-1.109A6.737,6.737,0,1,0,84.4,41.469c.055-.18.112-.363.173-.548a4.9,4.9,0,0,0,.2-.987Zm1.767-1c1.2-.651,2-3.8,2-5.9,0-2.648-.855-6.166-2.546-6.166-.5,0-.821,1.48-.821,4.8s.835,7.3.115,9.492c-1.111,3.36-1.387,6.6.827,7.69,0,0,0,0,0,0h0c2.217-1.086,1.935-4.331.827-7.691a7.68,7.68,0,0,1-.4-2.22Zm5.174-2.692a7.139,7.139,0,0,1,.055,4.912c-1.112,3.36-1.389,6.6.825,7.691H92.6s0,0,0,0c2.212-1.085,1.935-4.33.822-7.69a7.132,7.132,0,0,1,.056-4.912c1.255-.593,2.171-2.428,2.171-4.6a5.742,5.742,0,0,0-1.48-4.111v5.575h-.834V26.99a2.205,2.205,0,0,0-1.483,0v6.119h-.835V27.534a5.742,5.742,0,0,0-1.48,4.111c0,2.168.917,4,2.173,4.6Z" transform="translate(-69.997 -25.53)" fill="#fff"/>
  </g>
</svg>
