<svg xmlns="http://www.w3.org/2000/svg" xmlns:xlink="http://www.w3.org/1999/xlink" width="327.938" height="328.719" viewBox="0 0 327.938 328.719">
  <defs>
    <linearGradient id="linear-gradient" x1="-0.422" y1="0.5" x2="1.236" y2="0.5" gradientUnits="objectBoundingBox">
      <stop offset="0" stop-color="#d8dee8"/>
      <stop offset="1" stop-color="#fff"/>
    </linearGradient>
    <linearGradient id="linear-gradient-2" y1="0.5" x2="1" y2="0.5" gradientUnits="objectBoundingBox">
      <stop offset="0" stop-color="#ff9085"/>
      <stop offset="1" stop-color="#fb6fbb"/>
    </linearGradient>
    <linearGradient id="linear-gradient-3" x1="-0.509" y1="-0.619" x2="1.151" y2="1.18" gradientUnits="objectBoundingBox">
      <stop offset="0" stop-color="#311944"/>
      <stop offset="1" stop-color="#893976"/>
    </linearGradient>
    <linearGradient id="linear-gradient-4" x1="-0.397" y1="-0.651" x2="1.055" y2="1.2" gradientUnits="objectBoundingBox">
      <stop offset="0.004" stop-color="#e38ddd"/>
      <stop offset="1" stop-color="#9571f6"/>
    </linearGradient>
    <linearGradient id="linear-gradient-5" x1="-0.363" y1="-0.658" x2="1.034" y2="1.205" xlink:href="#linear-gradient-4"/>
    <linearGradient id="linear-gradient-6" x1="-0.408" y1="-0.661" x2="1.061" y2="1.2" xlink:href="#linear-gradient-4"/>
    <linearGradient id="linear-gradient-7" x1="-0.374" y1="-0.67" x2="1.041" y2="1.205" xlink:href="#linear-gradient-4"/>
    <linearGradient id="linear-gradient-8" x1="0.404" y1="-0.442" x2="0.857" y2="3.977" xlink:href="#linear-gradient-4"/>
    <linearGradient id="linear-gradient-9" x1="0.305" y1="0.033" x2="1.211" y2="2.205" xlink:href="#linear-gradient-4"/>
    <linearGradient id="linear-gradient-10" x1="0.351" y1="-0.244" x2="0.656" y2="1.238" xlink:href="#linear-gradient-4"/>
    <clipPath id="clip-path">
      <circle id="Ellipse_2291" data-name="Ellipse 2291" cx="29.46" cy="29.46" r="29.46" transform="translate(0 41.663) rotate(-45)"/>
    </clipPath>
    <linearGradient id="linear-gradient-11" x1="13.953" y1="-5.089" x2="14.684" y2="1.058" gradientUnits="objectBoundingBox">
      <stop offset="0" stop-color="#ffc444"/>
      <stop offset="0.996" stop-color="#f36f56"/>
    </linearGradient>
    <linearGradient id="linear-gradient-12" x1="2.693" y1="0.683" x2="2.477" y2="0.44" gradientUnits="objectBoundingBox">
      <stop offset="0" stop-color="#444b8c"/>
      <stop offset="0.996" stop-color="#26264f"/>
    </linearGradient>
    <linearGradient id="linear-gradient-13" x1="3.56" y1="0.5" x2="4.56" y2="0.5" xlink:href="#linear-gradient-2"/>
    <linearGradient id="linear-gradient-14" x1="2.803" y1="-0.146" x2="3.016" y2="0.812" xlink:href="#linear-gradient-2"/>
    <linearGradient id="linear-gradient-15" x1="8.028" y1="0.967" x2="8.72" y2="-0.8" xlink:href="#linear-gradient-11"/>
    <linearGradient id="linear-gradient-16" x1="25.753" y1="0.615" x2="29.449" y2="-1.369" xlink:href="#linear-gradient-11"/>
    <linearGradient id="linear-gradient-17" x1="4.065" y1="0.5" x2="5.065" y2="0.5" gradientUnits="objectBoundingBox">
      <stop offset="0" stop-color="#4cc171"/>
      <stop offset="0.996" stop-color="#1b402a"/>
      <stop offset="1" stop-color="#6165d7"/>
    </linearGradient>
    <linearGradient id="linear-gradient-18" x1="13.398" y1="-0.248" x2="14.028" y2="2.829" xlink:href="#linear-gradient-11"/>
  </defs>
  <g id="_2222" data-name="2222" transform="translate(0 0)">
    <g id="Illustration" transform="translate(0 0)">
      <g id="Group_2698" data-name="Group 2698">
        <path id="Path_8687" data-name="Path 8687" d="M-3644.873-1519.387c-9.47,36.413-36.137,70.138-100.735,87.587-23.343,6.308-50.509,9.405-74.728,7.492-35.643-2.818-73-18.907-102.688-37.151-20.546-12.625-28.723-29.659-31.617-48.915-1.792-11.906-1.565-24.66-.993-37.747.859-19.687-2.27-39.51-6.9-58.666a106.171,106.171,0,0,1,16.337-85.8c17.594-25.37,45.4-43.021,77.108-48.952,53.423-9.99,107.621-3.4,107.621-3.4,71.383,7.415,107.516,78.283,116.33,135.968C-3641.111-1582.6-3636.9-1550.043-3644.873-1519.387Z" transform="translate(3965.498 1752.467)" fill="#f4f7fa"/>
        <g id="Group_2674" data-name="Group 2674" transform="translate(25.508 31.286)">
          <path id="Path_8688" data-name="Path 8688" d="M-3620.8-1522.87l125.269,7.705v10.458l-125.269,5.381Z" transform="translate(3635.095 1522.87)" fill="#97a6b7"/>
          <path id="Path_8689" data-name="Path 8689" d="M-2129.3-1335.584v126.012l-108.241,22.85V-1346.84Z" transform="translate(2411.563 1367.167)" fill="url(#linear-gradient)"/>
          <path id="Path_8690" data-name="Path 8690" d="M-2131.73-1391.1l-105.81-10.982v-7.213l105.81,12.483Z" transform="translate(2411.563 1422.405)" fill="#cbd0d8"/>
          <path id="Path_8691" data-name="Path 8691" d="M-3461.072-1394.552l-159.728,4.731v-13.207l159.728-7.453Z" transform="translate(3635.095 1423.458)" fill="#fff"/>
          <g id="Group_2658" data-name="Group 2658" transform="translate(4.16)">
            <path id="Path_8692" data-name="Path 8692" d="M-3698.435-1364.143l-10.135-1.421v-156.651l10.135-.655Z" transform="translate(3708.57 1522.87)" fill="#cbd0d8"/>
            <path id="Path_8693" data-name="Path 8693" d="M-3698.435-1364.143l-10.135-1.421v-156.651l10.135-.655Z" transform="translate(3708.57 1522.87)" fill="#cbd0d8" opacity="0.2"/>
          </g>
          <path id="Path_8694" data-name="Path 8694" d="M-3492.127-1064.043l-163.782-21.465v-118.373l163.782-3.518Z" transform="translate(3666.151 1243.828)" fill="#fff"/>
          <path id="Path_8695" data-name="Path 8695" d="M-3461.072-1394.552l-159.728,4.731v-13.207l159.728-7.453Z" transform="translate(3635.095 1423.458)" fill="#ad7aee" opacity="0.2"/>
          <path id="Path_8696" data-name="Path 8696" d="M-3561.229-157.409l-182.451-25.4v-5.4l182.386,24.045Z" transform="translate(3743.786 342.326)" fill="#d8dee8"/>
          <g id="Group_2659" data-name="Group 2659" transform="translate(3.35 22.474)" opacity="0.2">
            <path id="Path_8697" data-name="Path 8697" d="M-3555.052-1327.966v-.274l-151.115,6.576c-5.233.228-9.424,6.278-9.424,13.534v6.51l148.782-2.136v-7.953C-3566.809-1319.547-3562.349-1326.271-3555.052-1327.966Z" transform="translate(3715.59 1328.24)" fill="#ad7aee"/>
            <path id="Path_8698" data-name="Path 8698" d="M-3715.59-1141.5v4.281c0,6.458,3.382,11.731,7.841,11.741l1.545.006c4.539.01,8.046-5.379,8.046-12.007v-4.393Z" transform="translate(3715.59 1163.391)" fill="#ad7aee"/>
            <path id="Path_8699" data-name="Path 8699" d="M-3564.63-1145.011v4.393c0,6.628,3.885,12.037,8.585,12.048l1.342,0c4.789.012,8.316-5.529,8.316-12.339v-4.514Z" transform="translate(3582.062 1166.531)" fill="#ad7aee"/>
            <path id="Path_8700" data-name="Path 8700" d="M-3406.64-1148.7v4.514c0,6.811,4.359,12.369,9.322,12.381h2.073c5.059.011,9.28-5.685,9.28-12.686v-4.64Z" transform="translate(3442.315 1169.812)" fill="#ad7aee"/>
            <path id="Path_8701" data-name="Path 8701" d="M-3227.59-1152.6v4.64c0,7,4.3,12.718,9.552,12.731l1.938.006c5.352.013,10-5.846,10-13.053v-4.776Z" transform="translate(3283.941 1173.28)" fill="#ad7aee"/>
            <path id="Path_8702" data-name="Path 8702" d="M-3041.52-1156.634v4.776c0,7.207,4.143,13.089,9.7,13.1l1.915.008c5.672.014,10.273-6.017,10.273-13.437v-4.917Z" transform="translate(3119.356 1176.862)" fill="#ad7aee"/>
            <path id="Path_8703" data-name="Path 8703" d="M-2851.93-1161.064v4.917c0,7.419,4.729,13.472,10.628,13.487l1.931,0c6.023.015,10.955-6.207,10.955-13.854v-5.069Z" transform="translate(2951.659 1180.825)" fill="#ad7aee"/>
            <path id="Path_8704" data-name="Path 8704" d="M-2648.31-1165.684v5.069c0,7.649,5.054,13.891,11.324,13.907l2.411,0c6.406.015,11.8-6.4,11.8-14.289v-5.229Z" transform="translate(2771.551 1184.929)" fill="#ad7aee"/>
          </g>
          <path id="Path_8705" data-name="Path 8705" d="M-3744.6-197.594l2.648-1.286,179.712,21.394.054,3.991Z" transform="translate(3744.6 351.764)" fill="#97a6b7"/>
          <path id="Path_8706" data-name="Path 8706" d="M-2062.57-183.868l-104.8,26.459-.23-10.64,105.03-20.161Z" transform="translate(2349.7 342.326)" fill="#cbd0d8"/>
          <path id="Path_8707" data-name="Path 8707" d="M-3231.1-1050.744v103.971l46.621,5.711V-1052.14Z" transform="translate(3290.395 1106.496)" fill="#97a6b7"/>
          <g id="Group_2662" data-name="Group 2662" transform="translate(10.241 56.421)">
            <g id="Group_2660" data-name="Group 2660" transform="translate(0 2.932)">
              <path id="Path_8708" data-name="Path 8708" d="M-3655.91-933.329v-74.484l43.784-1.057v79.8Z" transform="translate(3655.91 1008.87)" fill="#d8dee8"/>
              <path id="Path_8709" data-name="Path 8709" d="M-3595.922-986.38v74.454l-38.918-3.736v-69.914Z" transform="translate(3637.273 988.977)" fill="#4cc171"/>
              <path id="Path_8710" data-name="Path 8710" d="M-3595.931-915.334v8.5l-38.919-3.736v-69.913l6.628-.141c1.461,3.192,2.485,8.06,2.667,14.757.6,21.911,3.139,34.913,28,49.484C-3596.928-916.012-3597.147-915.68-3595.931-915.334Z" transform="translate(3637.282 983.882)" fill="#fff" opacity="0.3"/>
            </g>
            <g id="Group_2661" data-name="Group 2661" transform="translate(103.378)">
              <path id="Path_8711" data-name="Path 8711" d="M-2760.65-945.547v-87.246l60.4-1.466v94.633Z" transform="translate(2760.65 1034.26)" fill="#d8dee8"/>
              <path id="Path_8712" data-name="Path 8712" d="M-2678.652-919.349l-53.919-5.188v-81.934l53.919-1.119Z" transform="translate(2735.813 1010.67)" fill="#4cc171"/>
              <path id="Path_8713" data-name="Path 8713" d="M-2678.651-922.314v10.078l-53.918-5.188v-81.936l9.114-.191c2.014,3.742,3.436,9.462,3.687,17.331.828,25.753,4.267,41.065,38.907,58.638A10.116,10.116,0,0,1-2678.651-922.314Z" transform="translate(2735.812 1003.558)" fill="#fff" opacity="0.3"/>
            </g>
          </g>
          <path id="Path_8714" data-name="Path 8714" d="M-2416.989-1350.9c-14.925,4.054-11.963,20.3-11.963,20.3v4.972c0,7.811,4.515,14.454,10.138,14.454h2.012c5.624,0,9.742-6.643,9.742-14.454V-1350.9Z" transform="translate(2581.084 1370.758)" fill="url(#linear-gradient-2)"/>
          <path id="Path_8715" data-name="Path 8715" d="M-2416.989-1350.9c-14.925,4.054-11.963,20.3-11.963,20.3v4.972c0,7.811,4.515,14.454,10.138,14.454h2.012c5.624,0,9.742-6.643,9.742-14.454V-1350.9Z" transform="translate(2581.084 1370.758)" fill="#fd9f00" opacity="0.57"/>
          <path id="Path_8716" data-name="Path 8716" d="M-3266.714-139.65l-5.556,7.383,47.946,6.673,4.124-8.345Z" transform="translate(3326.811 299.373)" fill="#97a6b7"/>
          <g id="Group_2663" data-name="Group 2663" transform="translate(174.024 56.544)">
            <path id="Path_8717" data-name="Path 8717" d="M-2237.54-938.516v-94.674l52.3,1.707v85.558Z" transform="translate(2237.54 1033.19)" fill="#d8dee8"/>
            <path id="Path_8718" data-name="Path 8718" d="M-2169.048-926.044l-47.432,6.48V-1007.7l47.432,1.307Z" transform="translate(2218.912 1010.643)" fill="#4cc171"/>
            <path id="Path_8719" data-name="Path 8719" d="M-2169.039-935.118v9.073l-47.431,6.48V-1007.7l9.351.256c1.946,4.067,3.4,9.99,3.643,18.1.783,26.454,4,41.712,32.815,53.415C-2170.005-935.66-2169.039-935.413-2169.039-935.118Z" transform="translate(2218.903 1010.643)" fill="#fff" opacity="0.3"/>
          </g>
          <g id="Group_2664" data-name="Group 2664" transform="translate(13.997 140.061)">
            <path id="Path_8720" data-name="Path 8720" d="M-3591.827-307.023a.411.411,0,0,0-.328-.236l-28.615-2.672a.3.3,0,0,0-.3.167l-2.282,4.578a.379.379,0,0,0,0,.32l2.282,5.04a.386.386,0,0,0,.3.229l28.61,3.135a.326.326,0,0,0,.329-.169l2.517-4.772a.376.376,0,0,0,0-.337Zm-.561,9.792-28.176-3.057-2.116-4.67,2.116-4.241,28.181,2.663,2.321,4.889Z" transform="translate(3623.388 309.931)" fill="#cbd0d8"/>
            <path id="Path_8721" data-name="Path 8721" d="M-2675.848-218.138l-3.409-6.215a.573.573,0,0,0-.447-.281l-38.689-3.613a.415.415,0,0,0-.4.189l-3.073,5.26a.382.382,0,0,0,0,.37l3.049,5.88a.524.524,0,0,0,.4.271l38.677,4.239a.46.46,0,0,0,.448-.189l3.444-5.518A.385.385,0,0,0-2675.848-218.138Zm-4.2,5.2-38.092-4.133-2.829-5.449,2.851-4.874,38.1,3.6,3.149,5.749Z" transform="translate(2826.012 237.681)" fill="#cbd0d8"/>
          </g>
          <g id="Group_2669" data-name="Group 2669" transform="translate(61.322 54.356)">
            <path id="Path_8722" data-name="Path 8722" d="M-3167.333-941.062l-46.217-5.711v-103.971l46.217-1.4Z" transform="translate(3213.55 1052.14)" fill="url(#linear-gradient-3)"/>
            <g id="Group_2667" data-name="Group 2667" transform="translate(4.865 9.268)">
              <g id="Group_2665" data-name="Group 2665">
                <path id="Path_8723" data-name="Path 8723" d="M-3155.609-936.569l-15.811-.479V-968.6l15.811-.256Z" transform="translate(3171.42 969.209)" fill="url(#linear-gradient-4)"/>
                <path id="Path_8724" data-name="Path 8724" d="M-2989.383-938.633l-17.026-.5v-32.462l17.026-.286Z" transform="translate(3025.464 971.88)" fill="url(#linear-gradient-5)"/>
              </g>
              <g id="Group_2666" data-name="Group 2666" transform="translate(0 38.644)">
                <path id="Path_8725" data-name="Path 8725" d="M-3155.609-604.741l-15.811-1.357V-637.22l15.811.63Z" transform="translate(3171.42 637.22)" fill="url(#linear-gradient-6)"/>
                <path id="Path_8726" data-name="Path 8726" d="M-2989.383-597.059l-17.026-1.433V-630.51l17.026.659Z" transform="translate(3025.464 631.285)" fill="url(#linear-gradient-7)"/>
              </g>
              <path id="Path_8727" data-name="Path 8727" d="M-2891.895-664.262a.582.582,0,0,1-.583.6l-4.4-.156a.733.733,0,0,1-.688-.641v-.12a.671.671,0,0,1,.684-.6l4.35.147a.685.685,0,0,1,.642.644Z" transform="translate(2929.192 700.589)" fill="url(#linear-gradient-8)"/>
              <path id="Path_8728" data-name="Path 8728" d="M-2862.506-673.988a2.137,2.137,0,0,1-2.139,2.24,2.328,2.328,0,0,1-2.126-2.39,2.138,2.138,0,0,1,2.126-2.24A2.325,2.325,0,0,1-2862.506-673.988Z" transform="translate(2901.949 710.501)" fill="url(#linear-gradient-9)"/>
            </g>
            <g id="Group_2668" data-name="Group 2668" transform="translate(4.053 84.181)">
              <path id="Path_8729" data-name="Path 8729" d="M-3141.558-303.721c0,.23-.41.395-.621.37l-35.649-4.219c-.189-.023-.622-.217-.622-.434v-14.756c0-.217.314-.379.5-.36l35.688,3.383c.21.02.7.223.7.451v15.566Zm-36.08-4.665,35.27,4.07v-14.556l-35.27-3.346Z" transform="translate(3178.45 323.122)" fill="url(#linear-gradient-10)"/>
            </g>
          </g>
          <g id="Group_2670" data-name="Group 2670" transform="translate(3.35 20.31)">
            <path id="Path_8730" data-name="Path 8730" d="M-3555.052-1346.706v-.274l-151.115,6.576c-5.233.227-9.424,6.278-9.424,13.534v6.51l148.782-2.136v-7.953C-3566.809-1338.287-3562.349-1345.011-3555.052-1346.706Z" transform="translate(3715.59 1346.98)" fill="#fd9f00"/>
            <path id="Path_8731" data-name="Path 8731" d="M-3715.59-1160.238v4.281c0,6.458,3.382,11.731,7.841,11.741l1.545.006c4.539.01,8.046-5.379,8.046-12.007v-4.393Z" transform="translate(3715.59 1182.131)" fill="#4cc171"/>
            <path id="Path_8732" data-name="Path 8732" d="M-3564.63-1163.751v4.393c0,6.628,3.885,12.037,8.585,12.048l1.342,0c4.789.012,8.316-5.529,8.316-12.339v-4.514Z" transform="translate(3582.062 1185.271)" fill="#4cc171"/>
            <path id="Path_8733" data-name="Path 8733" d="M-3406.64-1167.44v4.514c0,6.811,4.359,12.369,9.322,12.381h2.073c5.059.013,9.28-5.685,9.28-12.686v-4.64Z" transform="translate(3442.315 1188.552)" fill="#4cc171"/>
            <path id="Path_8734" data-name="Path 8734" d="M-3227.59-1171.337v4.64c0,7,4.3,12.718,9.552,12.731l1.938.006c5.352.013,10-5.846,10-13.053v-4.776Z" transform="translate(3283.941 1192.02)" fill="#4cc171"/>
            <path id="Path_8735" data-name="Path 8735" d="M-3041.52-1175.374v4.776c0,7.207,4.143,13.089,9.7,13.1l1.915.008c5.672.014,10.273-6.017,10.273-13.436v-4.917Z" transform="translate(3119.356 1195.602)" fill="#4cc171"/>
            <path id="Path_8736" data-name="Path 8736" d="M-2851.93-1179.8v4.917c0,7.419,4.729,13.473,10.628,13.487l1.931,0c6.023.015,10.955-6.207,10.955-13.854v-5.069Z" transform="translate(2951.659 1199.565)" fill="#4cc171"/>
            <path id="Path_8737" data-name="Path 8737" d="M-2648.31-1184.433v5.069c0,7.649,5.054,13.891,11.324,13.906l2.411,0c6.406.015,11.8-6.4,11.8-14.289v-5.229Z" transform="translate(2771.551 1203.678)" fill="#4cc171"/>
          </g>
          <g id="Group_2671" data-name="Group 2671" transform="translate(226.32 38.204)">
            <path id="Path_8738" data-name="Path 8738" d="M-1697.542-1188.143a2.57,2.57,0,0,1-2.921,2.38l-7.61-.617a3.03,3.03,0,0,1-2.848-2.912v-.312a2.425,2.425,0,0,1,2.815-2.4l7.761.708a3.024,3.024,0,0,1,2.8,2.852Z" transform="translate(1719.434 1192.02)" fill="#d8dee8"/>
            <path id="Path_8739" data-name="Path 8739" d="M-1631.652-1127.3a2.309,2.309,0,0,1-2.554,2.383l-7.312-.49a2.851,2.851,0,0,1-2.7-2.815v-.307a2.455,2.455,0,0,1,2.779-2.412l7.26.577a2.734,2.734,0,0,1,2.529,2.766Z" transform="translate(1660.436 1138.003)" fill="#d8dee8"/>
            <path id="Path_8740" data-name="Path 8740" d="M-1770.866-1137.908a2.489,2.489,0,0,1-2.81,2.447l-7.949-.53a3.134,3.134,0,0,1-3.025-2.926v-.318a2.67,2.67,0,0,1,3.067-2.485l7.889.628a3,3,0,0,1,2.828,2.875Z" transform="translate(1784.65 1147.537)" fill="#d8dee8"/>
          </g>
          <g id="Group_2672" data-name="Group 2672" transform="translate(227.537 140.797)">
            <path id="Path_8741" data-name="Path 8741" d="M-1687.417-300.991a3.106,3.106,0,0,1-2.682,2.985l-7.514,1.074a2.27,2.27,0,0,1-2.777-2.261v-.312a3.2,3.2,0,0,1,2.828-3.043l7.5-.983a2.2,2.2,0,0,1,2.64,2.236v.3Z" transform="translate(1708.903 303.555)" fill="#d8dee8"/>
            <path id="Path_8742" data-name="Path 8742" d="M-1624.632-255.144a3.033,3.033,0,0,1-2.544,2.97l-7.308,1.142a2.2,2.2,0,0,1-2.716-2.193v-.306a3.232,3.232,0,0,1,2.793-3.028l7.244-1.054a2.093,2.093,0,0,1,2.53,2.17v.3Z" transform="translate(1653.009 262.944)" fill="#d8dee8"/>
            <path id="Path_8743" data-name="Path 8743" d="M-1760.732-236.839a3.039,3.039,0,0,1-2.548,3.08l-7.863,1.218a2.373,2.373,0,0,1-2.967-2.251v-.316a3.556,3.556,0,0,1,3.13-3.143l7.64-1.124a2.128,2.128,0,0,1,2.607,2.229v.307Z" transform="translate(1774.11 246.814)" fill="#d8dee8"/>
          </g>
          <g id="Group_2673" data-name="Group 2673" transform="translate(251.861 83.518)">
            <path id="Path_8744" data-name="Path 8744" d="M-1490.817-796.857a2.64,2.64,0,0,1-2.628,2.509l-7.315.113c-1.448.024-3.03-1.094-3.03-2.493v-.3a2.927,2.927,0,0,1,2.976-2.546l7.2-.031a2.738,2.738,0,0,1,2.8,2.456Z" transform="translate(1510.68 799.6)" fill="#d8dee8"/>
            <path id="Path_8745" data-name="Path 8745" d="M-1425.729-745.935a2.51,2.51,0,0,1-2.424,2.506l-6.544.206a2.3,2.3,0,0,1-2.383-2.417v-.291a2.453,2.453,0,0,1,2.394-2.547l6.611-.125a2.3,2.3,0,0,1,2.346,2.386Z" transform="translate(1451.673 754.492)" fill="#d8dee8"/>
            <path id="Path_8746" data-name="Path 8746" d="M-1550.083-743.73a2.959,2.959,0,0,1-2.926,2.583l-7.436.213a2.839,2.839,0,0,1-3.015-2.5v-.3a2.835,2.835,0,0,1,2.851-2.625l7.533-.126c1.439-.026,2.994,1.079,2.994,2.463v.291Z" transform="translate(1563.46 752.618)" fill="#d8dee8"/>
          </g>
          <path id="Path_8747" data-name="Path 8747" d="M-1924.831-1231.63v120.95c-19.459,6.156-46.793,12.866-81.549,17.516a43.87,43.87,0,0,0,8.455-3.511c17.682-9.722,30.628-27.492,36.6-46.6,2.482-7.919,2.05-16.3,2.735-24.472.68-8.09,2.157-16.122,5.406-23.6a43.461,43.461,0,0,1,7.887-12.67c4.813-5.1,12.572-6.964,16.379-13.053C-1926.2-1221.417-1925.237-1226.542-1924.831-1231.63Z" transform="translate(2207.096 1265.26)" fill="#cbd0d8" opacity="0.4"/>
          <path id="Path_8748" data-name="Path 8748" d="M-2060.232-198.532-2165.3-174.488l-.053-3.883,99.972-21.509Z" transform="translate(2347.709 352.649)" fill="#97a6b7"/>
        </g>
        <g id="Group_2675" data-name="Group 2675" transform="translate(97.376 260.969)">
          <path id="Path_8749" data-name="Path 8749" d="M-3070.758,498c-2.517,1.5-5.135,2.82-7.744,4.147,2.689-.882,14.069-5.082,14.258,1.018a3.99,3.99,0,0,1-.028.628c-.535,4.374-8.3,4.3-11.339,4.3-3.706,0-7.344.053-11-.166-.421-.025-.842-.053-1.263-.088q-.729-.057-1.461-.134-.911-.092-1.826-.219l-.283-.159c-.467.073-.928.139-1.39.2s-.9.117-1.342.166c-1.185.132-2.355.228-3.521.281a47.586,47.586,0,0,1-12.217-.95,19.627,19.627,0,0,1-8.025-3.339c-2.055-1.581-5.887-6.575-3.533-9.286a3.3,3.3,0,0,1,.527-.49c3.009-2.275,8.349,2.255,10.643,3.869.558.391,2.865,2.5,3.649,2.247.716-.232-.184-1.129-.515-1.538-2.5-3.057-6.136-4.969-8.6-8.07-2.111-2.654-4.319-8.316-1.2-11.123a3.234,3.234,0,0,1,1.065-.656c3.73-1.335,7.975,6.414,9.224,8.63,1.415,2.5,2.56,5.239,4.2,7.607.645.928,1.523,2.091,2.255.7.843-1.6.209-4.449-.1-6.1a42.185,42.185,0,0,0-2.547-8.063c-1.712-4.249-3.932-9.154.376-12.64a7.306,7.306,0,0,1,4.251-1.986h0c3.31-1.216,7.062-.587,8.578,2.613,1.2,2.52.56,5.617.023,8.217a91.248,91.248,0,0,0-1.924,9.57c-.174,1.823-.375,4.559.931,6.077.877,1.024,1.8.721,2.373-.409.923-1.814.656-4.38.709-6.339a22.076,22.076,0,0,1,1.31-8.2c1.21-2.812,5.508-6.577,8.936-5.611a4.175,4.175,0,0,1,1.942,1.211c3.516,3.753-3.1,11.918-4.958,15.043-1.259,2.126-3.011,4.611-3.435,7.1-.249,1.458.386,1.64,1.5.807,1.964-1.463,3.433-3.789,4.954-5.672a33.78,33.78,0,0,1,6.568-6.7c2.545-1.778,7.4-2.9,9.118-.078a4.645,4.645,0,0,1,.607,2.179C-3060.7,491.806-3066.929,495.716-3070.758,498Z" transform="translate(3122.208 -466.201)" fill="#4cc171"/>
          <path id="Path_8750" data-name="Path 8750" d="M-2908.935,472.7q-.424.518-.943,1.062c-5.4,5.678-5.538,9.229-7.809,18.6-1.468,6.058-2.641,11.938-3.286,15.339q-.911-.092-1.826-.219l-.283-.159c-.467.073-.928.139-1.39.2a8.346,8.346,0,0,0-3.011-7.774c-4.542-3.408-2.555-10.508-1.418-14.768s0-6.722-2.416-11.121c-1.342-2.447-.007-5.045,1.444-7.073h0c3.309-1.216,7.062-.587,8.579,2.613,1.2,2.52.56,5.617.023,8.217a91.375,91.375,0,0,0-1.924,9.57c-.174,1.823-.375,4.559.931,6.077.878,1.024,1.8.721,2.373-.409.923-1.814.656-4.38.709-6.339a22.071,22.071,0,0,1,1.309-8.2C-2916.661,475.5-2912.363,471.738-2908.935,472.7Z" transform="translate(2953.851 -466.21)" fill="#4cc171" opacity="0.5"/>
          <path id="Path_8751" data-name="Path 8751" d="M-2807.718,637.484c-2.517,1.5-5.135,2.82-7.744,4.147,2.689-.882,14.069-5.082,14.258,1.018a3.991,3.991,0,0,1-.028.628,5.561,5.561,0,0,1-3.58-.676c-2.769-1.811-3.035.639-5.7,1.491s-7.294-.32-9.8,1.491a15.8,15.8,0,0,1-3.261,1.823c-.421-.025-.842-.053-1.263-.088.479-1.546,2.089-5.821,5.659-7.663,4.4-2.273,6.815-2.982,8.235-7.667,1.241-4.1,6.285-7.87,12.376-8.089a4.643,4.643,0,0,1,.607,2.179C-2797.664,631.295-2803.889,635.2-2807.718,637.484Z" transform="translate(2859.169 -605.69)" fill="#fff" opacity="0.5"/>
          <path id="Path_8752" data-name="Path 8752" d="M-3088.514,602.846c-1.185.132-2.355.227-3.521.281-.181-.835,1.145-1.936-2.537-2.719-6.012-1.278-9.45,1.114-11.763-4.58-1.74-4.281-6.044-7.065-9.476-6.277a3.3,3.3,0,0,1,.526-.49c3.009-2.275,8.349,2.255,10.643,3.869.558.391,2.865,2.5,3.649,2.247.716-.232-.184-1.129-.515-1.538-2.5-3.057-6.136-4.969-8.6-8.07-2.111-2.654-4.319-8.316-1.2-11.123a3.236,3.236,0,0,1,1.065-.656c-.154,2.69.249,7.163,4.013,9.791,5.644,3.94,6.6,7.241,6.815,9.371C-3099.213,594.943-3090.366,596.561-3088.514,602.846Z" transform="translate(3116.549 -561.367)" fill="#fff" opacity="0.5"/>
        </g>
        <g id="Group_2676" data-name="Group 2676" transform="translate(1.337 171.864)">
          <path id="Path_8753" data-name="Path 8753" d="M-3814.92-215.136l26.136,24.53a.792.792,0,0,0,1.119-.186l.015-.017a.89.89,0,0,0,.085-1.186l-25.315-25.345Z" transform="translate(3830.971 227.515)" fill="#abc"/>
          <path id="Path_8754" data-name="Path 8754" d="M-3773.407-262.43l-23.189,45.176a1.1,1.1,0,0,0,.423,1.468l.023.013a1.043,1.043,0,0,0,1.425-.436q12.27-22.621,24.118-44.467Z" transform="translate(3814.874 267.398)" fill="#abc"/>
          <path id="Path_8755" data-name="Path 8755" d="M-3658.415-80.688c-.123.363-.418.577-.659.479l-17.371-7.032a.671.671,0,0,1-.227-.854l.093-.268c.127-.37.435-.585.687-.483l17.35,7.061c.241.1.338.472.217.835Z" transform="translate(3708.734 113.881)" fill="#97a6b7"/>
          <path id="Path_8756" data-name="Path 8756" d="M-3628.117-179.15l-22.345,44.545a1.085,1.085,0,0,0,.405,1.434l.022.013a1,1,0,0,0,1.371-.442l23.241-43.86Z" transform="translate(3685.609 193.735)" fill="#abc"/>
          <path id="Path_8757" data-name="Path 8757" d="M-3712.4-209.8l32.676,31.285a.826.826,0,0,0,1.219-.046l.014-.017a.981.981,0,0,0-.065-1.306q-15.528-15.642-31.859-32.092Q-3711.4-210.892-3712.4-209.8Z" transform="translate(3740.289 222.774)" fill="#abc"/>
          <path id="Path_8758" data-name="Path 8758" d="M-3880.842-279.919l-.581.577c-3.013-3.5-14.329-5.767-29.508-5.214-18.566.677-37.184,5.244-41.946,10.748a2.879,2.879,0,0,0-.86-1.254l-.181,3.282a4.228,4.228,0,0,0,1.827,3.674c5.934,4.119,23.8,5.375,41.87,2.9,17.672-2.425,29.486-7.662,29.584-12.12,0,0,.014.007.016.009A17.417,17.417,0,0,0-3880.842-279.919Z" transform="translate(3953.923 287.042)" fill="#abc"/>
          <path id="Path_8759" data-name="Path 8759" d="M-3880.088-298.223c.484,4.486-11.417,9.708-29.427,11.928-22.16,2.732-43.93-.046-43.535-6.652.383-6.412,21.607-11.971,42.793-12.474C-3892.885-305.832-3880.563-302.618-3880.088-298.223Z" transform="translate(3953.156 305.457)" fill="#d8dee8"/>
        </g>
        <g id="Group_2677" data-name="Group 2677" transform="translate(110.46 184.142)">
          <path id="Path_8760" data-name="Path 8760" d="M-2857.78-97.919l28.417,27.489a.843.843,0,0,0,1.216-.209l.016-.02a1.022,1.022,0,0,0,.094-1.329l-27.524-28.4Q-2856.669-99.155-2857.78-97.919Z" transform="translate(2875.231 111.791)" fill="#abc"/>
          <path id="Path_8761" data-name="Path 8761" d="M-2812.639-150.91q-12.4,24.9-25.212,50.626a1.258,1.258,0,0,0,.458,1.644l.026.014a1.117,1.117,0,0,0,1.548-.49l26.223-49.832Q-2811.115-149.924-2812.639-150.91Z" transform="translate(2857.724 156.478)" fill="#abc"/>
          <path id="Path_8762" data-name="Path 8762" d="M-2687.611,52.746c-.133.406-.454.647-.717.537l-18.885-7.881c-.275-.114-.385-.543-.246-.957l.1-.3c.139-.415.472-.656.747-.542l18.864,7.912c.263.111.368.529.236.935Z" transform="translate(2742.321 -15.549)" fill="#97a6b7"/>
          <path id="Path_8763" data-name="Path 8763" d="M-2654.677-57.58q-11.95,24.554-24.3,49.919a1.237,1.237,0,0,0,.441,1.607l.024.014a1.074,1.074,0,0,0,1.491-.5q12.852-25,25.269-49.151Z" transform="translate(2717.187 73.925)" fill="#abc"/>
          <path id="Path_8764" data-name="Path 8764" d="M-2746.32-91.922q18.227,17.988,35.529,35.06a.881.881,0,0,0,1.326-.052l.016-.018a1.122,1.122,0,0,0-.071-1.463l-34.638-35.964Z" transform="translate(2776.642 106.458)" fill="#abc"/>
          <path id="Path_8765" data-name="Path 8765" d="M-2929.449-170.526l-.632.647c-3.276-3.923-15.578-6.463-32.083-5.843-20.186.759-40.428,5.876-45.6,12.045a3.214,3.214,0,0,0-.936-1.405l-.2,3.678a4.786,4.786,0,0,0,1.986,4.117c6.451,4.617,25.876,6.024,45.524,3.245,19.213-2.718,32.059-8.585,32.166-13.583,0,0,.015.008.017.01A20.112,20.112,0,0,0-2929.449-170.526Z" transform="translate(3008.908 178.507)" fill="#abc"/>
          <path id="Path_8766" data-name="Path 8766" d="M-2928.645-191.019c.525,5.028-12.412,10.88-32,13.367-24.094,3.061-47.764-.052-47.334-7.455.417-7.186,23.491-13.416,46.527-13.979C-2942.557-199.547-2929.16-195.945-2928.645-191.019Z" transform="translate(3008.087 199.125)" fill="#d8dee8"/>
        </g>
        <g id="Group_2690" data-name="Group 2690" transform="translate(213.581)">
          <g id="Group_2683" data-name="Group 2683" transform="translate(1.814 0)">
            <g id="Group_2678" data-name="Group 2678">
              <circle id="Ellipse_2287" data-name="Ellipse 2287" cx="39.791" cy="39.791" r="39.791" transform="translate(0 56.272) rotate(-45)" fill="#97a6b7"/>
              <circle id="Ellipse_2288" data-name="Ellipse 2288" cx="35.346" cy="35.346" r="35.346" transform="translate(6.285 56.272) rotate(-45)" fill="#97a6b7"/>
            </g>
            <g id="Group_2682" data-name="Group 2682" transform="translate(14.709 14.66)">
              <circle id="Ellipse_2289" data-name="Ellipse 2289" cx="29.46" cy="29.46" r="29.46" transform="translate(0 41.663) rotate(-45)" fill="#97a6b7"/>
              <g id="Group_2681" data-name="Group 2681" transform="translate(0 0)" clip-path="url(#clip-path)">
                <g id="Group_2679" data-name="Group 2679" transform="translate(21.55 27.624)">
                  <ellipse id="Ellipse_2290" data-name="Ellipse 2290" cx="8.159" cy="12.182" rx="8.159" ry="12.182" fill="#97a6b7"/>
                  <path id="Path_8767" data-name="Path 8767" d="M-1735.756-1237.22h-3.788c-.331,13.773-.662,27.425-.993,41.308a2.684,2.684,0,0,0,.867,2.038,2.978,2.978,0,0,0,2.186.836,2.772,2.772,0,0,0,1.953-.866,2.06,2.06,0,0,0,.776-1.654Q-1735.254-1216.549-1735.756-1237.22Z" transform="translate(1745.804 1259.207)" fill="#97a6b7"/>
                </g>
                <g id="Group_2680" data-name="Group 2680" transform="translate(46.013 28.118)">
                  <path id="Path_8768" data-name="Path 8768" d="M-1559.348-1423.35l-1.993.014v14.778h-1.49v-14.766l-2.233.013v14.753h-2.233v-14.755l-1.861-.013v14.768h-2.233v-14.781l-1.406-.012s-1.781,13.306-1.466,19.474a2.963,2.963,0,0,0,1.095,2.015,10.766,10.766,0,0,0,7.237,2.381,10.623,10.623,0,0,0,7.166-2.381,2.833,2.833,0,0,0,.983-2.015C-1557.469-1410.044-1559.348-1423.35-1559.348-1423.35Z" transform="translate(1574.302 1423.35)" fill="#97a6b7"/>
                  <path id="Path_8769" data-name="Path 8769" d="M-1522.226-1237.22h-3.787c-.331,13.773-.662,27.425-.993,41.308a2.685,2.685,0,0,0,.867,2.038,2.978,2.978,0,0,0,2.186.836,2.772,2.772,0,0,0,1.953-.866,2.06,2.06,0,0,0,.776-1.654Q-1521.724-1216.549-1522.226-1237.22Z" transform="translate(1532.469 1258.713)" fill="#97a6b7"/>
                </g>
              </g>
            </g>
          </g>
          <g id="Group_2689" data-name="Group 2689">
            <g id="Group_2684" data-name="Group 2684">
              <circle id="Ellipse_2292" data-name="Ellipse 2292" cx="39.791" cy="39.791" r="39.791" transform="translate(0 56.272) rotate(-45)" fill="#fff"/>
              <path id="Path_8886" data-name="Path 8886" d="M35.346,0A35.346,35.346,0,1,1,0,35.346,35.346,35.346,0,0,1,35.346,0Z" transform="translate(20.923 20.926)" fill="#fd9f00"/>
            </g>
            <g id="Group_2688" data-name="Group 2688" transform="translate(14.709 14.66)">
              <g id="Group_2687" data-name="Group 2687" transform="translate(0 0)" clip-path="url(#clip-path)">
                <g id="Group_2685" data-name="Group 2685" transform="translate(21.55 27.624)">
                  <ellipse id="Ellipse_2294" data-name="Ellipse 2294" cx="8.159" cy="12.182" rx="8.159" ry="12.182" fill="#fff"/>
                  <path id="Path_8770" data-name="Path 8770" d="M-1751.466-1237.22h-3.787c-.331,13.773-.662,27.425-.993,41.308a2.685,2.685,0,0,0,.867,2.038,2.978,2.978,0,0,0,2.186.836,2.773,2.773,0,0,0,1.953-.866,2.061,2.061,0,0,0,.776-1.654Q-1750.966-1216.549-1751.466-1237.22Z" transform="translate(1761.515 1259.207)" fill="#fff"/>
                </g>
                <g id="Group_2686" data-name="Group 2686" transform="translate(46.013 28.118)">
                  <path id="Path_8771" data-name="Path 8771" d="M-1575.058-1423.35l-1.993.014v14.778h-1.49v-14.766l-2.233.013v14.753h-2.233v-14.755l-1.861-.013v14.768h-2.233v-14.781l-1.406-.012s-1.781,13.306-1.466,19.474a2.963,2.963,0,0,0,1.095,2.015,10.766,10.766,0,0,0,7.237,2.381,10.622,10.622,0,0,0,7.166-2.381,2.832,2.832,0,0,0,.983-2.015C-1573.179-1410.044-1575.058-1423.35-1575.058-1423.35Z" transform="translate(1590.012 1423.35)" fill="#fff"/>
                  <path id="Path_8772" data-name="Path 8772" d="M-1537.936-1237.22h-3.788c-.331,13.773-.662,27.425-.993,41.308a2.685,2.685,0,0,0,.867,2.038,2.978,2.978,0,0,0,2.186.836,2.773,2.773,0,0,0,1.953-.866,2.061,2.061,0,0,0,.776-1.654Q-1537.436-1216.549-1537.936-1237.22Z" transform="translate(1548.179 1258.713)" fill="#fff"/>
                </g>
              </g>
            </g>
          </g>
        </g>
        <g id="Group_2697" data-name="Group 2697" transform="translate(182.086 124.747)">
          <g id="Group_2693" data-name="Group 2693" transform="translate(50.921 84.852)">
            <g id="Group_2691" data-name="Group 2691" transform="translate(0 0)">
              <path id="Path_8773" data-name="Path 8773" d="M-1855.314,951.7a17.774,17.774,0,0,1,.109,3.7c-.222.928-7.865,1.6-10.458,1.277s1.545-3.118,3.2-3.642S-1855.314,951.7-1855.314,951.7Z" transform="translate(1875.866 -844.269)" fill="#585d5e"/>
              <path id="Path_8774" data-name="Path 8774" d="M-1802.97,909.748l.806,5.561s2.054.973,3.042.011l.109-5.821Z" transform="translate(1819.675 -806.942)" fill="#585d5e"/>
              <path id="Path_8775" data-name="Path 8775" d="M-1946.938,21.5a151.826,151.826,0,0,0-.293,25.693c1.046,14.215,3.741,23.21,7.121,38.366,2.066,9.262,4.849,22.895,7.368,39.945a6.816,6.816,0,0,0,4.517.934,6.648,6.648,0,0,0,2.714-1.088c6.608-21.3,4.657-34.494,1.468-42.717-1.359-3.5-3.008-6.27-3.889-11.658-1.165-7.128.276-11.113,2.331-27.623,1.465-11.768,1.211-13.588.237-15.352C-1929.261,20.942-1941.181,21.079-1946.938,21.5Z" transform="translate(1947.639 -21.335)" fill="#585d5e"/>
            </g>
            <g id="Group_2692" data-name="Group 2692" transform="translate(15.979 2.639)">
              <path id="Path_8776" data-name="Path 8776" d="M-1504.221,906.681s-1.621,1.269-1.189,2.789,4.216,7.61,6.913,9.338,1.851-1.873,1.067-4.115-2.79-7.184-3.573-8.011S-1504.221,906.681-1504.221,906.681Z" transform="translate(1540.562 -806.762)" fill="#585d5e"/>
              <path id="Path_8777" data-name="Path 8777" d="M-1519.81,856.58c.784,2.3,1.538,4.2,2.127,5.6a20.25,20.25,0,0,0,2.826,5.257c.7.876,2.372,2.745,2.82,2.434s-.764-2.588-3.115-9.244c-.342-.967-1.42-4.044-1.42-4.044h-3.237Z" transform="translate(1553.234 -762.772)" fill="#585d5e"/>
              <path id="Path_8778" data-name="Path 8778" d="M-1809.26,44.19c4.048,22.049,8.022,33.63,11.029,40.18a113.44,113.44,0,0,1,5.554,14.3,121.619,121.619,0,0,1,3.375,13.62c1.4,6.759,4.845,16.627,14.128,29.57a3.37,3.37,0,0,0,3.211.174,3.213,3.213,0,0,0,1.3-1.421c-1.214-12.375-2.606-22.773-3.815-30.8-.254-1.684-1.371-9.047-3.124-18.777-.686-3.808-1.69-9.387-2.894-15.118-1.5-7.136-3.8-16.844-7.338-28.477Z" transform="translate(1809.26 -44.19)" fill="#585d5e"/>
            </g>
          </g>
          <g id="Group_2696" data-name="Group 2696">
            <g id="Group_2695" data-name="Group 2695">
              <path id="Path_8779" data-name="Path 8779" d="M-2376.281-355.667s-.865-3.39-2.3-4.285-3.471-1.851-3.937-2.245-1.01.782.333,1.681l1.342.9a1.318,1.318,0,0,1-.055.576,2.023,2.023,0,0,1-1.835,1.156c-3.445.722-4.79.756-5.315.6-.078-.023-.377-.12-.5.013-.2.214.162.89.318,1.127.932,1.424,4.167,2.043,6.589.93.885-.406,1.223-.843,1.868-.733,1.025.174,1.655,1.527,2.028,2.645Z" transform="translate(2388.616 402.83)" fill="url(#linear-gradient-11)"/>
              <path id="Path_8780" data-name="Path 8780" d="M-2305.85-514.393l2.942-2.615c.359.363,5.594,5.472,12.913,3.924,5.039-1.067,7.947-5.206,9.808-7.846,5.592-7.934,2.248-13.756,8.269-19.148,1.672-1.5,4.953-3.309,7.1-2.757,5.11,1.318,8.051,16.683,3.106,28.77-1,2.44-6.494,15.872-18.962,17.328C-2290.743-495.563-2301.418-502.657-2305.85-514.393Z" transform="translate(2315.407 562.632)" fill="#fd9f00"/>
              <path id="Path_8781" data-name="Path 8781" d="M-1867.8-688.542c-2.14-1.978-6.233-4.257-8.286-9.558-.618-1.6-2.807-7.248.423-11.571,1.917-2.567,5.478-4.309,8.617-3.693,2.682.528,3.1,2.395,7.658,6.155a32.2,32.2,0,0,0,7.8,5.122c5.436,2.24,8.7.133,14.161.373,6.705.3,14.5,4.038,18.248,9.48,6.662,9.658-2.988,19.456,4.308,30.771,2.39,3.707,3.569,2.876,9.231,10.052s8.5,10.778,8,15.181c-.7,6.11-7.282,11.947-13.479,12.344-6.054.388-9.9-4.375-12.985-2.292-2.194,1.483-.94,4.366-3.269,7.832-3,4.469-8.906,5.359-9.86,5.5-8.849,1.335-20.78-9.041-25.849-21.335C-1872.216-656.347-1856.164-677.789-1867.8-688.542Z" transform="translate(1936.416 713.489)" fill="url(#linear-gradient-12)"/>
              <path id="Path_8782" data-name="Path 8782" d="M-2265.965-440.169c-9.215,7.278-8.189,21.238-13.854,21.945-1.73.216-1.635-1.11-5.762-2.451-6.036-1.963-8.872.02-13.118-1.471a13.162,13.162,0,0,1-6.3-5.048l-.852.757c4.432,11.737,15.107,18.829,25.174,17.655,12.468-1.455,17.964-14.888,18.962-17.328a37.031,37.031,0,0,0,2.343-17.39A19.221,19.221,0,0,0-2265.965-440.169Z" transform="translate(2315.407 474.676)" opacity="0.3" fill="url(#linear-gradient-13)"/>
              <path id="Path_8783" data-name="Path 8783" d="M-2026.939-560.253c.565-.878,2.36-3.307,9.978-5.1a43.859,43.859,0,0,1,19.963-.51,44.589,44.589,0,0,1,23.173,13.277,31.265,31.265,0,0,0-12.277,15.345c-1.018,2.808-4.026,12.41.276,21.4,2.479,5.182,6.865,9.073,10.2,12.028,5,4.432,7.583,5.113,9.259,9.084,1.824,4.324-.014,6.432,2.251,9.393,2.433,3.179,5.283,1.7,9.406,4.916,4.224,3.292,2.721,6,6.565,9.642,5.585,5.287,12.99,3.57,13.335,5.949.3,2.046-4.965,4.823-9.436,5.949-8.854,2.23-16.576-1.513-18.873-2.667-6.358-3.194-5.26-5.262-10.107-7.7-8.116-4.077-13.664.46-32.152.927-10.011.253-15.074.311-17.847-3.077-2.533-3.094-1.2-6.488.319-21.114v0c.489-4.884,1.512-15.112,1.517-20.94,0-3.445-1.191-9.072-3.58-20.327-.141-.664-1.434-6.745-2.478-14.867C-2028.4-555.953-2028.26-558.2-2026.939-560.253Z" transform="translate(2069.697 583.726)" fill="#fd9f00"/>
              <g id="Group_2694" data-name="Group 2694" transform="translate(68.091 30.312)" opacity="0.3">
                <path id="Path_8784" data-name="Path 8784" d="M-1745.489-368.34c-3.844-3.639-2.341-6.349-6.565-9.642-4.124-3.215-6.973-1.737-9.406-4.916-2.266-2.961-.427-5.068-2.251-9.392-1.674-3.971-4.262-4.651-9.259-9.084-3.33-2.955-7.717-6.845-10.2-12.028-4.3-8.993-1.294-18.594-.276-21.4a31.272,31.272,0,0,1,12.277-15.345c-.231-.248-.5-.531-.793-.829-15.779,2.169-24.979,11.286-26.117,13.986-2.63,6.24,1.533,8.533,1.641,26.532.051,8.6-.876,12,1.915,15.591,3.193,4.106,6.872,2.836,11.488,8.205,3.547,4.125,2.979,6.741,6.291,8.479,3.561,1.868,5.83-.309,9.846.547,6.711,1.431,8.146,9.169,12.582,13.4,3.354,3.2,9.558,5.44,21.791,3.037a1.705,1.705,0,0,0,.365-1.191C-1732.5-364.77-1739.9-363.053-1745.489-368.34Z" transform="translate(1798.943 450.98)" fill="url(#linear-gradient-14)"/>
              </g>
              <path id="Path_8785" data-name="Path 8785" d="M-1897.274-643.25s.8,6.361,3.143,7.82,6.144,3.36,6.562,3.878-14.546,2.125-21.962-1.617h0c2.443-.509,3.108-.7,3.108-.7a13.727,13.727,0,0,0,3.141-1.243,10.666,10.666,0,0,0,3.453-3.194l-.028-3.523Z" transform="translate(1964.851 651.361)" fill="url(#linear-gradient-15)"/>
              <path id="Path_8786" data-name="Path 8786" d="M-1839.069-668.575A3.521,3.521,0,0,1-1843-667.35c-2.15-.784-.867-6.336.838-6.97a3.017,3.017,0,0,1,2.312.318,3.345,3.345,0,0,1,1.051,3.761c.543-.157,1.021-.015,1.141.254.152.341-.308.806-.412.911A1.82,1.82,0,0,1-1839.069-668.575Z" transform="translate(1907.003 678.939)" fill="url(#linear-gradient-16)"/>
              <path id="Path_8787" data-name="Path 8787" d="M-2024.7-551.334l3.5-1.1s-1.407,5.264-2.26,9.913a3.285,3.285,0,0,0,2.829,3.854l12.272,1.512a5.064,5.064,0,0,0,4.6-1.895l9.666-12.289,3.021,1.276s-13.279,16.013-13,23.328c.151,3.924.26,8.033.327,11a4.21,4.21,0,0,0,4.371,4.111l8.009-.306.417,3.479-5.375.7a7.156,7.156,0,0,0-4.137,2.275,7.211,7.211,0,0,0-1.488,4.48c-.279,8.447,7.021,30.583,2.04,38.557-4.864,7.787-25.128,7.986-30.628,0-4.2-6.105,3.062-12.862,4.035-36.217.276-6.638.007-13.735-.066-15.653-.447-11.774-1.546-16.976-.491-25.705A67.808,67.808,0,0,1-2024.7-551.334Z" transform="translate(2073.025 571.028)" fill="url(#linear-gradient-17)"/>
              <path id="Path_8788" data-name="Path 8788" d="M-1763.057-195.115s-6.821-2.475-7.824-2.475-4.614,2.207-4.882,2.475,2.875.2,4.013.4S-1765.4-190.97-1763.057-195.115Z" transform="translate(1846.545 257.162)" fill="url(#linear-gradient-18)"/>
              <path id="Path_8789" data-name="Path 8789" d="M-1728.81-504.97s19.583,12.938,21.456,25.454S-1732.833-465-1732.833-465l-1.721-3.726s11.15-6.97,11.417-8.307-18.473-14.98-18.473-14.98Z" transform="translate(1816.321 529.048)" fill="#fd9f00"/>
            </g>
            <path id="Path_8790" data-name="Path 8790" d="M-1846.686-641.47s1.474,1.15,5.38.251c-.584.6-1.439.826-1.439,1.389s1.52.3,1.52.3-1.691,2.06-3.91,1.718S-1847.229-640.411-1846.686-641.47Z" transform="translate(1909.56 649.786)" fill="#fff"/>
          </g>
        </g>
      </g>
    </g>
  </g>
</svg>
