<svg id="Group_11568" data-name="Group 11568" xmlns="http://www.w3.org/2000/svg" width="25.017" height="23.245" viewBox="0 0 25.017 23.245">
  <path id="Path_23142" data-name="Path 23142" d="M313.871,226.348h-4.212c1.4-.572,1.924-2.34,1.092-3.172a1.966,1.966,0,0,0-2.756.364,4.059,4.059,0,0,0-.78,2.132,4.059,4.059,0,0,0-.78-2.132,2.012,2.012,0,0,0-2.756-.364c-.832.832-.312,2.6,1.092,3.172h-4.264a.688.688,0,0,0-.676.676v.884a.688.688,0,0,0,.676.676h.312v7.332a.8.8,0,0,0,.78.78h5.1V226.348h1.04V236.7h5.1a.8.8,0,0,0,.78-.78v-7.332h.312a.688.688,0,0,0,.676-.676v-.832a.782.782,0,0,0-.728-.728Zm-9.828-1.976a.867.867,0,0,1,.156-.676,1.258,1.258,0,0,1,1.664.364,3.972,3.972,0,0,1,.624,1.924C305.342,225.88,304.146,225.568,304.042,224.372Zm4.473-.26c.676-.676,1.4-.624,1.664-.364a1.254,1.254,0,0,1-.364,1.664,3.972,3.972,0,0,1-1.924.624A3.972,3.972,0,0,1,308.515,224.112Z" transform="translate(-289.582 -213.711)" fill="#fff"/>
  <path id="Path_23143" data-name="Path 23143" d="M80.118,35.539a1.685,1.685,0,0,1-.988-1.56v-.832a1.731,1.731,0,0,1,1.716-1.716h1.976a2.593,2.593,0,0,1,.468-2.86,2.92,2.92,0,0,1,4,.208L86.93,25.71a1.192,1.192,0,0,0-1.2-1.092h-2.7v-1.4a3.374,3.374,0,0,0-3.38-3.38,3.373,3.373,0,0,0-3.38,3.38v1.4H72.837a1.191,1.191,0,0,0-1.2,1.092L69.925,41.727a1.218,1.218,0,0,0,1.2,1.352h9.308a1.712,1.712,0,0,1-.312-.988ZM77.309,23.214a2.34,2.34,0,0,1,4.68,0v1.4H77.257v-1.4Z" transform="translate(-69.921 -19.834)" fill="#fff"/>
</svg>
