<svg xmlns="http://www.w3.org/2000/svg" width="274.026" height="268.904" viewBox="0 0 274.026 268.904">
  <g id="_6300958" data-name="6300958" transform="translate(-40.29 -44.42)">
    <g id="Background_Complete" transform="translate(40.29 44.42)">
      <g id="Group_3552" data-name="Group 3552" transform="translate(1.559)">
        <rect id="Rectangle_2395" data-name="Rectangle 2395" width="23.035" height="7.331" transform="translate(13.169 217.48)" fill="#ebebeb"/>
        <rect id="Rectangle_2396" data-name="Rectangle 2396" width="23.035" height="7.331" transform="translate(87.555 38.346)" fill="#ebebeb"/>
        <g id="Group_3547" data-name="Group 3547" transform="translate(0 226.39)">
          <path id="Path_9441" data-name="Path 9441" d="M66.026,397.635l-11.439.19L48.8,397.9l-5.811.026H42.7v-.3L42.67,390.3v-.328H43l11.518.046,5.759.052,5.759.072h.157v.151Zm0,0-.157-7.331.157.157-5.759.072-5.759.052-11.518.046.328-.328-.026,7.331-.3-.3,5.706.026,5.733.079Z" transform="translate(-42.67 -389.97)" fill="#ebebeb"/>
        </g>
        <g id="Group_3548" data-name="Group 3548" transform="translate(223.127 157.205)">
          <path id="Path_9442" data-name="Path 9442" d="M406.6,292.035c-3.839.066-13.516.229-17.224.269l-5.811.026h-.295v-.3l-.026-7.331v-.328h.328l11.518.046c2.87.026,8.648.085,11.518.125h.157v.151l-.164,7.344Zm0,0-.157-7.331.157.157c-2.876.039-8.642.1-11.518.124l-11.518.046.328-.328-.026,7.331-.3-.3,5.706.026c3.649.046,13.549.21,17.329.275Z" transform="translate(-383.24 -284.37)" fill="#ebebeb"/>
        </g>
        <g id="Group_3549" data-name="Group 3549" transform="translate(210.273 166.443)">
          <path id="Path_9443" data-name="Path 9443" d="M386.976,306.135c-3.839.066-13.516.229-17.224.269l-5.811.026h-.295v-.3l-.026-7.331v-.328h.328l11.518.046c2.87.026,8.648.085,11.518.124h.157v.151l-.164,7.344Zm0,0-.157-7.331.157.157-5.759.072c-3.656.052-13.5.085-17.277.1l.328-.328-.026,7.331-.3-.3,5.706.026c3.656.052,13.555.216,17.329.275Z" transform="translate(-363.62 -298.47)" fill="#ebebeb"/>
        </g>
        <rect id="Rectangle_2397" data-name="Rectangle 2397" width="23.035" height="7.331" transform="translate(197.799 157.539)" fill="#ebebeb"/>
        <rect id="Rectangle_2398" data-name="Rectangle 2398" width="23.035" height="7.331" transform="translate(248.311 226.724)" fill="#ebebeb"/>
        <rect id="Rectangle_2399" data-name="Rectangle 2399" width="23.035" height="7.331" transform="translate(235.464 0.334)" fill="#ebebeb"/>
        <g id="Group_3550" data-name="Group 3550" transform="translate(247.99 9.244)">
          <path id="Path_9444" data-name="Path 9444" d="M444.546,66.2l-11.439.19-5.785.079-5.811.026h-.295v-.3l-.026-7.331V58.53h.328l11.518.046,5.759.052,5.759.072h.157l-.007.151Zm0,0-.157-7.331.157.157-5.759.072-5.759.052-11.518.046.328-.328-.026,7.331-.3-.3,5.706.026L432.95,66Z" transform="translate(-421.19 -58.53)" fill="#ebebeb"/>
        </g>
        <g id="Group_3551" data-name="Group 3551" transform="translate(12.848)">
          <path id="Path_9445" data-name="Path 9445" d="M85.636,52.085l-11.439.19-5.785.079L62.6,52.38h-.295v-.3l-.026-7.331V44.42h.328l11.518.046,5.759.052,5.759.072H85.8v.151Zm0,0-.157-7.331.157.157-5.759.072-5.759.052L62.6,45.082l.328-.328L62.9,52.085l-.3-.3,5.706.026,5.733.079Z" transform="translate(-62.28 -44.42)" fill="#ebebeb"/>
        </g>
      </g>
      <g id="Group_3561" data-name="Group 3561" transform="translate(6.056 2.221)">
        <g id="Group_3556" data-name="Group 3556">
          <g id="Group_3555" data-name="Group 3555">
            <g id="Group_3553" data-name="Group 3553" transform="translate(5.134)">
              <path id="Path_9446" data-name="Path 9446" d="M57.37,47.81v116.4h75.651V47.81Zm72.867,113.6H60.161V50.6H130.23V161.414Z" transform="translate(-57.37 -47.81)" fill="#ebebeb"/>
              <rect id="Rectangle_2400" data-name="Rectangle 2400" width="70.069" height="110.813" transform="translate(2.791 2.791)" fill="#fff"/>
              <rect id="Rectangle_2401" data-name="Rectangle 2401" width="70.069" height="2.791" transform="translate(72.862 59.593) rotate(180)" fill="#ebebeb"/>
            </g>
            <rect id="Rectangle_2402" data-name="Rectangle 2402" width="85.931" height="8.013" transform="translate(85.931 124.407) rotate(180)" fill="#dbdbdb"/>
            <g id="Group_3554" data-name="Group 3554" transform="translate(7.925 2.791)">
              <path id="Path_9447" data-name="Path 9447" d="M61.63,52.07H131.7v71.694H61.63Zm67.488,2.581h-64.9v66.525h64.9Z" transform="translate(-61.63 -52.07)" fill="#dbdbdb"/>
              <rect id="Rectangle_2403" data-name="Rectangle 2403" width="1.395" height="69.106" transform="translate(46.313)" fill="#dbdbdb"/>
              <rect id="Rectangle_2404" data-name="Rectangle 2404" width="1.395" height="69.106" transform="translate(22.361)" fill="#dbdbdb"/>
            </g>
          </g>
        </g>
        <g id="Group_3560" data-name="Group 3560" transform="translate(176.751)">
          <g id="Group_3559" data-name="Group 3559">
            <g id="Group_3557" data-name="Group 3557" transform="translate(5.138)">
              <path id="Path_9448" data-name="Path 9448" d="M327.16,47.81v116.4h75.651V47.81Zm72.86,113.6H329.951V50.6H400.02Z" transform="translate(-327.16 -47.81)" fill="#ebebeb"/>
              <rect id="Rectangle_2405" data-name="Rectangle 2405" width="70.069" height="110.813" transform="translate(2.791 2.791)" fill="#fff"/>
              <rect id="Rectangle_2406" data-name="Rectangle 2406" width="70.069" height="2.791" transform="translate(72.858 59.593) rotate(180)" fill="#ebebeb"/>
            </g>
            <rect id="Rectangle_2407" data-name="Rectangle 2407" width="85.931" height="8.013" transform="translate(85.931 124.407) rotate(180)" fill="#dbdbdb"/>
            <g id="Group_3558" data-name="Group 3558" transform="translate(7.929 2.791)">
              <path id="Path_9449" data-name="Path 9449" d="M331.42,52.07h70.069v71.694H331.42ZM398.9,54.651H334v66.525h64.9Z" transform="translate(-331.42 -52.07)" fill="#dbdbdb"/>
              <rect id="Rectangle_2408" data-name="Rectangle 2408" width="1.395" height="69.106" transform="translate(46.313)" fill="#dbdbdb"/>
              <rect id="Rectangle_2409" data-name="Rectangle 2409" width="1.395" height="69.106" transform="translate(22.361)" fill="#dbdbdb"/>
            </g>
          </g>
        </g>
      </g>
      <g id="Group_3565" data-name="Group 3565" transform="translate(0 153.268)">
        <rect id="Rectangle_2410" data-name="Rectangle 2410" width="95.732" height="5.844" fill="#ebebeb"/>
        <g id="Group_3562" data-name="Group 3562" transform="translate(8.537 5.844)">
          <rect id="Rectangle_2411" data-name="Rectangle 2411" width="78.658" height="16.123" fill="#ebebeb"/>
          <path id="Path_9450" data-name="Path 9450" d="M131.978,290.464,53.32,292.03v-4.75h78.658Z" transform="translate(-53.32 -287.28)" fill="#c7c7c7"/>
          <rect id="Rectangle_2412" data-name="Rectangle 2412" width="54.306" height="9.369" transform="translate(12.179 3.381)" fill="none" stroke="#dbdbdb" stroke-miterlimit="10" stroke-width="1"/>
          <rect id="Rectangle_2413" data-name="Rectangle 2413" width="17.905" height="2.706" transform="translate(30.38 6.715)" fill="#dbdbdb"/>
        </g>
        <g id="Group_3563" data-name="Group 3563" transform="translate(5.294 21.974)">
          <path id="Path_9451" data-name="Path 9451" d="M50.978,404.638H48.37L55.95,311.9h6.643Z" transform="translate(-48.37 -311.9)" fill="#ebebeb"/>
          <path id="Path_9452" data-name="Path 9452" d="M66.318,311.9l-.78,6.2H59.17l.5-6.2Z" transform="translate(-52.094 -311.9)" fill="#c7c7c7"/>
        </g>
        <g id="Group_3564" data-name="Group 3564" transform="translate(76.215 21.974)">
          <path id="Path_9453" data-name="Path 9453" d="M168.236,404.638h2.608l-7.58-92.738H156.62Z" transform="translate(-156.62 -311.9)" fill="#ebebeb"/>
          <path id="Path_9454" data-name="Path 9454" d="M156.62,311.9l.78,6.2h6.368l-.5-6.2Z" transform="translate(-156.62 -311.9)" fill="#c7c7c7"/>
        </g>
      </g>
    </g>
    <g id="Floor" transform="translate(41.05 312.072)">
      <g id="Group_3566" data-name="Group 3566" transform="translate(0)">
        <path id="Path_9455" data-name="Path 9455" d="M41.45,453.278l34.16-.164,34.16-.052,68.313-.111,68.313.111,34.16.052,34.16.164-34.16.157-34.16.059-68.313.111-68.313-.111-34.16-.059Z" transform="translate(-41.45 -452.95)" fill="#263238"/>
      </g>
    </g>
    <g id="Device" transform="translate(111.099 61.572)">
      <g id="Group_3597" data-name="Group 3597">
        <g id="Group_3596" data-name="Group 3596">
          <path id="Path_9456" data-name="Path 9456" d="M270.328,70.6H159.573a11.307,11.307,0,0,0-11.2,11.413v228a11.316,11.316,0,0,0,11.2,11.413H270.328a11.323,11.323,0,0,0,11.216-11.413v-228A11.318,11.318,0,0,0,270.328,70.6Zm4.206,232.365c0,6-4.494,10.856-10.037,10.856h-99.08c-5.556,0-10.05-4.855-10.05-10.856V90.654c0-12.225,4.494-12.821,10.05-12.821h19.845c1.153,0,2.1,1.31,2.1,2.935v.7c0,3.806,2.083,3.82,4.645,3.82h45.9c2.581,0,4.645-.013,4.645-3.82v-.7c0-1.625.93-2.935,2.1-2.935H264.5c5.543,0,10.037,1.625,10.037,12.821V302.965Z" transform="translate(-148.37 -70.6)" fill="#263238"/>
          <path id="Path_9457" data-name="Path 9457" d="M252.553,84.946h-12.52a.775.775,0,0,1-.773-.773h0a.775.775,0,0,1,.773-.773h12.52a.775.775,0,0,1,.773.773h0A.774.774,0,0,1,252.553,84.946Z" transform="translate(-179.713 -75.014)" fill="#fff"/>
          <line id="Line_239" data-name="Line 239" x1="0.373" transform="translate(6.624 218.908)" fill="none"/>
          <g id="Group_3595" data-name="Group 3595" transform="translate(6.997 7.233)">
            <path id="Path_9458" data-name="Path 9458" d="M278.223,94.461V306.772c0,6-4.494,10.856-10.037,10.856H169.1c-5.556,0-10.05-4.855-10.05-10.856V94.461c0-12.225,4.494-12.821,10.05-12.821h19.845c1.153,0,2.1,1.31,2.1,2.935v.7c0,3.806,2.083,3.82,4.645,3.82h45.9c2.581,0,4.645-.013,4.645-3.82v-.7c0-1.625.93-2.935,2.1-2.935h19.851C273.729,81.64,278.223,83.265,278.223,94.461Z" transform="translate(-159.05 -81.64)" fill="#fff"/>
            <g id="Group_3569" data-name="Group 3569" transform="translate(8.537 20.395)">
              <path id="Path_9459" data-name="Path 9459" d="M175.6,119.367l-3.525-3.3,3.525-3.3.544.583-2.9,2.719,2.9,2.712Z" transform="translate(-172.08 -112.77)" fill="#c7c7c7"/>
              <g id="Group_3567" data-name="Group 3567" transform="translate(100.016 0.55)">
                <path id="Path_9460" data-name="Path 9460" d="M326.129,114.3a.694.694,0,1,1-.694-.694A.695.695,0,0,1,326.129,114.3Z" transform="translate(-324.74 -113.61)" fill="#c7c7c7"/>
                <path id="Path_9461" data-name="Path 9461" d="M326.129,118.064a.694.694,0,1,1-.694-.694A.695.695,0,0,1,326.129,118.064Z" transform="translate(-324.74 -114.907)" fill="#c7c7c7"/>
                <path id="Path_9462" data-name="Path 9462" d="M326.129,121.824a.694.694,0,1,1-.694-.694A.695.695,0,0,1,326.129,121.824Z" transform="translate(-324.74 -116.203)" fill="#c7c7c7"/>
              </g>
              <g id="Group_3568" data-name="Group 3568" transform="translate(41.625 2.87)">
                <path id="Path_9463" data-name="Path 9463" d="M235.664,119.656a.245.245,0,0,1,.334-.033,1.5,1.5,0,0,0,.878.354.971.971,0,0,0,.577-.17.409.409,0,0,0,.2-.328.264.264,0,0,0-.039-.144.454.454,0,0,0-.138-.138,1.927,1.927,0,0,0-.629-.216h-.007a2.49,2.49,0,0,1-.59-.177.957.957,0,0,1-.426-.36.67.67,0,0,1-.1-.373.851.851,0,0,1,.367-.668,1.353,1.353,0,0,1,.793-.242,1.821,1.821,0,0,1,1,.367.241.241,0,0,1,.066.328.234.234,0,0,1-.328.072,1.329,1.329,0,0,0-.74-.295.877.877,0,0,0-.511.157.363.363,0,0,0-.177.288.218.218,0,0,0,.033.131.434.434,0,0,0,.124.118,1.532,1.532,0,0,0,.577.2h.007a2.789,2.789,0,0,1,.635.19,1.051,1.051,0,0,1,.459.38.725.725,0,0,1,.111.393.9.9,0,0,1-.393.714,1.445,1.445,0,0,1-.852.262,2,2,0,0,1-1.173-.459A.255.255,0,0,1,235.664,119.656Z" transform="translate(-235.614 -117.153)" fill="#c7c7c7"/>
                <path id="Path_9464" data-name="Path 9464" d="M240.56,117.536a.252.252,0,0,1,.256-.256.256.256,0,0,1,.256.256v2.706a.256.256,0,0,1-.256.256.252.252,0,0,1-.256-.256Z" transform="translate(-237.32 -117.195)" fill="#c7c7c7"/>
                <path id="Path_9465" data-name="Path 9465" d="M242.43,118.808a1.694,1.694,0,0,1,2.739-1.3.262.262,0,1,1-.321.413,1.2,1.2,0,0,0-.727-.249,1.141,1.141,0,0,0-.826.334,1.078,1.078,0,0,0,0,1.585,1.152,1.152,0,0,0,.826.334,1.212,1.212,0,0,0,.629-.177v-.629h-.655a.263.263,0,0,1-.262-.262.257.257,0,0,1,.262-.256h.917a.263.263,0,0,1,.269.256v1.015a.281.281,0,0,1-.013.079c-.007.007-.007.013-.007.026v.007a.223.223,0,0,1-.085.111,1.7,1.7,0,0,1-1.042.36A1.677,1.677,0,0,1,242.43,118.808Z" transform="translate(-237.965 -117.15)" fill="#c7c7c7"/>
                <path id="Path_9466" data-name="Path 9466" d="M248.844,120.269a.252.252,0,1,1-.5,0V117.6a.241.241,0,0,1,.1-.21.256.256,0,0,1,.347.052l1.481,2.051V117.6a.253.253,0,0,1,.249-.249.249.249,0,0,1,.249.249v2.666a.255.255,0,0,1-.249.256.264.264,0,0,1-.19-.092l-.026-.026-1.468-2.038v1.907Z" transform="translate(-240.002 -117.216)" fill="#c7c7c7"/>
                <path id="Path_9467" data-name="Path 9467" d="M257.173,120.5a1.32,1.32,0,0,1-1.323-1.323v-1.631a.252.252,0,0,1,.256-.256.256.256,0,0,1,.255.256v1.631a.819.819,0,1,0,1.638,0v-1.631a.256.256,0,0,1,.256-.256.25.25,0,0,1,.249.256v1.631A1.334,1.334,0,0,1,257.173,120.5Z" transform="translate(-242.592 -117.198)" fill="#c7c7c7"/>
                <path id="Path_9468" data-name="Path 9468" d="M262.608,119.255h-.563v1a.252.252,0,1,1-.5,0v-2.706a.25.25,0,0,1,.249-.256h.826a.983.983,0,1,1-.007,1.965Zm-.563-.511h.563a.472.472,0,1,0,0-.943h-.563Z" transform="translate(-244.555 -117.198)" fill="#c7c7c7"/>
              </g>
            </g>
            <g id="Group_3573" data-name="Group 3573" transform="translate(7.77 3.865)">
              <g id="u5Zjqx_3_" transform="translate(14.4)">
                <g id="Group_3570" data-name="Group 3570">
                  <path id="Path_9469" data-name="Path 9469" d="M197.188,88.444c-.066.066-.131.124-.19.19l-.111.111a2.61,2.61,0,0,0-3.7,0c-.033-.033-.066-.072-.1-.111l-.19-.19h-.007v-.007l.013-.013c.079-.072.157-.144.242-.216a2.659,2.659,0,0,1,.563-.36,2.741,2.741,0,0,1,.74-.249c.124-.02.249-.033.373-.052.039-.007.314-.007.328-.007l.256.02a2.722,2.722,0,0,1,.681.164,3.051,3.051,0,0,1,.9.524c.072.066.138.131.2.2Z" transform="translate(-192.89 -87.54)" fill="#c7c7c7"/>
                  <path id="Path_9470" data-name="Path 9470" d="M194.121,89.8c-.1-.1-.2-.2-.3-.3a2.094,2.094,0,0,1,1.232-.616,2.151,2.151,0,0,1,1.854.616l-.3.3a1.764,1.764,0,0,0-2.483,0Z" transform="translate(-193.211 -87.993)" fill="#c7c7c7"/>
                  <path id="Path_9471" data-name="Path 9471" d="M196.614,90.553l-.3.3a.9.9,0,0,0-1.271,0l-.3-.3A1.313,1.313,0,0,1,196.614,90.553Z" transform="translate(-193.528 -88.443)" fill="#c7c7c7"/>
                </g>
                <path id="Path_9472" data-name="Path 9472" d="M196.3,91.485a.275.275,0,1,1-.275-.275A.281.281,0,0,1,196.3,91.485Z" transform="translate(-193.876 -88.806)" fill="#c7c7c7"/>
              </g>
              <g id="Group_3571" data-name="Group 3571" transform="translate(0 0.688)">
                <path id="Path_9473" data-name="Path 9473" d="M170.91,89.383a.793.793,0,1,1,.793.793A.791.791,0,0,1,170.91,89.383Z" transform="translate(-170.91 -88.59)" fill="#c7c7c7"/>
                <path id="Path_9474" data-name="Path 9474" d="M174.7,89.383a.793.793,0,1,1,.793.793A.791.791,0,0,1,174.7,89.383Z" transform="translate(-172.217 -88.59)" fill="#c7c7c7"/>
                <path id="Path_9475" data-name="Path 9475" d="M178.5,89.383a.793.793,0,1,1,.793.793A.791.791,0,0,1,178.5,89.383Z" transform="translate(-173.527 -88.59)" fill="#c7c7c7"/>
                <path id="Path_9476" data-name="Path 9476" d="M182.3,89.383a.793.793,0,1,1,.793.793A.791.791,0,0,1,182.3,89.383Z" transform="translate(-174.838 -88.59)" fill="#c7c7c7"/>
                <path id="Path_9477" data-name="Path 9477" d="M186.1,89.383a.793.793,0,1,1,.793.793A.791.791,0,0,1,186.1,89.383Z" transform="translate(-176.148 -88.59)" fill="#c7c7c7"/>
              </g>
              <g id="Group_3572" data-name="Group 3572" transform="translate(96.027 0.223)">
                <path id="Path_9478" data-name="Path 9478" d="M323.92,90.868h-6.44V87.88h6.44Zm-6.106-.334h5.765V88.221h-5.765Z" transform="translate(-317.48 -87.88)" fill="#c7c7c7"/>
                <rect id="Rectangle_2414" data-name="Rectangle 2414" width="4.147" height="1.965" transform="translate(0.537 0.511)" fill="#c7c7c7"/>
                <rect id="Rectangle_2415" data-name="Rectangle 2415" width="0.57" height="1.592" transform="translate(6.44 0.694)" fill="#c7c7c7"/>
              </g>
            </g>
            <g id="Group_3576" data-name="Group 3576" transform="translate(9.913 221.797)">
              <path id="Path_9479" data-name="Path 9479" d="M179.447,422.9h-.583v2.673h-1.088v-1.363h-1.926v1.363h-1.094V422.9h-.577l2.634-2.719Z" transform="translate(-174.18 -420.18)" fill="#ebebeb"/>
              <g id="Group_3574" data-name="Group 3574" transform="translate(93.249)">
                <rect id="Rectangle_2416" data-name="Rectangle 2416" width="6.348" height="0.904" fill="#ebebeb"/>
                <rect id="Rectangle_2417" data-name="Rectangle 2417" width="6.348" height="0.904" transform="translate(0 2.241)" fill="#ebebeb"/>
                <rect id="Rectangle_2418" data-name="Rectangle 2418" width="6.348" height="0.904" transform="translate(0 4.488)" fill="#ebebeb"/>
              </g>
              <g id="Group_3575" data-name="Group 3575" transform="translate(46.575 0.144)">
                <path id="Path_9480" data-name="Path 9480" d="M251.136,424.281l-1.808,1.926-1.808-1.926.321-.3,1.487,1.585,1.487-1.585Z" transform="translate(-246.046 -421.635)" fill="#ebebeb"/>
                <path id="Path_9481" data-name="Path 9481" d="M248.552,426.965a3.282,3.282,0,1,1,3.282-3.282A3.288,3.288,0,0,1,248.552,426.965Zm0-6.126a2.843,2.843,0,1,0,2.843,2.843A2.845,2.845,0,0,0,248.552,420.839Z" transform="translate(-245.27 -420.4)" fill="#ebebeb"/>
              </g>
            </g>
            <g id="Group_3587" data-name="Group 3587" transform="translate(16.012 83.172)">
              <g id="Group_3577" data-name="Group 3577" transform="translate(4.625)">
                <path id="Path_9482" data-name="Path 9482" d="M191.821,211.669a1.268,1.268,0,0,1-1.271-1.271v-1.566a.238.238,0,0,1,.242-.242.247.247,0,0,1,.249.242V210.4a.783.783,0,1,0,1.566,0v-1.566a.243.243,0,0,1,.249-.242.238.238,0,0,1,.242.242V210.4A1.278,1.278,0,0,1,191.821,211.669Z" transform="translate(-190.55 -208.59)" fill="#263238"/>
                <path id="Path_9483" data-name="Path 9483" d="M195.754,211.506a.225.225,0,0,1,.328-.033.826.826,0,0,0,.485.2.585.585,0,0,0,.3-.085.191.191,0,0,0,.079-.131.1.1,0,0,0-.013-.046.117.117,0,0,0-.059-.052,1.018,1.018,0,0,0-.354-.124h-.007a1.612,1.612,0,0,1-.38-.111.752.752,0,0,1-.3-.256.556.556,0,0,1-.072-.275.608.608,0,0,1,.262-.485.952.952,0,0,1,.544-.164,1.143,1.143,0,0,1,.662.242.247.247,0,0,1,.072.328.232.232,0,0,1-.328.059.746.746,0,0,0-.406-.164.416.416,0,0,0-.262.079c-.059.039-.072.079-.072.1a.049.049,0,0,0,.007.033.284.284,0,0,0,.046.046.9.9,0,0,0,.321.1l.007.007h.007a1.629,1.629,0,0,1,.406.124.708.708,0,0,1,.314.262.568.568,0,0,1,.085.288.641.641,0,0,1-.275.511.981.981,0,0,1-.57.177,1.291,1.291,0,0,1-.78-.3A.227.227,0,0,1,195.754,211.506Z" transform="translate(-192.327 -209.056)" fill="#263238"/>
                <path id="Path_9484" data-name="Path 9484" d="M199.01,211.031a1.093,1.093,0,0,1,1.074-1.1,1.057,1.057,0,0,1,1.061,1.022v.02c0,.007,0,.033-.007.039a.213.213,0,0,1-.229.177h-1.4a.56.56,0,0,0,.151.288.681.681,0,0,0,.419.2.717.717,0,0,0,.459-.111.242.242,0,0,1,.328-.013.2.2,0,0,1,0,.288,1.122,1.122,0,0,1-.786.288A1.078,1.078,0,0,1,199.01,211.031Zm.478-.216h1.245a.722.722,0,0,0-.649-.465A.614.614,0,0,0,199.488,210.814Z" transform="translate(-193.467 -209.052)" fill="#263238"/>
                <path id="Path_9485" data-name="Path 9485" d="M204.543,210.173a.235.235,0,0,1-.236.236.406.406,0,0,0-.262.085.622.622,0,0,0-.2.21,1.543,1.543,0,0,0-.183.367v.839a.245.245,0,0,1-.242.236.239.239,0,0,1-.236-.236v-1.73a.239.239,0,0,1,.478,0v.033a.374.374,0,0,1,.092-.085.937.937,0,0,1,.557-.17A.212.212,0,0,1,204.543,210.173Z" transform="translate(-194.905 -209.059)" fill="#263238"/>
                <path id="Path_9486" data-name="Path 9486" d="M207.961,210.847V211.9a.233.233,0,0,1-.229.236.239.239,0,0,1-.236-.236v-1.048a.453.453,0,0,0-.459-.446.436.436,0,0,0-.439.446V211.9a.128.128,0,0,1-.007.046.24.24,0,0,1-.236.19.235.235,0,0,1-.236-.236v-1.73a.235.235,0,0,1,.236-.236.238.238,0,0,1,.216.138.862.862,0,0,1,.465-.138A.921.921,0,0,1,207.961,210.847Z" transform="translate(-195.919 -209.052)" fill="#263238"/>
                <path id="Path_9487" data-name="Path 9487" d="M211.987,211.044v.865a.239.239,0,0,1-.236.236.244.244,0,0,1-.229-.19,1,1,0,0,1-.583.19,1.023,1.023,0,0,1-.747-.321,1.13,1.13,0,0,1-.3-.773,1.107,1.107,0,0,1,.3-.773,1,1,0,0,1,.747-.328.948.948,0,0,1,.583.2.234.234,0,0,1,.465.039Zm-.465,0a.652.652,0,0,0-.17-.452.548.548,0,0,0-.406-.183.507.507,0,0,0-.406.183.652.652,0,0,0-.17.452.623.623,0,0,0,.17.452.539.539,0,0,0,.406.17.549.549,0,0,0,.406-.17A.676.676,0,0,0,211.521,211.044Z" transform="translate(-197.219 -209.059)" fill="#263238"/>
                <path id="Path_9488" data-name="Path 9488" d="M216.238,210.837v1.055a.236.236,0,0,1-.472,0v-1.055a.449.449,0,0,0-.9.013v1.042a.284.284,0,0,0-.007.033v.013c-.007.007-.007.02-.013.026v.02a.252.252,0,0,1-.223.138c-.02,0-.033-.007-.046-.007a.238.238,0,0,1-.19-.229v-1.73a.231.231,0,0,1,.236-.236.216.216,0,0,1,.21.131,1.747,1.747,0,0,0,1.848-.131.921.921,0,0,1,.917.924v1.042a.236.236,0,0,1-.472,0v-1.042a.452.452,0,0,0-.445-.452A.469.469,0,0,0,216.238,210.837Z" transform="translate(-198.771 -209.049)" fill="#263238"/>
                <path id="Path_9489" data-name="Path 9489" d="M220.55,211.031a1.093,1.093,0,0,1,1.074-1.1,1.057,1.057,0,0,1,1.061,1.022v.02c0,.007,0,.033-.007.039a.213.213,0,0,1-.229.177h-1.4a.56.56,0,0,0,.151.288.681.681,0,0,0,.419.2.717.717,0,0,0,.459-.111.242.242,0,0,1,.328-.013.2.2,0,0,1,0,.288,1.122,1.122,0,0,1-.786.288A1.088,1.088,0,0,1,220.55,211.031Zm.485-.216h1.245a.722.722,0,0,0-.649-.465A.614.614,0,0,0,221.035,210.814Z" transform="translate(-200.895 -209.052)" fill="#263238"/>
              </g>
              <rect id="Rectangle_2419" data-name="Rectangle 2419" width="79.379" height="9.428" transform="translate(3.885 6.434)" fill="#ebebeb"/>
              <g id="Group_3578" data-name="Group 3578" transform="translate(4.625 22.596)">
                <path id="Path_9490" data-name="Path 9490" d="M190.55,245.917v-2.594a.238.238,0,0,1,.242-.242h1.441a.246.246,0,0,1,0,.491h-1.192v.806h1.022a.246.246,0,0,1,0,.491h-1.022v.812h1.192a.252.252,0,0,1,.242.249.246.246,0,0,1-.242.242h-1.428a.006.006,0,0,1-.007-.007l-.007.007A.262.262,0,0,1,190.55,245.917Z" transform="translate(-190.55 -243.08)" fill="#263238"/>
                <path id="Path_9491" data-name="Path 9491" d="M196.288,245.327v1.055a.236.236,0,1,1-.472,0v-1.055a.449.449,0,0,0-.9.013v1.042a.285.285,0,0,0-.007.033v.013c-.007.007-.007.02-.013.026v.02a.252.252,0,0,1-.223.138c-.02,0-.033-.007-.046-.007a.238.238,0,0,1-.19-.229v-1.73a.231.231,0,0,1,.236-.236.216.216,0,0,1,.21.131,1.747,1.747,0,0,0,1.848-.131.921.921,0,0,1,.917.924v1.042a.236.236,0,1,1-.472,0v-1.042a.452.452,0,0,0-.446-.452A.464.464,0,0,0,196.288,245.327Z" transform="translate(-191.891 -243.539)" fill="#263238"/>
                <path id="Path_9492" data-name="Path 9492" d="M202.577,245.534v.865a.239.239,0,0,1-.236.236.244.244,0,0,1-.229-.19,1,1,0,0,1-.583.19,1.023,1.023,0,0,1-.747-.321,1.13,1.13,0,0,1-.3-.773,1.107,1.107,0,0,1,.3-.773,1,1,0,0,1,.747-.328.948.948,0,0,1,.583.2.234.234,0,0,1,.465.039Zm-.465,0a.652.652,0,0,0-.17-.452.548.548,0,0,0-.406-.183.507.507,0,0,0-.406.183.652.652,0,0,0-.17.452.623.623,0,0,0,.17.452.539.539,0,0,0,.406.17.549.549,0,0,0,.406-.17A.676.676,0,0,0,202.111,245.534Z" transform="translate(-193.974 -243.549)" fill="#263238"/>
                <path id="Path_9493" data-name="Path 9493" d="M205.482,243.408a.236.236,0,0,1-.236.242.241.241,0,0,1-.236-.242v-.092a.235.235,0,0,1,.236-.236.231.231,0,0,1,.236.236Zm0,.8v1.717a.231.231,0,0,1-.236.236.235.235,0,0,1-.236-.236v-1.717a.236.236,0,0,1,.236-.242A.232.232,0,0,1,205.482,244.207Z" transform="translate(-195.536 -243.08)" fill="#263238"/>
                <path id="Path_9494" data-name="Path 9494" d="M207.032,243.08a.248.248,0,0,1,.249.242v2.594a.246.246,0,0,1-.491,0v-2.594A.242.242,0,0,1,207.032,243.08Z" transform="translate(-196.15 -243.08)" fill="#263238"/>
              </g>
              <rect id="Rectangle_2420" data-name="Rectangle 2420" width="79.379" height="9.428" transform="translate(3.885 29.03)" fill="#ebebeb"/>
              <g id="Group_3579" data-name="Group 3579" transform="translate(4.619 45.193)">
                <path id="Path_9495" data-name="Path 9495" d="M191.575,279.45h-.544v.957a.246.246,0,0,1-.491,0v-2.594a.242.242,0,0,1,.242-.242h.786a.94.94,0,0,1,.943.943A.928.928,0,0,1,191.575,279.45Zm-.544-.485h.544a.452.452,0,1,0,0-.9h-.544Z" transform="translate(-190.54 -277.57)" fill="#263238"/>
                <path id="Path_9496" data-name="Path 9496" d="M196.127,280.024v.865a.239.239,0,0,1-.236.236.244.244,0,0,1-.229-.19,1,1,0,0,1-.583.19,1.023,1.023,0,0,1-.747-.321,1.118,1.118,0,0,1-.3-.773,1.107,1.107,0,0,1,.3-.773,1.015,1.015,0,0,1,.747-.328.948.948,0,0,1,.583.2.234.234,0,0,1,.465.039Zm-.465,0a.652.652,0,0,0-.17-.452.548.548,0,0,0-.406-.183.507.507,0,0,0-.406.183.652.652,0,0,0-.17.452.623.623,0,0,0,.17.452.539.539,0,0,0,.406.17.549.549,0,0,0,.406-.17A.7.7,0,0,0,195.661,280.024Z" transform="translate(-191.743 -278.039)" fill="#263238"/>
                <path id="Path_9497" data-name="Path 9497" d="M198.354,280.482a.225.225,0,0,1,.328-.033.781.781,0,0,0,.485.19.585.585,0,0,0,.3-.085.19.19,0,0,0,.079-.131.1.1,0,0,0-.013-.046.117.117,0,0,0-.059-.052,1.019,1.019,0,0,0-.354-.124h-.007a1.612,1.612,0,0,1-.38-.111.752.752,0,0,1-.3-.256.555.555,0,0,1-.072-.275.608.608,0,0,1,.262-.485.952.952,0,0,1,.544-.164,1.142,1.142,0,0,1,.662.242.247.247,0,0,1,.072.328.232.232,0,0,1-.328.059.745.745,0,0,0-.406-.164.416.416,0,0,0-.262.079c-.059.039-.072.079-.072.1a.049.049,0,0,0,.007.033.282.282,0,0,0,.046.046.906.906,0,0,0,.321.1l.007.007h.007a1.629,1.629,0,0,1,.406.124.708.708,0,0,1,.314.262.568.568,0,0,1,.085.288.641.641,0,0,1-.275.511.981.981,0,0,1-.57.177,1.291,1.291,0,0,1-.78-.3A.219.219,0,0,1,198.354,280.482Z" transform="translate(-193.217 -278.032)" fill="#263238"/>
                <path id="Path_9498" data-name="Path 9498" d="M201.593,280.482a.225.225,0,0,1,.328-.033.781.781,0,0,0,.485.19.585.585,0,0,0,.3-.085.19.19,0,0,0,.079-.131.1.1,0,0,0-.013-.046.117.117,0,0,0-.059-.052,1.019,1.019,0,0,0-.354-.124h-.007a1.612,1.612,0,0,1-.38-.111.752.752,0,0,1-.3-.256.555.555,0,0,1-.072-.275.608.608,0,0,1,.262-.485.952.952,0,0,1,.544-.164,1.142,1.142,0,0,1,.662.242.247.247,0,0,1,.072.328.232.232,0,0,1-.328.059.745.745,0,0,0-.406-.164.416.416,0,0,0-.262.079c-.059.039-.072.079-.072.1a.049.049,0,0,0,.007.033.281.281,0,0,0,.046.046.905.905,0,0,0,.321.1l.007.007h.007a1.63,1.63,0,0,1,.406.124.708.708,0,0,1,.314.262.568.568,0,0,1,.085.288.641.641,0,0,1-.275.511.981.981,0,0,1-.57.177,1.329,1.329,0,0,1-.786-.3A.223.223,0,0,1,201.593,280.482Z" transform="translate(-194.334 -278.032)" fill="#263238"/>
                <path id="Path_9499" data-name="Path 9499" d="M207.745,279.278l-.727,1.71c-.007.007-.007.02-.02.033a.006.006,0,0,1-.007.007c-.007.007-.013.02-.02.026l-.007.007c-.007.007-.02.02-.026.02a.006.006,0,0,1-.007.007c-.013.007-.02.02-.039.02a.006.006,0,0,0-.007.007.283.283,0,0,1-.033.007h-.007a.1.1,0,0,1-.046.007.083.083,0,0,1-.039-.007h-.007a.049.049,0,0,0-.033-.007l-.007-.007h-.007a.137.137,0,0,1-.039-.026v-.007a.091.091,0,0,1-.026-.02.006.006,0,0,1-.007-.007c-.007-.007-.02-.02-.02-.026a.006.006,0,0,1-.007-.007.142.142,0,0,0-.02-.033l-.321-.76-.314.76a.144.144,0,0,0-.02.033v.007l-.026.026a.006.006,0,0,1-.007.007l-.026.026a.4.4,0,0,1-.039.026h-.007a.006.006,0,0,0-.007.007c-.007,0-.02.007-.026.007h-.007a.128.128,0,0,1-.046.007.1.1,0,0,1-.046-.007h-.013a.039.039,0,0,0-.026-.007l-.007-.007c-.013-.007-.033-.013-.039-.026s-.007,0-.007-.007a.09.09,0,0,0-.026-.02l-.007-.007c-.007-.007-.013-.02-.02-.026s-.007,0-.007-.007a.142.142,0,0,0-.02-.033l-.721-1.71a.228.228,0,0,1,.124-.3.22.22,0,0,1,.288.131l.518,1.186.308-.734a.238.238,0,0,1,.216-.138.224.224,0,0,1,.216.138l.314.734.518-1.186a.219.219,0,0,1,.295-.131A.239.239,0,0,1,207.745,279.278Z" transform="translate(-195.454 -278.046)" fill="#263238"/>
                <path id="Path_9500" data-name="Path 9500" d="M210.741,280.794a1.084,1.084,0,0,1-.3-.773,1.114,1.114,0,0,1,.3-.767,1.011,1.011,0,0,1,.753-.334.981.981,0,0,1,.734.334,1.1,1.1,0,0,1,.308.767,1.062,1.062,0,0,1-.308.773.969.969,0,0,1-.734.334A1.011,1.011,0,0,1,210.741,280.794Zm.177-.773a.725.725,0,0,0,.157.465.6.6,0,0,0,.419.164.592.592,0,0,0,.406-.164.667.667,0,0,0,.17-.465.65.65,0,0,0-.17-.459.611.611,0,0,0-.406-.164.651.651,0,0,0-.419.164A.706.706,0,0,0,210.918,280.021Z" transform="translate(-197.402 -278.036)" fill="#263238"/>
                <path id="Path_9501" data-name="Path 9501" d="M216.006,279.149a.235.235,0,0,1-.236.236.406.406,0,0,0-.262.085.622.622,0,0,0-.2.21,1.257,1.257,0,0,0-.177.367v.839a.245.245,0,0,1-.242.236.239.239,0,0,1-.236-.236v-1.736a.234.234,0,0,1,.236-.229.239.239,0,0,1,.242.229v.033a.375.375,0,0,1,.092-.085.937.937,0,0,1,.557-.17A.219.219,0,0,1,216.006,279.149Z" transform="translate(-198.854 -278.036)" fill="#263238"/>
                <path id="Path_9502" data-name="Path 9502" d="M219.346,280.413a.239.239,0,0,1-.236.236.246.246,0,0,1-.236-.19,1.088,1.088,0,1,1-.6-2.011,1.065,1.065,0,0,1,.59.183v-.826a.236.236,0,0,1,.242-.236.239.239,0,0,1,.236.236v2.608Zm-1.068-1.481a.562.562,0,0,0-.413.183.623.623,0,0,0-.177.445.631.631,0,0,0,.177.439.587.587,0,0,0,.413.183.551.551,0,0,0,.413-.183.641.641,0,0,0,0-.884A.541.541,0,0,0,218.278,278.933Z" transform="translate(-199.737 -277.57)" fill="#263238"/>
              </g>
              <rect id="Rectangle_2421" data-name="Rectangle 2421" width="79.379" height="9.428" transform="translate(3.885 51.626)" fill="#ebebeb"/>
              <g id="Group_3581" data-name="Group 3581" transform="translate(0 70.41)">
                <g id="Group_3580" data-name="Group 3580" transform="translate(8.681 1.12)">
                  <path id="Path_9503" data-name="Path 9503" d="M196.74,317.855a.087.087,0,0,1,.085-.085.088.088,0,0,1,.092.085v2.391a.088.088,0,0,1-.092.085.087.087,0,0,1-.085-.085Z" transform="translate(-196.74 -317.77)" fill="#263238"/>
                  <path id="Path_9504" data-name="Path 9504" d="M201.427,319.032v1.618a.085.085,0,0,1-.17,0v-.269a.85.85,0,0,1-.675.354.9.9,0,0,1,0-1.8.832.832,0,0,1,.675.354v-.262a.085.085,0,0,1,.17,0Zm-.17.812a.676.676,0,1,0-.675.721A.7.7,0,0,0,201.257,319.844Z" transform="translate(-197.771 -318.173)" fill="#263238"/>
                  <path id="Path_9505" data-name="Path 9505" d="M205.19,320.6a.847.847,0,0,1-.845.845.916.916,0,0,1-.373-.085.1.1,0,0,1-.039-.118.082.082,0,0,1,.118-.039.629.629,0,0,0,.295.066.663.663,0,0,0,.668-.668v-.223a.811.811,0,0,1-.668.354.9.9,0,0,1,0-1.789.8.8,0,0,1,.668.354v-.262a.088.088,0,0,1,.092-.085.087.087,0,0,1,.085.085Zm-.177-.76a.67.67,0,1,0-.668.721A.69.69,0,0,0,205.013,319.838Z" transform="translate(-199.071 -318.173)" fill="#263238"/>
                  <path id="Path_9506" data-name="Path 9506" d="M207.37,319.042a.084.084,0,0,1,.092-.085.087.087,0,0,1,.085.085v.393a.375.375,0,0,1,.026-.046.861.861,0,0,1,.721-.439.085.085,0,0,1,0,.17.636.636,0,0,0-.518.295,1.58,1.58,0,0,0-.216.419.049.049,0,0,0-.007.026v.786a.083.083,0,0,1-.085.085.088.088,0,0,1-.092-.085v-1.605Z" transform="translate(-200.406 -318.177)" fill="#263238"/>
                  <path id="Path_9507" data-name="Path 9507" d="M209.35,319.844a.887.887,0,0,1,.871-.9.876.876,0,0,1,.865.839h0v.013a.081.081,0,0,1-.085.079h-1.474a.706.706,0,0,0,.694.688.668.668,0,0,0,.577-.328.08.08,0,0,1,.118-.026.092.092,0,0,1,.026.124.85.85,0,0,1-.727.406A.878.878,0,0,1,209.35,319.844Zm.19-.144H210.9a.69.69,0,0,0-1.363,0Z" transform="translate(-201.088 -318.173)" fill="#263238"/>
                  <path id="Path_9508" data-name="Path 9508" d="M212.76,319.844a.887.887,0,0,1,.871-.9.876.876,0,0,1,.865.839h0v.013a.081.081,0,0,1-.085.079h-1.474a.706.706,0,0,0,.694.688.668.668,0,0,0,.577-.328.08.08,0,0,1,.118-.026.092.092,0,0,1,.026.124.85.85,0,0,1-.727.406A.874.874,0,0,1,212.76,319.844Zm.19-.144h1.363a.69.69,0,0,0-1.363,0Z" transform="translate(-202.264 -318.173)" fill="#263238"/>
                  <path id="Path_9509" data-name="Path 9509" d="M218.576,318.635a.092.092,0,0,1-.085.085h-.229v1.31a.14.14,0,0,0,.131.131.1.1,0,0,1,.092.092.093.093,0,0,1-.092.085.307.307,0,0,1-.314-.315v-1.31h-.223c-.085,0-.085-.046-.085-.085s0-.085.085-.085h.223v-.668a.092.092,0,0,1,.085-.085.105.105,0,0,1,.1.085v.668h.229A.1.1,0,0,1,218.576,318.635Z" transform="translate(-203.992 -317.777)" fill="#263238"/>
                  <path id="Path_9510" data-name="Path 9510" d="M220.922,318.95a.9.9,0,1,1-.852.9A.882.882,0,0,1,220.922,318.95Zm0,1.618a.726.726,0,1,0-.675-.721A.7.7,0,0,0,220.922,320.568Z" transform="translate(-204.785 -318.177)" fill="#263238"/>
                  <path id="Path_9511" data-name="Path 9511" d="M226.777,319.032v1.618a.085.085,0,0,1-.17,0v-.269a.85.85,0,0,1-.675.354.9.9,0,0,1,0-1.8.832.832,0,0,1,.675.354v-.262a.085.085,0,0,1,.17,0Zm-.177.812a.676.676,0,1,0-.675.721A.7.7,0,0,0,226.6,319.844Z" transform="translate(-206.513 -318.173)" fill="#263238"/>
                  <path id="Path_9512" data-name="Path 9512" d="M228.95,317.855a.087.087,0,0,1,.085-.085.088.088,0,0,1,.092.085v2.391a.088.088,0,0,1-.092.085.087.087,0,0,1-.085-.085Z" transform="translate(-207.847 -317.77)" fill="#263238"/>
                  <path id="Path_9513" data-name="Path 9513" d="M230.34,317.855a.087.087,0,0,1,.085-.085.088.088,0,0,1,.092.085v2.391a.088.088,0,0,1-.092.085.087.087,0,0,1-.085-.085Z" transform="translate(-208.327 -317.77)" fill="#263238"/>
                  <path id="Path_9514" data-name="Path 9514" d="M233.18,320.368a.085.085,0,0,1,.124-.013.956.956,0,0,0,.55.21.544.544,0,0,0,.341-.111.28.28,0,0,0,.138-.223.3.3,0,0,0-.131-.223.846.846,0,0,0-.38-.131l-.007-.007a.99.99,0,0,1-.406-.138.381.381,0,0,1-.2-.321.439.439,0,0,1,.2-.354.776.776,0,0,1,.439-.118.945.945,0,0,1,.537.2.093.093,0,0,1,.026.124.085.085,0,0,1-.118.026.794.794,0,0,0-.439-.177.529.529,0,0,0-.341.1.269.269,0,0,0-.111.2.208.208,0,0,0,.1.177.95.95,0,0,0,.367.124h.007a1.384,1.384,0,0,1,.439.144.45.45,0,0,1,.2.367.458.458,0,0,1-.2.36.725.725,0,0,1-.445.144,1.1,1.1,0,0,1-.662-.255C233.153,320.453,233.147,320.4,233.18,320.368Z" transform="translate(-209.299 -318.173)" fill="#263238"/>
                  <path id="Path_9515" data-name="Path 9515" d="M236.746,318.635a.092.092,0,0,1-.085.085h-.229v1.31a.14.14,0,0,0,.131.131.1.1,0,0,1,.092.092.093.093,0,0,1-.092.085.307.307,0,0,1-.314-.315v-1.31h-.223c-.085,0-.085-.046-.085-.085s0-.085.085-.085h.223v-.668a.092.092,0,0,1,.085-.085.105.105,0,0,1,.1.085v.668h.229A.1.1,0,0,1,236.746,318.635Z" transform="translate(-210.258 -317.777)" fill="#263238"/>
                  <path id="Path_9516" data-name="Path 9516" d="M239.687,319.032v1.618a.085.085,0,0,1-.17,0v-.269a.85.85,0,0,1-.675.354.9.9,0,0,1,0-1.8.832.832,0,0,1,.675.354v-.262a.085.085,0,0,1,.17,0Zm-.177.812a.676.676,0,1,0-.675.721A.7.7,0,0,0,239.51,319.844Z" transform="translate(-210.965 -318.173)" fill="#263238"/>
                  <path id="Path_9517" data-name="Path 9517" d="M242.276,318.635a.092.092,0,0,1-.085.085h-.229v1.31a.14.14,0,0,0,.131.131.1.1,0,0,1,.092.092.093.093,0,0,1-.092.085.307.307,0,0,1-.314-.315v-1.31h-.223c-.085,0-.085-.046-.085-.085s0-.085.085-.085h.223v-.668a.092.092,0,0,1,.085-.085.105.105,0,0,1,.1.085v.668h.229A.1.1,0,0,1,242.276,318.635Z" transform="translate(-212.165 -317.777)" fill="#263238"/>
                  <path id="Path_9518" data-name="Path 9518" d="M243.56,319.844a.887.887,0,0,1,.871-.9.876.876,0,0,1,.865.839h0v.013a.081.081,0,0,1-.085.079h-1.474a.706.706,0,0,0,.694.688.668.668,0,0,0,.577-.328.08.08,0,0,1,.118-.026.092.092,0,0,1,.026.124.85.85,0,0,1-.727.406A.878.878,0,0,1,243.56,319.844Zm.19-.144h1.363a.69.69,0,0,0-1.363,0Z" transform="translate(-212.885 -318.173)" fill="#263238"/>
                  <path id="Path_9519" data-name="Path 9519" d="M249.724,319.687a.557.557,0,0,0-1.114,0v1a.006.006,0,0,1-.007.007v.007a.079.079,0,0,1-.046.046.1.1,0,0,1-.046.013h-.02a.006.006,0,0,1-.007-.007c-.007,0-.013-.007-.02-.013s-.007-.007-.013-.007l-.013-.013a.006.006,0,0,1-.007-.007c0-.007,0-.007-.007-.007l-.007-.007c0-.007,0-.007-.007-.013v-1a.557.557,0,0,0-1.114,0v.983a.082.082,0,0,1-.039.072c-.007.007-.013.013-.02.013s-.007.007-.013.007H247.2a.092.092,0,0,1-.072-.066v-1.644a.087.087,0,0,1,.085-.085.083.083,0,0,1,.085.085v.17a.714.714,0,0,1,.557-.256.733.733,0,0,1,.642.38.747.747,0,0,1,.649-.38.726.726,0,0,1,.727.727v.983a.085.085,0,0,1-.17,0v-.983Z" transform="translate(-214.117 -318.18)" fill="#263238"/>
                  <path id="Path_9520" data-name="Path 9520" d="M252.29,319.844a.887.887,0,0,1,.871-.9.876.876,0,0,1,.865.839h0v.013a.081.081,0,0,1-.085.079h-1.474a.706.706,0,0,0,.694.688.668.668,0,0,0,.577-.328.08.08,0,0,1,.118-.026.092.092,0,0,1,.026.124.85.85,0,0,1-.727.406A.874.874,0,0,1,252.29,319.844Zm.19-.144h1.363a.69.69,0,0,0-1.363,0Z" transform="translate(-215.896 -318.173)" fill="#263238"/>
                  <path id="Path_9521" data-name="Path 9521" d="M257.171,319.687a.557.557,0,0,0-1.114,0v.989c-.007.013-.007.033-.02.039a.081.081,0,0,1-.066.033h-.02a.1.1,0,0,1-.059-.046c-.007,0-.007-.007-.007-.013l-.007-.007v-1.631a.085.085,0,1,1,.17,0v.17a.73.73,0,0,1,1.291.465v.976a.083.083,0,0,1-.085.085.087.087,0,0,1-.085-.085Z" transform="translate(-217.134 -318.18)" fill="#263238"/>
                  <path id="Path_9522" data-name="Path 9522" d="M259.856,318.635a.092.092,0,0,1-.085.085h-.229v1.31a.14.14,0,0,0,.131.131.1.1,0,0,1,.092.092.093.093,0,0,1-.092.085.307.307,0,0,1-.315-.315v-1.31h-.223c-.085,0-.085-.046-.085-.085s0-.085.085-.085h.223v-.668a.092.092,0,0,1,.085-.085.105.105,0,0,1,.1.085v.668h.229A.1.1,0,0,1,259.856,318.635Z" transform="translate(-218.227 -317.777)" fill="#263238"/>
                  <path id="Path_9523" data-name="Path 9523" d="M261.36,320.368a.085.085,0,0,1,.124-.013.956.956,0,0,0,.55.21.544.544,0,0,0,.341-.111.28.28,0,0,0,.138-.223.3.3,0,0,0-.131-.223.847.847,0,0,0-.38-.131L262,319.87a.989.989,0,0,1-.406-.138.381.381,0,0,1-.2-.321.439.439,0,0,1,.2-.354.776.776,0,0,1,.439-.118.963.963,0,0,1,.537.2.093.093,0,0,1,.026.124.085.085,0,0,1-.118.026.794.794,0,0,0-.439-.177.529.529,0,0,0-.341.1.269.269,0,0,0-.111.2.208.208,0,0,0,.1.177.951.951,0,0,0,.367.124h.007a1.384,1.384,0,0,1,.439.144.45.45,0,0,1,.2.367.458.458,0,0,1-.2.36.725.725,0,0,1-.445.144,1.1,1.1,0,0,1-.662-.255C261.333,320.453,261.327,320.4,261.36,320.368Z" transform="translate(-219.017 -318.173)" fill="#263238"/>
                  <path id="Path_9524" data-name="Path 9524" d="M266,318.135a.087.087,0,0,1,.085-.085.088.088,0,0,1,.092.085v.085a.089.089,0,1,1-.177,0Zm0,.59a.083.083,0,0,1,.085-.085.088.088,0,0,1,.092.085v1.618a.088.088,0,0,1-.092.085.087.087,0,0,1-.085-.085Z" transform="translate(-220.624 -317.867)" fill="#263238"/>
                  <path id="Path_9525" data-name="Path 9525" d="M268.841,319.687a.557.557,0,0,0-1.114,0v.989c-.007.013-.007.033-.02.039a.081.081,0,0,1-.066.033h-.02a.1.1,0,0,1-.059-.046c-.007,0-.007-.007-.007-.013l-.007-.007v-1.631a.085.085,0,1,1,.17,0v.17a.73.73,0,0,1,1.291.465v.976a.083.083,0,0,1-.085.085.087.087,0,0,1-.085-.085v-.976Z" transform="translate(-221.158 -318.18)" fill="#263238"/>
                  <path id="Path_9526" data-name="Path 9526" d="M273.206,318.635a.092.092,0,0,1-.085.085h-.229v1.31a.14.14,0,0,0,.131.131.1.1,0,0,1,.092.092.093.093,0,0,1-.092.085.307.307,0,0,1-.314-.315v-1.31h-.223c-.085,0-.085-.046-.085-.085s0-.085.085-.085h.223v-.668a.092.092,0,0,1,.085-.085.105.105,0,0,1,.1.085v.668h.229A.1.1,0,0,1,273.206,318.635Z" transform="translate(-222.831 -317.777)" fill="#263238"/>
                  <path id="Path_9527" data-name="Path 9527" d="M274.49,319.844a.887.887,0,0,1,.871-.9.876.876,0,0,1,.865.839h0v.013a.081.081,0,0,1-.085.079h-1.474a.706.706,0,0,0,.694.688.668.668,0,0,0,.577-.328.08.08,0,0,1,.118-.026.092.092,0,0,1,.026.124.85.85,0,0,1-.727.406A.874.874,0,0,1,274.49,319.844Zm.183-.144h1.363a.69.69,0,0,0-1.363,0Z" transform="translate(-223.551 -318.173)" fill="#263238"/>
                  <path id="Path_9528" data-name="Path 9528" d="M277.97,319.042a.084.084,0,0,1,.092-.085.087.087,0,0,1,.085.085v.393a.379.379,0,0,1,.026-.046.861.861,0,0,1,.721-.439.085.085,0,1,1,0,.17.647.647,0,0,0-.524.295,1.813,1.813,0,0,0-.216.419.049.049,0,0,0-.007.026v.786a.083.083,0,0,1-.085.085.088.088,0,0,1-.092-.085v-1.605Z" transform="translate(-224.752 -318.177)" fill="#263238"/>
                  <path id="Path_9529" data-name="Path 9529" d="M282.991,319.687a.565.565,0,0,0-.557-.557.559.559,0,0,0-.55.557v1a.006.006,0,0,1-.007.007v.007a.079.079,0,0,1-.046.046.1.1,0,0,1-.046.013h-.02a.006.006,0,0,1-.007-.007c-.007,0-.013-.007-.02-.013s-.007-.007-.013-.007l-.013-.013a.006.006,0,0,0-.007-.007c0-.007,0-.007-.007-.007l-.007-.007v-1.016a.557.557,0,0,0-1.114,0v.983a.082.082,0,0,1-.039.072c-.007.007-.013.013-.02.013s-.007.007-.013.007h-.026a.1.1,0,0,1-.072-.066v-1.644a.087.087,0,0,1,.085-.085.083.083,0,0,1,.085.085v.17a.715.715,0,0,1,.557-.256.733.733,0,0,1,.642.38.747.747,0,0,1,.649-.38.731.731,0,0,1,.734.727v.983a.085.085,0,0,1-.17,0Z" transform="translate(-225.593 -318.18)" fill="#263238"/>
                  <path id="Path_9530" data-name="Path 9530" d="M285.55,320.368a.085.085,0,0,1,.124-.013.956.956,0,0,0,.55.21.544.544,0,0,0,.341-.111.28.28,0,0,0,.138-.223.3.3,0,0,0-.131-.223.846.846,0,0,0-.38-.131l-.007-.007a.99.99,0,0,1-.406-.138.381.381,0,0,1-.2-.321.439.439,0,0,1,.2-.354.776.776,0,0,1,.439-.118.963.963,0,0,1,.537.2.093.093,0,0,1,.026.124.085.085,0,0,1-.118.026.794.794,0,0,0-.439-.177.529.529,0,0,0-.341.1.269.269,0,0,0-.111.2.208.208,0,0,0,.1.177.951.951,0,0,0,.367.124h.007a1.383,1.383,0,0,1,.439.144.45.45,0,0,1,.2.367.458.458,0,0,1-.2.36.725.725,0,0,1-.445.144,1.1,1.1,0,0,1-.662-.255C285.523,320.453,285.517,320.4,285.55,320.368Z" transform="translate(-227.359 -318.173)" fill="#263238"/>
                  <path id="Path_9531" data-name="Path 9531" d="M290.9,318.95a.9.9,0,1,1-.852.9A.882.882,0,0,1,290.9,318.95Zm0,1.618a.726.726,0,1,0-.675-.721A.7.7,0,0,0,290.9,320.568Z" transform="translate(-228.917 -318.177)" fill="#263238"/>
                  <path id="Path_9532" data-name="Path 9532" d="M294.225,317.868a.087.087,0,0,1-.085.085.28.28,0,0,0-.229.072.447.447,0,0,0-.072.295v.19h.255a.088.088,0,0,1,.092.085.09.09,0,0,1-.092.092h-.255v1.566a.087.087,0,0,1-.085.085.088.088,0,0,1-.092-.085v-1.566h-.236a.088.088,0,0,1-.085-.092.087.087,0,0,1,.085-.085h.236v-.19a.652.652,0,0,1,.118-.419.465.465,0,0,1,.36-.131A.1.1,0,0,1,294.225,317.868Z" transform="translate(-230.052 -317.77)" fill="#263238"/>
                  <path id="Path_9533" data-name="Path 9533" d="M296.981,320.368a.085.085,0,0,1,.124-.013.956.956,0,0,0,.55.21.544.544,0,0,0,.341-.111.28.28,0,0,0,.138-.223.3.3,0,0,0-.131-.223.846.846,0,0,0-.38-.131l-.007-.007a.99.99,0,0,1-.406-.138.381.381,0,0,1-.2-.321.439.439,0,0,1,.2-.354.776.776,0,0,1,.439-.118.963.963,0,0,1,.537.2.093.093,0,0,1,.026.124.085.085,0,0,1-.118.026.794.794,0,0,0-.439-.177.528.528,0,0,0-.341.1.269.269,0,0,0-.111.2.208.208,0,0,0,.1.177.95.95,0,0,0,.367.124h.007a1.384,1.384,0,0,1,.439.144.45.45,0,0,1,.2.367.458.458,0,0,1-.2.36.725.725,0,0,1-.445.144,1.1,1.1,0,0,1-.662-.255A.069.069,0,0,1,296.981,320.368Z" transform="translate(-231.302 -318.173)" fill="#263238"/>
                  <path id="Path_9534" data-name="Path 9534" d="M299.74,319.844a.887.887,0,0,1,.871-.9.876.876,0,0,1,.865.839h0v.013a.081.081,0,0,1-.085.079h-1.474a.706.706,0,0,0,.694.688.668.668,0,0,0,.577-.328.08.08,0,0,1,.118-.026.1.1,0,0,1,.033.124.85.85,0,0,1-.727.406A.875.875,0,0,1,299.74,319.844Zm.183-.144h1.363a.7.7,0,0,0-.675-.583A.706.706,0,0,0,299.923,319.7Z" transform="translate(-232.259 -318.173)" fill="#263238"/>
                  <path id="Path_9535" data-name="Path 9535" d="M303.22,319.042a.084.084,0,0,1,.092-.085.087.087,0,0,1,.085.085v.393a.379.379,0,0,1,.026-.046.861.861,0,0,1,.721-.439.085.085,0,1,1,0,.17.648.648,0,0,0-.524.295,1.813,1.813,0,0,0-.216.419.049.049,0,0,0-.007.026v.786a.083.083,0,0,1-.085.085.088.088,0,0,1-.092-.085Z" transform="translate(-233.459 -318.177)" fill="#263238"/>
                  <path id="Path_9536" data-name="Path 9536" d="M306.187,320.742a.084.084,0,0,1-.026-.039l-.675-1.605a.085.085,0,0,1,.157-.066l.6,1.415.6-1.415a.082.082,0,0,1,.111-.046.084.084,0,0,1,.046.111l-.668,1.592a.323.323,0,0,0-.02.046.071.071,0,0,1-.059.026c-.013,0-.02,0-.026-.007h-.007C306.2,320.748,306.194,320.742,306.187,320.742Z" transform="translate(-234.238 -318.187)" fill="#263238"/>
                  <path id="Path_9537" data-name="Path 9537" d="M308.94,318.135a.087.087,0,0,1,.085-.085.088.088,0,0,1,.092.085v.085a.089.089,0,1,1-.177,0Zm0,.59a.083.083,0,0,1,.085-.085.088.088,0,0,1,.092.085v1.618a.088.088,0,0,1-.092.085.087.087,0,0,1-.085-.085Z" transform="translate(-235.431 -317.867)" fill="#263238"/>
                  <path id="Path_9538" data-name="Path 9538" d="M310.31,319.838a.909.909,0,0,1,.924-.9.924.924,0,0,1,.57.2.078.078,0,0,1,.013.118.083.083,0,0,1-.118.013.732.732,0,1,0-.465,1.284.78.78,0,0,0,.465-.157.087.087,0,1,1,.1.144.927.927,0,0,1-.563.19A.891.891,0,0,1,310.31,319.838Z" transform="translate(-235.904 -318.173)" fill="#263238"/>
                  <path id="Path_9539" data-name="Path 9539" d="M313.42,319.844a.887.887,0,0,1,.871-.9.876.876,0,0,1,.865.839h0v.013a.081.081,0,0,1-.085.079H313.6a.706.706,0,0,0,.694.688.668.668,0,0,0,.577-.328.08.08,0,0,1,.118-.026.1.1,0,0,1,.033.124.85.85,0,0,1-.727.406A.879.879,0,0,1,313.42,319.844Zm.19-.144h1.363a.69.69,0,0,0-1.363,0Z" transform="translate(-236.976 -318.173)" fill="#263238"/>
                </g>
                <rect id="Rectangle_2422" data-name="Rectangle 2422" width="4.534" height="4.534" fill="none" stroke="#ebebeb" stroke-miterlimit="10" stroke-width="1"/>
              </g>
              <g id="Group_3583" data-name="Group 3583" transform="translate(76.339 9.362)">
                <g id="Group_3582" data-name="Group 3582">
                  <path id="Path_9540" data-name="Path 9540" d="M302.983,223.837a.957.957,0,1,1-.957-.957A.953.953,0,0,1,302.983,223.837Z" transform="translate(-300.376 -222.88)" fill="#a6a6a6"/>
                  <path id="Path_9541" data-name="Path 9541" d="M303.319,227.478H300.01a1.654,1.654,0,0,1,3.309,0Z" transform="translate(-300.01 -223.901)" fill="#a6a6a6"/>
                </g>
              </g>
              <g id="Group_3585" data-name="Group 3585" transform="translate(75.782 32.345)">
                <g id="Group_3584" data-name="Group 3584">
                  <path id="Path_9542" data-name="Path 9542" d="M299.723,258.412c-.19-.151-.373-.3-.563-.452h4.422c-.19.144-.373.3-.563.452s-.373.308-.563.459c-.21.17-.413.347-.622.524h0c-.157.131-.308.262-.465.393-.157-.131-.308-.262-.465-.393h0l-.622-.524C300.1,258.713,299.913,258.563,299.723,258.412Z" transform="translate(-299.16 -257.96)" fill="#a6a6a6"/>
                  <path id="Path_9543" data-name="Path 9543" d="M303.582,257.96v2.8H299.16v-2.8c.177.17.36.334.537.5s.36.328.544.491.38.341.577.5c.007.007.013.013.02.013s.013.007.02.013a.141.141,0,0,0-.033.02c-.124.072-.242.144-.36.223-.151.1-.295.2-.439.295s-.288.2-.432.314-.282.216-.413.334c.157-.085.308-.177.459-.275s.295-.2.439-.295.288-.2.432-.314c.118-.085.229-.177.341-.269.007-.007.02-.013.026-.02l.478.419.026.02.026-.02c.164-.138.321-.282.485-.419.007.007.02.013.026.02.111.092.223.183.341.269.138.1.288.21.432.314s.295.2.439.295.3.19.459.275c-.131-.118-.275-.229-.413-.334s-.288-.21-.432-.314-.295-.2-.439-.295c-.118-.079-.242-.151-.36-.223-.013-.007-.02-.013-.033-.02.007-.007.013-.007.02-.013s.013-.013.02-.013c.19-.164.38-.334.57-.5s.367-.328.544-.491C303.222,258.294,303.4,258.13,303.582,257.96Z" transform="translate(-299.16 -257.96)" fill="#a6a6a6"/>
                </g>
              </g>
              <g id="Group_3586" data-name="Group 3586" transform="translate(75.782 55.256)">
                <path id="Path_9544" data-name="Path 9544" d="M301.368,292.93a3.231,3.231,0,0,0-2.208,1.094,2.792,2.792,0,0,0,4.422,0A3.235,3.235,0,0,0,301.368,292.93Zm0,1.867a.776.776,0,1,1,.78-.78A.776.776,0,0,1,301.368,294.8Z" transform="translate(-299.16 -292.93)" fill="#a6a6a6"/>
                <path id="Path_9545" data-name="Path 9545" d="M302.773,294.331a.491.491,0,1,1-.491-.491A.491.491,0,0,1,302.773,294.331Z" transform="translate(-300.067 -293.244)" fill="#a6a6a6"/>
              </g>
            </g>
            <g id="Group_3590" data-name="Group 3590" transform="translate(40.626 169.588)">
              <path id="Path_9646" data-name="Path 9646" d="M0,0H37.927V11.439H0Z" fill="#4cc171"/>
              <g id="Group_3589" data-name="Group 3589" transform="translate(6.904 3.426)">
                <g id="Group_3588" data-name="Group 3588">
                  <path id="Path_9546" data-name="Path 9546" d="M231.665,348.93a.3.3,0,0,1,.426-.039,1.921,1.921,0,0,0,1.12.452,1.25,1.25,0,0,0,.734-.216.533.533,0,0,0,.256-.426.358.358,0,0,0-.052-.19.5.5,0,0,0-.177-.177,2.38,2.38,0,0,0-.806-.275h-.013a3.226,3.226,0,0,1-.76-.229,1.2,1.2,0,0,1-.544-.459.949.949,0,0,1-.138-.485,1.078,1.078,0,0,1,.472-.858,1.757,1.757,0,0,1,1.015-.308,2.259,2.259,0,0,1,1.278.472.3.3,0,0,1,.085.419.3.3,0,0,1-.419.085,1.736,1.736,0,0,0-.943-.373,1.112,1.112,0,0,0-.655.2.474.474,0,0,0-.223.367.3.3,0,0,0,.039.164.581.581,0,0,0,.157.151,2.052,2.052,0,0,0,.734.256h.013a3.477,3.477,0,0,1,.812.249,1.39,1.39,0,0,1,.59.485.96.96,0,0,1,.138.5,1.134,1.134,0,0,1-.5.911,1.848,1.848,0,0,1-1.088.334,2.5,2.5,0,0,1-1.5-.59A.285.285,0,0,1,231.665,348.93Z" transform="translate(-231.597 -345.72)" fill="#fff"/>
                  <path id="Path_9547" data-name="Path 9547" d="M237.93,346.231a.313.313,0,0,1,.321-.321.323.323,0,0,1,.328.321V349.7a.323.323,0,0,1-.328.321.313.313,0,0,1-.321-.321Z" transform="translate(-233.781 -345.786)" fill="#fff"/>
                  <path id="Path_9548" data-name="Path 9548" d="M240.32,347.846a2.171,2.171,0,0,1,3.505-1.658.343.343,0,0,1,.066.478.347.347,0,0,1-.478.052,1.512,1.512,0,0,0-.924-.315,1.447,1.447,0,0,0-1.055.426,1.394,1.394,0,0,0,0,2.031,1.457,1.457,0,0,0,1.055.426,1.6,1.6,0,0,0,.806-.223v-.806h-.839a.336.336,0,0,1-.334-.334.326.326,0,0,1,.334-.328h1.166a.328.328,0,0,1,.341.328v1.3a.436.436,0,0,1-.02.1c-.007.013-.007.02-.013.026v.007a.32.32,0,0,1-.111.144,2.151,2.151,0,0,1-1.33.459A2.13,2.13,0,0,1,240.32,347.846Z" transform="translate(-234.605 -345.723)" fill="#fff"/>
                  <path id="Path_9549" data-name="Path 9549" d="M248.535,349.721a.318.318,0,1,1-.636,0v-3.413a.309.309,0,0,1,.131-.269.322.322,0,0,1,.445.072l1.893,2.621v-2.418a.318.318,0,0,1,.635,0v3.407a.317.317,0,0,1-.563.2l-.033-.033-1.88-2.608v2.437Z" transform="translate(-237.219 -345.81)" fill="#fff"/>
                  <path id="Path_9550" data-name="Path 9550" d="M259.167,350.018a1.693,1.693,0,0,1-1.7-1.7v-2.09a.313.313,0,0,1,.321-.321.323.323,0,0,1,.328.321v2.09a1.042,1.042,0,0,0,2.083,0v-2.09a.319.319,0,0,1,.328-.321.313.313,0,0,1,.321.321v2.09A1.674,1.674,0,0,1,259.167,350.018Z" transform="translate(-240.519 -345.786)" fill="#fff"/>
                  <path id="Path_9551" data-name="Path 9551" d="M266.129,348.416h-.721v1.271a.324.324,0,0,1-.649,0v-3.466a.317.317,0,0,1,.321-.321h1.048a1.258,1.258,0,1,1,0,2.516Zm-.721-.649h.721a.6.6,0,1,0,0-1.206h-.721Z" transform="translate(-243.033 -345.782)" fill="#fff"/>
                </g>
              </g>
            </g>
            <g id="Group_3594" data-name="Group 3594" transform="translate(36.276 33.505)">
              <circle id="Ellipse_2288" data-name="Ellipse 2288" cx="7.547" cy="7.547" r="7.547" transform="translate(32.653)" fill="#455a64"/>
              <circle id="Ellipse_2289" data-name="Ellipse 2289" cx="5.294" cy="5.294" r="5.294" transform="translate(0 30.216)" fill="#ebebeb"/>
              <g id="Group_3593" data-name="Group 3593" transform="translate(2.899 0.708)">
                <g id="Group_3592" data-name="Group 3592">
                  <path id="Path_9552" data-name="Path 9552" d="M250.014,171.676a20.429,20.429,0,0,1-21.483-.013,20.426,20.426,0,1,1,21.483.013Z" transform="translate(-218.844 -133.861)" fill="#4cc171"/>
                  <g id="Group_3591" data-name="Group 3591" transform="translate(9.687 11.884)">
                    <path id="Path_9553" data-name="Path 9553" d="M252.965,158.217A6.217,6.217,0,1,1,246.747,152,6.218,6.218,0,0,1,252.965,158.217Z" transform="translate(-236.009 -152)" fill="#fff"/>
                    <path id="Path_9554" data-name="Path 9554" d="M255.113,182.011v2.562a20.429,20.429,0,0,1-21.483-.013V182a10.741,10.741,0,1,1,21.483.007Z" transform="translate(-233.63 -158.642)" fill="#fff"/>
                  </g>
                </g>
              </g>
            </g>
          </g>
        </g>
      </g>
    </g>
    <g id="Lines" transform="translate(190.996 152.488)">
      <g id="Group_3606" data-name="Group 3606">
        <g id="Group_3598" data-name="Group 3598" transform="translate(10.767)">
          <path id="Path_9555" data-name="Path 9555" d="M287.007,214.906a15.267,15.267,0,0,1,0-5.536,15.265,15.265,0,0,1,0,5.536Z" transform="translate(-286.754 -209.37)" fill="#263238"/>
        </g>
        <g id="Group_3599" data-name="Group 3599" transform="translate(3.164 3.368)">
          <path id="Path_9556" data-name="Path 9556" d="M279.068,218.428a15.36,15.36,0,0,1-3.918-3.918,15.255,15.255,0,0,1,3.918,3.918Z" transform="translate(-275.15 -214.51)" fill="#263238"/>
        </g>
        <g id="Group_3600" data-name="Group 3600" transform="translate(0 11.055)">
          <path id="Path_9557" data-name="Path 9557" d="M275.856,226.5a15.267,15.267,0,0,1-5.536,0,15.265,15.265,0,0,1,5.536,0Z" transform="translate(-270.32 -226.244)" fill="#263238"/>
        </g>
        <g id="Group_3601" data-name="Group 3601" transform="translate(3.374 15.246)">
          <path id="Path_9558" data-name="Path 9558" d="M279.388,232.64a15.358,15.358,0,0,1-3.918,3.918,15.154,15.154,0,0,1,3.918-3.918Z" transform="translate(-275.47 -232.64)" fill="#263238"/>
        </g>
        <g id="Group_3602" data-name="Group 3602" transform="translate(11.057 16.792)">
          <path id="Path_9559" data-name="Path 9559" d="M287.448,235a15.265,15.265,0,0,1,0,5.536,15.414,15.414,0,0,1,0-5.536Z" transform="translate(-287.198 -235)" fill="#263238"/>
        </g>
        <g id="Group_3603" data-name="Group 3603" transform="translate(15.246 15.042)">
          <path id="Path_9560" data-name="Path 9560" d="M293.59,232.33a15.36,15.36,0,0,1,3.918,3.918,15.464,15.464,0,0,1-3.918-3.918Z" transform="translate(-293.59 -232.33)" fill="#263238"/>
        </g>
        <g id="Group_3604" data-name="Group 3604" transform="translate(16.792 10.767)">
          <path id="Path_9561" data-name="Path 9561" d="M295.95,226.057a15.265,15.265,0,0,1,5.536,0,15.413,15.413,0,0,1-5.536,0Z" transform="translate(-295.95 -225.804)" fill="#263238"/>
        </g>
        <g id="Group_3605" data-name="Group 3605" transform="translate(15.042 3.164)">
          <path id="Path_9562" data-name="Path 9562" d="M293.28,218.118A15.36,15.36,0,0,1,297.2,214.2a15.464,15.464,0,0,1-3.918,3.918Z" transform="translate(-293.28 -214.2)" fill="#263238"/>
        </g>
      </g>
    </g>
    <g id="Character" transform="translate(200.527 75.433)">
      <g id="Group_3647" data-name="Group 3647">
        <g id="Group_3608" data-name="Group 3608" transform="translate(16.551 25.252)">
          <path id="Path_9563" data-name="Path 9563" d="M328.638,131.06s4.58,31.9,4.278,34.933-4.049,32.437-4.049,32.437-8.4-1.808-10.823-3.256c-1.743-1.042-7.914-6.362-7.914-6.362s10.5-20.506,11.347-24.667,1.435-24.333,2.431-28.395a8.236,8.236,0,0,1,4.822-5.451" transform="translate(-310.13 -130.3)" fill="#b88247"/>
          <g id="Group_3607" data-name="Group 3607" transform="translate(6.588 43.099)">
            <path id="Path_9564" data-name="Path 9564" d="M323.2,197.975a6.971,6.971,0,0,0,2.581,2.811c.57.387,1.671,1.219,2.018.151a1.94,1.94,0,0,0-.144-1.245,6.945,6.945,0,0,0-1.192-2.024c-.609-.753-1.638-1.749-2.712-1.559C322.76,196.284,322.878,197.248,323.2,197.975Z" transform="translate(-321.145 -196.084)" fill="#263238"/>
            <path id="Path_9565" data-name="Path 9565" d="M333.5,205.234a6.558,6.558,0,0,0,1.54,3.793c.459.472.983.622,1.382.295.459-.262.629-1.042.688-1.6a7.006,7.006,0,0,0-.721-3.9c-.387-.747-1.068-1.8-2.07-1.566C333.034,202.548,333.374,204.31,333.5,205.234Z" transform="translate(-324.73 -198.2)" fill="#263238"/>
            <path id="Path_9566" data-name="Path 9566" d="M325.625,205.968c-.57.452,0,2.162.524,2.974.675,1.042,1.789,2.214,2.725,1.769.472-.229.544-1.5-.5-3.112C327.414,206.106,326.1,205.595,325.625,205.968Z" transform="translate(-321.979 -199.452)" fill="#263238"/>
            <path id="Path_9567" data-name="Path 9567" d="M320.961,218.722c.223.439.7,1.212,1.278,1.238.544.026.662-.55.655-.97a6.221,6.221,0,0,0-.367-1.92c-.262-.839-.76-1.566-1.566-1.612C319.369,215.374,320.673,218.158,320.961,218.722Z" transform="translate(-320.185 -202.765)" fill="#263238"/>
          </g>
        </g>
        <g id="Group_3622" data-name="Group 3622" transform="translate(4.22 63.029)">
          <g id="Group_3614" data-name="Group 3614" transform="translate(15.188 0.007)">
            <g id="Group_3611" data-name="Group 3611" transform="translate(29.245 111.659)">
              <path id="Path_9568" data-name="Path 9568" d="M384.793,358.4s14.282,25.256,14.289,25.276c2.293,5.091,4.213,9.6,4.992,12.022a.093.093,0,0,1,.013.039,3.958,3.958,0,0,1,.334,1.743.425.425,0,0,1-.013.046c-1.055,1.71-41.223,21.234-42.854,21.437s-2.352-4.422-1.4-6.421c.97-2,13-16.359,13-16.359l-14.02-25.355Z" transform="translate(-359.13 -358.4)" fill="#eb9481"/>
              <path id="Path_9569" data-name="Path 9569" d="M362.846,428.988c1.625-.21,41.157-19.589,42.205-21.293a.239.239,0,0,0,.02-.046,4,4,0,0,0-.328-1.743.278.278,0,0,0-.013-.039c-.78-2.424-2.7-6.932-4.986-12.029,0-.007-2.4-4.416-3.368-5.949L370.826,401.1l2.974,5.254s-11.393,14.2-12.35,16.209S361.208,429.2,362.846,428.988Z" transform="translate(-359.78 -368.569)" fill="#ebebeb"/>
              <g id="Group_3610" data-name="Group 3610" transform="translate(0.388 23.199)">
                <path id="Path_9570" data-name="Path 9570" d="M361.66,430.486c1.638-.249,41.661-20.867,42.684-22.623.4-.662-2.267-6.663-5.693-13.83-.039-.072-.072-.151-.111-.223l-25.97,13.011.236.432s-11.786,14.741-12.71,16.792C359.19,426.083,360.022,430.741,361.66,430.486Z" transform="translate(-359.723 -393.81)" fill="#fd9f00"/>
                <g id="Group_3609" data-name="Group 3609" transform="translate(1.511 12.095)">
                  <path id="Path_9571" data-name="Path 9571" d="M362.115,436.12c6.663-3.643,33.872-17.7,40.731-20.795.059-.026.072.013.02.039-6.525,3.754-33.845,17.591-40.7,20.86C362.023,436.3,361.971,436.192,362.115,436.12Z" transform="translate(-362.03 -413.322)" fill="#fff"/>
                  <path id="Path_9572" data-name="Path 9572" d="M376.42,414.819c2.4-1.861,5.857-3.125,8.858-2.28.118.033.065.2-.033.216a41.664,41.664,0,0,0-8.642,2.4A.193.193,0,0,1,376.42,414.819Z" transform="translate(-366.965 -412.271)" fill="#263238"/>
                  <path id="Path_9573" data-name="Path 9573" d="M374.4,418.089c2.4-1.861,5.857-3.125,8.858-2.28.118.033.066.2-.033.216a41.664,41.664,0,0,0-8.642,2.4A.193.193,0,0,1,374.4,418.089Z" transform="translate(-366.27 -413.399)" fill="#263238"/>
                  <path id="Path_9574" data-name="Path 9574" d="M372.381,421.358c2.4-1.861,5.857-3.132,8.858-2.28.118.033.066.2-.033.216a41.668,41.668,0,0,0-8.642,2.4A.193.193,0,0,1,372.381,421.358Z" transform="translate(-365.574 -414.525)" fill="#263238"/>
                </g>
                <path id="Path_9575" data-name="Path 9575" d="M412.124,405.248c2.155-2.948,6.735.4,4.58,3.348S409.968,408.2,412.124,405.248Z" transform="translate(-377.599 -397.36)" fill="#fff"/>
                <path id="Path_9576" data-name="Path 9576" d="M371.057,417.71l-2.876,17.971a71.036,71.036,0,0,1-6.512,3.046c-1.638.256-2.477-4.4-1.566-6.44C360.8,430.741,367.736,421.9,371.057,417.71Z" transform="translate(-359.725 -402.052)" opacity="0.1"/>
                <path id="Path_9577" data-name="Path 9577" d="M360.548,435.873c-.577.642.819,2.968,1.435,2.9s44.158-22.747,44.813-23.3-.989-3.066-1.92-2.765S360.548,435.873,360.548,435.873Z" transform="translate(-359.96 -400.318)" fill="#263238"/>
              </g>
            </g>
            <g id="Group_3613" data-name="Group 3613">
              <path id="Path_9578" data-name="Path 9578" d="M380.386,316.6,351.6,331.967s-36.335-51.784-37.062-65.385c-1-18.79,15.042-78.436,15.042-78.436l25.59-.177s-10.4,61.342-9.559,71.812C346.056,265.252,380.386,316.6,380.386,316.6Z" transform="translate(-314.491 -187.97)" fill="#37474f"/>
              <g id="Group_3612" data-name="Group 3612" transform="translate(26.522 1.632)">
                <path id="Path_9579" data-name="Path 9579" d="M367.287,391.293c1.481-1.068,15.128-8.976,25.518-14.027a.059.059,0,0,1,.052.1c-3.151,2.083-23.52,13.241-25.492,14.027C367.3,391.431,367.222,391.339,367.287,391.293Z" transform="translate(-359.211 -254.877)" fill="#263238"/>
                <path id="Path_9580" data-name="Path 9580" d="M356.019,247.531c1.186-8.976,2.5-17.938,3.99-26.868,1.5-8.969,3.079-17.938,4.953-26.842.229-1.088.472-2.169.708-3.256a.134.134,0,0,1,.262.052c-1.579,8.832-3.2,17.657-4.652,26.508s-2.8,17.722-4.016,26.613q-.452,3.3-.878,6.6a58.712,58.712,0,0,0-.655,6.853,17.562,17.562,0,0,0,1.094,6.421,36.9,36.9,0,0,0,2.948,5.778c4.632,7.829,25.361,42.061,25.9,43.057.033.066-.052.131-.1.066-4.973-7.718-20.408-32.378-25.106-40.338-2.116-3.59-4.547-7.226-5.235-11.413C354.519,256.4,355.443,251.848,356.019,247.531Z" transform="translate(-354.974 -190.46)" fill="#263238"/>
              </g>
            </g>
          </g>
          <g id="Group_3621" data-name="Group 3621">
            <g id="Group_3617" data-name="Group 3617" transform="translate(0 128.634)">
              <path id="Path_9581" data-name="Path 9581" d="M341.737,384.3s.288,29.194.288,29.214c-.157,5.582-.387,10.476-.747,13a.083.083,0,0,1-.007.039,3.887,3.887,0,0,1-.459,1.716c-.013.013-.02.026-.033.033-1.69,1.081-46.352,1.147-47.912.622s-.2-5.005,1.54-6.388,18.823-9.061,18.823-9.061l-.013-29.174Z" transform="translate(-291.61 -384.3)" fill="#eb9481"/>
              <path id="Path_9582" data-name="Path 9582" d="M341.966,419.671s.059,5.975.059,5.995c-.157,5.582-.387,10.476-.747,13a.083.083,0,0,1-.007.039,7.924,7.924,0,0,1-.459,1.716c-.013.013-.02.026-.033.033-1.69,1.081-46.352,1.147-47.912.622s-.2-5.005,1.54-6.388,18.823-9.061,18.823-9.061V419.54Z" transform="translate(-291.61 -396.452)" fill="#ebebeb"/>
              <g id="Group_3616" data-name="Group 3616" transform="translate(0 27.988)">
                <path id="Path_9583" data-name="Path 9583" d="M292.824,443.6c1.579.5,46.595-.288,48.292-1.409.649-.413.917-6.977,1.015-14.924v-.249l-29.05.183.02.491s-17.093,8.013-18.829,9.434S291.239,443.1,292.824,443.6Z" transform="translate(-291.585 -427.02)" fill="#fd9f00"/>
                <g id="Group_3615" data-name="Group 3615" transform="translate(1.595 0.552)">
                  <path id="Path_9584" data-name="Path 9584" d="M293.865,449.282c7.587-.321,38.209-.891,45.73-.635.059,0,.059.046,0,.046-7.508.478-38.137.806-45.73.708C293.7,449.406,293.7,449.288,293.865,449.282Z" transform="translate(-293.743 -435.007)" fill="#fff"/>
                  <path id="Path_9585" data-name="Path 9585" d="M320.341,428.123c2.974-.609,6.637-.216,8.956,1.874.092.079-.026.21-.125.177a41.943,41.943,0,0,0-8.812-1.671A.193.193,0,0,1,320.341,428.123Z" transform="translate(-302.863 -427.862)" fill="#263238"/>
                  <path id="Path_9586" data-name="Path 9586" d="M317.088,430.163c2.974-.609,6.637-.216,8.956,1.874.092.079-.026.21-.125.177a41.941,41.941,0,0,0-8.812-1.671A.192.192,0,0,1,317.088,430.163Z" transform="translate(-301.74 -428.565)" fill="#263238"/>
                  <path id="Path_9587" data-name="Path 9587" d="M313.831,432.2c2.974-.609,6.637-.216,8.956,1.874.092.079-.026.21-.125.177a41.943,41.943,0,0,0-8.812-1.671A.193.193,0,0,1,313.831,432.2Z" transform="translate(-300.618 -429.269)" fill="#263238"/>
                </g>
                <path id="Path_9588" data-name="Path 9588" d="M291.827,449.261c-.8.328-.577,3.027.007,3.237s49.661-.871,50.493-1.074.472-3.191-.5-3.328S291.827,449.261,291.827,449.261Z" transform="translate(-291.308 -434.284)" fill="#263238"/>
                <path id="Path_9589" data-name="Path 9589" d="M356.461,434.73c3.237-1.69,5.864,3.335,2.627,5.025S353.217,436.427,356.461,434.73Z" transform="translate(-313.265 -429.56)" fill="#fff"/>
              </g>
            </g>
            <g id="Group_3620" data-name="Group 3620" transform="translate(19.034)">
              <path id="Path_9590" data-name="Path 9590" d="M331.924,188.078a.1.1,0,0,0,.007.026c.17.531,9.369,25.728,10.234,26.128.983.452-20.316,36.224-21.574,52.845-.806,10.627.773,70.783.773,70.783H352.5s-1.494-54.077-2.208-71.216c-.275-6.643,21.378-39.729,21.64-60.327.085-6.493-4.58-18.358-4.58-18.358Z" transform="translate(-320.36 -187.96)" fill="#37474f"/>
              <g id="Group_3619" data-name="Group 3619" transform="translate(0.081 3.099)">
                <path id="Path_9591" data-name="Path 9591" d="M365.78,307.227c0-.275.216-.36.236-.079.7,9.27.865,18.5,1.31,27.785.439,9.264.19,11.491.6,20.755.236,5.241.013,10.5.131,15.743a.066.066,0,0,1-.131.013C366.966,362.195,365.787,312.475,365.78,307.227Z" transform="translate(-336.104 -232.1)" fill="#263238"/>
                <path id="Path_9592" data-name="Path 9592" d="M320.632,281.276a45.838,45.838,0,0,1,.629-6.827,34.178,34.178,0,0,1,1.92-6.407c1.723-4.337,3.754-8.569,5.7-12.808q2.948-6.447,6.054-12.821,1.749-3.577,3.525-7.148c1.2-2.4,2.483-4.77,3.741-7.148a.084.084,0,0,1,.151.072c-2,4.285-3.964,8.583-5.962,12.867s-3.957,8.589-5.916,12.887c-1.926,4.232-3.859,8.465-5.68,12.743a42.261,42.261,0,0,0-2.221,6.3,36.929,36.929,0,0,0-.911,6.781c-.3,5.32-.452,10.653-.97,15.953-.007.066-.118.059-.118-.007C320.416,290.914,320.488,286.079,320.632,281.276Z" transform="translate(-320.485 -204.891)" fill="#263238"/>
                <path id="Path_9593" data-name="Path 9593" d="M325.312,407.141c1.808-.236,15.606-.714,27.143-.216.079,0,.072.111,0,.118-3.761.334-25.014.478-27.13.236C325.253,407.266,325.227,407.148,325.312,407.141Z" transform="translate(-322.131 -266.492)" fill="#263238"/>
                <g id="Group_3618" data-name="Group 3618" transform="translate(14.279)">
                  <path id="Path_9594" data-name="Path 9594" d="M346.938,225.927a59.633,59.633,0,0,1,9.736,3.374.107.107,0,0,1-.066.2c-3.269-1.022-6.591-1.985-9.8-3.184A.207.207,0,0,1,346.938,225.927Z" transform="translate(-343.794 -204.149)" fill="#263238"/>
                  <path id="Path_9595" data-name="Path 9595" d="M342.28,193.122c0-.111.183-.151.2-.033a104.479,104.479,0,0,0,1.6,10.4c.308,1.6,2.522,10.378,5.248,9.441.459-.157.649-.642.649-1.356a11.446,11.446,0,0,0-.649-2.693c-.5-1.834-.943-3.682-1.3-5.549a51.423,51.423,0,0,1-.97-10.555.092.092,0,0,1,.183-.007,97.307,97.307,0,0,0,2.345,14.466c.59,2.28,2.11,5.654-.275,6.257-2.431.616-4.625-5.064-5.091-6.63A53.842,53.842,0,0,1,342.28,193.122Z" transform="translate(-342.28 -192.69)" fill="#263238"/>
                  <path id="Path_9596" data-name="Path 9596" d="M352.646,223.881a14.61,14.61,0,0,1,.819,1.782,4.281,4.281,0,0,1,.419,1.494c0,.1-.131.124-.19.059a5.155,5.155,0,0,1-.8-1.409c-.269-.55-.557-1.094-.812-1.651A.314.314,0,0,1,352.646,223.881Z" transform="translate(-345.649 -203.388)" fill="#263238"/>
                </g>
                <path id="Path_9597" data-name="Path 9597" d="M360.8,278.184c-.157-4.429-.649-9.067.8-13.339a45.108,45.108,0,0,1,2.837-6.06q1.621-3.125,3.178-6.276c4.16-8.4,8.078-16.936,11.583-25.636a54.185,54.185,0,0,0,3.793-12.985,39.908,39.908,0,0,0-.871-14.125c-.262-1.153-.544-2.3-.858-3.44a.069.069,0,0,1,.131-.046,46.527,46.527,0,0,1,2.431,13.509,38.109,38.109,0,0,1-2.345,12.907c-1.494,4.344-3.361,8.569-5.2,12.776q-2.85,6.506-5.916,12.907c-2.038,4.245-4.213,8.419-6.362,12.612a22.638,22.638,0,0,0-2.391,6.362,33.015,33.015,0,0,0-.255,6.964c.367,9.795,1.212,42.382,1.337,52.151.013,1.238.033,2.483.046,3.721a.085.085,0,0,1-.17.013C361.947,320.461,361.154,287.946,360.8,278.184Z" transform="translate(-334.315 -193.911)" fill="#263238"/>
                <path id="Path_9598" data-name="Path 9598" d="M371.527,197.8c.007-.072.111-.052.118.007.367,2.693.577,5.49,1.88,7.934a11.1,11.1,0,0,0,5.549,4.7,42.074,42.074,0,0,0,4.042,1.494.084.084,0,0,1-.033.164,21.4,21.4,0,0,1-7.429-2.581,9.3,9.3,0,0,1-4.023-6.8A22.882,22.882,0,0,1,371.527,197.8Z" transform="translate(-338.058 -194.435)" fill="#263238"/>
              </g>
            </g>
          </g>
        </g>
        <g id="Group_3646" data-name="Group 3646">
          <g id="Group_3625" data-name="Group 3625" transform="translate(28.246 22.67)">
            <g id="Group_3623" data-name="Group 3623" transform="translate(0 0.268)">
              <path id="Path_9599" data-name="Path 9599" d="M371.561,168.948c-.059.124-41.013,11.282-41.472,10.987-.039-.026-1.736-.937-2.1-4.108-.1-.871,1.068-4.612,1.094-7.377.1-9.7-.282-27.72,2.352-37.4.708-2.6,6.309-5.582,9.382-3.689C354.658,135.869,371.64,168.784,371.561,168.948Z" transform="translate(-327.981 -126.767)" fill="#ebebeb"/>
            </g>
            <g id="Group_3624" data-name="Group 3624" transform="translate(10.777)">
              <path id="Path_9600" data-name="Path 9600" d="M344.43,126.458s1.526,20.657,2.07,23.055c.38,1.677,5.019,18.541,7.41,30.727,1.022,5.215.544,13.431.544,13.431s14.256-4.632,18.626-7.606c2.535-1.723,8.17-9.146,8.17-9.146s-9.022-20.061-14.145-27.576-14.918-20.539-19.5-22.439A4.7,4.7,0,0,0,344.43,126.458Z" transform="translate(-344.43 -126.359)" fill="#fd9f00"/>
              <path id="Path_9601" data-name="Path 9601" d="M370.458,165.425a2.308,2.308,0,0,0-1.212,1.808,7.193,7.193,0,0,0-.308,3.243c.085.6.341,1.468,1.114,1.317.819-.157,1.192-1.461,1.389-2.129C371.644,168.969,372.24,164.665,370.458,165.425Zm-6.073,5.019c-.839.694-.747,2.123-.57,3.073a6.8,6.8,0,0,0,.767,2.221,1.95,1.95,0,0,0,.852.917c1.042.426,1.12-.943,1.2-1.631a6.935,6.935,0,0,0-.465-3.787C365.82,170.522,365.158,169.8,364.385,170.443Zm2.942-7.98c-.635-.079-1,.413-1.186,1.061a5.967,5.967,0,0,0-.256,2.332c.052.472.157,1.291.688,1.507s.957-.347,1.147-.773C368.06,165.811,368.742,162.647,367.326,162.463Zm-9.932,33.38c-.5,1.029-1.533.177-2.359-.825v-.007c.026-1.186.033-2.634-.02-4.167.079.066.157.124.223.183a7.3,7.3,0,0,1,1.893,2.653A2.305,2.305,0,0,1,357.394,195.844Zm4.711-.459-1.5.544a6.5,6.5,0,0,1-1.907-2.758c-.131-.445-.19-1.147.36-1.337s1.153.367,1.507.688a5.982,5.982,0,0,1,1.337,1.933A1.794,1.794,0,0,1,362.1,195.385Zm-3.859-35.379c.622-.039,1.206.852,1.474,1.3a6.6,6.6,0,0,1,.819,2.49c.066.5.249,1.572-.223,1.952-.57.459-1.12-.066-1.527-.793a5.783,5.783,0,0,1-1.212-3.643C357.584,160.884,357.637,160.046,358.246,160.006Zm4.665,18.371c-.826.616-.472,1.808-.151,2.588a7.087,7.087,0,0,0,2.509,3.086c.465.314,1.166.694,1.664.518.511-.092.734-.59.668-1.245a6.592,6.592,0,0,0-1.887-3.636C365.092,178.993,363.979,177.584,362.911,178.377Zm5.189.223c.55,1.834,1.566,2.608,2.044,2.4.943-.419.78-2.038.426-3.223-.275-.924-1.206-2.477-1.92-2.332C368.06,175.566,367.6,176.9,368.1,178.6Zm-18.947-32.1a6.713,6.713,0,0,1-1.081,2.083,5.007,5.007,0,0,1-1.533,1.474c-.111-1.081-.229-2.332-.341-3.656v-.007a10.789,10.789,0,0,1,1.022-.878c.55-.426,1.6-1.31,2.011-.262A1.931,1.931,0,0,1,349.152,146.5Zm3.06-.616c1.016.177,1.631-.911,1.979-1.677a7.078,7.078,0,0,0,.5-3.944c-.092-.557-.3-1.323-.773-1.559-.419-.308-.937-.124-1.363.373a6.572,6.572,0,0,0-1.33,3.879C351.151,143.876,350.9,145.658,352.212,145.881Zm-3.42-3.911c-.878,1.54-2.169,2.123-2.66,1.782a.527.527,0,0,1-.19-.262s-.007,0,0-.007c-.026-.256-.046-.518-.072-.78v-.02a5.59,5.59,0,0,1,.622-1.933c.616-1.074,1.671-2.306,2.627-1.913C349.6,139.035,349.742,140.306,348.792,141.97Zm27.635,36.106a1.951,1.951,0,0,0,.21,2.234,6.208,6.208,0,0,0,1.225,1.527c.314.275.832.557,1.166.131.354-.452.072-1.323-.111-1.775C378.667,179.6,377.4,176.8,376.427,178.076Zm-12.841-22a1.589,1.589,0,0,0-.439,1.782,4.939,4.939,0,0,0,.537,1.507c.17.3.491.655.865.413.393-.256.413-1,.393-1.4C364.909,157.858,364.68,155.355,363.586,156.075Z" transform="translate(-344.927 -130.563)" fill="#263238"/>
            </g>
          </g>
          <g id="Group_3637" data-name="Group 3637" transform="translate(15.384)">
            <g id="Group_3627" data-name="Group 3627" transform="translate(11.263 15.831)">
              <g id="Group_3626" data-name="Group 3626" transform="translate(0.007 0.007)">
                <path id="Path_9602" data-name="Path 9602" d="M333.543,133.462c2.313-.55,4.259-6.63,4.376-9.893.007-.223-.858-1.3-2.221-3.446-.819-1.31-1.7-2.784-2.411-4.193l-7.737,6.578a24.969,24.969,0,0,1,3.571,4.973,3.486,3.486,0,0,1,.229.609,1.022,1.022,0,0,1,.033.1C329.75,129.374,331.309,133.993,333.543,133.462Z" transform="translate(-325.55 -115.93)" fill="#eb9481"/>
              </g>
              <path id="Path_9603" data-name="Path 9603" d="M330.369,129.462c-.157.085-.314.157-.465.229-.249-.635-.432-1.192-.531-1.507a1.022,1.022,0,0,0-.033-.1,3.69,3.69,0,0,0-.229-.609,25.051,25.051,0,0,0-3.571-4.966l7.744-6.584c.151.295.3.59.465.891C334.647,120.041,335.675,126.645,330.369,129.462Z" transform="translate(-325.54 -115.92)" fill="#263238"/>
            </g>
            <g id="Group_3636" data-name="Group 3636">
              <g id="Group_3628" data-name="Group 3628" transform="translate(1.537 4.067)">
                <path id="Path_9604" data-name="Path 9604" d="M324.43,100.241c2.542,2.634,5.5,12.481,4.3,15.619-1.73,4.553-6.853,7.515-11.295,4.914-4.311-2.522-7.927-15.422-6.381-18.515C313.332,97.712,320.676,96.356,324.43,100.241Z" transform="translate(-310.694 -97.964)" fill="#eb9481"/>
              </g>
              <g id="Group_3633" data-name="Group 3633" transform="translate(2.511 12.868)">
                <g id="Group_3629" data-name="Group 3629" transform="translate(6.778 2.784)">
                  <path id="Path_9605" data-name="Path 9605" d="M322.56,117.105c-.007-.026.066.013.072.039.216.655.583,1.376,1.245,1.369.02,0,.033.033.007.039C323.13,118.724,322.665,117.767,322.56,117.105Z" transform="translate(-322.538 -116.147)" fill="#263238"/>
                  <path id="Path_9606" data-name="Path 9606" d="M322.876,115.714c1.016-.465,1.867,1.6.93,2.031S322.024,116.107,322.876,115.714Z" transform="translate(-322.526 -115.646)" fill="#263238"/>
                </g>
                <g id="Group_3630" data-name="Group 3630" transform="translate(1.769 4.836)">
                  <path id="Path_9607" data-name="Path 9607" d="M316.934,119.478c-.013-.02-.039.052-.026.079.282.629.5,1.4.013,1.854-.013.013,0,.046.02.033C317.609,121.051,317.308,120.035,316.934,119.478Z" transform="translate(-315.579 -119.019)" fill="#263238"/>
                  <path id="Path_9608" data-name="Path 9608" d="M315.391,118.806c-1.061.347-.288,2.444.694,2.123S316.282,118.517,315.391,118.806Z" transform="translate(-314.881 -118.779)" fill="#263238"/>
                </g>
                <path id="Path_9609" data-name="Path 9609" d="M322.424,112.578c-.308.052-.6.052-.917.079a1.519,1.519,0,0,1-.95-.1.473.473,0,0,1-.164-.55,1.189,1.189,0,0,1,1.029-.6,1.72,1.72,0,0,1,1.212.275A.5.5,0,0,1,322.424,112.578Z" transform="translate(-315.002 -111.396)" fill="#263238"/>
                <path id="Path_9610" data-name="Path 9610" d="M312.947,115.693a8.573,8.573,0,0,0,.734-.55,1.493,1.493,0,0,0,.642-.708.475.475,0,0,0-.242-.524,1.168,1.168,0,0,0-1.16.242,1.756,1.756,0,0,0-.721,1.009A.5.5,0,0,0,312.947,115.693Z" transform="translate(-312.181 -112.238)" fill="#263238"/>
                <path id="Path_9611" data-name="Path 9611" d="M326.831,125.266c-.092.216-.157.485-.38.6a1.843,1.843,0,0,1-.753.124.025.025,0,0,0-.013.046.944.944,0,0,0,.957.013.735.735,0,0,0,.269-.773A.041.041,0,0,0,326.831,125.266Z" transform="translate(-316.834 -116.17)" fill="#263238"/>
                <g id="Group_3632" data-name="Group 3632" transform="translate(2.828 1.663)">
                  <g id="Group_3631" data-name="Group 3631">
                    <path id="Path_9612" data-name="Path 9612" d="M322.2,119.73a2.379,2.379,0,0,1-1.055,1.572,3.035,3.035,0,0,1-.767.36,1.42,1.42,0,0,1-.157.046c-.052.013-.092.026-.151.039a.18.18,0,0,1-.19-.092v-.007c-.007-.026-.02-.039-.02-.066v-.007l-.02-.059c-.216-.485-.478-1.258-.478-1.258-.144.164-.891.957-.983.694a35.421,35.421,0,0,1-1.88-6.945.065.065,0,0,1,.124-.033c.806,2.07,1.245,4.265,2.024,6.362a4.512,4.512,0,0,1,.9-.74c.079-.007.478,1.494.6,1.7a.081.081,0,0,1,.013.02,3.284,3.284,0,0,0,1.965-1.631C322.147,119.638,322.219,119.665,322.2,119.73Z" transform="translate(-316.498 -113.936)" fill="#263238"/>
                  </g>
                </g>
              </g>
              <g id="Group_3634" data-name="Group 3634">
                <path id="Path_9613" data-name="Path 9613" d="M327.238,107.587c-1.893.347-3.44-4.226-3.44-4.226s-2.535-.1-4.625-4.036c0,0-.19,4.612-8.013,6.178a6.8,6.8,0,0,1-.74-4.1,28.326,28.326,0,0,0-.563,4.678s-3.852-5.661.76-9.624c1.834-1.572,5.123-2.457,10.823-1.644,0,0-.026-3.25.668-3.046s.5,3.3.5,3.3,1.933-1.376,2.444-1.042c.439.282-1.454,1.513-1.454,1.513a4.5,4.5,0,0,1,4.344,3.951C328.594,103.139,328.175,107.417,327.238,107.587Z" transform="translate(-308.349 -91.756)" fill="#263238"/>
                <path id="Path_9614" data-name="Path 9614" d="M330.684,97.619a4.112,4.112,0,0,1,5.064,1.979,7.638,7.638,0,0,1,.616,3.4,14.179,14.179,0,0,1-.583,3.59c-.02.066-.118.026-.1-.039a10.832,10.832,0,0,0,.328-3.315,10.222,10.222,0,0,0-.5-3.145,3.945,3.945,0,0,0-4.789-2.365C330.657,97.743,330.625,97.639,330.684,97.619Z" transform="translate(-316.04 -93.692)" fill="#263238"/>
                <path id="Path_9615" data-name="Path 9615" d="M314.935,95.15a15.836,15.836,0,0,1,4.127.144,11.567,11.567,0,0,1,3.754,1.12c.059.033.026.124-.039.1a20.676,20.676,0,0,0-7.443-.858c-2.319.092-4.829.917-5.877,3.171a.032.032,0,0,1-.059-.026C310.251,96.526,312.655,95.405,314.935,95.15Z" transform="translate(-308.71 -92.9)" fill="#263238"/>
              </g>
              <g id="Group_3635" data-name="Group 3635" transform="translate(17.113 11.139)">
                <path id="Path_9616" data-name="Path 9616" d="M334.47,112.612s.629-3.938,2.319-3.852,2.214,5.1.93,6.447a1.767,1.767,0,0,1-2.549.177Z" transform="translate(-334.47 -108.758)" fill="#eb9481"/>
                <path id="Path_9617" data-name="Path 9617" d="M337.506,110.948a.024.024,0,0,1,.026.039,4.456,4.456,0,0,0-.858,3.531.978.978,0,0,1,1.2-.878c.039.007.033.066,0,.072a1.087,1.087,0,0,0-.911.865,5.354,5.354,0,0,0-.092,1.12c-.007.124-.21.157-.223.026a.071.071,0,0,0-.007-.033C335.934,114.309,336.071,111.82,337.506,110.948Z" transform="translate(-335.075 -109.512)" fill="#263238"/>
              </g>
            </g>
          </g>
          <g id="Group_3645" data-name="Group 3645" transform="translate(0 26.361)">
            <g id="Group_3640" data-name="Group 3640" transform="translate(0 1.811)">
              <path id="Path_9618" data-name="Path 9618" d="M343.6,139.371c3.315,11.636,5.425,33.557,3.748,37.534-1.487,3.525-12.717,11.714-19.17,16.1-2.1,1.422-12.284-14.662-9.958-16.064,3.164-1.907,14.538-9.415,14.813-10.227.308-.891,1.317-17.283,3.053-26.724C337.664,131.424,342.349,134.969,343.6,139.371Z" transform="translate(-296.25 -134.757)" fill="#eb9481"/>
              <g id="Group_3639" data-name="Group 3639" transform="translate(0 41.919)">
                <path id="Path_9619" data-name="Path 9619" d="M285.361,217.969c1.585,1.625,5.254-2.634,5.254-2.634a4.186,4.186,0,0,0,.393,2.824c.878,1.487,3.59.767,3.59.767a5.14,5.14,0,0,0,.891,2.909c.983,1.337,3.826,1,3.826,1a4.5,4.5,0,0,0,2.391,2.064c2.765.9,5.982-2.2,8.36-3.734a33.885,33.885,0,0,0,7.338-6.892l-9.552-15.534s-13.529,3.368-15.8,5.837C290.143,206.648,282.937,215.492,285.361,217.969Z" transform="translate(-284.868 -198.74)" fill="#eb9481"/>
                <g id="Group_3638" data-name="Group 3638" transform="translate(5.732 9.24)">
                  <path id="Path_9620" data-name="Path 9620" d="M293.625,220.12a37.726,37.726,0,0,1,5.746-7.259c.046-.052.124.026.079.072-2.11,2.195-3.682,5.005-5.7,7.272A.076.076,0,0,1,293.625,220.12Z" transform="translate(-293.616 -212.843)" fill="#263238"/>
                  <path id="Path_9621" data-name="Path 9621" d="M299.562,226.045a7.8,7.8,0,0,1,1.415-1.559c.537-.518,1.081-1.022,1.638-1.527q1.661-1.5,3.4-2.915c.052-.039.131.026.079.072-1.107,1-2.195,2.011-3.256,3.06-.531.524-1.055,1.048-1.579,1.579a9.391,9.391,0,0,1-1.546,1.428C299.621,226.241,299.5,226.137,299.562,226.045Z" transform="translate(-295.661 -215.322)" fill="#263238"/>
                  <path id="Path_9622" data-name="Path 9622" d="M306.987,232.59a5.451,5.451,0,0,1,1.35-1.337c.518-.445,1.029-.891,1.54-1.343,1.022-.9,2.038-1.8,3.027-2.739.052-.046.125.026.079.072-1,.957-1.985,1.926-2.994,2.876-.5.465-.989.93-1.494,1.389a5.216,5.216,0,0,1-1.461,1.14C307,232.656,306.967,232.617,306.987,232.59Z" transform="translate(-298.225 -217.78)" fill="#263238"/>
                </g>
              </g>
            </g>
            <g id="Group_3644" data-name="Group 3644" transform="translate(35.216)">
              <path id="Path_9623" data-name="Path 9623" d="M356.676,165.279l-18.056.223s2.319-19.91,4.815-28.578c2.1-7.285,6.46-6.617,8.858,2.791C354.553,148.612,356.676,165.279,356.676,165.279Z" transform="translate(-338.62 -131.992)" fill="#b2793a"/>
              <path id="Path_9624" data-name="Path 9624" d="M357.391,165.066l-.059-.1a5.765,5.765,0,0,1-1.212-3.636c.007-.413.052-1.16.544-1.3C356.965,162.013,357.207,163.762,357.391,165.066Zm-14.053-16.608a6.944,6.944,0,0,1,2.424-2.948c.55-.419,1.605-1.31,2.011-.262a1.925,1.925,0,0,1-.072,1.245,6.715,6.715,0,0,1-1.081,2.083c-.57.786-1.54,1.834-2.621,1.71C343,150.174,343.063,149.2,343.338,148.458Zm6.427-5.5a6.587,6.587,0,0,1,1.33-3.879c.426-.5.943-.675,1.363-.373.472.236.681,1,.773,1.559a7.028,7.028,0,0,1-.5,3.944c-.347.773-.963,1.854-1.979,1.677C349.444,145.66,349.693,143.878,349.765,142.954Zm-5.091.8c-.6-.419-.118-2.162.36-3,.616-1.074,1.664-2.306,2.621-1.92.485.2.622,1.468-.328,3.132C346.456,143.511,345.166,144.094,344.674,143.753Zm-1.068,18.489c-.1.478-.367,1.35-.917,1.527-.518.164-.78-.36-.884-.767a6.285,6.285,0,0,1-.138-1.952,1.957,1.957,0,0,1,1.1-1.959C344.288,158.593,343.744,161.62,343.606,162.242Z" transform="translate(-339.662 -134.255)" fill="#263238"/>
              <path id="Path_9625" data-name="Path 9625" d="M342.279,177.2a29.378,29.378,0,0,1,3.466-.262c1.192-.066,2.385-.085,3.577-.111s5.936.052,7.122.072c.052,0,.046.1-.007.1-1.192.066-5.929.334-7.1.354s-2.339.052-3.5.033a30.427,30.427,0,0,1-3.551-.124C342.253,177.253,342.246,177.207,342.279,177.2Z" transform="translate(-339.875 -147.451)" fill="#263238"/>
              <g id="Group_3643" data-name="Group 3643" transform="translate(14.42 10.979)">
                <g id="Group_3641" data-name="Group 3641">
                  <path id="Path_9626" data-name="Path 9626" d="M360.63,148.75a160.038,160.038,0,0,1,3.708,22.387c-.629-.013-1.264-.026-1.893-.052.6-.039,1.212-.072,1.815-.1-1.192-6.84-2.594-15.036-3.63-22.236Z" transform="translate(-360.63 -148.75)" fill="#263238"/>
                </g>
                <g id="Group_3642" data-name="Group 3642" transform="translate(0.716 0.996)">
                  <path id="Path_9627" data-name="Path 9627" d="M361.819,150.27a6.3,6.3,0,0,1,0,3.433,15.421,15.421,0,0,1,0-3.433Z" transform="translate(-361.723 -150.27)" fill="#263238"/>
                </g>
              </g>
            </g>
          </g>
        </g>
      </g>
    </g>
    <g id="Plant" transform="translate(41.05 214.827)">
      <g id="Group_3659" data-name="Group 3659" transform="translate(0)">
        <g id="Group_3656" data-name="Group 3656">
          <g id="Group_3649" data-name="Group 3649" transform="translate(31.203 32.463)">
            <path id="Path_9628" data-name="Path 9628" d="M99.21,378.062s11.2-2.542,17.342-8.2,9.572-15.8,9.572-15.8a95.688,95.688,0,0,0-12.566,3.3,21.276,21.276,0,0,0-3.8,5.372,25.838,25.838,0,0,1-.033-3.839,17.006,17.006,0,0,0-3.99,2.424C100.645,365.784,99.21,378.062,99.21,378.062Z" transform="translate(-92.571 -354.07)" fill="#4cc171"/>
            <g id="Group_3648" data-name="Group 3648" transform="translate(0 1.617)">
              <path id="Path_9629" data-name="Path 9629" d="M115.632,359.848c1.527-1.055,3.079-2.077,4.606-3.145a.088.088,0,0,0-.092-.151c-2.889,1.723-5.733,3.564-8.484,5.5-.963.675-1.9,1.376-2.837,2.09l.2-.334c.334-.563.688-1.114,1.042-1.664a24.477,24.477,0,0,1,2.378-3.178c.033-.039-.026-.092-.052-.052-.871,1.009-1.743,2-2.542,3.066-.38.5-.727,1.035-1.061,1.572-.177.282-.341.557-.5.845-.052.1-.111.19-.17.288-1.448,1.14-2.856,2.326-4.206,3.577-.832.773-1.631,1.579-2.4,2.4.432-1.356.812-2.725,1.317-4.062.02-.046-.059-.065-.072-.02-.485,1.4-1.022,2.8-1.4,4.245q-1.287,1.386-2.45,2.889c.013-.059.026-.125.039-.184.124-.531.262-1.055.4-1.579.275-1.016.57-2.018.911-3.014a17.575,17.575,0,0,1,3.007-5.687c.033-.039-.026-.092-.052-.052a21.863,21.863,0,0,0-4.291,8.956c-.118.478-.236.956-.341,1.435-.059.256-.124.511-.17.773-.341.459-.668.917-.989,1.4a48.926,48.926,0,0,0-4.743,9.3,106.883,106.883,0,0,0-3.59,11.19c-.02.072.092.1.118.026,2.188-6.558,4.429-13.2,8.176-19.065.793-1.238,1.651-2.431,2.555-3.577a21.24,21.24,0,0,0,5.451-1.088,23.971,23.971,0,0,0,5.457-2.634,32.614,32.614,0,0,0,2.8-2.116.037.037,0,1,0-.046-.059,22.045,22.045,0,0,1-5.136,3.105,27.711,27.711,0,0,1-5.654,1.893c-.825.183-1.664.314-2.5.426a48.56,48.56,0,0,1,3.3-3.662c.38-.38.767-.74,1.16-1.1a26.434,26.434,0,0,1,4.141-2.372c1.834-.884,3.643-1.828,5.457-2.752,1.022-.524,2.044-1.055,3.079-1.559.046-.02.007-.085-.039-.065-1.841.891-3.708,1.723-5.569,2.575-1.749.8-3.518,1.605-5.2,2.549-.072.039-.138.085-.21.125,1.52-1.323,3.086-2.581,4.7-3.793C112.592,362,114.1,360.909,115.632,359.848Z" transform="translate(-89.076 -356.539)" fill="#263238"/>
              <path id="Path_9630" data-name="Path 9630" d="M125.776,370.408c-.911.4-1.841.753-2.739,1.173-.93.432-1.808.943-2.686,1.461-.039.026,0,.079.039.059.891-.426,1.8-.826,2.68-1.271.9-.459,1.8-.943,2.732-1.35C125.842,370.461,125.822,370.389,125.776,370.408Z" transform="translate(-99.856 -361.32)" fill="#263238"/>
            </g>
          </g>
          <g id="Group_3651" data-name="Group 3651" transform="translate(1.448)">
            <path id="Path_9631" data-name="Path 9631" d="M43.66,304.52a16.014,16.014,0,0,1,3.348,9.3c.039,1-.124,2.4-.236,4.049a26.481,26.481,0,0,1,7.312,6.25,13.252,13.252,0,0,0-7.39-1.769,22.618,22.618,0,0,0,.426,3.348,12.563,12.563,0,0,1,4.75.937,10.685,10.685,0,0,0-4.285.852c2,6.355,7.934,12.88,24.326,15.652a34.386,34.386,0,0,0-2.9-23.068C64.094,310.416,43.66,304.52,43.66,304.52Z" transform="translate(-43.66 -304.52)" fill="#4cc171"/>
            <g id="Group_3650" data-name="Group 3650" transform="translate(4.412 4.373)">
              <path id="Path_9632" data-name="Path 9632" d="M79.906,372.632c-.282-2.712-.642-5.418-1.061-8.117a160.9,160.9,0,0,0-3.309-16.045,63.852,63.852,0,0,0-2.365-7.312,10.961,10.961,0,0,0,.059-1.31c.013-.524.013-1.048.007-1.572-.013-1.048-.059-2.1-.151-3.145a37.57,37.57,0,0,0-1.009-6.145c-.3-1.166-.649-2.319-.989-3.472a.037.037,0,0,0-.072.02,46.343,46.343,0,0,1,1.212,6.132,56.909,56.909,0,0,1,.55,6.152c.02.563.033,1.127.033,1.69,0,.236-.013.478-.02.727a52.156,52.156,0,0,0-2.765-5.72,69.832,69.832,0,0,0-5.608-8.393,3.381,3.381,0,0,0-.138-.917c-.079-.367-.157-.734-.236-1.094-.17-.747-.354-1.494-.557-2.234-.406-1.487-.943-2.922-1.409-4.39a.037.037,0,0,0-.072.02c.432,1.454.721,2.955,1.055,4.435.164.734.328,1.461.485,2.195l.236,1.1c.007.026.007.052.013.079-.662-.839-1.337-1.658-2.031-2.47-3.132-3.669-6.565-7.056-10.017-10.417-.426-.413-.858-.819-1.291-1.225-.033-.033-.085.02-.052.052,3.3,3.446,6.552,6.925,9.631,10.574q1.1,1.3,2.162,2.634c-.373-.255-.747-.5-1.12-.74-.957-.622-1.92-1.232-2.915-1.789s-2-1.1-3.02-1.605c-1.048-.524-2.175-.943-3.191-1.533-.046-.026-.079.046-.039.066a23.008,23.008,0,0,1,2.994,1.658c1,.59,1.992,1.186,2.974,1.808.963.609,1.933,1.212,2.889,1.834.8.518,1.585,1.081,2.411,1.559a77.081,77.081,0,0,1,5.254,7.646,56.794,56.794,0,0,1,2.712,5.15l-.59-.256-1.5-.668q-1.445-.639-2.9-1.264c-1.841-.8-3.708-1.533-5.51-2.411a25.247,25.247,0,0,1-2.942-1.631c-.039-.026-.079.039-.039.066a65.084,65.084,0,0,0,10.849,5.6l1.612.714c.446.2.884.413,1.343.59a57.119,57.119,0,0,1,2.771,7.593A154.76,154.76,0,0,1,77.8,362.7c.943,5.353,1.572,10.745,2.07,16.156q.088,1.012.2,2.024a.213.213,0,0,0,.426-.013C80.476,378.116,80.195,375.364,79.906,372.632Z" transform="translate(-50.394 -311.194)" fill="#263238"/>
              <path id="Path_9633" data-name="Path 9633" d="M79.554,333.273c-.3-1.664-.747-3.3-1.192-4.927a.037.037,0,0,0-.072.02c.413,1.6.714,3.237,1.016,4.861q.462,2.486.812,4.992c.007.026.046.026.046,0A46.14,46.14,0,0,0,79.554,333.273Z" transform="translate(-60.013 -317.1)" fill="#263238"/>
              <path id="Path_9634" data-name="Path 9634" d="M65.586,340.785a29.727,29.727,0,0,0-3.564-2c-.6-.308-1.205-.6-1.808-.9-.622-.3-1.271-.557-1.893-.865-.046-.02-.079.046-.039.066.6.3,1.166.662,1.756.983.609.334,1.212.668,1.821,1,1.2.642,2.378,1.356,3.636,1.88A.091.091,0,0,0,65.586,340.785Z" transform="translate(-53.108 -320.098)" fill="#263238"/>
            </g>
          </g>
          <g id="Group_3653" data-name="Group 3653" transform="translate(33.623 8.589)">
            <path id="Path_9635" data-name="Path 9635" d="M99.52,346.128s10.365-2.477,15.128-9.428c4.547-6.643,6.014-17.964,6.132-18.96-.19.911-2.326,10.81-9.382,15.416C105.986,336.687,100.765,339.59,99.52,346.128Z" transform="translate(-95.098 -317.668)" fill="#263238" opacity="0.1"/>
            <path id="Path_9636" data-name="Path 9636" d="M112.109,333.725a13.236,13.236,0,0,0-3.82,6.3c-.007.02.026.033.033.013a15.493,15.493,0,0,1,3.839-6.25C112.194,333.751,112.142,333.692,112.109,333.725Z" transform="translate(-98.121 -323.177)" fill="#263238"/>
            <g id="Group_3652" data-name="Group 3652">
              <path id="Path_9637" data-name="Path 9637" d="M99.416,346.09s10.365-2.477,15.128-9.428c4.547-6.643,6.014-17.964,6.132-18.96.007-.046.013-.072.013-.072s-4.973,7.069-10.194,8.871S97.915,334.54,99.416,346.09Z" transform="translate(-94.993 -317.63)" fill="#4cc171"/>
              <path id="Path_9638" data-name="Path 9638" d="M116.624,323.572a42.722,42.722,0,0,1-3.2,5.477,22.2,22.2,0,0,1-4.265,4.39c-1.409,1.12-2.9,2.129-4.324,3.23.013-.02.02-.033.033-.052.269-.4.557-.786.852-1.16.6-.76,1.245-1.474,1.893-2.182,1.291-1.4,2.6-2.771,3.761-4.285a15.905,15.905,0,0,0,1.664-2.68c.02-.046-.052-.065-.072-.026-1.684,3.505-5.038,5.746-7.436,8.707a15.582,15.582,0,0,0-.957,1.31,5.349,5.349,0,0,0-.6,1.055,21.758,21.758,0,0,0-3.538,3.577,13.872,13.872,0,0,1,.419-2.011,10.062,10.062,0,0,1,1.1-2.627c.026-.039-.039-.085-.066-.039a12.41,12.41,0,0,0-1.212,2.608,9.384,9.384,0,0,0-.38,2.241l-.007.007a21.178,21.178,0,0,0-1.4,2.175c.046-.223.085-.445.131-.662.2-1.035.432-2.064.7-3.079a18.384,18.384,0,0,1,2.5-5.837.038.038,0,1,0-.066-.039,22.357,22.357,0,0,0-2.765,5.713c-.328,1.016-.6,2.051-.826,3.092q-.167.767-.314,1.533c-.052.262-.111.537-.151.812a37.213,37.213,0,0,0-2.391,7.03,103.113,103.113,0,0,0-2.208,13.11,108.56,108.56,0,0,0-.714,13.916c.007.583.046,1.166.079,1.749.007.151.236.17.242.013.1-2.3.164-4.6.295-6.9s.334-4.593.583-6.886a122,122,0,0,1,2.162-13.4,34.483,34.483,0,0,1,4-10.928,20.444,20.444,0,0,1,3.741-4.448c1.454-1.3,3.04-2.45,4.573-3.656a24.987,24.987,0,0,0,4.2-4.036,32.717,32.717,0,0,0,3.3-5.353c.242-.472.5-.937.74-1.4C116.709,323.572,116.644,323.532,116.624,323.572Z" transform="translate(-92.77 -319.673)" fill="#263238"/>
              <path id="Path_9639" data-name="Path 9639" d="M125.23,325.889a34.171,34.171,0,0,1-2.313,4.036.028.028,0,0,0,.046.033,27.539,27.539,0,0,0,2.332-4.042C125.322,325.869,125.25,325.85,125.23,325.889Z" transform="translate(-103.164 -320.471)" fill="#263238"/>
            </g>
          </g>
          <g id="Group_3655" data-name="Group 3655" transform="translate(0 32.463)">
            <path id="Path_9640" data-name="Path 9640" d="M41.45,354.07s-.164,14.735,8.642,18.987,13.529.708,19.517,2.136a.02.02,0,0,1-.013-.007c-.229-.354-4.5-6.493-11.3-8.183C51.317,365.26,43.573,360.209,41.45,354.07Z" transform="translate(-41.45 -354.07)" fill="#4cc171"/>
            <path id="Path_9641" data-name="Path 9641" d="M41.45,354.07s-.164,14.735,8.642,18.987,13.529.708,19.517,2.136a.02.02,0,0,1-.013-.007,33.469,33.469,0,0,0-10.017-2.955C54.035,371.563,43.422,367.94,41.45,354.07Z" transform="translate(-41.45 -354.07)" opacity="0.1"/>
            <g id="Group_3654" data-name="Group 3654" transform="translate(3.86 9.018)">
              <path id="Path_9642" data-name="Path 9642" d="M72.223,380.2a14.613,14.613,0,0,0-3.505-2.372c-.19-.092-.38-.164-.577-.242-.092-.118-.19-.229-.295-.341a10.519,10.519,0,0,0-.832-.786,12.14,12.14,0,0,0-1.769-1.278c-1.461-.858-3.06-1.461-4.553-2.254-.046-.026-.079.046-.039.066.74.38,1.454.806,2.169,1.225s1.409.793,2.09,1.232a14.72,14.72,0,0,1,1.743,1.3c.157.138.3.282.452.432a23.412,23.412,0,0,0-2.974-.793c-1.612-.328-3.243-.557-4.855-.9a23.636,23.636,0,0,1-2.339-.629c-.734-.59-1.461-1.173-2.155-1.808a17.706,17.706,0,0,1-2.28-2.522c-.026-.039-.092,0-.066.039a27.017,27.017,0,0,0,3.61,3.983c-.38-.144-.753-.3-1.127-.465a18.223,18.223,0,0,1-7.508-6.244c-.026-.039-.092,0-.066.039a20.616,20.616,0,0,0,6.073,5.831,18.057,18.057,0,0,0,3.839,1.815,36.028,36.028,0,0,0,4.77,1.127,33.64,33.64,0,0,1,4.671,1.114,14.367,14.367,0,0,1,3.918,2.057,18.328,18.328,0,0,1,5.281,6.545,33.029,33.029,0,0,1,2.909,10.771c.02.157.262.157.249-.007C78.65,390.946,77,384.5,72.223,380.2Z" transform="translate(-47.341 -367.835)" fill="#263238"/>
              <path id="Path_9643" data-name="Path 9643" d="M67.6,377.568a5.128,5.128,0,0,0-1.808-1.644,6.591,6.591,0,0,1-2.155-1.782c-.026-.039-.092,0-.066.039a7.362,7.362,0,0,0,1.9,1.7,6.647,6.647,0,0,1,2.07,1.716C67.563,377.633,67.616,377.6,67.6,377.568Z" transform="translate(-52.934 -370.004)" fill="#263238"/>
            </g>
          </g>
        </g>
        <g id="Group_3658" data-name="Group 3658" transform="translate(21.903 61.338)">
          <g id="Group_3657" data-name="Group 3657" transform="translate(1.29 3.378)">
            <path id="Path_9644" data-name="Path 9644" d="M76.85,403.3l.4,8.1,1.232,24.752H96.957L98.188,411.4l.4-8.1Z" transform="translate(-76.85 -403.3)" fill="#455a64"/>
            <path id="Path_9645" data-name="Path 9645" d="M76.85,403.3l.4,8.1H98.188l.4-8.1Z" transform="translate(-76.85 -403.3)" fill="#263238"/>
          </g>
          <rect id="Rectangle_2424" data-name="Rectangle 2424" width="24.326" height="7.731" transform="translate(24.326 7.731) rotate(180)" fill="#455a64"/>
        </g>
      </g>
    </g>
  </g>
</svg>
