<svg xmlns="http://www.w3.org/2000/svg" width="267.409" height="261.894" viewBox="0 0 267.409 261.894">
  <g id="_6300828" data-name="6300828" transform="translate(777.88 9.61)">
    <g id="Background_Complete" transform="translate(-777.875 -6.659)">
      <g id="Group_3414" data-name="Group 3414" transform="translate(13.229 69.888)">
        <g id="Group_3413" data-name="Group 3413">
          <path id="Path_9253" data-name="Path 9253" d="M-729.775,139.949a17.334,17.334,0,0,1-5.074,2.123,17.52,17.52,0,0,1-13.429-2.129,17.532,17.532,0,0,1-7.838-10.783A17.588,17.588,0,0,1-743.2,107.892a17.589,17.589,0,0,1,21.267,12.919A17.585,17.585,0,0,1-729.775,139.949Z" transform="translate(756.623 -107.384)" fill="#ebebeb"/>
          <g id="Group_3412" data-name="Group 3412" transform="translate(8.344 10.233)">
            <path id="Path_9254" data-name="Path 9254" d="M-726.252,129.174a5.354,5.354,0,0,1-5.354,5.354,5.354,5.354,0,0,1-5.354-5.354,5.354,5.354,0,0,1,5.354-5.354A5.354,5.354,0,0,1-726.252,129.174Z" transform="translate(740.857 -123.82)" fill="#fff"/>
            <path id="Path_9255" data-name="Path 9255" d="M-724.717,150.532v2.21a17.335,17.335,0,0,1-5.074,2.123,17.52,17.52,0,0,1-13.429-2.129v-2.2a9.257,9.257,0,0,1,9.252-9.252A9.261,9.261,0,0,1-724.717,150.532Z" transform="translate(743.22 -130.41)" fill="#fff"/>
          </g>
        </g>
      </g>
      <g id="Group_3415" data-name="Group 3415" transform="translate(9.863 4.95)">
        <path id="Path_9256" data-name="Path 9256" d="M-755.318,27.535a1.968,1.968,0,0,1,2.055.012c.174.106.349.205.529.3s.361.187.548.274a1.956,1.956,0,0,1,1.146,1.7l.081,2.528,8.237-.255-.075-2.528a1.958,1.958,0,0,1,1.034-1.774,10.059,10.059,0,0,0,1.046-.647,1.961,1.961,0,0,1,2.048-.131l2.223,1.2,3.9-7.266-2.223-1.2a1.947,1.947,0,0,1-1.021-1.774c.006-.411-.006-.822-.037-1.226a1.964,1.964,0,0,1,.909-1.843l2.148-1.332-4.346-7-2.16,1.339a1.956,1.956,0,0,1-2.048-.012c-.174-.106-.349-.205-.529-.3s-.361-.187-.542-.274a1.971,1.971,0,0,1-1.152-1.706l-.075-2.534-8.237.255.081,2.521a1.963,1.963,0,0,1-1.033,1.781,11.242,11.242,0,0,0-1.046.647,1.961,1.961,0,0,1-2.048.131l-2.223-1.2-3.9,7.266,2.223,1.2a1.95,1.95,0,0,1,1.021,1.781q-.009.616.037,1.233a1.963,1.963,0,0,1-.909,1.843l-2.148,1.326,4.346,7Zm2.067-13.012a6.75,6.75,0,0,1,9.146-2.758,6.756,6.756,0,0,1,2.758,9.146,6.749,6.749,0,0,1-9.14,2.758A6.76,6.76,0,0,1-753.251,14.523Z" transform="translate(762.03 -3.08)" fill="#ebebeb"/>
        <path id="Path_9257" data-name="Path 9257" d="M-391.483,269.013a1.385,1.385,0,0,1,1.276-.672c.143.006.28.012.423.012s.286-.006.43-.012a1.369,1.369,0,0,1,1.27.672l.884,1.538,5-2.889-.884-1.538a1.362,1.362,0,0,1,.05-1.438,7.284,7.284,0,0,0,.43-.747,1.378,1.378,0,0,1,1.22-.76h1.768V257.4h-1.768a1.378,1.378,0,0,1-1.22-.76q-.2-.383-.43-.747a1.362,1.362,0,0,1-.05-1.438l.884-1.538-5-2.889-.89,1.544a1.364,1.364,0,0,1-1.27.666c-.143-.006-.28-.012-.423-.012s-.286.006-.423.012a1.391,1.391,0,0,1-1.276-.672l-.884-1.538-5,2.889.884,1.532a1.362,1.362,0,0,1-.05,1.438q-.233.364-.43.747a1.378,1.378,0,0,1-1.22.76h-1.768v5.778h1.768a1.378,1.378,0,0,1,1.22.76q.2.383.43.747a1.362,1.362,0,0,1,.05,1.438l-.884,1.532,5,2.889Zm-3.032-8.722a4.734,4.734,0,0,1,4.732-4.732,4.728,4.728,0,0,1,4.725,4.732,4.727,4.727,0,0,1-4.725,4.725A4.72,4.72,0,0,1-394.515,260.29Z" transform="translate(625.375 -96.283)" fill="#ebebeb"/>
        <path id="Path_9258" data-name="Path 9258" d="M-718.262,60.8a1.385,1.385,0,0,1,.672,1.276c-.006.143-.012.28-.012.423s.006.286.012.43a1.369,1.369,0,0,1-.672,1.27l-1.538.884,2.889,5,1.538-.884a1.362,1.362,0,0,1,1.438.05,7.288,7.288,0,0,0,.747.43,1.378,1.378,0,0,1,.76,1.22v1.768h5.778V70.9a1.378,1.378,0,0,1,.76-1.22q.383-.2.747-.43a1.362,1.362,0,0,1,1.438-.05l1.538.884,2.889-5-1.544-.89a1.364,1.364,0,0,1-.666-1.27c.006-.143.012-.28.012-.423s-.006-.286-.012-.423a1.391,1.391,0,0,1,.672-1.276l1.538-.884-2.889-5-1.531.884a1.363,1.363,0,0,1-1.438-.05q-.364-.233-.747-.43a1.378,1.378,0,0,1-.76-1.22V52.33h-5.778V54.1a1.378,1.378,0,0,1-.76,1.22q-.383.2-.747.43a1.362,1.362,0,0,1-1.438.05l-1.532-.884-2.889,5Zm8.716-3.032a4.733,4.733,0,0,1,4.732,4.732,4.732,4.732,0,0,1-4.732,4.725,4.723,4.723,0,0,1-4.725-4.725A4.732,4.732,0,0,1-709.546,57.765Z" transform="translate(746.092 -21.668)" fill="#ebebeb"/>
      </g>
      <g id="Group_3419" data-name="Group 3419" transform="translate(220.296)">
        <g id="Group_3416" data-name="Group 3416">
          <rect id="Rectangle_2363" data-name="Rectangle 2363" width="34.522" height="41.875" fill="#ebebeb"/>
          <rect id="Rectangle_2364" data-name="Rectangle 2364" width="26.634" height="34.23" transform="translate(3.941 3.823)" fill="#fff"/>
          <rect id="Rectangle_2365" data-name="Rectangle 2365" width="1.04" height="34.23" transform="translate(3.941 3.823)" fill="#c7c7c7"/>
          <rect id="Rectangle_2366" data-name="Rectangle 2366" width="1.04" height="41.875" transform="translate(34.522)" fill="#c7c7c7"/>
          <rect id="Rectangle_2367" data-name="Rectangle 2367" width="6.282" height="18.709" transform="translate(24.131 30.446) rotate(180)" fill="#ebebeb"/>
          <rect id="Rectangle_2368" data-name="Rectangle 2368" width="16.741" height="9.164" transform="translate(26.873 17.705) rotate(180)" fill="none" stroke="#ebebeb" stroke-miterlimit="10" stroke-width="1"/>
        </g>
        <g id="Group_3417" data-name="Group 3417" transform="translate(0 103.193)">
          <rect id="Rectangle_2369" data-name="Rectangle 2369" width="34.522" height="41.875" fill="#ebebeb"/>
          <rect id="Rectangle_2370" data-name="Rectangle 2370" width="26.634" height="34.23" transform="translate(3.947 3.816)" fill="#fff"/>
          <rect id="Rectangle_2371" data-name="Rectangle 2371" width="1.04" height="34.23" transform="translate(3.947 3.816)" fill="#c7c7c7"/>
          <rect id="Rectangle_2372" data-name="Rectangle 2372" width="1.04" height="41.875" transform="translate(34.522)" fill="#c7c7c7"/>
          <rect id="Rectangle_2373" data-name="Rectangle 2373" width="6.282" height="18.709" transform="translate(12.869 11.736)" fill="#ebebeb"/>
          <rect id="Rectangle_2374" data-name="Rectangle 2374" width="16.741" height="9.164" transform="translate(10.129 8.536)" fill="none" stroke="#ebebeb" stroke-miterlimit="10" stroke-width="1"/>
        </g>
        <g id="Group_3418" data-name="Group 3418" transform="translate(0 51.787)">
          <rect id="Rectangle_2375" data-name="Rectangle 2375" width="34.522" height="41.875" fill="#ebebeb"/>
          <rect id="Rectangle_2376" data-name="Rectangle 2376" width="26.634" height="34.23" transform="translate(3.941 3.816)" fill="#fff"/>
          <rect id="Rectangle_2377" data-name="Rectangle 2377" width="1.04" height="34.23" transform="translate(3.941 3.816)" fill="#c7c7c7"/>
          <rect id="Rectangle_2378" data-name="Rectangle 2378" width="1.04" height="41.875" transform="translate(34.522)" fill="#c7c7c7"/>
          <rect id="Rectangle_2379" data-name="Rectangle 2379" width="5.379" height="13.603" transform="translate(14.681 12.67)" fill="#ebebeb"/>
          <rect id="Rectangle_2380" data-name="Rectangle 2380" width="14.45" height="9.376" transform="translate(11.275 20.931)" fill="none" stroke="#dbdbdb" stroke-miterlimit="10" stroke-width="1"/>
        </g>
      </g>
      <g id="Group_3423" data-name="Group 3423" transform="translate(0 157.595)">
        <g id="Group_3422" data-name="Group 3422">
          <path id="Path_9259" data-name="Path 9259" d="M-742.95,248.27V338.2h54.364V248.27Zm4.937,33.327h44.5v23.409h-44.5Zm0-28.988h44.5v23.409h-44.5Z" transform="translate(764.692 -248.264)" fill="#ebebeb"/>
          <rect id="Rectangle_2381" data-name="Rectangle 2381" width="21.741" height="89.932" transform="translate(21.741 89.932) rotate(180)" fill="#dbdbdb"/>
          <rect id="Rectangle_2382" data-name="Rectangle 2382" width="10.571" height="23.409" transform="translate(71.168 27.758) rotate(180)" fill="#dbdbdb"/>
          <g id="Group_3421" data-name="Group 3421" transform="translate(26.673 61.971)">
            <rect id="Rectangle_2383" data-name="Rectangle 2383" width="44.216" height="22.32" transform="translate(44.216 22.32) rotate(180)" fill="none" stroke="#dbdbdb" stroke-miterlimit="10" stroke-width="0.75"/>
            <g id="Group_3420" data-name="Group 3420" transform="translate(16.976 6.28)">
              <rect id="Rectangle_2384" data-name="Rectangle 2384" width="8.785" height="4.445" transform="translate(11.381 4.445) rotate(180)" fill="#dbdbdb"/>
              <rect id="Rectangle_2385" data-name="Rectangle 2385" width="8.785" height="3.773" transform="translate(8.785 4.109) rotate(180)" fill="none" stroke="#dbdbdb" stroke-miterlimit="10" stroke-width="0.75"/>
            </g>
          </g>
          <rect id="Rectangle_2386" data-name="Rectangle 2386" width="10.571" height="23.409" transform="translate(71.168 56.746) rotate(180)" fill="#dbdbdb"/>
        </g>
      </g>
    </g>
    <g id="Plant" transform="translate(-777.88 150.942)">
      <g id="Group_3432" data-name="Group 3432">
        <g id="Group_3429" data-name="Group 3429">
          <g id="Group_3424" data-name="Group 3424" transform="translate(22.351 17.762)">
            <path id="Path_9260" data-name="Path 9260" d="M-741.98,314.217s5.08-18.229,9.133-24.424,11.617-12.993,11.617-12.993S-721.4,304.91-741.98,314.217Z" transform="translate(741.98 -276.8)" fill="#359e56"/>
            <path id="Path_9261" data-name="Path 9261" d="M-741.421,318.391a86.934,86.934,0,0,0,4.632-8.834,61.213,61.213,0,0,1,2.521-9.588.046.046,0,0,1,.087.031c-.672,2.883-1.457,5.734-2.173,8.6,2.048-4.439,4-8.928,6.444-13.124a27.772,27.772,0,0,1,2.353-5.834c.025-.056.118-.025.087.031a37.562,37.562,0,0,0-1.588,4.377,43.245,43.245,0,0,1,3.86-5.329c.087-.106.268.012.18.125-3.262,4.165-5.516,8.909-7.664,13.709a71.928,71.928,0,0,0,6.375-7.969c.019-.031.062,0,.044.031a65.243,65.243,0,0,1-6.823,8.847c-1.563,3.518-3.1,7.048-4.962,10.391,3.723-3.15,6.587-7.222,9.426-11.15.062-.087.2.006.137.093-2.839,4.314-5.771,8.374-9.855,11.568a45.709,45.709,0,0,1-2.727,4.258A.213.213,0,0,1-741.421,318.391Z" transform="translate(741.782 -281.285)" fill="#263238"/>
          </g>
          <g id="Group_3426" data-name="Group 3426" transform="translate(15.69)">
            <path id="Path_9262" data-name="Path 9262" d="M-746.983,303.481s9.127-16.81,6.475-33.109S-746,248.27-746,248.27-760.35,273.615-746.983,303.481Z" transform="translate(752.679 -248.27)" fill="#4cc171"/>
            <g id="Group_3425" data-name="Group 3425" transform="translate(1.877 8.002)">
              <path id="Path_9263" data-name="Path 9263" d="M-749.593,281.9a79.331,79.331,0,0,0,3.524,13.572c.025-5.983.137-11.966.3-17.943a46.187,46.187,0,0,1-1.725-11.138c-.006-.112.162-.106.168,0a63.015,63.015,0,0,0,1.6,9.588q.205-7.406.479-14.8a.066.066,0,0,1,.131,0c-.006,7.708-.006,15.415-.05,23.123a62.183,62.183,0,0,0,2.633-9.158.029.029,0,0,1,.056.006,35.889,35.889,0,0,1-2.7,10.422c-.037,4.925-.087,9.855-.2,14.78,1.544-5.236,3.194-10.31,3.642-15.845a.059.059,0,0,1,.118,0,58.882,58.882,0,0,1-3.711,18.042.418.418,0,0,1-.1.143c-.044,1.8-.1,3.6-.156,5.4a.2.2,0,0,1-.4-.006q-.1-5.529-.087-11.051a49.507,49.507,0,0,1-3.6-15.129C-749.68,281.865-749.6,281.853-749.593,281.9Z" transform="translate(749.665 -261.122)" fill="#263238"/>
              <path id="Path_9264" data-name="Path 9264" d="M-748.675,290.276a31.49,31.49,0,0,1,.635,4.439.045.045,0,0,1-.087.012,31.318,31.318,0,0,1-.753-4.427C-748.886,290.189-748.693,290.164-748.675,290.276Z" transform="translate(749.369 -272.098)" fill="#263238"/>
              <path id="Path_9265" data-name="Path 9265" d="M-740.272,270.561c.006-.05.087-.037.087.012a11.371,11.371,0,0,1-.461,3.063c-.025.081-.137.044-.125-.037C-740.571,272.59-740.447,271.576-740.272,270.561Z" transform="translate(746.308 -264.673)" fill="#263238"/>
            </g>
          </g>
          <g id="Group_3428" data-name="Group 3428" transform="translate(0 15.77)">
            <path id="Path_9266" data-name="Path 9266" d="M-759.831,313.041s.374-17.551-4.663-26.273A37.854,37.854,0,0,0-777.88,273.6S-774.512,304.536-759.831,313.041Z" transform="translate(777.88 -273.6)" fill="#359e56"/>
            <g id="Group_3427" data-name="Group 3427" transform="translate(2.956 6.29)">
              <path id="Path_9267" data-name="Path 9267" d="M-766.075,301.843a65.735,65.735,0,0,0,6.811,8.635c-1-3.586-2.173-7.116-3.486-10.584-2.82-2.472-5.622-5.037-7.353-8.424-.025-.056.05-.1.081-.05a35.261,35.261,0,0,0,6.973,7.708,135.908,135.908,0,0,0-7.01-15.26.112.112,0,0,1,.193-.112,83.226,83.226,0,0,1,4.4,8.006c-.473-1.874-.847-3.792-1.332-5.653-.012-.05.062-.068.081-.025a31.989,31.989,0,0,1,2.067,7.44,89.568,89.568,0,0,1,4.433,12.01c-.131-2.634-.293-5.248-.567-7.876-.006-.05.081-.062.087-.012a42.14,42.14,0,0,1,.76,8.841q1.093,3.922,1.824,7.926c.013.068-.093.106-.112.031-.274-1.121-.573-2.229-.872-3.331a.112.112,0,0,1-.056-.025,35.449,35.449,0,0,1-6.948-9.239C-766.112,301.843-766.087,301.824-766.075,301.843Z" transform="translate(771.991 -283.703)" fill="#263238"/>
              <path id="Path_9268" data-name="Path 9268" d="M-773.05,289.9c.56.6,1.077,1.245,1.619,1.868a14.371,14.371,0,0,1,1.451,1.693c.012.025-.012.056-.037.037a8.578,8.578,0,0,1-1.675-1.65,14.056,14.056,0,0,1-1.432-1.886C-773.156,289.913-773.087,289.857-773.05,289.9Z" transform="translate(773.133 -286.036)" fill="#263238"/>
            </g>
          </g>
        </g>
        <g id="Group_3431" data-name="Group 3431" transform="translate(9.149 52.41)">
          <g id="Group_3430" data-name="Group 3430" transform="translate(1.485 4.083)">
            <path id="Path_9269" data-name="Path 9269" d="M-739.035,339.01l-.635,8.311-1.911,25.128h-16.673l-1.911-25.127-.635-8.312h21.766Z" transform="translate(760.8 -339.01)" fill="#37474f"/>
            <path id="Path_9270" data-name="Path 9270" d="M-739.034,339.01l-.386,5.055-20.931.84-.448-5.9h21.766Z" transform="translate(760.8 -339.01)" fill="#263238"/>
          </g>
          <rect id="Rectangle_2387" data-name="Rectangle 2387" width="24.735" height="6.375" transform="translate(24.735 6.375) rotate(180)" fill="#37474f"/>
        </g>
      </g>
    </g>
    <g id="Floor" transform="translate(-777.88 240.587)">
      <g id="Group_3433" data-name="Group 3433">
        <path id="Path_9271" data-name="Path 9271" d="M-777.88,392.546c85.045-.38,180.437-.386,265.482,0-85.039.386-180.437.38-265.482,0Z" transform="translate(777.88 -392.259)" fill="#263238"/>
      </g>
    </g>
    <g id="Device" transform="translate(-738.713 -9.61)">
      <g id="Group_3468" data-name="Group 3468">
        <path id="Path_9272" data-name="Path 9272" d="M-701.35,232.849V-1.585a8.024,8.024,0,0,1,8.025-8.025h151.531a8.024,8.024,0,0,1,8.025,8.025V232.849a8.024,8.024,0,0,1-8.025,8.025H-693.325A8.024,8.024,0,0,1-701.35,232.849Z" transform="translate(709.83 9.61)" fill="#4cc171"/>
        <line id="Line_238" data-name="Line 238" y1="0.386" transform="translate(0 48.325)" fill="none"/>
        <rect id="Rectangle_2388" data-name="Rectangle 2388" width="153.249" height="215.576" transform="translate(15.745 17.526)" fill="#fff"/>
        <g id="Group_3434" data-name="Group 3434" transform="translate(74.038 8.866)">
          <path id="Path_9273" data-name="Path 9273" d="M-596.05,6.46V5.408a.779.779,0,0,1,.778-.778h34.914a.779.779,0,0,1,.778.778V6.454a.779.779,0,0,1-.778.778h-34.914A.769.769,0,0,1-596.05,6.46Z" transform="translate(596.05 -4.63)" fill="#263238"/>
          <circle id="Ellipse_2286" data-name="Ellipse 2286" cx="4.719" cy="4.719" r="4.719" transform="translate(13.516 227.99)" fill="#263238"/>
        </g>
        <g id="Group_3435" data-name="Group 3435" transform="translate(14.745 17.526)">
          <rect id="Rectangle_2389" data-name="Rectangle 2389" width="153.249" height="215.576" fill="#fff"/>
        </g>
        <g id="Group_3467" data-name="Group 3467" transform="translate(59.588 57.384)">
          <circle id="Ellipse_2287" data-name="Ellipse 2287" cx="26.46" cy="26.46" r="26.46" transform="translate(6.301)" fill="#a6a6a6"/>
          <g id="Group_3439" data-name="Group 3439" transform="translate(0 74.772)">
            <rect id="Rectangle_2390" data-name="Rectangle 2390" width="65.527" height="9.494" transform="translate(0 0)" fill="#ebebeb"/>
            <g id="Group_3436" data-name="Group 3436" transform="translate(10.123 2.764)">
              <path id="Path_9274" data-name="Path 9274" d="M-603,207.225a.125.125,0,0,1,.125-.125.126.126,0,0,1,.131.125v2.03a1.212,1.212,0,0,0,1.2,1.208,1.214,1.214,0,0,0,1.214-1.208v-2.03a.125.125,0,0,1,.125-.125.126.126,0,0,1,.131.125v2.03a1.465,1.465,0,0,1-1.463,1.463,1.46,1.46,0,0,1-1.457-1.463v-2.03Z" transform="translate(603 -207.1)" fill="#a6a6a6"/>
              <path id="Path_9275" data-name="Path 9275" d="M-596.656,210.837a.127.127,0,0,1,.174-.019,1.338,1.338,0,0,0,.772.293.749.749,0,0,0,.479-.156.387.387,0,0,0,.193-.311.405.405,0,0,0-.181-.311,1.282,1.282,0,0,0-.535-.187l-.012-.006a1.445,1.445,0,0,1-.573-.2.522.522,0,0,1-.274-.454.629.629,0,0,1,.274-.5,1.071,1.071,0,0,1,.623-.168,1.348,1.348,0,0,1,.753.274.13.13,0,0,1,.037.174.122.122,0,0,1-.168.037,1.113,1.113,0,0,0-.623-.255.758.758,0,0,0-.479.143.373.373,0,0,0-.162.286.306.306,0,0,0,.143.255,1.343,1.343,0,0,0,.517.174h.012a1.8,1.8,0,0,1,.616.205.624.624,0,0,1,.286.517.648.648,0,0,1-.286.511,1.012,1.012,0,0,1-.629.2,1.551,1.551,0,0,1-.934-.361C-596.693,210.955-596.693,210.887-596.656,210.837Z" transform="translate(600.615 -207.749)" fill="#a6a6a6"/>
              <path id="Path_9276" data-name="Path 9276" d="M-592.57,210.11a1.247,1.247,0,0,1,1.227-1.27,1.247,1.247,0,0,1,1.22,1.177v.019a.115.115,0,0,1-.125.112h-2.073a1,1,0,0,0,.984.971.943.943,0,0,0,.816-.461.123.123,0,0,1,.168-.044.137.137,0,0,1,.044.174,1.211,1.211,0,0,1-1.021.573A1.237,1.237,0,0,1-592.57,210.11Zm.261-.2h1.918a.979.979,0,0,0-.953-.822A.985.985,0,0,0-592.309,209.911Z" transform="translate(599.064 -207.757)" fill="#a6a6a6"/>
              <path id="Path_9277" data-name="Path 9277" d="M-587.41,208.975a.123.123,0,0,1,.131-.125.12.12,0,0,1,.118.125v.56a.33.33,0,0,1,.037-.062,1.232,1.232,0,0,1,1.015-.623.121.121,0,0,1,.125.125.125.125,0,0,1-.125.125.92.92,0,0,0-.735.411,2.417,2.417,0,0,0-.305.591.067.067,0,0,0-.012.044v1.108a.12.12,0,0,1-.118.125.123.123,0,0,1-.131-.125Z" transform="translate(597.116 -207.76)" fill="#a6a6a6"/>
              <path id="Path_9278" data-name="Path 9278" d="M-581.954,209.866a.779.779,0,0,0-.778-.778.792.792,0,0,0-.784.778v1.395a.154.154,0,0,1-.025.056.1.1,0,0,1-.093.044h-.031a.129.129,0,0,1-.081-.068.023.023,0,0,1-.006-.019.022.022,0,0,0-.006-.012v-2.316a.121.121,0,0,1,.125-.125.12.12,0,0,1,.118.125v.243a1.026,1.026,0,0,1,.784-.367,1.032,1.032,0,0,1,1.027,1.027v1.376a.121.121,0,0,1-.125.125.121.121,0,0,1-.125-.125Z" transform="translate(595.739 -207.749)" fill="#a6a6a6"/>
              <path id="Path_9279" data-name="Path 9279" d="M-576.733,208.965v2.285a.125.125,0,0,1-.125.125.125.125,0,0,1-.125-.125v-.38a1.179,1.179,0,0,1-.953.5,1.232,1.232,0,0,1-1.2-1.264,1.232,1.232,0,0,1,1.2-1.264,1.188,1.188,0,0,1,.953.5v-.374a.121.121,0,0,1,.125-.125A.121.121,0,0,1-576.733,208.965Zm-.249,1.139a.989.989,0,0,0-.953-1.021.993.993,0,0,0-.953,1.021.987.987,0,0,0,.953,1.015A.983.983,0,0,0-576.982,210.1Z" transform="translate(593.991 -207.757)" fill="#a6a6a6"/>
              <path id="Path_9280" data-name="Path 9280" d="M-569.937,209.877a.793.793,0,0,0-.784-.784.784.784,0,0,0-.778.784v1.388a.022.022,0,0,1-.006.012v.012a.166.166,0,0,1-.062.068.12.12,0,0,1-.062.019h-.025a.022.022,0,0,1-.012-.006c-.012,0-.019-.012-.031-.019a.013.013,0,0,1-.012-.012l-.012-.012c-.006-.006-.006-.012-.013-.012s0-.006-.006-.012a.019.019,0,0,0-.006-.012.023.023,0,0,0-.006-.019v-1.4a.78.78,0,0,0-.778-.784.78.78,0,0,0-.778.784v1.376a.112.112,0,0,1-.056.1.053.053,0,0,1-.031.019.023.023,0,0,1-.019.006h-.037a.144.144,0,0,1-.106-.093v-2.31a.118.118,0,0,1,.118-.118.116.116,0,0,1,.125.118v.243a1.007,1.007,0,0,1,.778-.361,1.028,1.028,0,0,1,.9.535,1.052,1.052,0,0,1,.909-.535,1.028,1.028,0,0,1,1.027,1.027v1.376a.12.12,0,0,1-.125.118.118.118,0,0,1-.118-.118v-1.376Z" transform="translate(591.889 -207.76)" fill="#a6a6a6"/>
              <path id="Path_9281" data-name="Path 9281" d="M-565.97,210.11a1.247,1.247,0,0,1,1.226-1.27,1.248,1.248,0,0,1,1.22,1.177v.019a.115.115,0,0,1-.125.112h-2.073a1,1,0,0,0,.984.971.943.943,0,0,0,.816-.461.118.118,0,0,1,.162-.044.137.137,0,0,1,.044.174,1.211,1.211,0,0,1-1.021.573A1.236,1.236,0,0,1-565.97,210.11Zm.268-.2h1.918a.979.979,0,0,0-.953-.822A.98.98,0,0,0-565.7,209.911Z" transform="translate(589.024 -207.757)" fill="#a6a6a6"/>
            </g>
            <g id="Group_3438" data-name="Group 3438" transform="translate(3.032 3.044)">
              <g id="Group_3437" data-name="Group 3437">
                <path id="Path_9282" data-name="Path 9282" d="M-611.512,208.459a.906.906,0,0,1-.909.909.906.906,0,0,1-.909-.909.906.906,0,0,1,.909-.909A.91.91,0,0,1-611.512,208.459Z" transform="translate(613.99 -207.55)" fill="#a6a6a6"/>
                <path id="Path_9283" data-name="Path 9283" d="M-611.246,212.076h-3.144a1.568,1.568,0,0,1,1.569-1.556A1.565,1.565,0,0,1-611.246,212.076Z" transform="translate(614.39 -208.671)" fill="#a6a6a6"/>
              </g>
            </g>
          </g>
          <g id="Group_3463" data-name="Group 3463" transform="translate(0 88.556)">
            <rect id="Rectangle_2391" data-name="Rectangle 2391" width="65.527" height="9.494" fill="#ebebeb"/>
            <g id="Group_3460" data-name="Group 3460" transform="translate(9.582 3.163)">
              <g id="Group_3444" data-name="Group 3444">
                <g id="Group_3440" data-name="Group 3440" transform="translate(0.467 0.467)">
                  <path id="Path_9284" data-name="Path 9284" d="M-600.879,230.63a7.923,7.923,0,0,1-2.241,2.241,7.922,7.922,0,0,1,2.241-2.241Z" transform="translate(603.12 -230.63)" fill="#a6a6a6"/>
                </g>
                <g id="Group_3441" data-name="Group 3441" transform="translate(0.461 0.467)">
                  <path id="Path_9285" data-name="Path 9285" d="M-603.13,230.63a7.923,7.923,0,0,1,2.241,2.241,8,8,0,0,1-2.241-2.241Z" transform="translate(603.13 -230.63)" fill="#a6a6a6"/>
                </g>
                <g id="Group_3442" data-name="Group 3442" transform="translate(0 1.426)">
                  <path id="Path_9286" data-name="Path 9286" d="M-600.7,232.332a7.986,7.986,0,0,1-3.169,0,7.873,7.873,0,0,1,3.169,0Z" transform="translate(603.87 -232.171)" fill="#a6a6a6"/>
                </g>
                <g id="Group_3443" data-name="Group 3443" transform="translate(1.423)">
                  <path id="Path_9287" data-name="Path 9287" d="M-601.426,229.88a7.984,7.984,0,0,1,0,3.169,7.989,7.989,0,0,1,0-3.169Z" transform="translate(601.585 -229.88)" fill="#a6a6a6"/>
                </g>
              </g>
              <g id="Group_3449" data-name="Group 3449" transform="translate(5.473)">
                <g id="Group_3445" data-name="Group 3445" transform="translate(0.461 0.467)">
                  <path id="Path_9288" data-name="Path 9288" d="M-592.1,230.63a7.923,7.923,0,0,1-2.241,2.241,8,8,0,0,1,2.241-2.241Z" transform="translate(594.34 -230.63)" fill="#a6a6a6"/>
                </g>
                <g id="Group_3446" data-name="Group 3446" transform="translate(0.461 0.467)">
                  <path id="Path_9289" data-name="Path 9289" d="M-594.34,230.63a7.922,7.922,0,0,1,2.241,2.241,8,8,0,0,1-2.241-2.241Z" transform="translate(594.34 -230.63)" fill="#a6a6a6"/>
                </g>
                <g id="Group_3447" data-name="Group 3447" transform="translate(0 1.426)">
                  <path id="Path_9290" data-name="Path 9290" d="M-591.911,232.332a7.987,7.987,0,0,1-3.169,0,7.873,7.873,0,0,1,3.169,0Z" transform="translate(595.08 -232.171)" fill="#a6a6a6"/>
                </g>
                <g id="Group_3448" data-name="Group 3448" transform="translate(1.423)">
                  <path id="Path_9291" data-name="Path 9291" d="M-592.636,229.88a7.986,7.986,0,0,1,0,3.169,7.986,7.986,0,0,1,0-3.169Z" transform="translate(592.795 -229.88)" fill="#a6a6a6"/>
                </g>
              </g>
              <g id="Group_3454" data-name="Group 3454" transform="translate(10.945)">
                <g id="Group_3450" data-name="Group 3450" transform="translate(0.461 0.467)">
                  <path id="Path_9292" data-name="Path 9292" d="M-583.309,230.63a7.922,7.922,0,0,1-2.241,2.241,7.924,7.924,0,0,1,2.241-2.241Z" transform="translate(585.55 -230.63)" fill="#a6a6a6"/>
                </g>
                <g id="Group_3451" data-name="Group 3451" transform="translate(0.461 0.467)">
                  <path id="Path_9293" data-name="Path 9293" d="M-585.55,230.63a7.922,7.922,0,0,1,2.241,2.241,8,8,0,0,1-2.241-2.241Z" transform="translate(585.55 -230.63)" fill="#a6a6a6"/>
                </g>
                <g id="Group_3452" data-name="Group 3452" transform="translate(0 1.426)">
                  <path id="Path_9294" data-name="Path 9294" d="M-583.121,232.332a7.986,7.986,0,0,1-3.169,0,7.873,7.873,0,0,1,3.169,0Z" transform="translate(586.29 -232.171)" fill="#a6a6a6"/>
                </g>
                <g id="Group_3453" data-name="Group 3453" transform="translate(1.423)">
                  <path id="Path_9295" data-name="Path 9295" d="M-583.846,229.88a7.986,7.986,0,0,1,0,3.169,7.984,7.984,0,0,1,0-3.169Z" transform="translate(584.005 -229.88)" fill="#a6a6a6"/>
                </g>
              </g>
              <g id="Group_3459" data-name="Group 3459" transform="translate(16.411)">
                <g id="Group_3455" data-name="Group 3455" transform="translate(0.467 0.467)">
                  <path id="Path_9296" data-name="Path 9296" d="M-574.519,230.63a7.922,7.922,0,0,1-2.241,2.241,7.923,7.923,0,0,1,2.241-2.241Z" transform="translate(576.76 -230.63)" fill="#a6a6a6"/>
                </g>
                <g id="Group_3456" data-name="Group 3456" transform="translate(0.461 0.467)">
                  <path id="Path_9297" data-name="Path 9297" d="M-576.77,230.63a7.923,7.923,0,0,1,2.241,2.241,8.086,8.086,0,0,1-2.241-2.241Z" transform="translate(576.77 -230.63)" fill="#a6a6a6"/>
                </g>
                <g id="Group_3457" data-name="Group 3457" transform="translate(0 1.426)">
                  <path id="Path_9298" data-name="Path 9298" d="M-574.341,232.332a7.986,7.986,0,0,1-3.169,0,7.873,7.873,0,0,1,3.169,0Z" transform="translate(577.51 -232.171)" fill="#a6a6a6"/>
                </g>
                <g id="Group_3458" data-name="Group 3458" transform="translate(1.427)">
                  <path id="Path_9299" data-name="Path 9299" d="M-575.058,229.88a7.986,7.986,0,0,1,0,3.169,7.873,7.873,0,0,1,0-3.169Z" transform="translate(575.219 -229.88)" fill="#a6a6a6"/>
                </g>
              </g>
            </g>
            <g id="Group_3462" data-name="Group 3462" transform="translate(3.125 2.596)">
              <g id="Group_3461" data-name="Group 3461" transform="translate(0.417)">
                <path id="Path_9300" data-name="Path 9300" d="M-611.441,230.1v1.146h-.324V230.1a.766.766,0,0,0-.741-.791.766.766,0,0,0-.741.791v1.146h-.324V230.1a1.1,1.1,0,0,1,1.065-1.133A1.1,1.1,0,0,1-611.441,230.1Z" transform="translate(613.57 -228.97)" fill="#a6a6a6"/>
              </g>
              <path id="Path_9301" data-name="Path 9301" d="M-614.24,231.95V234.4h2.957V231.95Zm1.731,1.8h-.529l.125-.585a.262.262,0,0,1-.125-.224.263.263,0,0,1,.261-.262.263.263,0,0,1,.261.262.27.27,0,0,1-.125.224Z" transform="translate(614.24 -230.095)" fill="#a6a6a6"/>
            </g>
          </g>
          <g id="Group_3466" data-name="Group 3466" transform="translate(21.903 103.86)">
            <rect id="Rectangle_2392" data-name="Rectangle 2392" width="21.716" height="6.755" fill="#060000"/>
            <g id="Group_3465" data-name="Group 3465" transform="translate(5.304 1.967)">
              <path id="Path_9307" data-name="Path 9307" d="M-575.56,255.007v-2.148a.2.2,0,0,1,.2-.2.206.206,0,0,1,.206.2V254.8h.984a.206.206,0,0,1,.2.205.2.2,0,0,1-.2.2h-1.189A.2.2,0,0,1-575.56,255.007Z" transform="translate(575.56 -252.585)" fill="#fff"/>
              <path id="Path_9308" data-name="Path 9308" d="M-570.567,252.926a1.348,1.348,0,0,1,.367.921,1.337,1.337,0,0,1-.367.921,1.191,1.191,0,0,1-.872.392,1.222,1.222,0,0,1-.89-.392,1.332,1.332,0,0,1-.361-.921,1.343,1.343,0,0,1,.361-.921,1.2,1.2,0,0,1,.89-.386A1.185,1.185,0,0,1-570.567,252.926Zm-.044.921a.927.927,0,0,0-.249-.635.8.8,0,0,0-.573-.262.792.792,0,0,0-.591.262.921.921,0,0,0-.249.635.91.91,0,0,0,.249.635.805.805,0,0,0,.591.261.785.785,0,0,0,.573-.261A.927.927,0,0,0-570.611,253.847Z" transform="translate(574.477 -252.54)" fill="#fff"/>
              <path id="Path_9309" data-name="Path 9309" d="M-567.72,253.854a1.325,1.325,0,0,1,1.345-1.314,1.322,1.322,0,0,1,.828.286.2.2,0,0,1,.037.293.208.208,0,0,1-.293.031.952.952,0,0,0-.573-.2.9.9,0,0,0-.654.268.879.879,0,0,0-.274.635.862.862,0,0,0,.274.629.9.9,0,0,0,.654.268,1.028,1.028,0,0,0,.5-.137v-.5h-.523a.207.207,0,0,1-.205-.205.2.2,0,0,1,.205-.205h.728a.2.2,0,0,1,.212.205v.8a.221.221,0,0,1-.012.062.023.023,0,0,0-.006.019v.006a.179.179,0,0,1-.068.087,1.335,1.335,0,0,1-.828.286A1.342,1.342,0,0,1-567.72,253.854Z" transform="translate(572.601 -252.54)" fill="#fff"/>
              <path id="Path_9310" data-name="Path 9310" d="M-562.74,252.859a.2.2,0,0,1,.2-.2.2.2,0,0,1,.206.2v2.148a.2.2,0,0,1-.206.2.2.2,0,0,1-.2-.2Z" transform="translate(570.721 -252.585)" fill="#fff"/>
              <path id="Path_9311" data-name="Path 9311" d="M-560.6,255.019a.2.2,0,0,1-.2.2.2.2,0,0,1-.2-.2V252.9a.186.186,0,0,1,.081-.168.2.2,0,0,1,.274.044l1.177,1.625v-1.5a.2.2,0,0,1,.2-.2.2.2,0,0,1,.2.2v2.117a.2.2,0,0,1-.2.2.205.205,0,0,1-.149-.075l-.019-.019L-560.6,253.5Z" transform="translate(570.065 -252.597)" fill="#fff"/>
            </g>
          </g>
        </g>
      </g>
    </g>
    <g id="Character_2" transform="translate(-664.613 52.864)">
      <g id="Group_3490" data-name="Group 3490" transform="translate(0)">
        <g id="Group_3470" data-name="Group 3470" transform="translate(15.168 31.87)">
          <path id="Path_9312" data-name="Path 9312" d="M-552.936,153.043c-.548.392-1.108.76-1.681,1.114a26.5,26.5,0,0,1-4.333,2.1c-.355.137-.716.261-1.077.386-.816.268-1.656.5-2.5.685a.023.023,0,0,0-.019.006c-.747.162-1.507.3-2.279.4-1.015-1.513-1.843-2.827-2.422-3.841-.386-.672-.9-1.612-1.413-2.671-1.6-3.244-3.287-7.608-1.725-8.8a.756.756,0,0,1,.087-.062c.037-.025.081-.044.125-.068.025-.012.05-.025.081-.037a1.433,1.433,0,0,1,.454-.118,2.568,2.568,0,0,1,.66-.006,9.63,9.63,0,0,1,3.231,1.133v.006c.293.143.591.305.915.486.037.019.081.044.125.068C-562.05,145.329-557.5,149.115-552.936,153.043Z" transform="translate(571.369 -141.996)" fill="#ffc4c0"/>
          <g id="Group_3469" data-name="Group 3469">
            <path id="Path_9313" data-name="Path 9313" d="M-552.22,152.276c-.305.243-.616.473-.934.7-.548.392-1.108.76-1.681,1.114a26.5,26.5,0,0,1-4.333,2.1c-.355.137-.716.261-1.077.386-.816.268-1.656.5-2.5.685a.023.023,0,0,0-.019.006c-.747.162-1.507.3-2.279.4l-.461.056c-1.625-2.553-2.995-4.856-3.947-6.655v-.006c-.056-.106-.112-.205-.162-.305q-.5-.981-.878-1.849-.28-.654-.486-1.251-.131-.392-.243-.766c-.062-.218-.112-.423-.162-.623s-.081-.4-.112-.6a5.478,5.478,0,0,1-.075-1.395,3.049,3.049,0,0,1,.218-.984,2.151,2.151,0,0,1,.218-.411c.044-.062.087-.118.131-.174a1.9,1.9,0,0,1,.156-.162,1.238,1.238,0,0,1,.168-.137.519.519,0,0,1,.075-.05.756.756,0,0,1,.087-.062c.037-.025.081-.044.125-.068.025-.012.05-.025.081-.037.006-.006.012-.006.019-.012a2.505,2.505,0,0,1,.4-.143,5.767,5.767,0,0,1,3.213.361.006.006,0,0,0,.006.006,14.4,14.4,0,0,1,1.725.716l.006.006a26.492,26.492,0,0,1,3.163,1.843C-558.95,146.853-555.545,149.537-552.22,152.276Z" transform="translate(571.587 -141.927)" fill="#d19655" opacity="0.69"/>
            <path id="Path_9314" data-name="Path 9314" d="M-560.134,148.8c-.149-.143-.3-.28-.461-.417h-.006c-.056-.05-.112-.093-.168-.137s-.081-.062-.125-.093a1.58,1.58,0,0,0-.212-.143,2.466,2.466,0,0,0-.212-.137h-.006l-.125-.068-.081-.037c.006,0,0-.006,0-.006-.087-.044-.174-.081-.261-.118a4.033,4.033,0,0,0,.212.436,6.327,6.327,0,0,0,.946,1.22c.137.131.274.255.417.38.112.093.224.181.342.268.006.006.012.012.019.012a.006.006,0,0,0,.006.006,4.257,4.257,0,0,0,.872.492A5.352,5.352,0,0,0-560.134,148.8Zm0,0c-.149-.143-.3-.28-.461-.417h-.006c-.056-.05-.112-.093-.168-.137s-.081-.062-.125-.093a1.58,1.58,0,0,0-.212-.143,2.466,2.466,0,0,0-.212-.137h-.006l-.125-.068-.081-.037c.006,0,0-.006,0-.006-.087-.044-.174-.081-.261-.118a4.033,4.033,0,0,0,.212.436,6.327,6.327,0,0,0,.946,1.22c.137.131.274.255.417.38.112.093.224.181.342.268.006.006.012.012.019.012a.006.006,0,0,0,.006.006,4.257,4.257,0,0,0,.872.492A5.352,5.352,0,0,0-560.134,148.8Z" transform="translate(567.89 -144.083)" fill="#fff"/>
            <path id="Path_9315" data-name="Path 9315" d="M-554.833,154.1a26.5,26.5,0,0,1-4.333,2.1c-.355.137-.716.261-1.077.386-.816.268-1.656.5-2.5.685a.023.023,0,0,0-.019.006c-.747.162-1.507.3-2.279.4l-.461.056c-1.625-2.553-2.995-4.856-3.947-6.655v-.006c-.056-.106-.112-.205-.162-.305q-.5-.981-.878-1.849-.28-.654-.486-1.251-.131-.392-.243-.766c-.062-.218-.112-.423-.162-.623s-.081-.4-.112-.6a6.114,6.114,0,0,1-.075-1.395,3.049,3.049,0,0,1,.218-.984,2.15,2.15,0,0,1,.218-.411c.044-.062.087-.118.131-.174a1.9,1.9,0,0,1,.156-.162,1.238,1.238,0,0,1,.168-.137.519.519,0,0,1,.075-.05.755.755,0,0,1,.087-.062c.037-.025.081-.044.125-.068.025-.012.05-.025.081-.037.006-.006.012-.006.019-.012a2.573,2.573,0,0,1,.4-.137,2.951,2.951,0,0,1,.554-.087l.137.112,2.2,1.855a.022.022,0,0,0,.012.006l1.787,1.494.853.716Z" transform="translate(571.585 -141.939)" fill="#bb8345" opacity="0.73"/>
          </g>
        </g>
        <g id="Group_3471" data-name="Group 3471" transform="translate(2.023 30.941)">
          <path id="Path_9316" data-name="Path 9316" d="M-568.214,156.009c-.816.268-1.656.5-2.5.685a.023.023,0,0,0-.019.006c-.747.162-1.507.3-2.279.4l-.461.056a26.52,26.52,0,0,1-3,.168,26.438,26.438,0,0,1-8.548-1.413l-.068-.019a.261.261,0,0,0-.062-.025c-.1-.037-.2-.068-.3-.106a26.533,26.533,0,0,1-7.247-4c.741-1.3,1.426-2.447,2.067-3.449.461-.722.89-1.37,1.3-1.949,0-.012.006-.012.006-.012l.006-.006c2.173-3.1,3.673-4.371,4.844-4.987.075-.037.149-.075.218-.106a1.843,1.843,0,0,1,.255-.118c.156-.068.305-.118.448-.168a12.971,12.971,0,0,1,4.937-.479,7.458,7.458,0,0,1,3.966,1.339.006.006,0,0,0,.006.006,3.314,3.314,0,0,1,.71.8v.006q.327.514.635,1.065c.075.131.149.261.224.4.261.473.517.959.766,1.469a.315.315,0,0,1,.044.093h.006c.125.255.249.511.374.778s.249.523.367.8a.006.006,0,0,0,.006.006,82.657,82.657,0,0,1,3.231,8.554C-568.257,155.865-568.239,155.934-568.214,156.009Z" transform="translate(592.7 -140.434)" fill="#fd9f00"/>
          <path id="Path_9317" data-name="Path 9317" d="M-576.266,157.639a5.33,5.33,0,0,0-1.986.349,5.208,5.208,0,0,0,1.986.349,5.32,5.32,0,0,0,1.992-.349A5.319,5.319,0,0,0-576.266,157.639Zm-11.306-9.065c-.093.044-.181.1-.268.149a2.242,2.242,0,0,0-.255.168.517.517,0,0,0-.112.081l-.131.093-.006.006s-.006,0-.006.012a.086.086,0,0,0-.025.019c-.2.156-.38.324-.56.492a5.477,5.477,0,0,0-1.164,1.656,3.729,3.729,0,0,0,.448-.218,5.983,5.983,0,0,0,1.208-.94,5.282,5.282,0,0,0,1.158-1.656C-587.385,148.48-587.479,148.524-587.572,148.574Zm16.667.585c-.125-.261-.249-.523-.38-.778-.056-.05-.112-.093-.168-.137s-.081-.062-.125-.093a1.58,1.58,0,0,0-.212-.143,2.454,2.454,0,0,0-.212-.137h-.006l-.125-.068-.081-.044c-.087-.044-.174-.081-.261-.118a4.045,4.045,0,0,0,.212.436,6.326,6.326,0,0,0,.946,1.22c.137.131.274.255.417.38.112.093.224.181.342.268.006.006.012.012.019.012C-570.657,149.682-570.781,149.421-570.906,149.159Zm0,0c-.125-.261-.249-.523-.38-.778-.056-.05-.112-.093-.168-.137s-.081-.062-.125-.093a1.58,1.58,0,0,0-.212-.143,2.454,2.454,0,0,0-.212-.137h-.006l-.125-.068-.081-.044c-.087-.044-.174-.081-.261-.118a4.045,4.045,0,0,0,.212.436,6.326,6.326,0,0,0,.946,1.22c.137.131.274.255.417.38.112.093.224.181.342.268.006.006.012.012.019.012C-570.657,149.682-570.781,149.421-570.906,149.159Z" transform="translate(591.719 -143.154)" fill="#fff"/>
        </g>
        <g id="Group_3476" data-name="Group 3476" transform="translate(0 31.637)">
          <g id="Group_3475" data-name="Group 3475">
            <g id="Group_3472" data-name="Group 3472" transform="translate(0.504 0.216)">
              <path id="Path_9318" data-name="Path 9318" d="M-583.51,146.314a30.546,30.546,0,0,1-1.283,5.4c-.535,1.669-1.065,3.194-1.581,4.595a26.533,26.533,0,0,1-7.247-4c-.523-.4-1.033-.834-1.519-1.276.884-1.177,1.774-2.316,2.658-3.406,2.939-3.617,5.454-5.578,7.085-5.722.062-.006.125-.012.187-.012C-583.821,141.9-583.149,143.332-583.51,146.314Z" transform="translate(595.14 -141.9)" fill="#b87b4c"/>
            </g>
            <g id="Group_3474" data-name="Group 3474">
              <path id="Path_9319" data-name="Path 9319" d="M-583.467,146.706a26.526,26.526,0,0,1-.6,3.337,41.746,41.746,0,0,1-1.594,4.651v.006c-.212.523-.436,1.065-.66,1.612a.262.262,0,0,0-.062-.025c-.1-.037-.2-.068-.3-.106a26.532,26.532,0,0,1-7.247-4c-.523-.4-1.033-.834-1.519-1.276q-.262-.233-.5-.467a45.293,45.293,0,0,1,5.354-5.871c2.4-2.117,4.041-2.963,5.143-3.013a1.348,1.348,0,0,1,.224,0C-583.33,141.663-583.212,144.371-583.467,146.706Z" transform="translate(595.95 -141.553)" fill="#b87b4c"/>
              <path id="Path_9320" data-name="Path 9320" d="M-587.572,149.057c-.093.044-.181.1-.268.149a2.253,2.253,0,0,0-.255.168.517.517,0,0,0-.112.081c-.05.037-.1.075-.143.112a.086.086,0,0,0-.025.019c-.2.156-.38.324-.56.492a5.478,5.478,0,0,0-1.164,1.656,3.729,3.729,0,0,0,.448-.218,5.983,5.983,0,0,0,1.208-.94,5.281,5.281,0,0,0,1.158-1.656C-587.385,148.964-587.479,149.007-587.572,149.057Z" transform="translate(593.742 -144.333)" fill="#b87b4c"/>
              <g id="Group_3473" data-name="Group 3473" transform="translate(9.569 13.125)">
                <path id="Path_9321" data-name="Path 9321" d="M-579.858,162.65v.019c-.193.542-.392,1.083-.591,1.619l-.068-.019a.26.26,0,0,0-.062-.025c.23-.529.461-1.058.679-1.594A.023.023,0,0,1-579.858,162.65Z" transform="translate(580.58 -162.634)" fill="#b87b4c"/>
              </g>
            </g>
          </g>
        </g>
        <g id="Group_3489" data-name="Group 3489" transform="translate(7.595)">
          <g id="Group_3478" data-name="Group 3478" transform="translate(2.71 21.494)">
            <g id="Group_3477" data-name="Group 3477">
              <path id="Path_9322" data-name="Path 9322" d="M-571.623,144.865c-2.808.106-6.606-4.906-7.77-8.585-.081-.255.747-2.584,1.612-5.466.517-1.749,1.052-3.711,1.413-5.535.075-.374,10.9,5.037,10.9,5.037a29.72,29.72,0,0,0-2.49,6.792,4.116,4.116,0,0,0-.068.766.877.877,0,0,1-.006.125C-568.081,139.461-568.909,144.759-571.623,144.865Z" transform="translate(579.399 -125.26)" fill="#ffc4c0"/>
            </g>
            <path id="Path_9323" data-name="Path 9323" d="M-573.414,125.59c-.075,3.188.374,11.026,6.45,12.365a7.2,7.2,0,0,0,1.183.168,1.128,1.128,0,0,0,.013-.131,4.007,4.007,0,0,1,.068-.76,29.588,29.588,0,0,1,2.49-6.792S-571.017,126.53-573.414,125.59Z" transform="translate(577.143 -125.385)" fill="#263238"/>
          </g>
          <g id="Group_3488" data-name="Group 3488">
            <g id="Group_3479" data-name="Group 3479" transform="translate(3.497 2.597)">
              <path id="Path_9324" data-name="Path 9324" d="M-577.833,101.813c-1.177,4.165,1.264,16.063,4.258,18.665,4.346,3.773,11.337,3.991,14.506-1.2,3.076-5.037-.374-20.489-3.711-22.843C-567.691,92.973-576.1,95.662-577.833,101.813Z" transform="translate(578.135 -94.907)" fill="#ffc4c0"/>
            </g>
            <g id="Group_3484" data-name="Group 3484" transform="translate(11.231 12.296)">
              <g id="Group_3480" data-name="Group 3480" transform="translate(1.311 4.053)">
                <path id="Path_9325" data-name="Path 9325" d="M-561.152,118.076c-.012-.031-.056.05-.044.087.218.791.33,1.731-.33,2.167-.019.012-.006.056.019.044C-560.66,120.037-560.822,118.786-561.152,118.076Z" transform="translate(562.825 -117.401)" fill="#263238"/>
                <path id="Path_9326" data-name="Path 9326" d="M-562.843,117c-1.3.212-.791,2.8.417,2.609C-561.237,119.427-561.753,116.831-562.843,117Z" transform="translate(563.607 -116.997)" fill="#263238"/>
              </g>
              <g id="Group_3481" data-name="Group 3481" transform="translate(7.585 2.789)">
                <path id="Path_9327" data-name="Path 9327" d="M-553.53,116.584c0-.031.068.025.075.056.137.809.423,1.712,1.2,1.83.025.006.031.044,0,.044C-553.163,118.571-553.53,117.369-553.53,116.584Z" transform="translate(553.53 -115.573)" fill="#263238"/>
                <path id="Path_9328" data-name="Path 9328" d="M-552.976,115c1.27-.355,1.886,2.216.71,2.54S-554.047,115.292-552.976,115Z" transform="translate(553.53 -114.966)" fill="#263238"/>
              </g>
              <path id="Path_9329" data-name="Path 9329" d="M-564.852,113.71a9.912,9.912,0,0,0,.934-.548,1.757,1.757,0,0,0,.847-.741.556.556,0,0,0-.218-.647,1.389,1.389,0,0,0-1.4.125,2.031,2.031,0,0,0-.984,1.09A.6.6,0,0,0-564.852,113.71Z" transform="translate(565.712 -110.919)" fill="#263238"/>
              <path id="Path_9330" data-name="Path 9330" d="M-552.562,112.441a8.989,8.989,0,0,1-1.083.019,1.7,1.7,0,0,1-1.108-.193.556.556,0,0,1-.149-.666,1.39,1.39,0,0,1,1.258-.623,2.039,2.039,0,0,1,1.407.417A.6.6,0,0,1-552.562,112.441Z" transform="translate(561.653 -110.671)" fill="#263238"/>
              <path id="Path_9331" data-name="Path 9331" d="M-560.17,129.358c.162.218.318.511.6.579a2.113,2.113,0,0,0,.9-.068.032.032,0,0,1,.031.05,1.094,1.094,0,0,1-1.1.28.872.872,0,0,1-.523-.816C-560.263,129.334-560.195,129.327-560.17,129.358Z" transform="translate(563.652 -117.602)" fill="#263238"/>
              <g id="Group_3483" data-name="Group 3483" transform="translate(4.139)">
                <g id="Group_3482" data-name="Group 3482">
                  <path id="Path_9332" data-name="Path 9332" d="M-559.036,119.9a2.765,2.765,0,0,0,2.067.853,3.6,3.6,0,0,0,.99-.149.871.871,0,0,0,.181-.056c.056-.019.106-.037.168-.062a.2.2,0,0,0,.125-.212v-.006a.41.41,0,0,0-.025-.081v-.006l-.012-.068c-.106-.623-.355-1.55-.355-1.55.249.068,1.5.355,1.419.037a42.032,42.032,0,0,0-2.7-8.062.076.076,0,0,0-.143.05c.56,2.565,1.575,5.012,2.179,7.583a4.893,4.893,0,0,0-1.37-.137c-.081.044.511,1.787.535,2.067v.031a3.863,3.863,0,0,1-3-.318C-559.043,119.778-559.1,119.846-559.036,119.9Z" transform="translate(559.064 -110.487)" fill="#263238"/>
                </g>
              </g>
            </g>
            <g id="Group_3485" data-name="Group 3485">
              <path id="Path_9333" data-name="Path 9333" d="M-580.426,109.553c3.156.156,4.725-3.642,3.922-6.649,0,0,8.411.934,8.673-5.809A6.613,6.613,0,0,0-562.315,100l.99,2.465c.853-.268,1.718-2.733-.423-4.607a8.041,8.041,0,0,0-2.733-5.317,4.592,4.592,0,0,0-4.95-.585,6.95,6.95,0,0,0-5.087-1.139,5.922,5.922,0,0,0-4.3,3.306s-4.14.884-4.781,3.848a6.115,6.115,0,0,0,.921,4.912s-1.021,1.183-.436,3.692C-582.73,108.183-581.372,109.509-580.426,109.553Z" transform="translate(583.752 -90.736)" fill="#263238"/>
              <path id="Path_9334" data-name="Path 9334" d="M-563.633,100a8.09,8.09,0,0,1,.056,1.644,6.881,6.881,0,0,1-.268,1.6,4.25,4.25,0,0,1-1.893,2.459,6.838,6.838,0,0,1-3.076.84c-.542-.006-1.09.031-1.637-.006s-1.1-.1-1.65-.131c.542.118,1.083.212,1.631.324.548.075,1.108.075,1.669.118a6.8,6.8,0,0,0,3.269-.809,4.439,4.439,0,0,0,1.974-2.708A6.77,6.77,0,0,0-563.633,100Z" transform="translate(579.354 -94.232)" fill="#263238"/>
              <path id="Path_9335" data-name="Path 9335" d="M-554.032,103.934a8.725,8.725,0,0,1-2.571-1.314,5.1,5.1,0,0,1-1-1,6.934,6.934,0,0,1-.735-1.258,3.5,3.5,0,0,0,.486,1.426,3.88,3.88,0,0,0,1.015,1.146,4.913,4.913,0,0,0,1.339.728A4.687,4.687,0,0,0-554.032,103.934Z" transform="translate(574.161 -94.368)" fill="#263238"/>
            </g>
            <g id="Group_3486" data-name="Group 3486" transform="translate(1.383 16.29)">
              <path id="Path_9336" data-name="Path 9336" d="M-576.356,119.8s-2.858-3.748-4.57-2.714.548,6.55,2.64,7.228a2.1,2.1,0,0,0,2.758-1.239Z" transform="translate(581.53 -116.9)" fill="#ffc4c0"/>
              <path id="Path_9337" data-name="Path 9337" d="M-579.476,119.71a.029.029,0,0,0-.006.056,5.287,5.287,0,0,1,2.87,3.194,1.156,1.156,0,0,0-1.743-.243.044.044,0,0,0,.044.075,1.28,1.28,0,0,1,1.432.392,6.205,6.205,0,0,1,.722,1.114c.075.125.305.05.249-.1-.006-.012-.006-.025-.012-.031C-575.959,122.325-577.5,119.81-579.476,119.71Z" transform="translate(580.765 -117.961)" fill="#263238"/>
            </g>
            <g id="Group_3487" data-name="Group 3487" transform="translate(9.962 17.347)" opacity="0.2">
              <path id="Path_9338" data-name="Path 9338" d="M-567.37,123.219a.189.189,0,0,1-.2.181.189.189,0,0,1-.181-.2.189.189,0,0,1,.2-.181A.193.193,0,0,1-567.37,123.219Z" transform="translate(567.751 -120.268)"/>
              <path id="Path_9339" data-name="Path 9339" d="M-560.94,123.2a.189.189,0,0,1-.2.181.189.189,0,0,1-.181-.2.189.189,0,0,1,.2-.181A.189.189,0,0,1-560.94,123.2Z" transform="translate(565.324 -120.26)"/>
              <path id="Path_9340" data-name="Path 9340" d="M-563.3,125.359a.189.189,0,0,1-.2.181.189.189,0,0,1-.18-.2.189.189,0,0,1,.2-.181A.185.185,0,0,1-563.3,125.359Z" transform="translate(566.214 -121.075)"/>
              <path id="Path_9341" data-name="Path 9341" d="M-567.09,120.7a.189.189,0,0,1-.2.181.189.189,0,0,1-.181-.2.189.189,0,0,1,.2-.181A.189.189,0,0,1-567.09,120.7Z" transform="translate(567.645 -119.317)"/>
              <path id="Path_9342" data-name="Path 9342" d="M-564.13,122.559a.189.189,0,0,1-.2.181.189.189,0,0,1-.18-.2.189.189,0,0,1,.2-.181A.193.193,0,0,1-564.13,122.559Z" transform="translate(566.528 -120.019)"/>
              <path id="Path_9343" data-name="Path 9343" d="M-548.15,118.8a.189.189,0,0,1-.2.181.189.189,0,0,1-.181-.2.189.189,0,0,1,.2-.181A.193.193,0,0,1-548.15,118.8Z" transform="translate(560.497 -118.599)"/>
              <path id="Path_9344" data-name="Path 9344" d="M-550.62,120.439a.189.189,0,0,1-.2.181.189.189,0,0,1-.181-.2.189.189,0,0,1,.2-.181A.189.189,0,0,1-550.62,120.439Z" transform="translate(561.429 -119.218)"/>
              <path id="Path_9345" data-name="Path 9345" d="M-550.1,122.489a.189.189,0,0,1-.2.181.189.189,0,0,1-.181-.2.189.189,0,0,1,.2-.181A.189.189,0,0,1-550.1,122.489Z" transform="translate(561.233 -119.992)"/>
              <path id="Path_9346" data-name="Path 9346" d="M-547.95,121.169a.189.189,0,0,1-.2.181.189.189,0,0,1-.181-.2.189.189,0,0,1,.2-.181A.189.189,0,0,1-547.95,121.169Z" transform="translate(560.421 -119.494)"/>
            </g>
          </g>
        </g>
      </g>
    </g>
    <g id="Character_1" transform="translate(-681.252 124.415)">
      <g id="Group_3540" data-name="Group 3540" transform="translate(0)">
        <g id="Group_3507" data-name="Group 3507" transform="translate(0 28.002)">
          <g id="Group_3498" data-name="Group 3498">
            <g id="Group_3495" data-name="Group 3495" transform="translate(0 40.07)">
              <path id="Path_9347" data-name="Path 9347" d="M-621.551,362.883c1.737.629,53.119,1.644,55.055.461.224-.118,1.065-17.121,1.065-17.121a20.31,20.31,0,0,1,2.1-4.159c3.667-6.394,10.827-17.843,10.827-17.843L-583,315l-12.526,25.1-3.194,6.4s-7,2.739-13.118,5.466c-.006.006-.019.006-.019.019a72.774,72.774,0,0,0-7.8,3.785C-621.62,357.28-623.288,362.273-621.551,362.883Z" transform="translate(622.526 -315)" fill="#ffc4c0"/>
              <path id="Path_9348" data-name="Path 9348" d="M-621.551,378.093c1.737.629,53.119,1.644,55.055.461.224-.118,1.065-17.121,1.065-17.121a20.311,20.311,0,0,1,2.1-4.159l-32.2-1.974-3.194,6.4s-7,2.739-13.118,5.466c-.006.006-.019.006-.019.019a72.773,72.773,0,0,0-7.8,3.785C-621.62,372.49-623.288,377.483-621.551,378.093Z" transform="translate(622.526 -330.21)" fill="#fff"/>
              <g id="Group_3494" data-name="Group 3494" transform="translate(0 21.66)">
                <g id="Group_3491" data-name="Group 3491" transform="translate(0 9.04)">
                  <path id="Path_9349" data-name="Path 9349" d="M-621.918,381.686c1.787.635,53.243,1.513,55.223.311.753-.454,1.662-8.374,1.108-17.158l-33.171-.529S-617.971,372.8-620,374.359-623.705,381.051-621.918,381.686Z" transform="translate(622.675 -364.31)" fill="#fd9f00"/>
                  <path id="Path_9350" data-name="Path 9350" d="M-543.135,382.3c-.722.436-8.038.6-17.115.6l17.414-17.775.006-.006.809.019C-541.473,373.93-542.382,381.849-543.135,382.3Z" transform="translate(599.115 -364.616)" opacity="0.1"/>
                </g>
                <g id="Group_3493" data-name="Group 3493" transform="translate(1.393)">
                  <g id="Group_3492" data-name="Group 3492" transform="translate(0 9.856)">
                    <path id="Path_9351" data-name="Path 9351" d="M-620.3,388.927c8.629-.062,43.438.492,51.973,1.083.068.006.068.05,0,.056-8.548.249-43.357-.591-51.973-1C-620.483,389.064-620.483,388.933-620.3,388.927Z" transform="translate(620.438 -374.415)" fill="#263238"/>
                    <path id="Path_9352" data-name="Path 9352" d="M-613.052,377.559a6.92,6.92,0,0,1,5.124,2.2,6.7,6.7,0,0,1,1.849,4.638c0,.05-.1.05-.106,0a8.017,8.017,0,0,0-6.873-6.724A.057.057,0,0,1-613.052,377.559Z" transform="translate(617.67 -370.125)" fill="#263238"/>
                    <path id="Path_9353" data-name="Path 9353" d="M-588.763,365.62c3.455.012,7.434,1.3,9.532,4.159.081.112-.075.224-.181.168a47.559,47.559,0,0,0-9.42-3.9A.217.217,0,0,1-588.763,365.62Z" transform="translate(608.566 -365.62)" fill="#263238"/>
                    <path id="Path_9354" data-name="Path 9354" d="M-593.073,367.21c3.455.012,7.434,1.3,9.532,4.159.081.112-.075.224-.181.168a47.557,47.557,0,0,0-9.42-3.9A.217.217,0,0,1-593.073,367.21Z" transform="translate(610.192 -366.22)" fill="#263238"/>
                    <path id="Path_9355" data-name="Path 9355" d="M-597.383,368.81c3.455.012,7.434,1.3,9.532,4.159.081.112-.075.224-.181.168a47.559,47.559,0,0,0-9.42-3.9A.217.217,0,0,1-597.383,368.81Z" transform="translate(611.819 -366.824)" fill="#263238"/>
                    <path id="Path_9356" data-name="Path 9356" d="M-601.693,370.41c3.455.012,7.434,1.3,9.532,4.159.081.112-.075.224-.181.168a47.557,47.557,0,0,0-9.42-3.9A.217.217,0,0,1-601.693,370.41Z" transform="translate(613.446 -367.428)" fill="#263238"/>
                    <path id="Path_9357" data-name="Path 9357" d="M-541.84,377.459c3.872.075,3.76,6.1-.118,6.02S-545.718,377.379-541.84,377.459Z" transform="translate(591.894 -370.088)" fill="#263238"/>
                  </g>
                  <path id="Path_9358" data-name="Path 9358" d="M-594.767,355.437c1.824,2.434,4.632,4,7.06,5.74a.424.424,0,0,0,.629-.268.1.1,0,0,0,.112-.1,18.144,18.144,0,0,0-2.988-8.884c-1.052-1.525-3.231-2.976-5-1.556C-596.629,351.714-595.826,354.011-594.767,355.437Zm-.106-2.864c.4-3.748,3.748-.809,4.476.349a19.512,19.512,0,0,1,1.22,2.347,53.956,53.956,0,0,1,1.855,5.149c-1.139-.928-2.353-1.749-3.524-2.64C-592.24,356.726-595.1,354.64-594.873,352.573Z" transform="translate(611.183 -349.79)" fill="#263238"/>
                  <path id="Path_9359" data-name="Path 9359" d="M-569.727,362.741c-.23-2.26-2.8-2.789-4.62-2.472a18.151,18.151,0,0,0-8.424,4.1.087.087,0,0,0,.006.143.425.425,0,0,0,.249.635c2.945.511,6.033,1.419,9.046,1.009C-571.707,365.922-569.509,364.876-569.727,362.741Zm-8.162,2.266c-1.457-.218-2.889-.5-4.352-.66a53.584,53.584,0,0,1,4.974-2.285,19.846,19.846,0,0,1,2.534-.778c1.332-.286,5.778.025,3.387,2.951C-572.666,365.841-576.158,365.268-577.889,365.007Z" transform="translate(606.24 -353.713)" fill="#263238"/>
                </g>
              </g>
            </g>
            <g id="Group_3497" data-name="Group 3497" transform="translate(25.336)">
              <path id="Path_9360" data-name="Path 9360" d="M-545.8,317.443l-36.178-5.485s17.389-34.659,28.159-53.474c5.983-10.459,22.363-10.97,30.326,1.563,10.64,16.741,18.9,32.424,23.627,41.122l8.206.7-1.768,13.41-27.275,6.108c-10.447,1.251-17.781-17.351-17.949-17.034C-539.98,306.8-545.8,317.443-545.8,317.443Z" transform="translate(581.98 -250.639)" fill="#263238"/>
              <g id="Group_3496" data-name="Group 3496" transform="translate(3.433 19.244)">
                <path id="Path_9361" data-name="Path 9361" d="M-512.715,317.228c1.027-2.1,1.83-4.346,2.746-6.506.884-2.092,1.774-4.178,2.652-6.269,1.774-4.227,3.611-8.436,5.336-12.682.965-2.384,1.855-4.8,2.758-7.21a.049.049,0,0,1,.093.031q-1.046,3.418-2.185,6.8c.205-.392.4-.778.616-1.158.579-1.04,1.183-2.067,1.781-3.088.025-.037.081,0,.062.037-.554,1.034-1.108,2.061-1.687,3.076-.286.5-.6,1.009-.9,1.513a160.343,160.343,0,0,1-7.5,18.541c-1.152,2.36-2.5,4.62-3.648,6.979C-512.64,317.371-512.752,317.3-512.715,317.228Z" transform="translate(552.407 -282.674)" fill="#37474f"/>
                <path id="Path_9362" data-name="Path 9362" d="M-525.168,322.677c1.743-2.69,5.9-10.839,7.384-13.653,3.007-5.7,5.765-11.512,8.368-17.4,1.469-3.331,2.845-6.687,4.209-10.061.006-.025.044-.012.037.012a190.539,190.539,0,0,1-7.141,17.874c-2.652,5.846-11.213,21.6-12.751,23.3C-525.118,322.808-525.218,322.752-525.168,322.677Z" transform="translate(557.11 -281.548)" fill="#37474f"/>
                <path id="Path_9363" data-name="Path 9363" d="M-489.113,288.785c3.119,5.566,6.3,11.094,9.432,16.654q2.372,4.212,4.732,8.436c.735,1.326,1.451,2.671,2.216,3.978a7.478,7.478,0,0,0,2.858,2.964,21.908,21.908,0,0,0,4.539,1.581c1.762.517,3.505,1.071,5.273,1.556a.065.065,0,0,1-.037.125c-1.575-.423-3.169-.784-4.75-1.177a41.216,41.216,0,0,1-4.314-1.164,7.007,7.007,0,0,1-3.2-2.21,26.091,26.091,0,0,1-2.241-3.742q-4.688-8.573-9.3-17.2c-1.749-3.269-3.48-6.543-5.248-9.8C-489.15,288.785-489.119,288.766-489.113,288.785Z" transform="translate(543.511 -284.276)" fill="#37474f"/>
                <path id="Path_9364" data-name="Path 9364" d="M-542.9,346.653c-2.167-.392-4.389-.585-6.574-.865s-4.383-.567-6.574-.853c-4.371-.573-19.257-2.939-20.377-3.312-.068-.025-.044-.137.025-.143,1.065-.031,10.814,1.264,13,1.588,4.371.641,8.716,1.419,13.074,2.154,1.245.212,2.484.448,3.723.666s2.478.486,3.729.648A.06.06,0,0,1-542.9,346.653Z" transform="translate(576.465 -304.167)" fill="#37474f"/>
              </g>
            </g>
          </g>
          <g id="Group_3506" data-name="Group 3506" transform="translate(39.092 49.265)">
            <g id="Group_3505" data-name="Group 3505">
              <g id="Group_3502" data-name="Group 3502" transform="translate(0 4.414)">
                <path id="Path_9365" data-name="Path 9365" d="M-559.367,378.878c.654-1.725,33.42-41.321,35.574-42.018.249-.093,13.672,10.366,13.672,10.366.535.784,27.107-3.63,27.107-3.63l-1.121,31.777-47.92-3.107s-6.643,3.53-12.707,6.369c-.012,0-.012.006-.019,0a72.036,72.036,0,0,1-7.957,3.443C-555.158,382.588-560.027,380.59-559.367,378.878Z" transform="translate(559.712 -336.859)" fill="#ffc4c0"/>
                <path id="Path_9366" data-name="Path 9366" d="M-552.736,382.078a70.264,70.264,0,0,0,7.957-3.443c.006.006.012,0,.025,0,6.058-2.845,12.7-6.375,12.7-6.375l10.665.691,17.881-26.242c-3.7.492-6.45.76-6.618.511,0,0-13.417-10.459-13.666-10.36-2.148.7-34.914,40.287-35.574,42.012S-555.165,382.595-552.736,382.078Z" transform="translate(559.712 -336.859)" fill="#fff"/>
                <g id="Group_3501" data-name="Group 3501" transform="translate(0 0.001)">
                  <path id="Path_9367" data-name="Path 9367" d="M-559.819,378.922c.685-1.768,33.595-41.333,35.8-42.049.834-.274,7.427,4.2,13.728,10.354l-21.243,25.482s-18.97,9.015-21.479,9.544S-560.51,380.684-559.819,378.922Z" transform="translate(559.884 -336.861)" fill="#fd9f00"/>
                  <g id="Group_3500" data-name="Group 3500" transform="translate(1.959 2.658)">
                    <g id="Group_3499" data-name="Group 3499">
                      <path id="Path_9368" data-name="Path 9368" d="M-556.578,381.28c5.678-6.5,27.973-33.24,33.09-40.088.044-.056.006-.087-.044-.037-5.771,6.319-27.842,33.24-33.159,40.038C-556.8,381.33-556.7,381.417-556.578,381.28Z" transform="translate(556.738 -341.13)" fill="#263238"/>
                      <path id="Path_9369" data-name="Path 9369" d="M-543.6,401.669a6.941,6.941,0,0,0,1.681-5.317,6.7,6.7,0,0,0-2.31-4.427c-.037-.031-.1.044-.068.081a8.011,8.011,0,0,1,.61,9.594C-543.722,401.656-543.641,401.725-543.6,401.669Z" transform="translate(552.045 -360.298)" fill="#263238"/>
                      <path id="Path_9370" data-name="Path 9370" d="M-518.442,390.826c2.247-2.621,3.866-6.481,3.069-9.936-.031-.137-.218-.087-.243.025A47.983,47.983,0,0,1-518.8,390.6.215.215,0,0,0-518.442,390.826Z" transform="translate(542.429 -356.105)" fill="#263238"/>
                      <path id="Path_9371" data-name="Path 9371" d="M-522.462,393.048c2.248-2.621,3.866-6.481,3.069-9.936-.031-.131-.218-.087-.243.025a47.986,47.986,0,0,1-3.188,9.687A.215.215,0,0,0-522.462,393.048Z" transform="translate(543.946 -356.944)" fill="#263238"/>
                      <path id="Path_9372" data-name="Path 9372" d="M-526.482,395.278c2.247-2.621,3.866-6.481,3.069-9.936-.031-.131-.218-.087-.243.025a47.982,47.982,0,0,1-3.188,9.687A.215.215,0,0,0-526.482,395.278Z" transform="translate(545.464 -357.786)" fill="#263238"/>
                      <path id="Path_9373" data-name="Path 9373" d="M-530.5,397.5c2.247-2.621,3.866-6.481,3.069-9.936-.031-.131-.218-.087-.243.025a47.982,47.982,0,0,1-3.188,9.687A.215.215,0,0,0-530.5,397.5Z" transform="translate(546.981 -358.623)" fill="#263238"/>
                      <path id="Path_9374" data-name="Path 9374" d="M-498.709,349.367c2.465-2.988-2.167-6.83-4.638-3.835S-501.18,352.362-498.709,349.367Z" transform="translate(536.853 -342.382)" fill="#263238"/>
                    </g>
                    <path id="Path_9375" data-name="Path 9375" d="M-513.081,403.156c2.229-.417,2.553-3.013,2.086-4.806a18.089,18.089,0,0,0-4.781-8.056.09.09,0,0,0-.143.019.42.42,0,0,0-.61.3c-.268,2.976-.915,6.126-.261,9.1C-516.412,401.438-515.191,403.548-513.081,403.156Zm-2.932-7.95c.093-1.469.261-2.92.3-4.389.928,1.575,1.918,3.1,2.69,4.769a19.47,19.47,0,0,1,.984,2.459c.4,1.307.448,5.759-2.658,3.617C-516.412,400.479-516.125,396.955-516.013,395.206Z" transform="translate(541.769 -359.675)" fill="#263238"/>
                    <path id="Path_9376" data-name="Path 9376" d="M-510.916,377.546c-2.279,2.017-3.6,4.95-5.136,7.515a.424.424,0,0,0,.318.6c0,.056.031.112.106.1a18.11,18.11,0,0,0,8.6-3.7c1.432-1.177,2.7-3.462,1.139-5.111C-507.355,375.38-509.584,376.37-510.916,377.546Zm2.845-.349c3.773.1,1.114,3.667.025,4.489a19.4,19.4,0,0,1-2.241,1.413,52.013,52.013,0,0,1-4.981,2.272c.834-1.214,1.55-2.484,2.341-3.729C-511.993,380.161-510.151,377.142-508.071,377.2Z" transform="translate(541.403 -354.342)" fill="#263238"/>
                  </g>
                </g>
              </g>
              <g id="Group_3504" data-name="Group 3504" transform="translate(40.465)">
                <path id="Path_9377" data-name="Path 9377" d="M-474.1,332.9s41.091-5.516,54.538-1.893c18.758,5.055,20.906,27.587,6.462,36.16-18.3,10.864-81.8,4.813-81.8,4.813l17.725-29.872s26.6-4.956,50.442-3.032l-48.107,5.952Z" transform="translate(494.89 -329.77)" fill="#263238"/>
                <g id="Group_3503" data-name="Group 3503" transform="translate(9.099 7.695)">
                  <path id="Path_9378" data-name="Path 9378" d="M-468.406,348.772a.689.689,0,0,0,.044-.162l.037-.131c.025-.1.056-.205.087-.305.062-.212.143-.411.224-.616s.174-.4.268-.6a4.8,4.8,0,0,1,.342-.548c.012-.019.031-.019.05-.031a.109.109,0,0,0,.031-.025.093.093,0,0,1,.044-.019.3.3,0,0,1,.044-.019c2.92-.467,22.737-2.714,25.675-2.951,2.964-.243,5.939-.417,8.909-.56a161.441,161.441,0,0,1,17.787.068q.831.056,1.662.131c.118-.037.249-.056.367-.081.286-.062.573-.131.865-.174.542-.087,1.083-.149,1.625-.218,1.127-.137,2.26-.224,3.381-.4.068-.012.087.106.019.118-1.133.224-2.248.535-3.381.753l-.984.187c2.167.218,4.327.5,6.487.809.068.012.062.125-.006.118-2.939-.318-5.915-.473-8.866-.548s-5.871-.131-8.81-.075c-5.939.118-11.885.442-17.818.865-3.331.237-23.534,2.59-26.865,2.6-.012,0-.025-.006-.044-.006a2.127,2.127,0,0,1-.106.249c-.1.193-.2.386-.305.579s-.205.367-.324.542c-.056.087-.118.174-.174.255-.031.044-.056.087-.087.131a.667.667,0,0,0-.093.137C-468.338,348.909-468.45,348.847-468.406,348.772Z" transform="translate(475.799 -342.129)" fill="#37474f"/>
                  <path id="Path_9379" data-name="Path 9379" d="M-480.266,378.206c1.046-1.718,1.955-3.561,2.926-5.336l2.914-5.342c1.942-3.549,8.872-15.477,9.544-16.3.044-.05.125.012.1.075-.342.934-4.688,8.834-5.69,10.6-2,3.524-4.084,6.973-6.145,10.447-.591.99-1.2,1.974-1.793,2.957s-1.227,1.955-1.774,2.97C-480.222,378.324-480.3,378.262-480.266,378.206Z" transform="translate(480.275 -345.556)" fill="#37474f"/>
                  <path id="Path_9380" data-name="Path 9380" d="M-453.857,352.778c1.768-.386,3.567-.61,5.354-.9s3.574-.579,5.36-.865q5.36-.859,10.733-1.612c7.141-1,14.307-1.787,21.492-2.229,4.059-.249,8.119-.355,12.178-.5.087,0,.075.149-.012.149a201.839,201.839,0,0,0-21.647,1.625q-10.674,1.214-21.311,2.733c-2,.28-4,.573-6.008.865-2.03.3-4.072.685-6.114.878C-453.907,352.921-453.932,352.8-453.857,352.778Z" transform="translate(470.322 -343.843)" fill="#37474f"/>
                </g>
              </g>
            </g>
          </g>
        </g>
        <g id="Group_3539" data-name="Group 3539" transform="translate(49.695)">
          <g id="Group_3509" data-name="Group 3509" transform="translate(2.868 30.93)">
            <path id="Path_9381" data-name="Path 9381" d="M-485.7,266.944C-489.632,273.811-505.3,295-510.233,295.7c-5.13.735-24.044-.89-27.493-4.95-1.687-1.986,1.033-19.039,3.655-18.086s18.8,4.862,20.881,4.557,18.846-16.542,25.028-20.041C-477.5,251.137-483.574,263.246-485.7,266.944Z" transform="translate(538.248 -255.409)" fill="#ffc4c0"/>
            <g id="Group_3508" data-name="Group 3508" transform="translate(4.351)">
              <path id="Path_9382" data-name="Path 9382" d="M-527.269,273.134l-3.991,21.131s18.945,3.885,24.53,2.248,21.2-23.833,25.75-32.611.573-11.082-7.6-5.616-21.28,17.731-22.55,17.787S-527.269,273.134-527.269,273.134Z" transform="translate(531.26 -255.343)" fill="#bb8345"/>
              <path id="Path_9383" data-name="Path 9383" d="M-485.447,262.007a5.253,5.253,0,0,0-1.127,1.606,5.149,5.149,0,0,0,1.606-1.127,5.253,5.253,0,0,0,1.127-1.606A5.149,5.149,0,0,0-485.447,262.007ZM-526.32,294.2a5.237,5.237,0,0,0-1.93.336,5.12,5.12,0,0,0,1.93.342,5.162,5.162,0,0,0,1.93-.342A5.281,5.281,0,0,0-526.32,294.2Zm30.955-6.313a5.291,5.291,0,0,0-1.936.336,5.172,5.172,0,0,0,1.936.342c.081,0,.174-.006.255-.006.156-.205.33-.411.5-.623C-494.867,287.906-495.116,287.894-495.365,287.888Zm-13.485,5.062a5.133,5.133,0,0,0-.336,1.93,5.133,5.133,0,0,0,.336,1.93,5.268,5.268,0,0,0,.342-1.93A5.141,5.141,0,0,0-508.85,292.949Zm15.876-20.651a4.994,4.994,0,0,0-.336,1.93,5.133,5.133,0,0,0,.336,1.93,5.134,5.134,0,0,0,.336-1.93A4.993,4.993,0,0,0-492.974,272.3Zm7.527-10.291a5.253,5.253,0,0,0-1.127,1.606,5.149,5.149,0,0,0,1.606-1.127,5.253,5.253,0,0,0,1.127-1.606A5.149,5.149,0,0,0-485.447,262.007Zm-20.383,17.407a5.178,5.178,0,0,0-1.127,1.606,5.165,5.165,0,0,0,1.606-1.133,5.178,5.178,0,0,0,1.127-1.606A5.378,5.378,0,0,0-505.831,279.414Zm-19.126-3.953h-.006c-.056.05-.112.106-.174.162a5.177,5.177,0,0,0-1.127,1.606,5.135,5.135,0,0,0,1.606-1.133c.149-.162.3-.318.436-.492C-524.483,275.561-524.732,275.5-524.957,275.461Zm7.627,10.466a5.178,5.178,0,0,0-1.606-1.127,5.066,5.066,0,0,0,1.133,1.606,5.224,5.224,0,0,0,1.6,1.127A5.149,5.149,0,0,0-517.33,285.927Zm21.965,1.961a5.291,5.291,0,0,0-1.936.336,5.172,5.172,0,0,0,1.936.342c.081,0,.174-.006.255-.006.156-.205.33-.411.5-.623C-494.867,287.906-495.116,287.894-495.365,287.888Zm2.391-15.59a4.994,4.994,0,0,0-.336,1.93,5.133,5.133,0,0,0,.336,1.93,5.134,5.134,0,0,0,.336-1.93A4.993,4.993,0,0,0-492.974,272.3Z" transform="translate(530.124 -257.432)" fill="#9c3587"/>
              <path id="Path_9384" data-name="Path 9384" d="M-520.679,296.317c.324-1.675,1.563-8.374,1.743-10.055,0-.025-.037-.044-.05-.012-.486,1.575-1.905,8.15-2.235,9.824a93.411,93.411,0,0,0-1.65,10.08c-.006.062.087.093.106.031C-521.843,302.942-521.314,299.611-520.679,296.317Z" transform="translate(528.094 -267.001)" fill="#9c3587"/>
              <path id="Path_9385" data-name="Path 9385" d="M-479.219,263.9c-4.557,8.785-20.159,30.98-25.75,32.611-4.234,1.239-16.119-.685-21.641-1.693l47.117-39.459C-476.847,255.553-476.423,258.5-479.219,263.9Z" transform="translate(529.505 -255.349)" fill="#9c3587" opacity="0.1"/>
            </g>
          </g>
          <g id="Group_3510" data-name="Group 3510" transform="translate(40.942 30.023)">
            <path id="Path_9386" data-name="Path 9386" d="M-477.041,305.239l46.582,2.7c-.056-.953-7.346-27.668-12.582-37.841-6.718-13.043-9.7-15.035-11.692-15.7-2.553-.853-7.789-.847-9.333,1.612C-472.391,269.316-477.676,304.648-477.041,305.239Z" transform="translate(477.093 -253.886)" fill="#fd9f00"/>
            <path id="Path_9387" data-name="Path 9387" d="M-459.222,261.6c-.249.5-.492,1-.728,1.538a6.947,6.947,0,0,0,.76-.647,5.253,5.253,0,0,0,1.127-1.606A4.53,4.53,0,0,0-459.222,261.6Zm14.027,43.164a5.179,5.179,0,0,0-1.127,1.606,5.147,5.147,0,0,0,1.606-1.127,5.328,5.328,0,0,0,1.127-1.606A5.149,5.149,0,0,0-445.195,304.76ZM-459.222,261.6c-.249.5-.492,1-.728,1.538a6.947,6.947,0,0,0,.76-.647,5.253,5.253,0,0,0,1.127-1.606A4.53,4.53,0,0,0-459.222,261.6Zm27.363,22.762h-.006c-.112-.062-.237-.125-.361-.181a4.616,4.616,0,0,0,.7,1.133C-431.635,284.993-431.747,284.669-431.859,284.358Zm-10.235-21.579a7.453,7.453,0,0,0-.573-.511l-.006-.006a4.483,4.483,0,0,0-1.021-.61,5.147,5.147,0,0,0,1.127,1.606,5.76,5.76,0,0,0,1.164.9,3.263,3.263,0,0,0,.442.224A5.378,5.378,0,0,0-442.094,262.779Zm-12.62,21.778a5.18,5.18,0,0,0-1.606-1.127,5.164,5.164,0,0,0,1.133,1.606,5.178,5.178,0,0,0,1.606,1.127A5.575,5.575,0,0,0-454.714,284.557Zm11.692,6.45a5.141,5.141,0,0,0-1.93.342,5.26,5.26,0,0,0,1.93.336,5.237,5.237,0,0,0,1.93-.336A5.121,5.121,0,0,0-443.022,291.007Zm-11.362-20.427a5.12,5.12,0,0,0-1.93.342,5.238,5.238,0,0,0,1.93.336,5.154,5.154,0,0,0,1.93-.336A5.163,5.163,0,0,0-454.384,270.58Zm-5.043,27.823a5.119,5.119,0,0,0-.342,1.93,5.291,5.291,0,0,0,.342,1.93,5.154,5.154,0,0,0,.336-1.93A5.237,5.237,0,0,0-459.427,298.4Zm26.647-1.936a5.172,5.172,0,0,0-.342,1.936,5.162,5.162,0,0,0,.342,1.93,5.282,5.282,0,0,0,.336-1.93A5.291,5.291,0,0,0-432.78,296.467Zm-9.55-20.832a5.12,5.12,0,0,0-.342,1.93,5.163,5.163,0,0,0,.342,1.93,5.282,5.282,0,0,0,.336-1.93A5.112,5.112,0,0,0-442.331,275.635Z" transform="translate(470.623 -256.525)" fill="#fff"/>
          </g>
          <g id="Group_3519" data-name="Group 3519" transform="translate(31.646 30.701)">
            <g id="Group_3518" data-name="Group 3518">
              <g id="Group_3513" data-name="Group 3513" transform="translate(0 0.21)">
                <path id="Path_9388" data-name="Path 9388" d="M-440.839,260.877c11.773,14.475,24.629,38.507,18.335,43.158-5.753,4.246-25.644-1.146-38.027-6.761-2.36-1.071,8.542-21.846,10.926-20.452a70.443,70.443,0,0,0,7.813,4.028c.685.224-2.87-4.62-6.512-16.013C-452,253.263-447.569,252.6-440.839,260.877Z" transform="translate(480.264 -255.312)" fill="#ffc4c0"/>
                <g id="Group_3512" data-name="Group 3512" transform="translate(0 13.845)">
                  <path id="Path_9389" data-name="Path 9389" d="M-492.021,281.989c-.143,2.472,5.989,2.316,5.989,2.316a4.554,4.554,0,0,0-1.992,2.391c-.56,1.8,2.017,3.462,2.017,3.462a5.658,5.658,0,0,0-1.7,2.858c-.361,1.774,2,3.823,2,3.823a4.947,4.947,0,0,0,.087,3.449c1.3,2.9,6.176,3.219,9.158,4.009a64.253,64.253,0,0,1,9.719,3.673l6.786-21.94s-12.657-8.455-16.324-8.48C-479.358,277.537-491.8,278.21-492.021,281.989Z" transform="translate(492.024 -277.55)" fill="#ffc4c0"/>
                  <g id="Group_3511" data-name="Group 3511" transform="translate(5.988 5.972)">
                    <path id="Path_9390" data-name="Path 9390" d="M-482.346,287.857a41.531,41.531,0,0,1,10.086-.691c.075,0,.068.118-.006.118-3.325-.093-6.749.7-10.067.735C-482.421,288.019-482.433,287.875-482.346,287.857Z" transform="translate(482.406 -287.142)" fill="#263238"/>
                    <path id="Path_9391" data-name="Path 9391" d="M-482.242,297.351a8.868,8.868,0,0,1,2.3-.006c.816.056,1.625.125,2.434.205,1.625.162,3.244.361,4.856.61.068.012.075.125-.006.118-1.619-.156-3.237-.293-4.862-.386-.809-.044-1.625-.081-2.44-.118a10.457,10.457,0,0,1-2.291-.2A.119.119,0,0,1-482.242,297.351Z" transform="translate(482.376 -290.964)" fill="#263238"/>
                    <path id="Path_9392" data-name="Path 9392" d="M-481.778,308.5a6.131,6.131,0,0,1,2.073.106c.741.087,1.476.174,2.216.255,1.476.162,2.957.324,4.439.436a.059.059,0,0,1-.006.118c-1.507-.106-3.013-.187-4.52-.305-.741-.056-1.482-.118-2.216-.187a5.8,5.8,0,0,1-1.992-.342A.044.044,0,0,1-481.778,308.5Z" transform="translate(482.18 -295.181)" fill="#263238"/>
                  </g>
                </g>
              </g>
              <g id="Group_3517" data-name="Group 3517" transform="translate(26.337)">
                <path id="Path_9393" data-name="Path 9393" d="M-443.241,277.292l-6.089,23.671s29.535,9.407,33.041,2-12.6-36.483-22.326-45.056-6.593,4.283-6.338,5.311c1.133,4.564,6.892,16.623,6.892,16.623Z" transform="translate(449.574 -254.975)" fill="#d19655"/>
                <path id="Path_9394" data-name="Path 9394" d="M-433.692,276.1a5.119,5.119,0,0,0-.342,1.93,5.163,5.163,0,0,0,.342,1.93,5.282,5.282,0,0,0,.336-1.93A5.112,5.112,0,0,0-433.692,276.1Zm9.55,20.832a5.172,5.172,0,0,0-.342,1.936,5.163,5.163,0,0,0,.342,1.93,5.282,5.282,0,0,0,.336-1.93A5.291,5.291,0,0,0-424.141,296.935Zm-10.242-5.46a5.141,5.141,0,0,0-1.93.342,5.259,5.259,0,0,0,1.93.336,5.237,5.237,0,0,0,1.93-.336A5.121,5.121,0,0,0-434.383,291.475Zm.928-28.228a5.224,5.224,0,0,0-1.6-1.127,5.149,5.149,0,0,0,1.127,1.606,5.253,5.253,0,0,0,1.606,1.127A5.378,5.378,0,0,0-433.455,263.247ZM-413,303.858a5.224,5.224,0,0,0-1.6-1.127,5.148,5.148,0,0,0,1.127,1.606,5.253,5.253,0,0,0,1.606,1.127A5.346,5.346,0,0,0-413,303.858Zm-8.984-18.086a5.253,5.253,0,0,0-1.606-1.127,5.148,5.148,0,0,0,1.127,1.606,5.253,5.253,0,0,0,1.606,1.127A5.149,5.149,0,0,0-421.981,285.772Zm-14.575,19.456c-.174.187-.342.367-.5.567.237.056.461.112.7.174.093-.081.193-.168.28-.255a5.33,5.33,0,0,0,1.127-1.606A5.032,5.032,0,0,0-436.556,305.228Z" transform="translate(444.943 -257.672)" fill="#fff"/>
                <g id="Group_3516" data-name="Group 3516" transform="translate(0 12.742)">
                  <g id="Group_3515" data-name="Group 3515" transform="translate(6.133 9.394)">
                    <g id="Group_3514" data-name="Group 3514">
                      <path id="Path_9395" data-name="Path 9395" d="M-439.154,290.76c3.374,1.395,12.147,6.369,14.027,8.318.056.056-.012.149-.075.1-1.874-1.476-12.726-7.521-14.432-8.28a1.827,1.827,0,0,1-.137.261c-.062.081-.106.031-.1-.05a4.881,4.881,0,0,1,.162-.579C-439.7,290.536-439.522,290.6-439.154,290.76Z" transform="translate(439.871 -290.53)" fill="#263238"/>
                    </g>
                  </g>
                  <path id="Path_9396" data-name="Path 9396" d="M-437.4,306.561c.411-1.65,2.017-8.274,2.291-9.949a.026.026,0,0,0-.05-.012c-.573,1.544-2.347,8.031-2.764,9.687a92.827,92.827,0,0,0-2.2,9.974c-.006.062.087.1.106.031C-438.925,313.117-438.215,309.824-437.4,306.561Z" transform="translate(446.098 -283.421)" fill="#263238"/>
                  <path id="Path_9397" data-name="Path 9397" d="M-434.236,287.718c-.834-2.086-1.874-4.09-2.8-6.132s-1.886-4.065-2.739-6.132c-.012-.025-.056-.006-.05.019.511,1.407,1.021,2.808,1.569,4.2q-.261-.336-.5-.691c-.293-.423-.567-.865-.828-1.314-.019-.031-.056-.006-.044.025a7.092,7.092,0,0,0,.76,1.4,8.24,8.24,0,0,0,.753.921c.224.567.461,1.127.71,1.687a42.705,42.705,0,0,0,2.82,6.014C-434.547,287.768-434.211,287.78-434.236,287.718Z" transform="translate(445.985 -275.441)" fill="#263238"/>
                  <path id="Path_9398" data-name="Path 9398" d="M-420.833,332.7c-6.1.859-25.271-3.586-28.539-4.439.062-.349.056-.473.137-.965.012-.062-.087-.1-.106-.031-.118.461-.479,1.382-.355,1.438,1.55.71,22.9,5.578,28.851,4.14C-420.739,332.827-420.733,332.69-420.833,332.7Z" transform="translate(449.721 -294.987)" fill="#263238"/>
                </g>
              </g>
            </g>
          </g>
          <g id="Group_3524" data-name="Group 3524" transform="translate(0 37.36)">
            <g id="Group_3520" data-name="Group 3520" transform="translate(4.672)">
              <path id="Path_9399" data-name="Path 9399" d="M-499.736,300.441l-24.947,2.82-8.7-34.778,24.947-2.814Z" transform="translate(534.607 -265.67)" fill="#37474f"/>
              <path id="Path_9400" data-name="Path 9400" d="M-501.706,300.668l-24.947,2.814-8.7-34.778,24.947-2.814Z" transform="translate(535.35 -265.753)" fill="#455a64"/>
              <path id="Path_9401" data-name="Path 9401" d="M-513.9,292.558a2.723,2.723,0,0,0,2.914,2.129,2.2,2.2,0,0,0,1.942-2.677,2.723,2.723,0,0,0-2.914-2.129A2.2,2.2,0,0,0-513.9,292.558Z" transform="translate(527.273 -274.802)" fill="#fff"/>
            </g>
            <g id="Group_3523" data-name="Group 3523" transform="translate(0 3.943)">
              <g id="Group_3522" data-name="Group 3522">
                <path id="Path_9402" data-name="Path 9402" d="M-537.923,281.87c-1.1,2.889-4.146,6.612-4.234,8.9a2.637,2.637,0,0,0,1.681,2.658s-2.179,1.314-1.918,3.406c.137,1.077,1.974,1.812,1.974,1.812a3.137,3.137,0,0,0-1.351,2.976c.274,1.476,2.079,1.986,2.079,1.986s-1.127,1.843-.361,3.25c1.55,2.864,14.375,1.83,15.975-3.051.747-2.279-2.372-1.855-2.372-1.855s4.339-1.687,4.2-4.339-4.165-1.855-4.165-1.855,4.19-1.675,3.767-4.408c-.442-2.845-4.327-1.363-4.327-1.363s2.7-2.16,1.893-4.178c-1.332-3.331-6.388,1.395-9.258.953l-1.93-4.526Z" transform="translate(542.689 -275.727)" fill="#ffc4c0"/>
                <path id="Path_9403" data-name="Path 9403" d="M-540.336,282.392c.8-2.827-2.87-5.939-2.49-8.754.51-3.8,5.012-.473,6.381,4.875l.336,4.346Z" transform="translate(542.854 -272.003)" fill="#ffc4c0"/>
                <g id="Group_3521" data-name="Group 3521" transform="translate(2.176 13.952)">
                  <path id="Path_9404" data-name="Path 9404" d="M-537.622,315.753a.034.034,0,0,0-.006.068,22.278,22.278,0,0,0,13.149-1.849c.131-.062.081-.3-.075-.255A45.593,45.593,0,0,1-537.622,315.753Z" transform="translate(538.717 -301.696)" fill="#263238"/>
                  <path id="Path_9405" data-name="Path 9405" d="M-539.323,307.01c-.05,0-.05.081,0,.093A20.92,20.92,0,0,0-525.1,304.2c.143-.093.181-.33.006-.23C-528.06,305.622-535.164,307.035-539.323,307.01Z" transform="translate(539.36 -298.009)" fill="#263238"/>
                  <path id="Path_9406" data-name="Path 9406" d="M-525.476,294.424a28.8,28.8,0,0,1-13.56,3.779c-.062.006-.05.093,0,.106a18.805,18.805,0,0,0,7.8-.61,12.855,12.855,0,0,0,5.846-3.125C-525.32,294.511-525.389,294.374-525.476,294.424Z" transform="translate(539.253 -294.413)" fill="#263238"/>
                </g>
              </g>
            </g>
          </g>
          <g id="Group_3538" data-name="Group 3538" transform="translate(43.713)">
            <g id="Group_3526" data-name="Group 3526" transform="translate(6.918 20.85)">
              <g id="Group_3525" data-name="Group 3525">
                <path id="Path_9407" data-name="Path 9407" d="M-455.566,258.177c2.727.1,6.406-4.757,7.539-8.33.075-.243-.722-2.509-1.563-5.3-.5-1.7-1.021-3.6-1.37-5.373-.068-.361-10.572,4.887-10.572,4.887a28.868,28.868,0,0,1,2.416,6.587,4.494,4.494,0,0,1,.068.741.964.964,0,0,0,.006.125C-459,252.941-458.2,258.077-455.566,258.177Z" transform="translate(461.53 -239.151)" fill="#ffc4c0"/>
              </g>
              <path id="Path_9408" data-name="Path 9408" d="M-451.637,239.48c.075,3.094-.361,10.7-6.257,12a6.746,6.746,0,0,1-1.146.162,1.047,1.047,0,0,1-.012-.125,4.461,4.461,0,0,0-.062-.741,28.84,28.84,0,0,0-2.416-6.593S-453.959,240.4-451.637,239.48Z" transform="translate(461.53 -239.275)" fill="#263238"/>
            </g>
            <g id="Group_3537" data-name="Group 3537">
              <g id="Group_3527" data-name="Group 3527" transform="translate(0 2.525)">
                <path id="Path_9409" data-name="Path 9409" d="M-453.272,216.418c1.139,4.041-1.226,15.583-4.134,18.111-4.215,3.661-11,3.872-14.077-1.164-2.982-4.887.361-19.879,3.6-22.164C-463.109,207.839-454.953,210.454-453.272,216.418Z" transform="translate(472.642 -209.718)" fill="#ffc4c0"/>
              </g>
              <g id="Group_3533" data-name="Group 3533" transform="translate(1.532 11.357)">
                <g id="Group_3528" data-name="Group 3528" transform="translate(6.08 4.06)">
                  <path id="Path_9410" data-name="Path 9410" d="M-460.157,231.467c.012-.025.05.05.044.081-.212.766-.318,1.681.318,2.1.019.012.006.05-.019.044C-460.636,233.366-460.474,232.158-460.157,231.467Z" transform="translate(460.416 -230.817)" fill="#263238"/>
                  <path id="Path_9411" data-name="Path 9411" d="M-459.225,230.435c1.264.205.766,2.714-.4,2.528C-460.782,232.776-460.284,230.26-459.225,230.435Z" transform="translate(460.368 -230.426)" fill="#263238"/>
                </g>
                <g id="Group_3529" data-name="Group 3529" transform="translate(0.148 2.885)">
                  <path id="Path_9412" data-name="Path 9412" d="M-467.774,230.114c0-.031-.068.025-.075.056-.131.784-.411,1.662-1.164,1.781-.025.006-.031.044,0,.044C-468.129,232.038-467.768,230.874-467.774,230.114Z" transform="translate(469.6 -229.13)" fill="#263238"/>
                  <path id="Path_9413" data-name="Path 9413" d="M-468.646,228.57c-1.233-.342-1.83,2.148-.685,2.465C-468.21,231.347-467.613,228.857-468.646,228.57Z" transform="translate(469.943 -228.538)" fill="#263238"/>
                </g>
                <path id="Path_9414" data-name="Path 9414" d="M-457.69,226.97c-.324-.156-.6-.349-.909-.529a1.682,1.682,0,0,1-.822-.716.544.544,0,0,1,.212-.629,1.352,1.352,0,0,1,1.357.118,1.993,1.993,0,0,1,.953,1.052A.579.579,0,0,1-457.69,226.97Z" transform="translate(466.132 -224.302)" fill="#263238"/>
                <path id="Path_9415" data-name="Path 9415" d="M-469.664,225.327a9.891,9.891,0,0,0,1.052.019,1.654,1.654,0,0,0,1.077-.187.553.553,0,0,0,.149-.647,1.346,1.346,0,0,0-1.22-.6,1.949,1.949,0,0,0-1.363.4A.577.577,0,0,0-469.664,225.327Z" transform="translate(470.181 -223.905)" fill="#263238"/>
                <path id="Path_9416" data-name="Path 9416" d="M-460.615,243.138c-.162.212-.305.5-.585.56a1.972,1.972,0,0,1-.872-.068c-.025-.006-.05.025-.025.044a1.065,1.065,0,0,0,1.065.268.859.859,0,0,0,.511-.791A.056.056,0,0,0-460.615,243.138Z" transform="translate(467.133 -231.156)" fill="#263238"/>
                <g id="Group_3531" data-name="Group 3531" transform="translate(1.404 0.583)">
                  <g id="Group_3530" data-name="Group 3530">
                    <path id="Path_9417" data-name="Path 9417" d="M-463.483,233.968a2.685,2.685,0,0,1-2,.828,3.657,3.657,0,0,1-.965-.143.87.87,0,0,1-.181-.056c-.056-.019-.106-.037-.168-.062a.205.205,0,0,1-.125-.205v-.006a.4.4,0,0,1,.025-.081v-.006l.012-.068c.1-.6.342-1.5.342-1.5-.243.068-1.457.349-1.376.037a40.8,40.8,0,0,1,2.621-7.82.073.073,0,0,1,.137.05c-.548,2.49-1.525,4.862-2.111,7.353a4.832,4.832,0,0,1,1.326-.131c.081.044-.492,1.731-.517,2v.031a3.754,3.754,0,0,0,2.914-.305C-463.471,233.849-463.421,233.912-463.483,233.968Z" transform="translate(467.926 -224.841)" fill="#263238"/>
                  </g>
                </g>
                <g id="Group_3532" data-name="Group 3532" transform="translate(3.531 9.685)">
                  <path id="Path_9418" data-name="Path 9418" d="M-464.51,240.232a2.959,2.959,0,0,0,1.146.99,1.338,1.338,0,0,0,.816.093c.6-.125.641-.666.56-1.133a3.324,3.324,0,0,0-.224-.722A3.9,3.9,0,0,1-464.51,240.232Z" transform="translate(464.51 -239.46)" fill="#263238"/>
                  <path id="Path_9419" data-name="Path 9419" d="M-462.66,241.66a1.338,1.338,0,0,0,.816.093c.6-.125.641-.666.56-1.133A1.388,1.388,0,0,0-462.66,241.66Z" transform="translate(463.812 -239.898)" fill="#ff9bbc"/>
                </g>
              </g>
              <g id="Group_3534" data-name="Group 3534" transform="translate(0.412)">
                <path id="Path_9420" data-name="Path 9420" d="M-452.562,223.921c-3.063.149-4.588-3.53-3.8-6.456,0,0-8.162.909-8.411-5.634a6.408,6.408,0,0,1-5.354,2.82l-.959,2.391c-.828-.261-1.669-2.652.411-4.47a7.79,7.79,0,0,1,2.652-5.155,4.445,4.445,0,0,1,4.8-.567,6.751,6.751,0,0,1,4.931-1.108,5.745,5.745,0,0,1,4.165,3.206s4.016.853,4.638,3.736a5.933,5.933,0,0,1-.9,4.769s.99,1.146.423,3.58C-450.327,222.6-451.64,223.878-452.562,223.921Z" transform="translate(471.981 -205.663)" fill="#263238"/>
                <path id="Path_9421" data-name="Path 9421" d="M-460.254,214.65a7.588,7.588,0,0,0-.05,1.594,6.461,6.461,0,0,0,.262,1.55,4.091,4.091,0,0,0,1.837,2.384,6.69,6.69,0,0,0,2.982.816c.529-.006,1.058.025,1.588-.006s1.065-.1,1.6-.131c-.523.118-1.052.205-1.581.311-.535.075-1.077.075-1.619.112a6.618,6.618,0,0,1-3.169-.784,4.293,4.293,0,0,1-1.918-2.627A6.548,6.548,0,0,1-460.254,214.65Z" transform="translate(467.644 -209.055)" fill="#263238"/>
                <path id="Path_9422" data-name="Path 9422" d="M-466.98,218.478a8.448,8.448,0,0,0,2.5-1.276,5.123,5.123,0,0,0,.971-.971,6.386,6.386,0,0,0,.71-1.22,3.472,3.472,0,0,1-.467,1.382,3.723,3.723,0,0,1-.984,1.108,4.853,4.853,0,0,1-1.295.7A4.671,4.671,0,0,1-466.98,218.478Z" transform="translate(470.093 -209.19)" fill="#263238"/>
              </g>
              <g id="Group_3535" data-name="Group 3535" transform="translate(15.889 15.812)">
                <path id="Path_9423" data-name="Path 9423" d="M-446.317,233.868s2.777-3.636,4.433-2.634-.535,6.35-2.559,7.017a2.037,2.037,0,0,1-2.677-1.2Z" transform="translate(447.12 -231.059)" fill="#ffc4c0"/>
                <path id="Path_9424" data-name="Path 9424" d="M-441.88,233.78a.029.029,0,0,1,.006.056,5.126,5.126,0,0,0-2.783,3.1,1.122,1.122,0,0,1,1.687-.237c.037.025,0,.081-.044.075a1.263,1.263,0,0,0-1.395.38,5.984,5.984,0,0,0-.7,1.083c-.068.125-.293.044-.243-.093.006-.012.006-.019.012-.031C-445.3,236.32-443.8,233.88-441.88,233.78Z" transform="translate(446.456 -232.086)" fill="#263238"/>
              </g>
              <g id="Group_3536" data-name="Group 3536" transform="translate(0.555 16.839)" opacity="0.2">
                <path id="Path_9425" data-name="Path 9425" d="M-452.91,237.193a.186.186,0,0,0,.193.174.186.186,0,0,0,.174-.193.186.186,0,0,0-.193-.174A.183.183,0,0,0-452.91,237.193Z" transform="translate(464.639 -234.329)"/>
                <path id="Path_9426" data-name="Path 9426" d="M-459.15,237.163a.186.186,0,0,0,.193.174.186.186,0,0,0,.174-.193.186.186,0,0,0-.193-.174A.191.191,0,0,0-459.15,237.163Z" transform="translate(466.995 -234.317)"/>
                <path id="Path_9427" data-name="Path 9427" d="M-456.86,239.253a.186.186,0,0,0,.193.174.186.186,0,0,0,.174-.193.186.186,0,0,0-.193-.174A.186.186,0,0,0-456.86,239.253Z" transform="translate(466.13 -235.106)"/>
                <path id="Path_9428" data-name="Path 9428" d="M-453.18,234.733a.186.186,0,0,0,.193.174.186.186,0,0,0,.174-.193.186.186,0,0,0-.193-.174A.186.186,0,0,0-453.18,234.733Z" transform="translate(464.742 -233.4)"/>
                <path id="Path_9429" data-name="Path 9429" d="M-456.05,236.543a.186.186,0,0,0,.193.174.186.186,0,0,0,.174-.193.186.186,0,0,0-.193-.174A.183.183,0,0,0-456.05,236.543Z" transform="translate(465.825 -234.083)"/>
                <path id="Path_9430" data-name="Path 9430" d="M-471.55,232.9a.186.186,0,0,0,.193.174.186.186,0,0,0,.174-.193.186.186,0,0,0-.193-.174A.179.179,0,0,0-471.55,232.9Z" transform="translate(471.675 -232.709)"/>
                <path id="Path_9431" data-name="Path 9431" d="M-469.16,234.493a.186.186,0,0,0,.193.174.186.186,0,0,0,.174-.193.186.186,0,0,0-.193-.174A.183.183,0,0,0-469.16,234.493Z" transform="translate(470.772 -233.31)"/>
                <path id="Path_9432" data-name="Path 9432" d="M-469.66,236.473a.186.186,0,0,0,.193.174.186.186,0,0,0,.174-.193.186.186,0,0,0-.193-.174A.186.186,0,0,0-469.66,236.473Z" transform="translate(470.961 -234.057)"/>
                <path id="Path_9433" data-name="Path 9433" d="M-471.75,235.2a.186.186,0,0,0,.193.174.186.186,0,0,0,.174-.193.186.186,0,0,0-.193-.174A.183.183,0,0,0-471.75,235.2Z" transform="translate(471.75 -233.578)"/>
              </g>
            </g>
          </g>
        </g>
      </g>
    </g>
    <g id="Speech_Bubble" transform="translate(-563.132 100.801)">
      <g id="Group_3546" data-name="Group 3546" transform="translate(0)">
        <g id="Group_3542" data-name="Group 3542">
          <g id="Group_3541" data-name="Group 3541">
            <path id="Path_9434" data-name="Path 9434" d="M-400.136,183.3A15.37,15.37,0,0,1-415.5,198.661a15.264,15.264,0,0,1-9.152-3.032l-7.527,1.924,3.132-7.01a15.237,15.237,0,0,1-1.818-7.247A15.37,15.37,0,0,1-415.5,167.93,15.374,15.374,0,0,1-400.136,183.3Z" transform="translate(432.659 -167.807)" fill="#fff"/>
            <path id="Path_9435" data-name="Path 9435" d="M-400.426,183.221a15.582,15.582,0,0,1-16.7,15.453,15.5,15.5,0,0,1-7.95-2.939l.187.037-7.515,1.974-.548.143.23-.523,3.107-7.017.012.261a15.63,15.63,0,0,1,3.767-19.313,15.536,15.536,0,0,1,25.408,11.923Zm0,0A15.275,15.275,0,0,0-419.483,168.5a15.29,15.29,0,0,0-11.362,15.284,15.389,15.389,0,0,0,1.768,6.543l.068.131-.062.131-3.156,7-.318-.374,7.539-1.874.106-.025a14.973,14.973,0,0,0,9.893,3.1,15.3,15.3,0,0,0,14.581-15.2Z" transform="translate(432.95 -167.733)" fill="#263238"/>
          </g>
        </g>
        <g id="Group_3545" data-name="Group 3545" transform="translate(7.017 5.329)">
          <path id="Path_9436" data-name="Path 9436" d="M-407.134,178.016a5.881,5.881,0,0,0,0,8.318,5.881,5.881,0,0,0,8.318,0,5.881,5.881,0,0,0,0-8.318A5.881,5.881,0,0,0-407.134,178.016Zm7.122,2.752a1.1,1.1,0,0,1-1.556-.006,1.093,1.093,0,0,1,0-1.55,1.107,1.107,0,0,1,1.556-.006A1.108,1.108,0,0,1-400.012,180.767Z" transform="translate(416.841 -176.293)" fill="#4cc171"/>
          <path id="Path_9439" data-name="Path 9439" d="M0,0H1.774V5.4H0Z" transform="translate(7.647 8.281) rotate(-45)" fill="#359e56"/>
          <g id="Group_3543" data-name="Group 3543" transform="translate(0 8.889)">
            <path id="Path_9437" data-name="Path 9437" d="M-413.431,190.57l2.59,2.59-.635.635-1.071-.33.33,1.071-1.052,1.052-1.419-.293.293,1.419-.237.237-1.071-.33.33,1.071-1.071-.33.33,1.071-.834.834-1.419-.3.293,1.426-.728.728-2.876.286.293-2.876Z" transform="translate(421.68 -190.57)" fill="#ebebeb"/>
            <rect id="Rectangle_2394" data-name="Rectangle 2394" width="10.491" height="0.255" transform="translate(1.607 8.898) rotate(-45)" fill="#dbdbdb"/>
          </g>
          <g id="Group_3544" data-name="Group 3544" transform="translate(8.616 0.697)" opacity="0.1">
            <path id="Path_9438" data-name="Path 9438" d="M-397.481,182.6a5.209,5.209,0,0,1-8.822,3.711,5.244,5.244,0,0,1,0-7.421,5.207,5.207,0,0,1,8.822,3.711Zm0,0a5.05,5.05,0,0,0-8.635-3.518,5.052,5.052,0,0,0,0,7.041,5.054,5.054,0,0,0,8.635-3.524Z" transform="translate(407.841 -177.411)"/>
          </g>
        </g>
      </g>
    </g>
  </g>
</svg>
