<svg xmlns="http://www.w3.org/2000/svg" width="15.836" height="11.053" viewBox="0 0 15.836 11.053">
  <path id="data-analysis-icon" d="M14.8,4.68v6.187a.187.187,0,0,1-.186.186h-1.6a.187.187,0,0,1-.186-.186v-4.6c.327-.32.728-.706,1.138-1.1l.644-.621a1.655,1.655,0,0,0,.187.137ZM3.9,3a2.694,2.694,0,0,0-1.041.129H2.851A2.69,2.69,0,0,0,1.092,6.288a2.636,2.636,0,0,0,.231.635L.057,8.135a.129.129,0,0,0,0,.182l.717.75a.129.129,0,0,0,.182,0L2.173,7.891a2.678,2.678,0,0,0,.6.318,2.769,2.769,0,0,0,.773.168A2.694,2.694,0,0,0,6.269,4.835h0A2.689,2.689,0,0,0,3.9,3.008ZM2.3,4.076a2.146,2.146,0,0,1,3.032.206v.006a2.153,2.153,0,0,1,.411.721h0A2.144,2.144,0,0,1,3.569,7.839a2.119,2.119,0,0,1-.809-.218h0A2.153,2.153,0,0,1,2.1,7.106L2.1,7.1a2.144,2.144,0,0,1-.412-.721V6.371a2.158,2.158,0,0,1,.626-2.3ZM5.99,3.034,7.408,1.8c.936.918,1.843,2.026,2.77,2.941l3.373-3.394L12.462.258,15.855,0l-.191,3.458L14.621,2.414c-.749.759-2.52,2.431-3.27,3.181-.947.947-1.4.965-2.347.017L7.4,3.832l-.5.441a3.679,3.679,0,0,0-.177-.348,3.39,3.39,0,0,0-.387-.539h0a3.407,3.407,0,0,0-.357-.351Zm2.374,4.04v3.793a.187.187,0,0,1-.186.186h-1.6a.187.187,0,0,1-.186-.186V8.11A3.738,3.738,0,0,0,6.666,7.8a3.614,3.614,0,0,0,.717-1.709l.427.474.055.058a6.526,6.526,0,0,0,.5.455ZM5.142,8.943v1.924a.187.187,0,0,1-.186.186H3.36a.187.187,0,0,1-.186-.186V9.143a3.839,3.839,0,0,0,.4.049,3.671,3.671,0,0,0,1.389-.18c.062-.022.129-.044.184-.068Zm6.44-1.587v3.511a.187.187,0,0,1-.186.186H9.8a.187.187,0,0,1-.186-.186V7.722a2.477,2.477,0,0,0,.585.059A2.551,2.551,0,0,0,11.581,7.356Z" transform="translate(-0.019)" fill="#979797" fill-rule="evenodd"/>
</svg>
