<svg xmlns="http://www.w3.org/2000/svg" xmlns:xlink="http://www.w3.org/1999/xlink" width="325.14" height="323.322" viewBox="0 0 325.14 323.322">
  <defs>
    <clipPath id="clip-path">
      <path id="Path_8611" data-name="Path 8611" d="M6313.741,1590.686c-5.7-14.248-11.964-36.152-7.816-61.166,4.765-28.723,18.907-35.3,30.021-66.376,15.865-44.366-7.133-74.343,11.273-88.752,8.976-7.027,23.728-7.956,33.229-2.06,27.109,16.818,25.048,97.6-14.15,131.529-17.729,15.345-34.082,14.681-46.9,33.9C6308.07,1554.75,6310.384,1576.077,6313.741,1590.686Z" transform="translate(-6304.581 -1368.452)"/>
    </clipPath>
    <clipPath id="clip-path-2">
      <path id="Path_8617" data-name="Path 8617" d="M6192.988,2191.336c-2.815-9.062-5.7-23.424.08-37.417,10.081-24.41,35.167-20.22,54.852-47.593,15.876-22.077,7.931-36.449,26.717-52.253,3.144-2.646,19.694-17.1,34.22-11.758,8.186,3.009,12.1,10.958,12.833,12.45,11.1,22.553-7.915,62.863-37.017,84.1-16.72,12.2-22.986,9.827-53.206,25.532A180.5,180.5,0,0,0,6192.988,2191.336Z" transform="translate(-6189.724 -2041.141)"/>
    </clipPath>
    <linearGradient id="linear-gradient" x1="-68.705" y1="3.719" x2="-68.628" y2="1.927" gradientUnits="objectBoundingBox">
      <stop offset="0" stop-color="#e6a762"/>
      <stop offset="0.996" stop-color="#fd9f00"/>
      <stop offset="1" stop-color="#f36f56"/>
    </linearGradient>
    <linearGradient id="linear-gradient-2" x1="0.394" y1="1.387" x2="0.479" y2="-0.404" gradientUnits="objectBoundingBox">
      <stop offset="0" stop-color="#ffc444"/>
      <stop offset="0.996" stop-color="#f36f56"/>
    </linearGradient>
    <linearGradient id="linear-gradient-3" x1="-164.153" y1="-0.737" x2="-164.201" y2="2.286" xlink:href="#linear-gradient-2"/>
    <linearGradient id="linear-gradient-4" x1="-1.03" y1="-2.312" x2="1.455" y2="2.428" xlink:href="#linear-gradient-2"/>
    <linearGradient id="linear-gradient-5" x1="0.087" y1="0.109" x2="0.842" y2="1.267" gradientUnits="objectBoundingBox">
      <stop offset="0" stop-color="#aa80f9"/>
      <stop offset="0.996" stop-color="#6165d7"/>
    </linearGradient>
    <linearGradient id="linear-gradient-6" x1="0.41" y1="0.632" x2="1.402" y2="-1.132" gradientUnits="objectBoundingBox">
      <stop offset="0" stop-color="#ab316d"/>
      <stop offset="1" stop-color="#792d3d"/>
    </linearGradient>
    <linearGradient id="linear-gradient-7" x1="-1.21" y1="0.5" x2="2.781" y2="0.5" xlink:href="#linear-gradient-2"/>
    <linearGradient id="linear-gradient-8" x1="-187.793" y1="-21.862" x2="-186.742" y2="-20.41" gradientUnits="objectBoundingBox">
      <stop offset="0" stop-color="#444b8c"/>
      <stop offset="0.996" stop-color="#26264f"/>
    </linearGradient>
    <linearGradient id="linear-gradient-9" x1="-0.209" y1="-10.785" x2="0.688" y2="3.518" xlink:href="#linear-gradient-2"/>
    <linearGradient id="linear-gradient-10" x1="-237.344" y1="-27.449" x2="-236.012" y2="-25.657" xlink:href="#linear-gradient-8"/>
    <linearGradient id="linear-gradient-11" x1="-202.013" y1="-0.516" x2="-200.92" y2="0.793" xlink:href="#linear-gradient-8"/>
    <linearGradient id="linear-gradient-12" x1="-0.46" y1="-12.088" x2="0.681" y2="2.89" xlink:href="#linear-gradient-2"/>
    <linearGradient id="linear-gradient-13" x1="-250.58" y1="-1.3" x2="-249.221" y2="0.479" xlink:href="#linear-gradient-8"/>
    <linearGradient id="linear-gradient-14" x1="0.501" y1="0.723" x2="0.491" y2="2.473" xlink:href="#linear-gradient-2"/>
    <linearGradient id="linear-gradient-15" x1="0.48" y1="2.804" x2="0.37" y2="15.407" xlink:href="#linear-gradient-2"/>
    <linearGradient id="linear-gradient-16" y1="0.5" x2="1" y2="0.5" gradientUnits="objectBoundingBox">
      <stop offset="0" stop-color="#4cc171"/>
      <stop offset="1" stop-color="#359e56"/>
    </linearGradient>
    <linearGradient id="linear-gradient-17" x1="0.036" y1="-1.684" x2="1.036" y2="-1.684" gradientUnits="objectBoundingBox">
      <stop offset="0" stop-color="#4cc171"/>
      <stop offset="1" stop-color="#81a887"/>
    </linearGradient>
    <linearGradient id="linear-gradient-18" x1="0.025" y1="-1.671" x2="1.041" y2="-1.671" gradientUnits="objectBoundingBox">
      <stop offset="0" stop-color="#81a887"/>
      <stop offset="1" stop-color="#4cc171"/>
    </linearGradient>
    <linearGradient id="linear-gradient-19" x1="0.174" y1="-0.688" x2="0.99" y2="-0.045" gradientUnits="objectBoundingBox">
      <stop offset="0" stop-color="#ff9085"/>
      <stop offset="1" stop-color="#fb6fbb"/>
    </linearGradient>
    <linearGradient id="linear-gradient-20" x1="0.187" y1="-0.137" x2="1.223" y2="2.033" xlink:href="#linear-gradient-2"/>
    <linearGradient id="linear-gradient-21" x1="0.329" y1="0.554" x2="-0.254" y2="0.738" gradientUnits="objectBoundingBox">
      <stop offset="0" stop-color="#fcb148"/>
      <stop offset="0.052" stop-color="#fdba46"/>
      <stop offset="0.142" stop-color="#ffc244"/>
      <stop offset="0.318" stop-color="#ffc444"/>
      <stop offset="0.485" stop-color="#fdb946"/>
      <stop offset="0.775" stop-color="#f99c4d"/>
      <stop offset="0.866" stop-color="#f8924f"/>
      <stop offset="1" stop-color="#f8924f"/>
    </linearGradient>
    <linearGradient id="linear-gradient-22" x1="0.727" y1="0.007" x2="0.207" y2="1.135" gradientUnits="objectBoundingBox">
      <stop offset="0" stop-color="#ffdb44"/>
      <stop offset="1" stop-color="#feef06"/>
    </linearGradient>
    <linearGradient id="linear-gradient-23" x1="0.636" y1="1.231" x2="0.531" y2="0.666" xlink:href="#linear-gradient-21"/>
    <linearGradient id="linear-gradient-24" x1="0.409" y1="0.31" x2="0.857" y2="1.247" xlink:href="#linear-gradient-21"/>
    <linearGradient id="linear-gradient-25" x1="0.254" y1="0.019" x2="0.711" y2="1.039" xlink:href="#linear-gradient-22"/>
    <linearGradient id="linear-gradient-26" x1="0.464" y1="0.369" x2="1.214" y2="1.307" xlink:href="#linear-gradient-21"/>
    <linearGradient id="linear-gradient-29" x1="0.636" y1="1.231" x2="0.531" y2="0.666" xlink:href="#linear-gradient-21"/>
    <linearGradient id="linear-gradient-30" x1="0.409" y1="0.31" x2="0.857" y2="1.247" xlink:href="#linear-gradient-21"/>
    <linearGradient id="linear-gradient-31" x1="0.254" y1="0.019" x2="0.711" y2="1.039" xlink:href="#linear-gradient-22"/>
    <linearGradient id="linear-gradient-32" x1="0.464" y1="0.369" x2="1.214" y2="1.307" xlink:href="#linear-gradient-21"/>
    <linearGradient id="linear-gradient-33" x1="0.329" y1="0.554" x2="-0.254" y2="0.738" xlink:href="#linear-gradient-21"/>
    <linearGradient id="linear-gradient-37" x1="0.254" y1="0.019" x2="0.71" y2="1.039" xlink:href="#linear-gradient-22"/>
  </defs>
  <g id="Group_11729" data-name="Group 11729" transform="translate(-50.031 -145.37)">
    <g id="_2222" data-name="2222" transform="translate(50.031 139.972)">
      <g id="Illustration" transform="translate(0 0)">
        <g id="Group_2698" data-name="Group 2698">
          <path id="Path_8687" data-name="Path 8687" d="M-3644.873-1519.387c-9.47,36.413-36.137,70.138-100.735,87.587-23.343,6.308-50.509,9.405-74.728,7.492-35.643-2.818-73-18.907-102.688-37.151-20.546-12.625-28.723-29.659-31.617-48.915-1.792-11.906-1.565-24.66-.993-37.747.859-19.687-2.27-39.51-6.9-58.666a106.171,106.171,0,0,1,16.337-85.8c17.594-25.37,45.4-43.021,77.108-48.952,53.423-9.99,107.621-3.4,107.621-3.4,71.383,7.415,107.516,78.283,116.33,135.968C-3641.111-1582.6-3636.9-1550.043-3644.873-1519.387Z" transform="translate(3965.498 1752.467)" fill="#f4f7fa"/>
        </g>
      </g>
    </g>
    <g id="Illustration-2" data-name="Illustration" transform="translate(58.973 145.37)">
      <g id="Group_2655" data-name="Group 2655" transform="translate(0 0)">
        <g id="Group_2631" data-name="Group 2631" transform="translate(20.578 16.248)">
          <path id="Path_8604" data-name="Path 8604" d="M5979.763,1608.369l-2.121.021a22.6,22.6,0,0,0-1.438-6.05l1.848-1.139a2.43,2.43,0,0,0,.843-3.168l-.255-.484a2.08,2.08,0,0,0-2.96-.834l-1.86,1.141a20.978,20.978,0,0,0-4.127-4.429l1.095-1.963a2.385,2.385,0,0,0-.753-3.176l-.456-.281a2.146,2.146,0,0,0-3.009.855l-1.1,1.968a19.606,19.606,0,0,0-5.748-1.616l.033-2.275a2.24,2.24,0,0,0-2.179-2.339h-.536a2.321,2.321,0,0,0-2.251,2.341l-.034,2.286a20.386,20.386,0,0,0-5.848,1.656l-1.056-1.975a2.159,2.159,0,0,0-3.043-.858l-.474.285a2.438,2.438,0,0,0-.866,3.215l1.064,1.986a22.562,22.562,0,0,0-4.358,4.531l-1.88-1.138a2.226,2.226,0,0,0-3.092.878l-.281.5a2.39,2.39,0,0,0,.781,3.219l1.887,1.137a23.433,23.433,0,0,0-1.658,6.188l-2.2.021a2.384,2.384,0,0,0-2.3,2.385l-.008.572a2.243,2.243,0,0,0,2.229,2.336l2.2-.026a22.571,22.571,0,0,0,1.5,6.147l-1.914,1.173a2.459,2.459,0,0,0-.872,3.235l.266.489a2.158,2.158,0,0,0,3.065.81l1.918-1.182a20.942,20.942,0,0,0,4.236,4.422l-1.119,2a2.364,2.364,0,0,0,.774,3.192l.465.274a2.225,2.225,0,0,0,3.064-.922l1.117-2a19.6,19.6,0,0,0,5.8,1.512l-.034,2.276a2.181,2.181,0,0,0,2.182,2.288l.535-.013a2.379,2.379,0,0,0,2.246-2.382l.033-2.277a20.46,20.46,0,0,0,5.789-1.753l1.038,1.937a2.082,2.082,0,0,0,2.983.788l.464-.291a2.452,2.452,0,0,0,.848-3.187l-1.039-1.943a22.61,22.61,0,0,0,4.248-4.524l1.82,1.1a2.148,2.148,0,0,0,2.984-.9l.27-.489a2.356,2.356,0,0,0-.748-3.149l-1.818-1.1a23.456,23.456,0,0,0,1.606-6.085l2.115-.025a2.318,2.318,0,0,0,2.2-2.338l.008-.559A2.172,2.172,0,0,0,5979.763,1608.369Zm-23.058,19.146c-8.552.154-15.428-7.057-15.3-16.111s7.219-16.428,15.774-16.459c8.493-.031,15.223,7.189,15.089,16.124S5965.193,1627.362,5956.705,1627.516Z" transform="translate(-5834.678 -1563.53)" fill="#f4f7fa"/>
          <path id="Path_8605" data-name="Path 8605" d="M5088.951,1426.36l-3.746-.1a41.47,41.47,0,0,0-2.541-10.866l3.269-1.9a4.24,4.24,0,0,0,1.491-5.579l-.451-.88a3.764,3.764,0,0,0-5.234-1.7l-3.3,1.9a39.646,39.646,0,0,0-7.325-8.2l1.946-3.421a4.373,4.373,0,0,0-1.339-5.726l-.809-.537a3.72,3.72,0,0,0-5.358,1.291l-1.96,3.433a36.274,36.274,0,0,0-10.271-3.338l.059-4.074a4.239,4.239,0,0,0-3.9-4.368l-.961-.045a3.946,3.946,0,0,0-4.042,4.018l-.06,4.1a35.581,35.581,0,0,0-10.525,2.521l-1.908-3.636a4.023,4.023,0,0,0-5.5-1.786l-.855.476a4.265,4.265,0,0,0-1.566,5.724l1.929,3.659a38.309,38.309,0,0,0-7.892,7.839l-3.415-2.192a3.969,3.969,0,0,0-5.624,1.356l-.51.876a4.4,4.4,0,0,0,1.425,5.872l3.433,2.187a40.735,40.735,0,0,0-3.006,11.054l-4-.109a4.133,4.133,0,0,0-4.184,4.159l-.013,1.033a4.249,4.249,0,0,0,4.066,4.365l4.013.093a41.4,41.4,0,0,0,2.728,11.181l-3.479,2a4.329,4.329,0,0,0-1.583,5.787l.485.9a4.021,4.021,0,0,0,5.576,1.635l3.48-2.02a39.514,39.514,0,0,0,7.677,8.193l-2.021,3.539a4.305,4.305,0,0,0,1.4,5.781l.841.516a3.963,3.963,0,0,0,5.536-1.5l2.01-3.535a36.163,36.163,0,0,0,10.436,3.011l-.059,4.076a4.038,4.038,0,0,0,3.917,4.2l.96,0a4.12,4.12,0,0,0,4.02-4.152l.059-4.071a35.682,35.682,0,0,0,10.338-2.836l1.85,3.509a3.762,3.762,0,0,0,5.306,1.556l.823-.495a4.3,4.3,0,0,0,1.507-5.638l-1.845-3.517a38.469,38.469,0,0,0,7.541-7.829l3.224,2.053a3.716,3.716,0,0,0,5.276-1.432l.477-.855a4.28,4.28,0,0,0-1.319-5.64l-3.215-2.064a40.834,40.834,0,0,0,2.843-10.728l3.735.086a3.933,3.933,0,0,0,3.887-4.015l.015-.992A4.033,4.033,0,0,0,5088.951,1426.36Zm-40.861,21.98c-9.654-.166-17.422-8.576-17.278-18.788s8.151-18.239,17.809-17.918c9.577.318,17.162,8.733,17.012,18.8S5057.663,1448.505,5048.09,1448.341Z" transform="translate(-5002.207 -1382.241)" fill="#f4f7fa"/>
        </g>
        <g id="Group_2638" data-name="Group 2638" transform="translate(144.22 14.812)">
          <g id="Group_2634" data-name="Group 2634" transform="translate(11.959)">
            <g id="Group_2633" data-name="Group 2633">
              <path id="Path_8606" data-name="Path 8606" d="M6313.741,1590.686c-5.7-14.248-11.964-36.152-7.816-61.166,4.765-28.723,18.907-35.3,30.021-66.376,15.865-44.366-7.133-74.343,11.273-88.752,8.976-7.027,23.728-7.956,33.229-2.06,27.109,16.818,25.048,97.6-14.15,131.529-17.729,15.345-34.082,14.681-46.9,33.9C6308.07,1554.75,6310.384,1576.077,6313.741,1590.686Z" transform="translate(-6304.581 -1368.452)" fill="#fd9f00"/>
              <g id="Group_2632" data-name="Group 2632" clip-path="url(#clip-path)">
                <path id="Path_8607" data-name="Path 8607" d="M6338.722,1492.726l-.372-.071a110.811,110.811,0,0,1,5.13-18.329c5.116-13.623,11.212-21.31,18.931-31.042a257.478,257.478,0,0,0,17.15-23.66c12.062-19.015,15.756-25.658,18.773-36.159a101.506,101.506,0,0,0,1.832-47.936,99.077,99.077,0,0,0-15.129-35.546l.313-.213a99.452,99.452,0,0,1,15.187,35.682,101.883,101.883,0,0,1-1.84,48.118c-3.028,10.547-6.732,17.206-18.816,36.257a257.67,257.67,0,0,1-17.174,23.692c-7.7,9.707-13.779,17.373-18.874,30.94A110.537,110.537,0,0,0,6338.722,1492.726Z" transform="translate(-6334.834 -1306.921)" fill="#fff"/>
                <path id="Path_8608" data-name="Path 8608" d="M6618.66,1494.484l-.026-.31c-1.207-14.965-11.411-24.062-19.758-29.057a65.935,65.935,0,0,0-18.046-7.344l.078-.371a66.323,66.323,0,0,1,18.152,7.384c8.368,5.007,18.585,14.1,19.924,29.041a54.571,54.571,0,0,0,13.406-13.474c5.753-8.243,11.706-21.92,7.4-40.267l.369-.086c4.34,18.49-1.665,32.275-7.466,40.583a54.072,54.072,0,0,1-13.771,13.737Z" transform="translate(-6552.067 -1432.551)" fill="#fff"/>
                <path id="Path_8609" data-name="Path 8609" d="M6659.583,2038.93c-.469,0-.925-.006-1.372-.02a49.617,49.617,0,0,1-14.757-2.616l-.148-.057.03-.156c2.941-14.951-1.1-25.579-5-31.861a35.244,35.244,0,0,0-9.277-10.162l.208-.317a35.619,35.619,0,0,1,9.38,10.263c3.931,6.32,8,16.994,5.089,31.991a49.886,49.886,0,0,0,14.5,2.537,41.351,41.351,0,0,0,28.953-10.058l.251.284A41.447,41.447,0,0,1,6659.583,2038.93Z" transform="translate(-6595.275 -1928.636)" fill="#fff"/>
                <path id="Path_8610" data-name="Path 8610" d="M6562.108,2319.626a40.7,40.7,0,0,1-8.2-.8c-7.184-1.476-11.012-4.5-11.05-4.526l-.106-.085.047-.128c5.6-15.352-5.06-39.23-5.168-39.469l.344-.156c.108.24,10.769,24.123,5.227,39.623a28.433,28.433,0,0,0,10.807,4.375c6.559,1.343,17.377,1.633,31.676-4.619l.153.347C6576.329,2318.344,6568.342,2319.626,6562.108,2319.626Z" transform="translate(-6513.366 -2180.128)" fill="#fff"/>
              </g>
            </g>
          </g>
          <g id="Group_2637" data-name="Group 2637" transform="translate(0 70.039)">
            <g id="Group_2636" data-name="Group 2636">
              <path id="Path_8612" data-name="Path 8612" d="M6192.988,2191.336c-2.815-9.062-5.7-23.424.08-37.417,10.081-24.41,35.167-20.22,54.852-47.593,15.876-22.077,7.931-36.449,26.717-52.253,3.144-2.646,19.694-17.1,34.22-11.758,8.186,3.009,12.1,10.958,12.833,12.45,11.1,22.553-7.915,62.863-37.017,84.1-16.72,12.2-22.986,9.827-53.206,25.532A180.5,180.5,0,0,0,6192.988,2191.336Z" transform="translate(-6189.724 -2041.141)" fill="#4cc171"/>
              <g id="Group_2635" data-name="Group 2635" clip-path="url(#clip-path-2)">
                <path id="Path_8613" data-name="Path 8613" d="M6206.688,2122.647l-.378-.026c1.568-22.808,8.286-38.91,19.971-47.86,5.72-4.382,10.585-5.619,15.735-6.929,5.535-1.408,11.259-2.863,18.294-8.548,6.836-5.525,8.913-10.226,11.542-16.178a88.16,88.16,0,0,1,12.689-21.378,94.1,94.1,0,0,1,15.822-15.924c4.748-3.92,8.5-7.018,12.384-13.874,6.353-11.2,8.611-24.754,6.711-40.284l.375-.046c1.91,15.613-.364,29.245-6.758,40.518-3.923,6.917-7.7,10.034-12.472,13.979a93.81,93.81,0,0,0-15.765,15.867,87.819,87.819,0,0,0-12.642,21.3c-2.648,6-4.741,10.737-11.648,16.32-7.1,5.737-12.864,7.2-18.439,8.62-5.11,1.3-9.939,2.528-15.6,6.862C6214.915,2083.942,6208.247,2099.952,6206.688,2122.647Z" transform="translate(-6204.583 -1960.923)" fill="#fff"/>
                <path id="Path_8614" data-name="Path 8614" d="M7027.655,2111.069l.045-.249c.06-.323,5.784-32.452-7.32-43.6l.246-.289c6.944,5.91,8.6,17.557,8.761,26.288a101.09,101.09,0,0,1-1.27,17.421,60.723,60.723,0,0,0,35.438-16.459,57.177,57.177,0,0,0,10.885-13.836l.338.171a57.585,57.585,0,0,1-10.962,13.939,61.1,61.1,0,0,1-35.909,16.588Z" transform="translate(-6933.893 -2064.245)" fill="#fff"/>
                <path id="Path_8615" data-name="Path 8615" d="M6864.611,2388.194a69.179,69.179,0,0,1-17.367-2.024l-.156-.045.022-.162c2.225-16.649-4.84-38.934-4.911-39.157l.36-.115c.071.223,7.118,22.444,4.947,39.159a74.2,74.2,0,0,0,62.65-13.728l.237.3a72.422,72.422,0,0,1-42.59,15.713Q6866.163,2388.2,6864.611,2388.194Z" transform="translate(-6774.265 -2314.877)" fill="#fff"/>
                <path id="Path_8616" data-name="Path 8616" d="M6630.1,2711.878c-21.79,0-34.977-6.977-35.138-7.064l-.176-.095.1-.17c10.15-16.541,2.008-40.446,1.924-40.686l.357-.124c.083.24,8.227,24.149-1.853,40.833,2.052,1.035,21.625,10.349,51.584,5.574l.059.374A107.159,107.159,0,0,1,6630.1,2711.878Z" transform="translate(-6552.616 -2598.916)" fill="#fff"/>
              </g>
            </g>
          </g>
        </g>
        <g id="Group_2642" data-name="Group 2642" transform="translate(28.047)">
          <path id="Path_8618" data-name="Path 8618" d="M5612.262,1313.508a2.272,2.272,0,0,1-2.195-2.141c-1.933-21.735-8.543-42.385-18.615-58.148-8.922-13.964-19.545-22.3-28.42-22.3H5563c-32.326.068-39.089,79.62-39.154,80.424a2.254,2.254,0,0,1-2.388,2.154,2.323,2.323,0,0,1-2.009-2.559c.277-3.458,7.2-84.674,43.542-84.75h.038c10.487,0,22.17,8.874,32.062,24.355,10.487,16.413,17.366,37.854,19.368,60.372a2.327,2.327,0,0,1-1.987,2.58C5612.4,1313.5,5612.332,1313.508,5612.262,1313.508Z" transform="translate(-5473.057 -1226.19)" fill="#97a6b7"/>
          <path id="Path_8619" data-name="Path 8619" d="M5078.474,2128l42.554,23.093,25.784-84.808-42.484-113.7-12.046,3.166L5074,2119.046A9.021,9.021,0,0,0,5078.474,2128Z" transform="translate(-5073.943 -1876.958)" fill="#d8dee8"/>
          <path id="Path_8620" data-name="Path 8620" d="M5316.078,2066.287l-42.484-113.7-7.106,1.868a265.494,265.494,0,0,0,.116,36.771c2.848,38.71,12.307,49.482,7.725,76.488-3.81,22.454-12.13,25.5-11.4,40.609.792,16.454,11.5,30.232,24.227,41.066l3.141,1.7Z" transform="translate(-5243.208 -1876.958)" fill="#d8dee8" opacity="0.3"/>
          <path id="Path_8621" data-name="Path 8621" d="M5365.77,1952.59l160.254,8.706,50.928,173-194.481,16.8Z" transform="translate(-5335.385 -1876.958)" fill="#d8dee8"/>
          <g id="Group_2639" data-name="Group 2639" transform="translate(56.602 79.798)" opacity="0.3">
            <path id="Path_8622" data-name="Path 8622" d="M5751.607,1997.141l-83.573-4.541a22.648,22.648,0,0,0-3.626,10.416c-2.058,27.2,54.182,36,59.221,69.391,3.835,25.418-19.768,54.747-40.829,67.813-22.19,13.766-37.225,6.795-52.232,22.079-6.594,6.716-10.609,15.113-13,23.817l184.964-15.975Z" transform="translate(-5617.57 -1992.6)" fill="#d8dee8"/>
          </g>
          <path id="Path_8623" data-name="Path 8623" d="M5784.919,1333.648a2.243,2.243,0,0,1-2.146-1.826c-.452-2.061-10.876-50.75,3.823-74.645,4.212-6.849,10.1-11.029,17.495-12.427,38-7.177,61.392,80.3,62.369,84.028a2.392,2.392,0,0,1-1.527,2.917,2.191,2.191,0,0,1-2.722-1.638c-.229-.871-23.257-87.1-57.353-80.648-6.241,1.18-11.008,4.573-14.576,10.372-13.664,22.212-3.317,70.476-3.211,70.961a2.378,2.378,0,0,1-1.645,2.843A2.075,2.075,0,0,1,5784.919,1333.648Z" transform="translate(-5705.381 -1242.443)" fill="#97a6b7"/>
          <ellipse id="Ellipse_2283" data-name="Ellipse 2283" cx="6.168" cy="6.612" rx="6.168" ry="6.612" transform="translate(73.386 84.951)" fill="#97a6b7"/>
          <ellipse id="Ellipse_2284" data-name="Ellipse 2284" cx="6.168" cy="6.612" rx="6.168" ry="6.612" transform="translate(153.822 84.338)" fill="#97a6b7"/>
          <path id="Path_8624" data-name="Path 8624" d="M6313.137,2410.348l-49.754-48.415a3.5,3.5,0,0,0-3.862-.734l-26.551,11.569a4.08,4.08,0,0,0-1.56,6.026l43.333,61.915a3.522,3.522,0,0,0,5.077.851l32.972-25.069A4.127,4.127,0,0,0,6313.137,2410.348Zm-56.894-31.395c-1.677,1.208-4.319.142-5.9-2.382s-1.506-5.548.17-6.756,4.318-.142,5.9,2.382S6257.92,2377.744,6256.243,2378.953Z" transform="translate(-6110.235 -2242.763)" fill="#d8dee8"/>
          <path id="Path_8625" data-name="Path 8625" d="M6313.137,2404l-49.754-48.416a3.5,3.5,0,0,0-3.862-.734l-26.551,11.569a4.08,4.08,0,0,0-1.56,6.026l43.333,61.915a3.522,3.522,0,0,0,5.077.851l32.972-25.068A4.127,4.127,0,0,0,6313.137,2404Zm-56.894-31.395c-1.677,1.208-4.319.141-5.9-2.383s-1.506-5.548.17-6.756,4.318-.142,5.9,2.382S6257.92,2371.4,6256.243,2372.6Z" transform="translate(-6110.235 -2237.074)" fill="#f4f7fa"/>
          <g id="Group_2640" data-name="Group 2640" transform="translate(73.462 84.565)">
            <path id="Path_8626" data-name="Path 8626" d="M5841.71,2077.465a.408.408,0,0,1-.375-.249,32.556,32.556,0,0,0-6.909-10.41c-7.84-7.817-17.965-9.046-27.756-10.235-9.742-1.183-18.945-2.3-24.442-10.037-1.391-1.958-3.553-5.5-2.394-7.2.466-.683,1.395-1,2.759-.933a.407.407,0,0,1,.388.426.4.4,0,0,1-.427.387c-.731-.034-1.678.037-2.044.577-.616.9.32,3.367,2.385,6.272,5.288,7.443,14.316,8.539,23.875,9.7,9.929,1.206,20.195,2.452,28.233,10.467a33.373,33.373,0,0,1,7.084,10.668.406.406,0,0,1-.216.534A.376.376,0,0,1,5841.71,2077.465Z" transform="translate(-5779.504 -2038.391)" fill="#7f8c99"/>
          </g>
          <g id="Group_2641" data-name="Group 2641" transform="translate(83.915 86.907)">
            <path id="Path_8627" data-name="Path 8627" d="M5935.905,2105.811a.412.412,0,0,1-.29-.12.407.407,0,0,1,0-.576c.035-.034,3.442-3.474,3.425-8.063-.01-2.819-1.295-5.5-3.819-7.975-5.353-5.246-19.553-11.32-32.083-16.68-7.647-3.271-14.872-6.362-19.614-9.026-1.076-.6-2.213-1.178-3.382-1.705a.407.407,0,1,1,.336-.742c1.19.537,2.35,1.121,3.447,1.738,4.7,2.643,11.909,5.725,19.535,8.987,12.6,5.388,26.872,11.495,32.333,16.847,2.688,2.634,4.056,5.514,4.064,8.562a13.255,13.255,0,0,1-3.665,8.635A.4.4,0,0,1,5935.905,2105.811Z" transform="translate(-5879.902 -2060.887)" fill="#7f8c99"/>
          </g>
          <path id="Path_8628" data-name="Path 8628" d="M6541.021,2404l-49.754-48.416a3.5,3.5,0,0,0-3.862-.734l-2.365,1.03a34.288,34.288,0,0,0,2.957,7.368c7.35,13.449,19.406,12.868,22.193,22.2,2.469,8.271-5.813,12.708-6.9,24.316-.546,5.8.7,13.513,7.368,23.2l30.023-22.827A4.126,4.126,0,0,0,6541.021,2404Z" transform="translate(-6338.119 -2237.074)" fill="#fff"/>
          <path id="Path_8629" data-name="Path 8629" d="M6640.972,2829.253a1.947,1.947,0,0,1-1.688-1.017,2.2,2.2,0,0,1,.662-2.9l23.96-15.59a1.9,1.9,0,0,1,2.71.71,2.2,2.2,0,0,1-.663,2.9l-23.96,15.59A1.867,1.867,0,0,1,6640.972,2829.253Z" transform="translate(-6476.046 -2644.59)" fill="#d8dee8"/>
        </g>
        <g id="Group_2648" data-name="Group 2648" transform="translate(61.821 115.505)">
          <g id="Group_2643" data-name="Group 2643" transform="translate(118.27 66.689)">
            <path id="Path_8630" data-name="Path 8630" d="M6672.966,3837.74a8.721,8.721,0,0,1,1.28,2.875,8.409,8.409,0,0,1,.223,1.51,7.9,7.9,0,0,1-3.884,3.5c-1.367.505-3.849-.323-1.516-2.356s2.659-2.484,1.231-6.5c-.367-1.032-.353-1.433-.2-1.536C6670.468,3835,6671.844,3836.457,6672.966,3837.74Z" transform="translate(-6654.172 -3745.761)" fill="#060000"/>
            <path id="Path_8631" data-name="Path 8631" d="M6792.734,3849.671a8.726,8.726,0,0,1,1.282,2.875,8.584,8.584,0,0,1,.223,1.51,7.9,7.9,0,0,1-3.884,3.5c-1.367.5-3.85-.323-1.516-2.356s2.659-2.485,1.231-6.5c-.368-1.032-.353-1.434-.2-1.536C6790.238,3846.934,6791.614,3848.387,6792.734,3849.671Z" transform="translate(-6761.471 -3756.449)" fill="#060000"/>
            <path id="Path_8632" data-name="Path 8632" d="M6569.95,2982.919l3.146,15.736a149.72,149.72,0,0,0-4.608,16.476,154.139,154.139,0,0,0-1.843,54.96l-3.325,1.84a137.48,137.48,0,0,1-10.034-33.229c-2.822-16.865-1.751-30.16-2.533-30.18-.75-.019-2.429,12.177-1.958,26.024a139.491,139.491,0,0,0,5.662,34.786l-4.188.929a127.637,127.637,0,0,1-14.278-42.293c-1.809-12.192-4.005-28.4,3.613-45.451.762-1.7,3.49-5.52,3.995-6.457C6553.054,2977.534,6560.493,2981.445,6569.95,2982.919Z" transform="translate(-6534.24 -2976.06)" fill="#585d5e"/>
            <path id="Path_8633" data-name="Path 8633" d="M6573.783,3015.141a149.6,149.6,0,0,1,4.608-16.476q-1.573-7.868-3.147-15.737c-9.458-1.473-16.9-5.385-26.353-6.858-.5.937-3.233,4.753-3.994,6.456a60.779,60.779,0,0,0-4.747,16.836c18.172-.818,23.563,2.78,25.13,6.213,2.5,5.464-4.324,11.325-1.458,22.458.862,3.348,2.033,4.973,2.308,9.195.361,5.54-1.434,6.14-1.524,11.792-.1,6.184,1.958,11.257,3.645,15.422a53.939,53.939,0,0,0,2.921,6.085l.767-.425A154.184,154.184,0,0,1,6573.783,3015.141Z" transform="translate(-6539.535 -2976.069)" fill="#585d5e" opacity="0.25"/>
          </g>
          <path id="Path_8634" data-name="Path 8634" d="M6593.972,2336.36c.66.713-.094,1.841.127,5.637a26.85,26.85,0,0,0,.579,4.192c.13.928.271,1.786.424,2.542.111.554.214.986.342,1.443a17.824,17.824,0,0,0,.9,2.479.11.11,0,0,1-.047.142l-.01,0a.111.111,0,0,1-.147-.056,18.217,18.217,0,0,1-.911-2.51c-.13-.463-.234-.9-.347-1.46-.081-.4-.157-.827-.232-1.275a11.973,11.973,0,0,0,.717,4.236,7.128,7.128,0,0,1-5.2,9.616c-3.752.553-6.618-2.164-7.51-3.058a13.384,13.384,0,0,1-2.362-14.943C6583.589,2336.8,6592.353,2334.611,6593.972,2336.36Z" transform="translate(-6456.065 -2335.759)" fill="#060000"/>
          <path id="Path_8635" data-name="Path 8635" d="M6331.84,2586.225c.355,2.18,1.814,9.553,7.478,12.625,9.331,5.061,25.708-4.246,27.639-16.418,1.476-9.3-5.635-19.318-9.562-18.744-4.933.719-2.7,17.817-12.418,22.75C6340.529,2588.695,6335.367,2587.5,6331.84,2586.225Z" transform="translate(-6234.644 -2539.914)" fill="#cf904b"/>
          <path id="Path_8636" data-name="Path 8636" d="M6635.5,2342.273a8.293,8.293,0,0,1,2.648-4.873c3.929-3.328,10.947-1.709,15.188,1.293,4.437,3.141,3,5.781,7.41,9.322,4.789,3.847,7.64,1.656,14.106,5.181,2.543,1.387,9.4,5.124,10.538,11.941.985,5.891-2.6,12.263-7.5,15.086-8.4,4.832-20.146-1.032-26.017-6.935-5.629-5.662-2.42-7.521-10.752-18.72C6638.105,2350.521,6634.757,2346.852,6635.5,2342.273Z" transform="translate(-6506.593 -2335.552)" fill="#060000"/>
          <path id="Path_8637" data-name="Path 8637" d="M6509.984,2533.877a40.213,40.213,0,0,1,13.655-3.239c5.965-.334,10.127-.727,12.982,1.71,6.072,5.186-.119,14.808,5.878,27.376.761,1.593,5.953,12.112,15.431,14.177,5.357,1.167,6.759-1.526,12.981-1.222,12.686.621,23.275,12.622,21.848,15.482-.954,1.913-6.6-1.654-12.052,1.657-5.034,3.057-3.44,8.049-8.327,11.948-5.61,4.474-13.975,2.893-17.635,2.2-7.94-1.5-8.165-4.666-17.39-7.088a52.332,52.332,0,0,0-16.41-1.467c-11.866.635-16.021,4.574-18.125,2.445-4.066-4.116,12.28-17.988,8.313-33.934-1.458-5.859-4.54-8.439-4.64-15.928A30.235,30.235,0,0,1,6509.984,2533.877Z" transform="translate(-6387.235 -2510.103)" fill="#fd9f00"/>
          <path id="Path_8638" data-name="Path 8638" d="M6632.613,2453.09c-.728,1.961-1.263,4.376-.086,5.837a6.262,6.262,0,0,0,2.857,1.712c2.51.937,3.568.341,4.114,1.01,1.2,1.473-1.109,7.808-5.845,8.827-4.714,1.014-9.565-3.723-9.076-5.987.442-2.043,5.2-1.908,5.779-4.492.292-1.3-.626-2.616-1.4-3.491l-.556.107Z" transform="translate(-6496.871 -2440.852)" fill="url(#linear-gradient)"/>
          <path id="Path_8639" data-name="Path 8639" d="M6672.68,2461.649c-.546-.669-1.6-.074-4.114-1.01a6.271,6.271,0,0,1-2.857-1.712c-1.177-1.46-.642-3.875.086-5.837l-4.216,3.523.556-.107a5.326,5.326,0,0,1,1.431,2.689,3.967,3.967,0,0,1,.879.636,10.429,10.429,0,0,0-.58,3.355,4.3,4.3,0,0,0,.58,2.835,3.9,3.9,0,0,0,2.464,1.247,8.516,8.516,0,0,0,4.663-.341C6672.921,2464.837,6673.355,2462.478,6672.68,2461.649Z" transform="translate(-6530.052 -2440.852)" opacity="0.4" fill="url(#linear-gradient-2)"/>
          <path id="Path_8640" data-name="Path 8640" d="M6643.221,2420.234a2.661,2.661,0,0,1-2.623,2.414c-2.937.016-3.263-7.718-2.549-8.161.827-.512,1.553.742,3.48.305.812-.184,1.513-1.226,1.925-.1a8.839,8.839,0,0,1,.073,3.538s.7-.573.805.117A2.027,2.027,0,0,1,6643.221,2420.234Z" transform="translate(-6508.684 -2405.99)" fill="url(#linear-gradient-3)"/>
          <path id="Path_8641" data-name="Path 8641" d="M6636.495,2383.764c-.932.948-1.446,2.789-.8,3.714.928,1.329,3.673-.058,4.8,1.567.493.713.463,1.7.718,1.686.211-.013.336-.7.458-1.263.672-3.109,1.448-3.458,1.211-4.348C6642.4,2383.31,6638.409,2381.816,6636.495,2383.764Z" transform="translate(-6506.603 -2377.924)" fill="#060000"/>
          <path id="Path_8642" data-name="Path 8642" d="M6261.1,2778.018a4.807,4.807,0,0,1,1.874-2.628c2.481-1.613,6.407-.212,6.614,1.1.134.857-1.256,2.091-2.572,2.2-1.184.1-1.686-.766-3.307-.978A5.655,5.655,0,0,0,6261.1,2778.018Z" transform="translate(-6171.27 -2728.946)" fill="url(#linear-gradient-4)"/>
          <path id="Path_8643" data-name="Path 8643" d="M6570.926,2752.613c-6.222-.3-7.625,2.389-12.981,1.222-9.478-2.065-14.67-12.584-15.431-14.177a28.7,28.7,0,0,1-2.453-7.883,4.646,4.646,0,0,0-1.536-.5c-2.041-.277-4.426.812-4.707,2.27-.4,2.09,3.966,3.063,6.98,7.7,2.475,3.807,1.354,5.459,3.063,9.288,3.908,8.768,14.13,9.859,13.593,12.955-.422,2.43-7.02,3.487-11.511,3.544-9.554.121-10.921-4.266-17.635-3.911-10.339.546-14.248,11.327-21.186,9.655a7.585,7.585,0,0,1-3.224-1.741c-1.561,3.088-2.371,5.427-1.062,6.751,2.1,2.131,6.259-1.808,18.125-2.444a52.3,52.3,0,0,1,16.41,1.467c9.225,2.423,9.451,5.587,17.39,7.089,3.662.692,12.025,2.274,17.635-2.2,4.888-3.9,3.293-8.891,8.327-11.948,5.453-3.311,11.1.256,12.052-1.658C6594.2,2765.236,6583.613,2753.235,6570.926,2752.613Z" transform="translate(-6387.251 -2690.037)" opacity="0.3" fill="url(#linear-gradient-5)"/>
          <g id="Group_2645" data-name="Group 2645" transform="translate(0 10.683)">
            <path id="Path_8644" data-name="Path 8644" d="M6209.841,2799.514l6.721-4.072a1.437,1.437,0,0,1,1-.185l6.032,1.079a.7.7,0,0,1,.287,1.261l-6.35,4.544a.7.7,0,0,1-.567.114l-6.935-1.591A.627.627,0,0,1,6209.841,2799.514Z" transform="translate(-6125.075 -2758.056)" fill="url(#linear-gradient-6)"/>
            <path id="Path_8645" data-name="Path 8645" d="M6183.63,2834.311a5.03,5.03,0,0,0,2.441-1.612c.633-.8.521-1.27,1.088-2.232,1.063-1.8,3.005-2.8,3.341-2.5.309.276-.9,1.5-.4,2.339.223.378.938.567,2.36.93.526.134.97.231,1.29.3a7.064,7.064,0,0,1-5.667,4Z" transform="translate(-6101.865 -2787.33)" fill="url(#linear-gradient-7)"/>
            <path id="Path_8646" data-name="Path 8646" d="M5414.813,2673.73c-.83.313-13.488,5.336-16.089,18.521-.21,1.065-2.244,12.392,5.454,20.394,8.631,8.973,25.25,8.75,31.849,1.25a13.442,13.442,0,0,0,2.8-5.317h0l-1.738-4.609a11.323,11.323,0,0,0-6.551-3.54c-3.8-.935-6.673.755-8.85-1.075a5.715,5.715,0,0,1-1.658-3.771c-.729-4.434,1.779-7.163,1.961-9.9.137-2.044.853-6.522-1.82-9.441A8.64,8.64,0,0,0,5414.813,2673.73Z" transform="translate(-5398.327 -2649.202)" fill="#359e56"/>
            <path id="Path_8647" data-name="Path 8647" d="M5466.905,4076.222c-.147-.811-2.773-1.546-4.074-.459-.645.54-1.09,1.634-.716,2.128.136.18-.421.5.112.5C5464,4078.414,5467.053,4077.028,5466.905,4076.222Z" transform="translate(-5455.351 -3904.768)" fill="url(#linear-gradient-8)"/>
            <path id="Path_8648" data-name="Path 8648" d="M5459.621,4030.293l-2.7-.381c1.251-1.5,1.019-6.292,1.019-6.292l2.873.64s-.327,1.314-.884,3.253A12.736,12.736,0,0,0,5459.621,4030.293Z" transform="translate(-5450.819 -3858.544)" fill="url(#linear-gradient-9)"/>
            <path id="Path_8649" data-name="Path 8649" d="M5452.054,4081.386s-3.251-.748-3.6-.1-.625,2.368,1.438,2.311S5452.237,4081.932,5452.054,4081.386Z" transform="translate(-5443.013 -3909.968)" fill="url(#linear-gradient-10)"/>
            <path id="Path_8650" data-name="Path 8650" d="M5824.61,4107.994c-.26-.783-2.963-1.144-4.1.115-.563.625-.851,1.771-.411,2.207.159.159-.347.55.182.482C5822.038,4110.57,5824.869,4108.772,5824.61,4107.994Z" transform="translate(-5775.993 -3933.496)" fill="url(#linear-gradient-11)"/>
            <path id="Path_8651" data-name="Path 8651" d="M5816.008,4065.782h-2.728c1.029-1.664.127-6.372.127-6.372l2.935.232s-.14,1.347-.42,3.344A12.817,12.817,0,0,0,5816.008,4065.782Z" transform="translate(-5770.075 -3890.607)" fill="url(#linear-gradient-12)"/>
            <path id="Path_8652" data-name="Path 8652" d="M5508.118,3113.76a125.672,125.672,0,0,1,4.23,19.319c3.314,24.053-3.73,24.821-2.415,51.475.419,8.509-7.386,28.128-8.074,28.561a8.475,8.475,0,0,1-1.08.042,10.778,10.778,0,0,1-2.75-.457c-1.237-.212-5.7-12.263-4.661-19.427.73-5.071.519-10.513.1-21.4-.068-1.764-4.59-34.312-4.59-34.312h0c-1.375,12.048-2.957,22.285-4.328,30.222-4.406,25.5-18.731,40.933-19.479,41.18a3.035,3.035,0,0,1-2.591-.176,1.783,1.783,0,0,1-.656-.737c-.383-.3.112-25.458,4.482-44.392,6.342-27.482,3.923-33.73,5.932-46.006C5473.976,3107.031,5508.118,3113.76,5508.118,3113.76Z" transform="translate(-5455.117 -3041.534)" fill="#585d5e"/>
            <path id="Path_8653" data-name="Path 8653" d="M5551.3,2704.434a44.426,44.426,0,0,1-25.3,3.707,39.575,39.575,0,0,1-12.617-4.144,32.2,32.2,0,0,0,.867-3.122c1.612-7.216-.35-11.492-1.335-15.469-1.6-6.444-1.628-5.957-2.946-11.078-2.171-8.447-2.531-17.078-1.035-18.843,4.027-4.762,11.289-4.937,15.056-5.046,4.213-.125,13.89-1.608,19.222,3.177.093.086-1,.668-.461,1.3a34.739,34.739,0,0,1,3.76,5.388,35.926,35.926,0,0,1,3.165,7.809,67.052,67.052,0,0,1,2.446,12.989c.02.23.036.443.053.635C5553.141,2694.52,5552.176,2700.421,5551.3,2704.434Z" transform="translate(-5496.601 -2628.055)" fill="#4cc171"/>
            <path id="Path_8654" data-name="Path 8654" d="M5809.426,4116.621s-3.325-.286-3.583.4-.286,2.431,1.749,2.088S5809.684,4117.136,5809.426,4116.621Z" transform="translate(-5763.303 -3941.808)" fill="url(#linear-gradient-13)"/>
            <g id="Group_2644" data-name="Group 2644" transform="translate(20.995)">
              <path id="Path_8655" data-name="Path 8655" d="M5618.212,2522.426a7.291,7.291,0,0,0,.592-5.258c-.548-2.274-.753-2.62-1.175-3.1l-.6-.631-.076-.055a8.59,8.59,0,0,0-2.3-.766c-1.071-.054-3.251,3.778-4.5,9.685q-.152.315-.3.639c-.618,1.34-1.149,2.657-1.605,3.942-7.236.61-8.241,1.458-8.273,1.947-.067,1.03,4.055,2.221,7.157,2.674,6.763.988,13.717-.792,13.684-2.05-.013-.548-1.357-1.262-7.091-2.011q.2-1.42.4-2.84C5614.588,2524.5,5617.252,2524.047,5618.212,2522.426Z" transform="translate(-5599.972 -2504.862)" fill="url(#linear-gradient-14)"/>
              <path id="Path_8656" data-name="Path 8656" d="M5673.577,2445.636a7.007,7.007,0,0,1-2.372,3.7,3.117,3.117,0,0,0-.845.54.978.978,0,0,0-.161.185c-.7,1.032.755,2.852.269,3.268-.352.3-1.452-.52-1.684-.24-.217.263.64,1.157.386,1.475-.191.24-.754-.176-1.262.135-.252.154-.238.334-.617.911a6.007,6.007,0,0,1-.672.858c-.908.893-2.781.809-3.008.295-.063-.144.045-.221.054-.643a3.271,3.271,0,0,0-.134-.884,8.521,8.521,0,0,0-1.692-2.252,6.054,6.054,0,0,1-1.556-3.134c-.016-.134-.021-.234-.024-.306a6.93,6.93,0,0,1,1.366-4.44c1.541-1.745,3.551-.187,5.936-1.689,2.753-1.732,2.32-5.216,3.573-5.254C5672.515,2438.115,5674.48,2442.3,5673.577,2445.636Z" transform="translate(-5653.977 -2438.157)" fill="#060000"/>
              <path id="Path_8657" data-name="Path 8657" d="M5740.542,2574.748c-.281-.725-1.212-.361-1.426.423a1.483,1.483,0,0,0,1.112,1.847C5741.011,2577.061,5740.92,2575.725,5740.542,2574.748Z" transform="translate(-5724.586 -2560.176)" fill="url(#linear-gradient-15)"/>
            </g>
            <path id="Path_8658" data-name="Path 8658" d="M5745.06,2564.57l.671,1.609s.672,1.93,1.558,1.207c.724-.591.857-.538.881-.5a.09.09,0,0,1,.005.017c.01,0,.02-.385.027-.724a6.208,6.208,0,0,1,.376,2.118,3.441,3.441,0,0,1-.7,2.573,2.659,2.659,0,0,1-1.826.778,7.029,7.029,0,0,1-1.934-.724,9.352,9.352,0,0,0,2.2-1.1c.292-.8-.731-1.549-1.129-3.458A6.984,6.984,0,0,1,5745.06,2564.57Z" transform="translate(-5708.117 -2551.408)" fill="#26264f"/>
            <path id="Path_8659" data-name="Path 8659" d="M5597.39,2913.938a44.429,44.429,0,0,1-25.3,3.707,39.573,39.573,0,0,1-12.617-4.144,32.073,32.073,0,0,0,.867-3.121c8.807,4.016,8.56-5.443,14.72-5.667,6.753-.247,8.079-6.825,5.867-12.5s3.605-7.265,3.605-7.265c7.347-2.717,11.427.628,13.678,5.654.02.23.037.444.053.635C5599.232,2904.024,5598.267,2909.925,5597.39,2913.938Z" transform="translate(-5542.692 -2837.559)" opacity="0.97" fill="url(#linear-gradient-16)"/>
            <path id="Path_8660" data-name="Path 8660" d="M5801.31,2699.03a8.406,8.406,0,0,1,2.762,3.43,25.478,25.478,0,0,1-8.914,11.079c-8.617,5.884-21.251,6.082-30.051-.628-10.515-8.016-12.271-23.388-7.855-29.97.508-.758,2.18-3.25,4.775-3.535,1.639-.18,3.869.493,7.393,4.61,7.342,8.579,4.749,13.936,9.086,16.446C5785.011,2704.224,5794.677,2694.4,5801.31,2699.03Z" transform="translate(-5717.854 -2654.264)" fill="#359e56"/>
          </g>
          <g id="Group_2647" data-name="Group 2647" transform="translate(179.538 53.692)">
            <path id="Path_8661" data-name="Path 8661" d="M7224.34,2865.337a.373.373,0,0,1-.355-.353,19.694,19.694,0,0,0-2.732-9.284c-1.408-2.263-3.143-3.655-4.642-3.721h0c-5.46-.234-7.166,12.222-7.182,12.348a.374.374,0,0,1-.741-.1c.071-.542,1.816-13.259,7.954-12.995h.006c1.771.079,3.681,1.564,5.243,4.072a20.462,20.462,0,0,1,2.843,9.639.372.372,0,0,1-.354.391A.189.189,0,0,1,7224.34,2865.337Z" transform="translate(-7199.727 -2851.231)" fill="url(#linear-gradient-17)"/>
            <path id="Path_8662" data-name="Path 8662" d="M7123.4,2988.534l7.023,3.953,4.955-13.139-6.37-18.2-2.056.406-4.243,25.535A1.39,1.39,0,0,0,7123.4,2988.534Z" transform="translate(-7122.686 -2949.706)" fill="#4cc171"/>
            <path id="Path_8663" data-name="Path 8663" d="M7164.752,2979.339l-6.369-18.2-1.213.239a38.861,38.861,0,0,0-.24,5.783c.206,6.108,1.727,7.874.762,12.085-.8,3.5-2.229,3.918-2.214,6.3.018,2.592,1.727,4.84,3.8,6.641l.519.292Z" transform="translate(-7152.064 -2949.696)" fill="#3da85f" opacity="0.52"/>
            <path id="Path_8664" data-name="Path 8664" d="M7183.38,2961.15l26.794,1.2,7.582,28.968-32.961,1.167Z" transform="translate(-7177.061 -2949.706)" fill="#4cc171"/>
            <path id="Path_8665" data-name="Path 8665" d="M7255.311,2868.917a.374.374,0,0,1-.35-.3c-.062-.327-1.478-8.062,1.175-11.707a4.323,4.323,0,0,1,3.042-1.821c6.468-.84,9.8,13.091,9.938,13.684a.373.373,0,0,1-.727.169c-.032-.139-3.311-13.872-9.114-13.115a3.563,3.563,0,0,0-2.535,1.52c-2.465,3.389-1.061,11.055-1.045,11.132a.373.373,0,0,1-.3.434A.323.323,0,0,1,7255.311,2868.917Z" transform="translate(-7240.802 -2854.652)" fill="url(#linear-gradient-18)"/>
            <g id="Group_2646" data-name="Group 2646" transform="translate(9.345 12.051)" opacity="0.3">
              <path id="Path_8666" data-name="Path 8666" d="M7236.209,2967.567l-13.292-.6a3.607,3.607,0,0,0-1.27,2.241c-.392,4.032,8.86,5.779,9.509,11.359.468,4.025-3.727,8.458-7.376,10.353-3.845,2-6.334.786-8.977,3.075a8.291,8.291,0,0,0-2.363,3.646l31.349-1.11Z" transform="translate(-7212.44 -2966.97)" fill="url(#linear-gradient-19)"/>
            </g>
            <ellipse id="Ellipse_2285" data-name="Ellipse 2285" cx="1.042" cy="1.04" rx="1.042" ry="1.04" transform="translate(13.467 13.281)" fill="#3d8e57" opacity="0.84"/>
            <ellipse id="Ellipse_2286" data-name="Ellipse 2286" cx="1.042" cy="1.04" rx="1.042" ry="1.04" transform="translate(27.056 13.795)" fill="#3d8e57" opacity="0.84"/>
          </g>
          <path id="Path_8667" data-name="Path 8667" d="M7218.778,2833.457a11.014,11.014,0,0,1-5.143.1l-1.175,2.907a4.228,4.228,0,0,0,2.927,1.164c1.627-.123,3.378-.987,3.522-.144s3.5,1.764,5.088-.321S7221.16,2832.692,7218.778,2833.457Z" transform="translate(-7023.575 -2781.485)" fill="url(#linear-gradient-20)"/>
          <path id="Path_8668" data-name="Path 8668" d="M6778.185,2540.113c-.4-4.52-1.871-6.5-.806-7.479,1.646-1.508,6.862,1.67,8.41,2.629,8.608,5.33,11.574,11.31,15.991,16.011,3.822,4.069,10.379,8.934,22.208,11.406q-.653,2.77-1.307,5.54c-10.576,2.626-16.667.7-20.248-1.467-7.148-4.326-9.007-12.472-17.146-13.687-3.426-.511-5.631.553-7.208-1.172C6776.154,2549.79,6778.785,2546.8,6778.185,2540.113Z" transform="translate(-6633.453 -2511.756)" fill="#cf904b"/>
        </g>
        <g id="Group_2650" data-name="Group 2650" transform="translate(6.828 86.906)">
          <path id="Path_8669" data-name="Path 8669" d="M4917.917,2097.431c0,12.9-10.1,23.042-23.021,22.646-13.441-.412-24.745-12-24.745-25.86s11.3-23.927,24.745-22.53C4907.811,2073.03,4917.917,2084.535,4917.917,2097.431Z" transform="translate(-4870.15 -2070.446)" fill="url(#linear-gradient-21)"/>
          <path id="Path_8670" data-name="Path 8670" d="M4951.436,2086.751c0,12.9-10.1,23.041-23.02,22.646-13.442-.412-24.746-12-24.746-25.86s11.3-23.927,24.746-22.53C4941.331,2062.35,4951.436,2073.855,4951.436,2086.751Z" transform="translate(-4900.18 -2060.877)" fill="url(#linear-gradient-22)"/>
          <path id="Path_8671" data-name="Path 8671" d="M4960.466,2096.256c0,12.328-9.669,22.01-22.007,21.612-12.816-.415-23.579-11.47-23.579-24.679s10.762-22.816,23.579-21.507C4950.8,2072.944,4960.466,2083.927,4960.466,2096.256Z" transform="translate(-4910.223 -2070.45)" fill="url(#linear-gradient-23)"/>
          <path id="Path_8672" data-name="Path 8672" d="M4966.9,2103.046a20.489,20.489,0,0,1-21.281,20.874c-12.373-.414-22.747-11.093-22.747-23.836a20.439,20.439,0,0,1,22.747-20.775C4957.541,2080.514,4966.9,2091.123,4966.9,2103.046Z" transform="translate(-4917.38 -2077.289)" fill="url(#linear-gradient-24)"/>
          <g id="Group_2649" data-name="Group 2649" transform="translate(17.193 6.07)">
            <path id="Path_8673" data-name="Path 8673" d="M5046.2,2119.186h0a1.3,1.3,0,0,1,1.149,1.273v2.195a32.322,32.322,0,0,1,3.811.66q1.408.329,2.8.786a1.282,1.282,0,0,1,.875,1.317l-.27,2.753a1.035,1.035,0,0,1-1.477.856,15.841,15.841,0,0,0-1.875-.7,17.043,17.043,0,0,0-3.538-.66l-.325-.027v6.287a16.565,16.565,0,0,1,7.312,3.731,7.88,7.88,0,0,1,2.343,5.825,7.661,7.661,0,0,1-2.591,6.055,11.838,11.838,0,0,1-7.329,2.575v2.423a1.1,1.1,0,0,1-1.149,1.119h-.021a1.22,1.22,0,0,1-1.154-1.215v-2.39l-.511-.023a33.542,33.542,0,0,1-4.246-.452,27.645,27.645,0,0,1-2.934-.673,1.262,1.262,0,0,1-.92-1.3l.317-3.538a1.121,1.121,0,0,1,1.567-.923,23.128,23.128,0,0,0,2.58.845,22.708,22.708,0,0,0,4.125.688l.021-6.993a15.19,15.19,0,0,1-7.119-3.486,7.976,7.976,0,0,1-2.358-5.933,6.93,6.93,0,0,1,2.557-5.762q2.541-2.013,7.207-2.009v-2.244A1.043,1.043,0,0,1,5046.2,2119.186Zm-1.151,8.391a3.879,3.879,0,0,0-2.3.808,2.353,2.353,0,0,0-.824,1.887,2.528,2.528,0,0,0,.763,1.875,5.4,5.4,0,0,0,2.357,1.2Zm2.036,12.663v6.413a3.557,3.557,0,0,0,2.458-.762,2.74,2.74,0,0,0,.856-2.158,2.944,2.944,0,0,0-.795-2.111A5.833,5.833,0,0,0,5047.084,2140.239Z" transform="translate(-5035.28 -2119.18)" fill="url(#linear-gradient-25)"/>
          </g>
          <path id="Path_8674" data-name="Path 8674" d="M4941.766,2106.963c.72-7.086,7.246-10.087,6.394-16.605-.525-4.018-3.577-7.4-6.98-10.048a20.431,20.431,0,0,0-18.31,20.772c0,12.743,10.375,23.421,22.747,23.836a21.432,21.432,0,0,0,3.515-.172C4944.218,2119.867,4941.148,2113.051,4941.766,2106.963Z" transform="translate(-4917.381 -2078.287)" opacity="0.3" fill="url(#linear-gradient-26)"/>
        </g>
        <g id="Group_2652" data-name="Group 2652" transform="translate(6.827 145.953)">
          <path id="Path_8675" data-name="Path 8675" d="M4910.593,2658.948a18.826,18.826,0,0,1-19.5,19.179,22.041,22.041,0,0,1-20.957-21.9,18.777,18.777,0,0,1,20.957-19.08A22.179,22.179,0,0,1,4910.593,2658.948Z" transform="translate(-4870.14 -2636.094)" fill="url(#linear-gradient-21)"/>
          <path id="Path_8676" data-name="Path 8676" d="M4938.983,2649.9a18.826,18.826,0,0,1-19.5,19.179,22.041,22.041,0,0,1-20.957-21.9,18.777,18.777,0,0,1,20.957-19.08A22.18,22.18,0,0,1,4938.983,2649.9Z" transform="translate(-4895.575 -2627.987)" fill="url(#linear-gradient-22)"/>
          <path id="Path_8677" data-name="Path 8677" d="M4946.635,2657.948a17.966,17.966,0,0,1-18.637,18.3,21.037,21.037,0,0,1-19.968-20.9A17.922,17.922,0,0,1,4928,2637.138,21.164,21.164,0,0,1,4946.635,2657.948Z" transform="translate(-4904.085 -2636.094)" fill="url(#linear-gradient-29)"/>
          <path id="Path_8678" data-name="Path 8678" d="M4952.086,2663.69a17.351,17.351,0,0,1-18.022,17.677,20.321,20.321,0,0,1-19.264-20.185,17.31,17.31,0,0,1,19.264-17.594A20.44,20.44,0,0,1,4952.086,2663.69Z" transform="translate(-4910.15 -2641.878)" fill="url(#linear-gradient-30)"/>
          <g id="Group_2651" data-name="Group 2651" transform="translate(14.564 5.14)">
            <path id="Path_8679" data-name="Path 8679" d="M5019.266,2677.362h0a1.1,1.1,0,0,1,.973,1.079v1.859a27.316,27.316,0,0,1,3.229.559q1.19.279,2.367.665a1.086,1.086,0,0,1,.742,1.115l-.229,2.331a.875.875,0,0,1-1.25.725,13.381,13.381,0,0,0-1.588-.59,14.383,14.383,0,0,0-3-.559l-.274-.023v5.323a14.032,14.032,0,0,1,6.193,3.16,6.675,6.675,0,0,1,1.984,4.933,6.492,6.492,0,0,1-2.194,5.129,10.016,10.016,0,0,1-6.207,2.18v2.052a.935.935,0,0,1-.974.948h-.018a1.033,1.033,0,0,1-.977-1.029V2705.2l-.432-.02a28.59,28.59,0,0,1-3.6-.382,23.289,23.289,0,0,1-2.484-.571,1.069,1.069,0,0,1-.78-1.1l.269-3a.95.95,0,0,1,1.327-.782,19.735,19.735,0,0,0,2.186.716,19.141,19.141,0,0,0,3.494.582l.018-5.922a12.862,12.862,0,0,1-6.03-2.953,6.753,6.753,0,0,1-2-5.024,5.868,5.868,0,0,1,2.166-4.88,9.617,9.617,0,0,1,6.1-1.7v-1.9A.879.879,0,0,1,5019.266,2677.362Zm-.975,7.106a3.293,3.293,0,0,0-1.945.684,1.993,1.993,0,0,0-.7,1.6,2.142,2.142,0,0,0,.646,1.588,4.558,4.558,0,0,0,2,1.016Zm1.724,10.723v5.431a3.012,3.012,0,0,0,2.081-.646,2.323,2.323,0,0,0,.725-1.828,2.5,2.5,0,0,0-.673-1.788A4.954,4.954,0,0,0,5020.014,2695.191Z" transform="translate(-5010.02 -2677.358)" fill="url(#linear-gradient-31)"/>
          </g>
          <path id="Path_8680" data-name="Path 8680" d="M4930.8,2667.012c.609-6,6.136-8.542,5.416-14.063-.445-3.4-3.029-6.27-5.912-8.509a17.3,17.3,0,0,0-15.505,17.591,20.321,20.321,0,0,0,19.264,20.186,18.223,18.223,0,0,0,2.977-.145C4932.88,2677.939,4930.279,2672.168,4930.8,2667.012Z" transform="translate(-4910.15 -2642.727)" opacity="0.3" fill="url(#linear-gradient-32)"/>
        </g>
        <g id="Group_2654" data-name="Group 2654" transform="translate(0 8.538)">
          <path id="Path_8681" data-name="Path 8681" d="M4869.481,1357.872c0,17.525-13.732,31.313-31.284,30.774-18.266-.56-33.628-16.3-33.628-35.141s15.362-32.514,33.628-30.617C4855.749,1324.711,4869.481,1340.345,4869.481,1357.872Z" transform="translate(-4804.57 -1321.2)" fill="url(#linear-gradient-33)"/>
          <path id="Path_8682" data-name="Path 8682" d="M4915.032,1343.351c0,17.525-13.732,31.313-31.283,30.774-18.266-.56-33.628-16.3-33.628-35.141s15.361-32.514,33.628-30.617C4901.3,1310.192,4915.032,1325.826,4915.032,1343.351Z" transform="translate(-4845.378 -1308.192)" fill="url(#linear-gradient-22)"/>
          <path id="Path_8683" data-name="Path 8683" d="M4927.308,1356.265c0,16.754-13.14,29.911-29.906,29.37-17.418-.563-32.042-15.586-32.042-33.537s14.624-31.006,32.042-29.226C4914.169,1324.586,4927.308,1339.511,4927.308,1356.265Z" transform="translate(-4859.031 -1321.198)" fill="url(#linear-gradient-23)"/>
          <path id="Path_8684" data-name="Path 8684" d="M4936.041,1365.477c0,16.2-12.714,28.909-28.919,28.366-16.813-.563-30.912-15.074-30.912-32.391s14.1-29.931,30.912-28.232C4923.328,1334.858,4936.041,1349.276,4936.041,1365.477Z" transform="translate(-4868.751 -1330.477)" fill="url(#linear-gradient-24)"/>
          <g id="Group_2653" data-name="Group 2653" transform="translate(23.372 8.248)">
            <path id="Path_8685" data-name="Path 8685" d="M5043.874,1387.419h0a1.766,1.766,0,0,1,1.561,1.73v2.983a44.266,44.266,0,0,1,5.181.9q1.913.448,3.8,1.068a1.743,1.743,0,0,1,1.189,1.79l-.367,3.74a1.406,1.406,0,0,1-2.007,1.163,21.655,21.655,0,0,0-2.548-.948,23.115,23.115,0,0,0-4.809-.9l-.44-.036v8.543c4.5,1.256,7.8,2.946,9.937,5.071a10.709,10.709,0,0,1,3.184,7.916,10.411,10.411,0,0,1-3.521,8.229q-3.543,3.117-9.958,3.5v3.292a1.5,1.5,0,0,1-1.562,1.521h-.027a1.656,1.656,0,0,1-1.567-1.651v-3.247l-.7-.031a45.644,45.644,0,0,1-5.768-.615,37.574,37.574,0,0,1-3.988-.915,1.715,1.715,0,0,1-1.25-1.773l.432-4.808a1.525,1.525,0,0,1,2.13-1.255,31.38,31.38,0,0,0,3.506,1.148,30.815,30.815,0,0,0,5.606.935l.028-9.5q-6.477-1.6-9.675-4.737a10.837,10.837,0,0,1-3.2-8.062,9.417,9.417,0,0,1,3.475-7.831c2.3-1.824,5.574-2.732,9.794-2.73v-3.05A1.408,1.408,0,0,1,5043.874,1387.419Zm-1.566,11.4a5.282,5.282,0,0,0-3.121,1.1,3.2,3.2,0,0,0-1.119,2.565,3.441,3.441,0,0,0,1.036,2.549,7.36,7.36,0,0,0,3.2,1.632Zm2.768,17.207v8.714a4.837,4.837,0,0,0,3.34-1.036,3.725,3.725,0,0,0,1.162-2.933,4,4,0,0,0-1.081-2.868A7.943,7.943,0,0,0,5045.076,1416.029Z" transform="translate(-5029.04 -1387.412)" fill="url(#linear-gradient-37)"/>
          </g>
          <path id="Path_8686" data-name="Path 8686" d="M4901.889,1370.81c.977-9.63,9.847-13.707,8.689-22.566-.713-5.46-4.861-10.061-9.486-13.654-14.031,1.468-24.881,13.063-24.881,28.227,0,17.317,14.1,31.828,30.912,32.391a29.16,29.16,0,0,0,4.777-.233C4905.222,1388.344,4901.05,1379.083,4901.889,1370.81Z" transform="translate(-4868.751 -1331.841)" opacity="0.3" fill="url(#linear-gradient-26)"/>
        </g>
      </g>
    </g>
  </g>
</svg>
