<svg xmlns="http://www.w3.org/2000/svg" width="12.625" height="12.625" viewBox="0 0 12.625 12.625">
  <path id="XMLID_1666_" d="M6.313,0a6.313,6.313,0,1,0,6.313,6.313A6.313,6.313,0,0,0,6.313,0ZM6.82,11.5a.268.268,0,0,0-.1.014V8.536c.714-.014,1.359-.027,1.949-.069A7.868,7.868,0,0,1,6.82,11.5ZM5.8,11.5A7.932,7.932,0,0,1,3.952,8.467c.576.041,1.235.069,1.949.069v2.978C5.873,11.513,5.846,11.5,5.8,11.5ZM1.1,6.313a6.21,6.21,0,0,1,.1-1.015c.3-.055.878-.137,1.688-.22a7.29,7.29,0,0,0-.11,1.249,8.675,8.675,0,0,0,.1,1.235c-.8-.082-1.386-.165-1.688-.22A8.667,8.667,0,0,1,1.1,6.313Zm2.511,0A6.689,6.689,0,0,1,3.746,5c.631-.041,1.345-.082,2.154-.082v2.8c-.8-.014-1.523-.041-2.168-.1A7.648,7.648,0,0,1,3.609,6.313Zm3.2-5.187A8.363,8.363,0,0,1,8.659,4.158c-.576-.041-1.221-.069-1.935-.069V1.112C6.752,1.112,6.779,1.125,6.807,1.125ZM5.9,1.112V4.089c-.714.014-1.359.027-1.935.069A8.389,8.389,0,0,1,5.8,1.125C5.846,1.125,5.873,1.112,5.9,1.112Zm.823,6.6v-2.8c.8.014,1.523.041,2.154.082A6.722,6.722,0,0,1,8.892,7.63C8.261,7.671,7.534,7.7,6.724,7.712ZM9.729,5.077c.81.082,1.386.165,1.688.22a5,5,0,0,1,.11,1.015,6.21,6.21,0,0,1-.1,1.015c-.3.055-.878.137-1.688.22a7.316,7.316,0,0,0,.1-1.249A7.092,7.092,0,0,0,9.729,5.077Zm1.441-.659c-.384-.055-.933-.124-1.633-.192a9.012,9.012,0,0,0-1.386-2.8A5.23,5.23,0,0,1,11.17,4.419Zm-6.7-2.992A8.495,8.495,0,0,0,3.088,4.213c-.686.055-1.235.137-1.633.192A5.285,5.285,0,0,1,4.474,1.427ZM1.455,8.206c.384.055.933.124,1.619.192a8.5,8.5,0,0,0,1.372,2.786A5.279,5.279,0,0,1,1.455,8.206Zm6.724,2.978A8.411,8.411,0,0,0,9.551,8.412c.686-.055,1.235-.137,1.619-.192A5.3,5.3,0,0,1,8.179,11.184Z" fill="#85dae9"/>
</svg>
