<svg xmlns="http://www.w3.org/2000/svg" width="15.295" height="14.658" viewBox="0 0 15.295 14.658">
  <g id="work-svgrepo-com" transform="translate(0 0)">
    <path id="Path_4817" data-name="Path 4817" d="M9.1,17.01h5.1v.637H9.1ZM18.976,10H4.319A.309.309,0,0,0,4,10.306v6.7H8.461v-.319a.319.319,0,0,1,.319-.319h5.736a.319.319,0,0,1,.319.319v.319h4.461v-6.7A.309.309,0,0,0,18.976,10Z" transform="translate(-4 -6.814)" fill="#85dae9"/>
    <path id="Path_4818" data-name="Path 4818" d="M19.295,15.834v3.5a.324.324,0,0,1-.319.324H4.319A.324.324,0,0,1,4,19.334v-3.5H8.461v.319a.319.319,0,0,0,.319.319h5.736a.319.319,0,0,0,.319-.319v-.319ZM13.878,5H9.417c-1.494,0-2.868.483-2.868,3.184H7.824c0-1.924.73-1.909,1.593-1.909h4.461c.863,0,1.593-.015,1.593,1.909h1.275C16.746,5.483,15.372,5,13.878,5Z" transform="translate(-4 -5)" fill="#85dae9"/>
  </g>
</svg>
